<svg xmlns="http://www.w3.org/2000/svg" viewBox="0 0 60.43 61.88"><defs><style>.cls-1{fill:#ba8b25;}.cls-2{fill:#fcc03d;}.cls-3{fill:none;stroke:#000;stroke-miterlimit:10;stroke-width:0.5px;}</style></defs><g id="圖層_2" data-name="圖層 2"><g id="圖層_1-2" data-name="圖層 1"><path class="cls-1" d="M47.55,4.45a28.44,28.44,0,0,1,3.83,2.94c1.51,1.32,1,.81,2.75,2.38,2,1.79,2.76,2.45,4.34,3.79.72.6,1.32,1.08,1.71,1.4a42.17,42.17,0,0,1-.72,5.65c-.15.79-.31,1.47-.35,1.64s-.47,1.93-1,3.49a34.56,34.56,0,0,1-2.58,5.61l-.09.07c-1.33-1-3.12-2.28-5.2-3.94-.68-.54-.44-.36-3-2.46-4.28-3.52-5.38-4.38-6.13-6a7.34,7.34,0,0,1-.65-2.63,5.85,5.85,0,0,1,.35-2.22q1.32-2.55,2.85-5.21T46.58,4.1l.08-.17A6.76,6.76,0,0,1,47.55,4.45Z"/><path class="cls-1" d="M43.06,4.53a5.25,5.25,0,0,1,.48-.34,50.83,50.83,0,0,0-3,4.28l-.28-.19c-.8-1-1.88-1.73-2.7-2.69A7,7,0,0,1,35.8.68L35.7.46A2.91,2.91,0,0,1,37.18.28,4.86,4.86,0,0,1,39.3,1.46c.93.69,2.15,1.64,3.56,2.84Z"/><path class="cls-2" d="M47.83,30.75l-1.24-1c-1.5-1.22-3-2.47-4.48-3.69-2.22-1.79-2.78-2.2-3.45-3.08A9.55,9.55,0,0,1,37,19.34a10,10,0,0,1-.2-1.05,20.27,20.27,0,0,1,.62-3.24,19.74,19.74,0,0,1,1.32-3.37,34.15,34.15,0,0,1,1.8-3.21,50.83,50.83,0,0,1,3-4.28,3.29,3.29,0,0,1,2.24-.55,2.82,2.82,0,0,1,.88.29l-.08.17q-1.45,2.31-2.91,4.84t-2.85,5.21a5.85,5.85,0,0,0-.35,2.22A7.34,7.34,0,0,0,41.12,19c.75,1.64,1.85,2.5,6.13,6,2.55,2.1,2.31,1.92,3,2.46,2.08,1.66,3.87,3,5.2,3.94L52,34.21C50.4,32.85,49,31.68,47.83,30.75Z"/><path class="cls-2" d="M35.62,40a17.53,17.53,0,0,1-5.15-6.12c-1.75-3.67-.09-8.19.5-9.59l.29-.23,5.66-4.68h0A9.55,9.55,0,0,0,38.66,23c.67.88,1.23,1.29,3.45,3.08,1.51,1.22,3,2.47,4.48,3.69l1.24,1c-2.34,1.88-4.35,3.45-5.91,4.67l-3.92,3-2.23,1.71Z"/><path class="cls-2" d="M33.23,42.07c-1.41,1-3.08,2.29-5.31,3.85-1.66,1.15-1.89,1.28-4.13,2.84l-.88.62-.23-.31c-.45-.44-4.21-4.14-5.32-7.24A5.66,5.66,0,0,1,17,39.22a6.08,6.08,0,0,1,.81-2.15c.43-.84,1-2,1.84-3.24l0,0c.74-.56,1.46-1.13,2.24-1.76,1.65-1.35,1.92-1.7,3.86-3.39.13-.12.25-.23.4-.35,1.88-1.61,4.1-3.4,4.89-4-.59,1.4-2.25,5.92-.5,9.59A17.53,17.53,0,0,0,35.62,40l.15.18C34.77,40.91,34,41.48,33.23,42.07Z"/><path class="cls-2" d="M4.88,37.47A6.92,6.92,0,0,1,2.34,33a5.82,5.82,0,0,1,1.89-5l4.23-4,.06.06C22,12.28,31.82,3.71,33.93,1.7A5.41,5.41,0,0,1,35.7.46l.1.22a7,7,0,0,0,1.73,4.91c.82,1,1.9,1.71,2.7,2.69l.28.19a34.15,34.15,0,0,0-1.8,3.21,19.74,19.74,0,0,0-1.32,3.37,20.27,20.27,0,0,0-.62,3.24,10,10,0,0,0,.2,1.05h0L31.26,24l-.29.23c-.79.63-3,2.42-4.89,4-.15.12-.27.23-.4.35-1.94,1.69-2.21,2-3.86,3.39-.78.63-1.5,1.2-2.24,1.76L17.9,35.05l-1,.76-2.56,1.87c-.88.63-2.33,1.75-4.87,3.94l-.07.06c-.76-.72-1.53-1.43-2.3-2.14l-2-1.84a2.09,2.09,0,0,0-.22-.2Z"/><path class="cls-1" d="M16.76,53.83c1.24-.87,1.47-1.1,3.59-2.63,1-.71,1.79-1.28,2.56-1.82l.88-.62c2.24-1.56,2.47-1.69,4.13-2.84,2.23-1.56,3.9-2.8,5.31-3.85.8-.59,1.54-1.16,2.54-1.92L38,38.44l3.92-3c1.56-1.22,3.57-2.79,5.91-4.67,1.15.93,2.57,2.1,4.2,3.46-4.54,3.68-8,6.37-9.6,7.55l-2,1.44c-2.15,1.52-3.34,2.3-8.29,5.86-4.67,3.35-6.51,4.73-10.46,7.49-2,1.39-3.73,2.6-5.17,3.58l.12-.62-3.74-3.14.07-.09C14.62,55.29,15.91,54.42,16.76,53.83Z"/><path class="cls-1" d="M8.6,43.85c-.27.74-.52,1.46-.77,2.18a8,8,0,0,0,.56,5.8,8.28,8.28,0,0,0,.89,1.43,22.17,22.17,0,0,1-3.42-3.14,6.6,6.6,0,0,1-1.7-2.72,4.91,4.91,0,0,1-.07-2.17,5.61,5.61,0,0,1,1.1-2.56c.59-1,1.17-2,1.75-3l.13-.13c.77.71,1.54,1.42,2.3,2.14l.07-.06C9.16,42.35,8.88,43.09,8.6,43.85Z"/><path class="cls-2" d="M1.18,43.64a18.22,18.22,0,0,1,2-3.29L5,37.76l.07-.06,2,1.84-.13.13c-.58,1-1.16,2-1.75,3a5.61,5.61,0,0,0-1.1,2.56,4.91,4.91,0,0,0,.07,2.17,6.6,6.6,0,0,0,1.7,2.72,22.17,22.17,0,0,0,3.42,3.14A9.46,9.46,0,0,0,12,55.61l.92.76,3.74,3.14-.12.62-2.23,1.5c-4.63-4-8.13-6.93-10.48-8.71A9,9,0,0,1,1,49.65a6.54,6.54,0,0,1-.69-3.16A7,7,0,0,1,1.18,43.64Z"/><path class="cls-2" d="M16.76,53.83c-.85.59-2.14,1.46-3.81,2.45l-.07.09L12,55.61a9.46,9.46,0,0,1-2.68-2.35,8.28,8.28,0,0,1-.89-1.43A8,8,0,0,1,7.83,46c.25-.72.5-1.44.77-2.18s.56-1.5.84-2.23c2.54-2.19,4-3.31,4.87-3.94l2.56-1.87,1-.76,1.68-1.26,0,0c-.8,1.29-1.41,2.4-1.84,3.24A6.08,6.08,0,0,0,17,39.22a5.66,5.66,0,0,0,.39,2.61c1.11,3.1,4.87,6.8,5.32,7.24l.23.31c-.77.54-1.58,1.11-2.56,1.82C18.23,52.73,18,53,16.76,53.83Z"/><path class="cls-3" d="M3.17,40.35a18.22,18.22,0,0,0-2,3.29,7,7,0,0,0-.92,2.85A6.54,6.54,0,0,0,1,49.65a9,9,0,0,0,2.84,3.27c2.35,1.78,5.85,4.73,10.48,8.71l.07.06"/><path class="cls-3" d="M14.27,61.64h0l2.23-1.5c1.44-1,3.2-2.19,5.17-3.58,3.95-2.76,5.79-4.14,10.46-7.49,4.95-3.56,6.14-4.34,8.29-5.86l2-1.44c1.63-1.18,5.06-3.87,9.6-7.55l3.41-2.79.09-.07.27-.22"/><path class="cls-3" d="M55.34,31.69c0-.08.09-.16.14-.24a.47.47,0,0,0,.05-.1,34.56,34.56,0,0,0,2.58-5.61c.53-1.56,1-3.31,1-3.49s.2-.85.35-1.64A42.17,42.17,0,0,0,60.18,15"/><path class="cls-3" d="M60.18,15c-.39-.32-1-.8-1.71-1.4-1.58-1.34-2.29-2-4.34-3.79-1.79-1.57-1.24-1.06-2.75-2.38a28.44,28.44,0,0,0-3.83-2.94,6.76,6.76,0,0,0-.89-.52,2.82,2.82,0,0,0-.88-.29,3.29,3.29,0,0,0-2.24.55,5.25,5.25,0,0,0-.48.34v0"/><path class="cls-3" d="M8.52,24.11C22,12.28,31.82,3.71,33.93,1.7A5.41,5.41,0,0,1,35.7.46,2.91,2.91,0,0,1,37.18.28,4.86,4.86,0,0,1,39.3,1.46c.93.69,2.15,1.64,3.56,2.84"/><path class="cls-3" d="M4.23,28.08l4.23-4,.52-.5"/><path class="cls-3" d="M4.23,28.08a5.82,5.82,0,0,0-1.89,5,6.92,6.92,0,0,0,2.54,4.44l.08.07"/><path class="cls-3" d="M3.17,40.35,5,37.76"/><path class="cls-3" d="M36.77,18.29a10,10,0,0,0,.2,1.05A9.55,9.55,0,0,0,38.66,23c.67.88,1.23,1.29,3.45,3.08,1.51,1.22,3,2.47,4.48,3.69l1.24,1c1.15.93,2.57,2.1,4.2,3.46l.11.09"/><path class="cls-3" d="M36.77,18.29a20.27,20.27,0,0,1,.62-3.24,19.74,19.74,0,0,1,1.32-3.37,34.15,34.15,0,0,1,1.8-3.21,50.83,50.83,0,0,1,3-4.28l.08-.1"/><path class="cls-3" d="M40.82,14.15a5.85,5.85,0,0,0-.35,2.22A7.34,7.34,0,0,0,41.12,19c.75,1.64,1.85,2.5,6.13,6,2.55,2.1,2.31,1.92,3,2.46,2.08,1.66,3.87,3,5.2,3.94l0,0,.15.11"/><path class="cls-3" d="M40.82,14.15q1.32-2.55,2.85-5.21T46.58,4.1"/><path class="cls-3" d="M15.52,27.58a10.2,10.2,0,0,0,4.24-2.68"/><path class="cls-3" d="M16,25a8,8,0,0,1,4,3,3.94,3.94,0,0,0,.73.89"/><path class="cls-3" d="M23.8,20.28a2.44,2.44,0,0,0,2-1"/><path class="cls-3" d="M22.86,17.19l2.62,1.58a2.8,2.8,0,0,1,.73.55,3.43,3.43,0,0,1,.45.82,7.23,7.23,0,0,0,2.05,2.58"/><path class="cls-3" d="M32.63,13.66l1.42-1.09"/><path class="cls-3" d="M31.82,11.07a4,4,0,0,0,1.69.82,2,2,0,0,1,.92.33,1.58,1.58,0,0,1,.4.61l.79,1.71"/><path class="cls-3" d="M4.86,37.5a2.09,2.09,0,0,1,.22.2l2,1.84c.77.71,1.54,1.42,2.3,2.14"/><path class="cls-3" d="M7.83,46a8,8,0,0,0,.56,5.8,8.28,8.28,0,0,0,.89,1.43A9.46,9.46,0,0,0,12,55.61a7.25,7.25,0,0,0,.86.43"/><path class="cls-3" d="M7.83,46c.25-.72.5-1.44.77-2.18s.56-1.5.84-2.23a.69.69,0,0,0,.05-.13"/><path class="cls-3" d="M13,56.28c1.67-1,3-1.86,3.81-2.45,1.24-.87,1.47-1.1,3.59-2.63,1-.71,1.79-1.28,2.56-1.82l.88-.62c2.24-1.56,2.47-1.69,4.13-2.84,2.23-1.56,3.9-2.8,5.31-3.85.8-.59,1.54-1.16,2.54-1.92L38,38.44l3.92-3c1.56-1.22,3.57-2.79,5.91-4.67l.34-.27"/><path class="cls-3" d="M9.37,41.68l.07-.06c2.54-2.19,4-3.31,4.87-3.94l2.56-1.87,1-.76,1.68-1.26c.74-.56,1.46-1.13,2.24-1.76,1.65-1.35,1.92-1.7,3.86-3.39.13-.12.25-.23.4-.35,1.88-1.61,4.1-3.4,4.89-4l.29-.23,5.66-4.68"/><path class="cls-3" d="M35.62,40a17.53,17.53,0,0,1-5.15-6.12c-1.75-3.67-.09-8.19.5-9.59.06-.14.1-.25.14-.32"/><path class="cls-3" d="M22.68,49.07c-.45-.44-4.21-4.14-5.32-7.24A5.66,5.66,0,0,1,17,39.22a6.08,6.08,0,0,1,.81-2.15c.43-.84,1-2,1.84-3.24"/><path class="cls-3" d="M9.27,33.79a11.49,11.49,0,0,0,1.47-.89,10.53,10.53,0,0,0,1.4-1.18"/><path class="cls-3" d="M8.23,31c.71.54,1.41,1.09,2.12,1.62l.39.31.32.29a4.14,4.14,0,0,1,1.19,2.08"/><path class="cls-3" d="M25.92,19.49l.29-.17a4.45,4.45,0,0,0,1.29-1.23"/><path class="cls-3" d="M34.53,12.21l.41-.5"/><path class="cls-3" d="M10.57,54.44,12,55.61l.92.76,3.74,3.14"/><path class="cls-3" d="M5.19,42.67c.59-1,1.17-2,1.75-3"/><path class="cls-3" d="M5.19,42.67a5.61,5.61,0,0,0-1.1,2.56,4.91,4.91,0,0,0,.07,2.17,6.6,6.6,0,0,0,1.7,2.72,22.17,22.17,0,0,0,3.42,3.14l.05,0"/><path class="cls-3" d="M35.8.68a7,7,0,0,0,1.73,4.91c.82,1,1.9,1.71,2.7,2.69"/></g></g></svg>