<svg xmlns="http://www.w3.org/2000/svg" viewBox="0 0 33.27 28.78"><defs><style>.cls-1{fill:#c74343;}.cls-2{fill:#ff7070;}.cls-3{fill:#e9e9e9;}</style></defs><g id="圖層_2" data-name="圖層 2"><g id="圖層_1-2" data-name="圖層 1"><path class="cls-1" d="M15.87,27.68a24.76,24.76,0,0,1-4.14-1.3,13,13,0,0,1-3.34-2,10.22,10.22,0,0,1-2.9-3.92,6.66,6.66,0,0,1-.61-3.84,4.81,4.81,0,0,1,.81-2.09c1.53-2.12,4.63-2.17,5-2.13,2.13.2,3.44,1,4,.38.2-.22,0-.5-.13-1.73,0,0-.14-1-.19-2.44a9.84,9.84,0,0,1,.51-3.41,4.59,4.59,0,0,1,.85-1.7A5.4,5.4,0,0,1,17.86,2a6.86,6.86,0,0,1,2.86-.75,7.4,7.4,0,0,1,4.58,2,11.94,11.94,0,0,1,2.49,2.51l1.8,2.74a28.69,28.69,0,0,1,1.76,3.5,24.74,24.74,0,0,1,1.59,4.93c.57,3,.71,9-2.32,10.78a9.53,9.53,0,0,1-3,.91,18.2,18.2,0,0,1-3.44.24,27.87,27.87,0,0,1-3.8-.15A29,29,0,0,1,15.87,27.68Z"/><path class="cls-1" d="M15.07,27.48a24.76,24.76,0,0,1-4.14-1.3,13,13,0,0,1-3.34-2,10.22,10.22,0,0,1-2.9-3.92,6.66,6.66,0,0,1-.61-3.84,4.81,4.81,0,0,1,.81-2.09c1.53-2.12,4.63-2.17,5-2.13,2.13.2,3.44,1,4,.38.2-.22,0-.5-.13-1.73,0,0-.14-1-.19-2.44A9.84,9.84,0,0,1,14.05,5a4.59,4.59,0,0,1,.85-1.7,5.4,5.4,0,0,1,2.16-1.51A6.86,6.86,0,0,1,19.92,1,7.4,7.4,0,0,1,24.5,3,11.94,11.94,0,0,1,27,5.47l1.8,2.74a28.69,28.69,0,0,1,1.76,3.5,24.74,24.74,0,0,1,1.59,4.93c.57,3,.71,9-2.32,10.78a9.53,9.53,0,0,1-3,.91,18.2,18.2,0,0,1-3.44.24,27.87,27.87,0,0,1-3.8-.15A29,29,0,0,1,15.07,27.48Z"/><path class="cls-1" d="M14.27,27.28A24.76,24.76,0,0,1,10.13,26a13,13,0,0,1-3.34-2A10.22,10.22,0,0,1,3.89,20a6.66,6.66,0,0,1-.61-3.84,4.81,4.81,0,0,1,.81-2.09C5.62,12,8.72,11.92,9.09,12c2.13.2,3.44,1,4,.38.2-.22,0-.5-.13-1.73,0,0-.14-1-.19-2.44a9.84,9.84,0,0,1,.51-3.41,4.59,4.59,0,0,1,.85-1.7,5.4,5.4,0,0,1,2.16-1.51A6.86,6.86,0,0,1,19.12.8a7.4,7.4,0,0,1,4.58,2,11.94,11.94,0,0,1,2.49,2.51L28,8a28.69,28.69,0,0,1,1.76,3.5,24.74,24.74,0,0,1,1.59,4.93c.57,3,.71,9-2.32,10.78a9.53,9.53,0,0,1-3,.91,18.2,18.2,0,0,1-3.44.24,27.87,27.87,0,0,1-3.8-.15A29,29,0,0,1,14.27,27.28Z"/><path class="cls-1" d="M13.47,27.08a24.76,24.76,0,0,1-4.14-1.3,13,13,0,0,1-3.34-2,10.22,10.22,0,0,1-2.9-3.92A6.66,6.66,0,0,1,2.48,16a4.81,4.81,0,0,1,.81-2.09c1.53-2.12,4.63-2.17,5-2.13,2.13.2,3.44,1,4,.38.2-.22,0-.5-.13-1.73,0,0-.14-1-.19-2.44a9.84,9.84,0,0,1,.51-3.41,4.59,4.59,0,0,1,.85-1.7,5.4,5.4,0,0,1,2.16-1.51A6.86,6.86,0,0,1,18.32.6a7.4,7.4,0,0,1,4.58,2,11.94,11.94,0,0,1,2.49,2.51l1.8,2.74A28.69,28.69,0,0,1,29,11.31a24.74,24.74,0,0,1,1.59,4.93c.57,3,.71,9-2.32,10.78a9.53,9.53,0,0,1-3,.91,18.2,18.2,0,0,1-3.44.24A27.87,27.87,0,0,1,18,28,29,29,0,0,1,13.47,27.08Z"/><path class="cls-1" d="M12.67,26.88a24.76,24.76,0,0,1-4.14-1.3,13,13,0,0,1-3.34-2,10.22,10.22,0,0,1-2.9-3.92,6.66,6.66,0,0,1-.61-3.84,4.81,4.81,0,0,1,.81-2.09c1.53-2.12,4.63-2.17,5-2.13,2.13.2,3.44,1,4,.38.2-.22,0-.5-.13-1.73,0,0-.14-1-.19-2.44a9.84,9.84,0,0,1,.51-3.41,4.59,4.59,0,0,1,.85-1.7,5.4,5.4,0,0,1,2.16-1.51A6.86,6.86,0,0,1,17.52.4a7.4,7.4,0,0,1,4.58,2,11.94,11.94,0,0,1,2.49,2.51l1.8,2.74a28.69,28.69,0,0,1,1.76,3.5A24.74,24.74,0,0,1,29.74,16c.57,3,.71,9-2.32,10.78a9.53,9.53,0,0,1-3,.91A18.2,18.2,0,0,1,21,28a27.87,27.87,0,0,1-3.8-.15A29,29,0,0,1,12.67,26.88Z"/><path class="cls-1" d="M11.87,26.68a24.76,24.76,0,0,1-4.14-1.3,13,13,0,0,1-3.34-2,10.22,10.22,0,0,1-2.9-3.92,6.66,6.66,0,0,1-.61-3.84,4.81,4.81,0,0,1,.81-2.09c1.53-2.12,4.63-2.17,5-2.13,2.13.2,3.44,1,4,.38.2-.22,0-.5-.13-1.73,0,0-.14-1-.19-2.44a9.84,9.84,0,0,1,.51-3.41,4.59,4.59,0,0,1,.85-1.7A5.4,5.4,0,0,1,13.86,1,6.86,6.86,0,0,1,16.72.2a7.4,7.4,0,0,1,4.58,2,11.94,11.94,0,0,1,2.49,2.51l1.8,2.74a28.69,28.69,0,0,1,1.76,3.5,24.74,24.74,0,0,1,1.59,4.93c.57,3,.71,9-2.32,10.78a9.53,9.53,0,0,1-3,.91,18.2,18.2,0,0,1-3.44.24,27.87,27.87,0,0,1-3.8-.15A29,29,0,0,1,11.87,26.68Z"/><path class="cls-1" d="M11.07,26.48a24.76,24.76,0,0,1-4.14-1.3,13,13,0,0,1-3.34-2,10.22,10.22,0,0,1-2.9-3.92,6.66,6.66,0,0,1-.61-3.84,4.81,4.81,0,0,1,.81-2.09c1.53-2.12,4.63-2.17,5-2.13,2.13.2,3.44,1,4,.38.2-.22,0-.5-.13-1.73,0,0-.14-1-.19-2.44A9.84,9.84,0,0,1,10.05,4a4.59,4.59,0,0,1,.85-1.7A5.4,5.4,0,0,1,13.06.75,6.86,6.86,0,0,1,15.92,0,7.4,7.4,0,0,1,20.5,2,11.94,11.94,0,0,1,23,4.47l1.8,2.74a28.69,28.69,0,0,1,1.76,3.5,24.74,24.74,0,0,1,1.59,4.93c.57,3,.71,9-2.32,10.78a9.53,9.53,0,0,1-3,.91,18.2,18.2,0,0,1-3.44.24,27.87,27.87,0,0,1-3.8-.15A29,29,0,0,1,11.07,26.48Z"/><path class="cls-2" d="M11.07,26.48a24.76,24.76,0,0,1-4.14-1.3,13,13,0,0,1-3.34-2,10.22,10.22,0,0,1-2.9-3.92,6.66,6.66,0,0,1-.61-3.84,4.81,4.81,0,0,1,.81-2.09c1.53-2.12,4.63-2.17,5-2.13,2.13.2,3.44,1,4,.38.2-.22,0-.5-.13-1.73,0,0-.14-1-.19-2.44A9.84,9.84,0,0,1,10.05,4a4.59,4.59,0,0,1,.85-1.7A5.4,5.4,0,0,1,13.06.75,6.86,6.86,0,0,1,15.92,0,7.4,7.4,0,0,1,20.5,2,11.94,11.94,0,0,1,23,4.47l1.8,2.74a28.69,28.69,0,0,1,1.76,3.5,24.74,24.74,0,0,1,1.59,4.93c.57,3,.71,9-2.32,10.78a9.53,9.53,0,0,1-3,.91,18.2,18.2,0,0,1-3.44.24,27.87,27.87,0,0,1-3.8-.15A29,29,0,0,1,11.07,26.48Z"/><path class="cls-2" d="M15,20a17.76,17.76,0,0,0,3.38-3,16,16,0,0,0,1.9-2.67"/><path class="cls-3" d="M20.52,14.56s-.12-.07-.11-.05l.14.09Z"/><path class="cls-3" d="M20.22,14.47a1.62,1.62,0,0,0,.31.21l-.23-.17s.06,0,.11,0,0,0-.05-.05-.13,0-.05,0Z"/><path class="cls-3" d="M19.42,15.27h0Z"/><path class="cls-3" d="M19,15.77l0,0Z"/><path class="cls-3" d="M18.74,15.75h0Z"/><path class="cls-3" d="M19.42,15.27l-.06,0C19.41,15.29,19.4,15.27,19.42,15.27Z"/><path class="cls-3" d="M20.48,14.81l0,0h0Z"/><path class="cls-3" d="M19.47,15h0l0,0Z"/><path class="cls-3" d="M19.57,14.74l.16.11-.08-.06Z"/><path class="cls-3" d="M20,14.56h0Z"/><path class="cls-3" d="M19.35,15.07l0,0Z"/><path class="cls-3" d="M15.55,20.43l0,0Z"/><polygon class="cls-3" points="14.93 20.01 14.92 20 14.88 19.94 14.93 20.01"/><path class="cls-3" d="M18.47,15.81h0S18.46,15.8,18.47,15.81Z"/><path class="cls-3" d="M17.31,17.31c.11.07.09.13.22.21C17.48,17.48,17.39,17.34,17.31,17.31Z"/><path class="cls-3" d="M20.46,14.8h0S20.47,14.81,20.46,14.8Z"/><polygon class="cls-3" points="17.53 17.52 17.53 17.52 17.54 17.52 17.53 17.52"/><path class="cls-3" d="M18.24,16.23l.05,0Z"/><path class="cls-3" d="M18.62,16.08h0Z"/><path class="cls-3" d="M18.28,16.5s0,0,0,0h0S18.26,16.49,18.28,16.5Z"/><polygon class="cls-3" points="18.15 16.65 18.18 16.66 18.18 16.66 18.15 16.65"/><path class="cls-3" d="M16,20l-.08-.1C16,20,16,20,16,20Z"/><path class="cls-3" d="M20.42,14.77l0,0h0Z"/><path class="cls-3" d="M19.12,17.22h0S19.12,17.23,19.12,17.22Z"/><path class="cls-3" d="M17.14,19.06v0Z"/><path class="cls-3" d="M19,17.32,19,17.27l0,0Z"/><path class="cls-3" d="M15.93,19.91Z"/><path class="cls-3" d="M16,20.31s-.09-.16-.15-.25.1.1.16.17-.1-.2-.08-.2l0,.06c-.07-.13.05-.05,0-.21l0,0-.16-.2s0-.11,0,0,0,0,0,.07l0-.05c.11.13,0,.06.1.16,0-.06-.08-.19,0-.17s0,.08.11.18l-.07,0c.18.2,0,0,.17.21.06,0,0-.1,0-.08L16,19.8c-.05-.18.3.3.2.1s-.19-.27-.09-.2l.11.16s-.15-.24,0-.16,0,.07,0,.08,0-.1,0-.11l.11.13c0-.05,0-.18,0-.23a.58.58,0,0,0,.1.12c0-.11.12-.07.23,0l-.07-.13.06.07c.05,0-.06-.07-.09-.12s.07.05.09.09c0-.12-.07-.28.06-.19l0,0c.07,0-.16-.26-.05-.17v0c.1,0,.08-.15.27,0-.13-.17.11,0-.08-.21a1.07,1.07,0,0,0,.27.17S17,19.05,17,19l.1.11L17,19l.13.13v0s-.06,0-.09-.07.12,0,.18.09l0-.15a.49.49,0,0,1,.07.11c-.08-.14.11.12,0,0l-.08-.1c.08.06.1,0,.1,0l.07.08c.05,0,0-.11.09-.15a.5.5,0,0,1-.17-.19l.11.12c-.06-.08-.05,0-.12-.14s.14.13.16.17v-.06l.08.11c-.06-.08.15.09,0-.05l0,0c.05,0,0-.09.06-.13s-.06-.1-.13-.19.16.06.18,0-.08-.1-.12-.16.11.05.16.13,0-.06,0-.18a.36.36,0,0,1-.09-.08s0,0,.09.07h0c-.08-.19.38.15.23-.08h0L18,18.15s.06.08.13.12c-.11-.19.09-.05,0-.19.3.24.08-.12.29,0L18.33,18c0-.07.05,0,.07,0s-.07,0-.09-.08.26-.1.4-.13-.32-.33-.13-.23l.12.12c-.09-.2.12-.13.06-.31,0,0,.06.06,0,.07s.05-.05,0-.12.07.06.11.09-.08-.14,0-.07a.05.05,0,0,1,0,0c0-.05,0,0-.06-.12.07,0,0-.08.07-.05-.1-.11.1,0-.07-.14.18.15.18.07.11,0s.07,0,.14.09,0-.06-.1-.13c.24.14-.11-.21.17,0a.88.88,0,0,1-.07-.31c.17.14,0,.06.16.21,0-.1-.17-.25-.09-.27s.07.07.1.1.09-.08,0-.2l0,0s0,0,0-.06v0a1.83,1.83,0,0,1-.28-.27c.22.19.09,0,.37.25a.49.49,0,0,0-.1-.09s.06,0,.11.08-.11-.12-.09-.15l.09.09c-.06-.07-.13-.14-.08-.14l.05,0s-.15-.22-.05-.21.07,0,.22.14l0-.06-.08,0s-.08-.12,0-.1l.05.06v-.06l-.07,0c-.07-.08-.19-.14-.13-.13s0,0,.11,0h0s-.08-.09,0-.08l.19.15c-.11-.1,0-.07-.12-.18l.12.09-.09-.08s.05,0,.12.07-.2-.13-.1-.1a.05.05,0,0,1,0,0c.07,0,0-.11.05-.11s0,.06.16.14-.12-.23-.05-.25h0c-.22-.16.13,0,0-.05l.09.07c.06,0,0-.1-.05-.19l.06,0c.06,0,.06,0,.1,0s0-.05-.13-.1c.37.16-.09-.23.21-.1l0,0,0-.08-.14-.07c-.06-.05-.09-.09-.08-.1a.67.67,0,0,0,.21.13l-.09-.06c.19.08-.19-.13-.06-.09l.05,0s-.08-.08-.05-.08,0,0,.13.1-.19-.17-.06-.11l0,.06c.15.07.12,0,.14,0h.08l0,0c-.28-.2,0-.08-.2-.23a1.05,1.05,0,0,0,.23.15.45.45,0,0,1,.12.06c-.09-.08.1,0,0-.09.05,0,0,0,.12.05s-.07,0-.13-.07.22,0,0-.13-.19-.18-.24-.26a.55.55,0,0,1,.14.1c.08,0,.07,0,0-.05a.52.52,0,0,0,.11.07s-.14-.1-.07-.09l.16.12-.12-.15c.07,0,.1.08.15.11a.4.4,0,0,0-.15-.16h0l.12.07c.08.07-.06,0-.1,0l0,0c-.25-.13,0,.07,0,.09l-.17-.12.13.12a.83.83,0,0,1-.17-.11c-.1,0,.05,0-.05,0l0,0,0,0s-.13-.07-.1-.07c-.12,0,.11.13,0,.06h0c0,.07.12.08.26.2l-.34-.17.13.08s0,0-.07,0,.06,0,.13.1c-.13,0,0,.09-.19,0,.1.07.09,0,.15.09-.23-.13,0,.05-.1,0s0-.06-.15-.11c.19.14-.06,0,0,0s.05.08.08.14-.12,0-.19,0l0,0c.15.1.1.11.12.15a.86.86,0,0,1-.16-.13v0l.08.08-.11-.08s.1.14,0,.12a1.74,1.74,0,0,1,.36.25l-.18-.12s0,0,0,0l-.09-.08s.07.06.06.07a1.17,1.17,0,0,0-.13-.08s0,0,0,0l-.15,0a.46.46,0,0,1,.12.09s-.11-.06-.16-.08,0,0,.11.1-.06,0-.1,0,0,.07.12.14h0c.1.12-.12,0-.09.11l-.05,0c0,.06,0,.07.07.15s-.08,0-.13-.07.06.07,0,.05-.07,0,0-.05-.12,0,0,.06c-.09-.08-.14-.08-.12-.05l.09,0s0,0,0,0l-.13-.1c-.2-.07.22.28-.08.12.09.08.09,0,.19.11s-.24-.11-.25-.1.18.17.11.16.18.12.21.18-.22-.12-.25-.16h0a.19.19,0,0,0-.08-.07l0,0c-.06,0-.07,0-.14-.06a.15.15,0,0,0,.1.07c-.09,0,0,0-.1,0l.09.06c-.09,0,.07.08.07.13s-.16-.14-.12-.06-.13-.1-.17-.13-.09,0-.12,0l0,0s0,0,0,0l.1.06s0,0-.07,0,.16.11.24.19,0,.08-.1,0c.06,0-.13-.09-.13-.13s0,0,0,0,0,0,0,0,.13.12.1.15-.13-.1-.12-.08.12.08.16.14,0,.05,0,.06h0c.06.05.05.06.06.09s0,0-.06-.06-.15-.06-.09,0A1.36,1.36,0,0,0,18.4,16c.07.09-.11-.05-.06,0a.41.41,0,0,1,.15.14l0-.09.12.13s0-.07,0-.07,0,.06.13.11c-.16-.09,0,.1-.06,0l-.23-.19c-.13-.05.08.15,0,.14l.05,0c.08.08,0,0,0,.08a.59.59,0,0,0-.17-.11c.06,0,0,0,.13.15l-.12-.07c-.07,0,.19.22.14.23a1.7,1.7,0,0,1-.19-.18s0,0,0,.05.08.11,0,.06.1.1.09.11l0,0s0,.06.13.12c-.26-.17-.06.1-.28,0,0,0,0,.09,0,.11s0,0,0,0,.2.2.09.17,0-.08-.1-.11c-.25-.21,0,.07-.16,0v0c-.1-.06.06.12,0,.13l0,0a.42.42,0,0,1,.13.25c-.09-.09,0-.06-.14-.14s.16.14.17.18a1.67,1.67,0,0,1-.23-.15l0,0c-.14-.11,0,0,0,0l-.06,0s.13.18.09.2l.05,0c.13.15-.1-.06,0,.06l-.15-.13a.91.91,0,0,1,.11.22c-.09-.11-.13-.19-.18-.26s0,.05,0,.12,0-.06,0,0,.14.19.11.21c-.27-.26-.12,0-.36-.19.07.14-.12,0-.15.11.23.19,0,0,.22.23,0,0,0,0,0,0l-.17-.1c-.07-.05,0-.05-.09-.1s-.1-.08-.17-.12.1.12.06.1l.12.08c.08.15-.21-.15-.13,0l-.06-.08c0,.06-.06.06.09.25l-.1-.1c-.06,0,.1.28,0,.2l-.05,0s.08.11,0,.07-.05-.06-.06-.06.08.11,0,.09l-.05-.07c-.1,0,.08.21.08.28a.53.53,0,0,0-.27-.19l0,0c-.07,0,0,.21.06.31-.19-.15-.17,0-.3,0a.79.79,0,0,1,.12.15s.07.14-.06,0h0C16.4,18,16.42,18,16.4,18l.17.2c-.3-.25,0,.21-.28,0,0,.06,0,.08.05.13l-.09-.1c-.05,0-.08,0-.1.05l-.06-.08s.24.33.23.36l-.14-.16s-.2-.07-.11.1a.33.33,0,0,1-.06-.08s-.16-.05,0,.17c-.12-.15,0,0,0,.09l-.09-.11c.1.16.13.19.13.25s-.07-.08,0-.06.07.12,0,.08L16,18.77s0,.05.06.13-.06,0-.14-.09c0,.06.09.15.06.14l-.05-.08c-.09-.05.05.17-.06.08s0-.05-.06-.06.06,0,.06,0a1.66,1.66,0,0,1-.21-.26c0,.09.15.28.09.25l0,0v0s0,0,0,0l0,0c-.07-.08-.06,0-.07,0s.06.11.14.19a0,0,0,0,1,0,0,0,0,0,0,0,0,0h0l0,0c0,.06.07.12,0,.06l.12.19c-.14-.14-.23-.2-.31-.29a.45.45,0,0,0,.1.32s-.06-.05-.09-.08,0,0,0-.06,0,.07.07.22c-.08-.05-.09-.15-.11-.1l0-.05c-.24-.18.18.46-.12.21a.12.12,0,0,1,.05,0c-.18-.08-.08.25-.32.09-.06,0,0,.07.05.16l-.09-.12.07.16c0,.13-.27-.26-.18,0l.06.08s0,.08-.08,0,.06.09,0,.05l0-.06,0,.14c-.06,0-.17-.27-.22-.25a.68.68,0,0,0,.12.26s0,0,.09.1v0a2.5,2.5,0,0,0,.38.51l-.05-.13.07.08,0,0c.08.08,0,0,0-.06a.24.24,0,0,0,.08.09l-.1-.2a.87.87,0,0,0,.13.19c0-.09-.12-.16-.14-.23.07.08.12.15.08.07a.18.18,0,0,1,.06.1c0-.06,0-.05,0-.15.09.1,0-.06.15.12a.71.71,0,0,1-.07-.18c.13.24.06,0,.21.22-.12-.21,0-.13,0-.26s0,0,0,0l.11.09a2.08,2.08,0,0,1-.17-.32,2.54,2.54,0,0,1,.23.34c-.09-.13-.05-.16-.14-.26a.79.79,0,0,1,.15.16c-.14-.2,0,0-.08-.17.09.08.14.18.12.1A.42.42,0,0,1,16,20.31Zm.32-.78h0v0Zm.05,0h0s-.07-.07-.06-.07Zm-.7-.68s0,0,0,0v0h0Z"/><polygon class="cls-3" points="15.72 18.96 15.72 18.97 15.74 18.99 15.72 18.96 15.72 18.96"/><path class="cls-3" d="M19.44,15.27Z"/><polygon class="cls-3" points="17.14 19.16 17.11 19.13 17.13 19.16 17.14 19.16"/><path class="cls-3" d="M20,15.27h0Z"/><path class="cls-3" d="M20.12,15.16h0Z"/><path class="cls-3" d="M20.24,15.11l0,0h0Z"/><path class="cls-3" d="M19.37,16.65h0S19.38,16.67,19.37,16.65Z"/><path class="cls-3" d="M19.42,16l0,.06S19.48,16.08,19.42,16Z"/><polygon class="cls-3" points="19.13 17.22 19.13 17.21 19.12 17.22 19.13 17.22"/><path class="cls-3" d="M19.45,16.1s0,0,0,0S19.44,16.09,19.45,16.1Z"/><polygon class="cls-3" points="20.54 14.73 20.55 14.73 20.53 14.71 20.54 14.73"/><path class="cls-3" d="M20.53,14.71h0A0,0,0,0,0,20.53,14.71Z"/><path class="cls-3" d="M20.5,14.67l0,0S20.53,14.7,20.5,14.67Z"/><path class="cls-3" d="M20.41,14.82l.05,0Z"/><path class="cls-3" d="M20.4,14.87s.11,0,.09,0l0,0C20.52,14.89,20.34,14.82,20.4,14.87Z"/><path class="cls-3" d="M19.77,14.7h.05c-.05,0-.11-.06-.11-.08C19.54,14.57,19.81,14.67,19.77,14.7Z"/><path class="cls-3" d="M19.65,14.75s-.07,0-.1-.06A.15.15,0,0,0,19.65,14.75Z"/><path class="cls-3" d="M19.21,15.42l-.11-.08S19.14,15.37,19.21,15.42Z"/><polygon class="cls-3" points="19.66 15.93 19.73 15.96 19.64 15.89 19.66 15.93"/><polygon class="cls-3" points="18.86 15.47 18.85 15.46 18.87 15.5 18.86 15.47"/><path class="cls-3" d="M18.08,16.54l.12.1S18.06,16.5,18.08,16.54Z"/><path class="cls-3" d="M17.82,17.08c-.06,0-.11-.07-.06,0S17.83,17.1,17.82,17.08Z"/><polygon class="cls-3" points="16.41 18.11 16.39 18.06 16.4 18.11 16.41 18.11"/><path class="cls-3" d="M11.61,17.32s.11-.09.08-.09l-.13.09Z"/><path class="cls-3" d="M11.8,17.06a1.4,1.4,0,0,0-.34.16,1.4,1.4,0,0,0,.27-.11s0,.05-.09.09,0,0,.08,0,.09-.1,0-.07Z"/><path class="cls-3" d="M12.17,17.33v0Z"/><path class="cls-3" d="M12.08,17.69h0Z"/><path class="cls-3" d="M11.89,17.66h0Z"/><path class="cls-3" d="M12.17,17.33l0,0S12.16,17.34,12.17,17.33Z"/><path class="cls-3" d="M11.35,17h0Z"/><path class="cls-3" d="M11.94,17.27h0l0,.05Z"/><path class="cls-3" d="M11.81,17.21l.1-.17a.37.37,0,0,1-.06.08Z"/><path class="cls-3" d="M11.9,16.84h0Z"/><path class="cls-3" d="M12,17.36l0,0Z"/><path class="cls-3" d="M11.38,17.94h0Z"/><polygon class="cls-3" points="11.85 17.34 11.86 17.34 11.93 17.32 11.85 17.34"/><path class="cls-3" d="M11.73,17.61h0Z"/><path class="cls-3" d="M11.82,17.42c.07-.1.12-.11.19-.22S11.86,17.36,11.82,17.42Z"/><path class="cls-3" d="M11.37,17s0,0,0,0S11.36,17,11.37,17Z"/><path class="cls-3" d="M12,17.2Z"/><path class="cls-3" d="M11.67,17.56Z"/><path class="cls-3" d="M11.8,17.64h0Z"/><path class="cls-3" d="M11.61,17.46Z"/><polygon class="cls-3" points="11.57 17.38 11.56 17.36 11.56 17.37 11.57 17.38"/><path class="cls-3" d="M12,18.21l.07-.16C12,18.18,12,18.23,12,18.21Z"/><path class="cls-3" d="M11.43,17h0Z"/><path class="cls-3" d="M11,16.36a0,0,0,0,0,0,0A.08.08,0,0,1,11,16.36Z"/><path class="cls-3" d="M11.37,17.84h0Z"/><path class="cls-3" d="M11,16.35l.07.11,0,0Z"/><path class="cls-3" d="M12,18.05Z"/><path class="cls-3" d="M11.89,18.49a2.94,2.94,0,0,0,.12-.31c0-.07,0,.14-.09.25l.09-.26,0,.1a2.22,2.22,0,0,1,.08-.28l0,.06.13-.32s.07-.17,0,0c0,0,0,.07,0,.12l0-.08c-.09.22,0,.09-.1.26,0-.09.11-.31.07-.26-.11.23,0,.11-.12.3L12,18c-.16.34,0,0-.15.35-.06.05,0-.13-.06-.09.06-.14.1-.19.16-.33s0-.07,0,0l-.05,0s0-.07,0-.15.2-.3.07-.24-.07.1-.1.15c-.27.09,0,0-.24-.05s0,.18-.05.18c-.28.08.09-.19.06-.26l-.26.14a1.1,1.1,0,0,1,.22-.72c-.08,0-.16,0-.23,0,.17-.2,0-.25-.11-.24l.15.06s-.08,0-.11,0,.11,0,.16.05-.1,0-.15,0c.12.08.21.16,0,.22l0,0c-.08.06.3.06.14.1h0c-.1.12,0,.2-.19.36.21-.06-.08.16.21,0-.13.12-.19.13-.25.27s.18-.06.22-.05l-.14.08.16-.05-.15.13h0a.16.16,0,0,1,.08-.09c.07,0,0,.15-.09.21a1,1,0,0,1,.17,0l-.12.05c.16-.06-.11.13.09.11,0,0,.06-.07.08-.09a.18.18,0,0,0,.21.17l0,.1a.77.77,0,0,0,.45,0,.28.28,0,0,1,0-.25l0,.16c0-.1,0-.05,0-.18s.06.18,0,.23l.06-.06a.65.65,0,0,1,0,.14c0-.11.16.13.15-.05l0,0c.15,0,.19-.14.29-.22-.08-.11,0-.12-.08-.23s.25,0,.29-.15-.09-.07-.16-.13c.12,0,.15-.08.22,0a.38.38,0,0,0-.1-.35c-.05,0-.07,0-.11,0s0-.06.11-.07h0c-.11-.08,0-.16,0-.28s0-.23-.08-.18h0l-.17,0c0-.05.09-.05.13-.12-.22.07-.09-.14-.26-.08.19-.34-.2-.1-.17-.33l0,.08c-.07.07,0-.06,0-.08s0,.08,0,.12c-.22,0-.35-.23-.61-.3-.1,0,0,.46-.14.26v-.17a.29.29,0,0,1-.22.14c-.09,0-.17,0-.14.12l0-.09c-.06-.12,0,0,0,.11a1.09,1.09,0,0,1-.08-.14c0-.07.06.18,0,.05s0,0,0-.05,0,0,0,.15c0-.07,0,.09,0,0,.1.2-.07-.08.09.2-.16-.29-.14-.22-.05-.07L11,16.36s0,.07.13.24c-.18-.4.23.33,0-.2l.07.06.17,0a2.07,2.07,0,0,1,.3.12l.57.38c.07.07.21.11.2.18v.2a.22.22,0,0,0,.16-.16c0-.07.06-.18-.09-.23s-.44-.24-.33-.4a2.23,2.23,0,0,1,.52.43c0,.16-.06.29-.09.41a1.88,1.88,0,0,0,0,.31.08.08,0,0,0,0,.09c0,.05.18,0,.25,0a.24.24,0,0,0-.1.1s0,0,0,0,0,0-.09,0l.09,0s0,0-.1,0h0l-.52-.22.61.27L12.55,18l.19.08L12.55,18l.16.08c-.12-.06-.22-.11-.15-.09l.07,0s-.24-.13-.09-.1a2.12,2.12,0,0,0,.31.09l0,0-.11,0s-.11-.06,0-.06l.07,0v0h-.09c-.09,0-.26-.06-.18-.06s0,0,.15,0h0s-.11,0,0,0l.25,0c-.15,0,0-.07-.18-.1h.16l-.12,0a.32.32,0,0,1,.14,0s-.24,0-.13-.05l.05,0c.06-.05-.08-.12,0-.17s.06,0,.21,0c-.05-.08-.25-.1-.23-.18v0c-.26.08.11-.09,0-.08l.12,0c0-.07-.11-.07-.21-.09l.06,0c0-.06,0-.08,0-.13s-.06,0-.13.08c.24-.32-.26,0-.08-.25,0,0,.06,0,.05,0h-.09l-.09.14c0,.05-.09.08-.1.07a.56.56,0,0,0,.14-.2l-.07.08c.11-.18-.14.18-.09.05l0-.05s-.09.08-.09.05.05,0,.11-.13-.18.19-.12.06l.07,0c.06-.15,0-.11,0-.15h0v0c-.2.28-.09,0-.23.21.13-.18.06-.11.13-.25a.33.33,0,0,1,0-.13c-.08.1,0-.1-.1.05,0-.05,0,0,0-.12s0,.08-.05.13,0-.22-.16,0h0l-.4.28h0l0,0h0a.32.32,0,0,0,.09,0l.17,0a.48.48,0,0,1-.18,0c-.07,0,0,.06,0,.08l-.13,0s.18,0,.11,0l-.19,0a1.38,1.38,0,0,0,.2,0,.5.5,0,0,1-.19,0,.26.26,0,0,0,.24,0l0,0s-.1.06-.13.06,0-.06.08-.08h0c.26-.12-.06,0-.06-.1l.21,0a1.08,1.08,0,0,1-.18,0l.2,0c.1,0-.08,0,0,0H12c.11,0-.16,0,0,0h0l-.24.16c0-.05,0-.14.12-.28l-.1.37,0-.15s0,0,0,.08a.94.94,0,0,0,.06-.15c0,.14.09,0,0,.19,0-.11,0-.09.07-.16-.1.24,0,0,0,.09s-.05.05-.08.17c.11-.21,0,0,0,0s.07-.05.12-.09,0,.11,0,.18v0c.11-.14.11-.1.14-.12l-.13.15h0a.28.28,0,0,1,.08-.08l-.09.11s.14-.1.09,0a2.24,2.24,0,0,1,.33-.3l-.17.15s.05,0,0,0l-.09.07s.08-.06.08,0l-.11.1s0,0,0,0a.32.32,0,0,1-.09.12l.11-.09s-.09.08-.12.12,0,0,.12-.08,0,.05-.08.07,0,0,.16-.07h0c.15,0,0,.11,0,.11h-.05c.07,0,.05,0,.16,0a.69.69,0,0,1-.14.06s.09,0,0,0-.08,0-.07,0-.11.05,0,0c-.12,0-.15,0-.11,0l.09,0s0,0,0,0h-.23s0,0,0,0H12c.07,0,.11,0-.06,0l.22,0a2.1,2.1,0,0,1-.27,0c-.09,0,.21.05.13.05a.85.85,0,0,1,.22.06L12,17.68h0l-.09,0h0a.44.44,0,0,1-.14,0l.11,0c-.08,0,0,0-.08,0l.07,0c-.08,0,.06,0,.06,0s-.13,0-.1,0l-.12-.05-.07,0h0l.06,0,0,0,.14.06-.06,0s-.07,0-.07,0h0c-.06,0,.08,0,.06,0l-.06,0,.08,0s0,0,0,0h0s0,0,0,0h0s-.06,0,0,0l0,0h0v0s0,0,0,0,0,0,0,0h0s0,0,0,0h0s0,0,0,0v0l0,0v0l-.06-.1.05.08,0,0s0-.06,0,0l0-.06v0l0-.07c.06.09,0-.09,0,0a.47.47,0,0,1,0-.09v0s-.09-.19-.07-.16a.49.49,0,0,1,0,.11c.1.22,0-.06,0,.06v0c0,.08,0-.12,0-.1v0a.34.34,0,0,1,0-.24,1,1,0,0,0,0,.17s0-.17,0-.21a1.2,1.2,0,0,1,.06.23h0c0,.15,0,0,0,0v.07s0-.19,0-.18v-.05c0-.17,0,.09,0,0v.17a.72.72,0,0,1,.09-.2c0,.13-.07.19-.09.27s0,0,0-.1,0,.06,0,0,.07-.19.1-.19c-.11.33,0,.09-.07.34.08-.11,0,.06,0,.05.17-.23,0,0,.19-.23,0,0,0,0,0,0a.71.71,0,0,1-.1.14c-.05.07-.05.05-.09.1l-.14.15.08-.08.1-.1c.13-.09-.18.18,0,.08l-.08.06s0,0,.21-.13l-.13.07h0l.2-.1h0l.1,0h0s0,0,0,0l0,0h0a.12.12,0,0,1,0-.05s0,0,0,.08v0s0,0,0,0h0l0,.07h0l.25-.23h0s0,0,0,0,0,0,0,0,0,0,0,0-.08,0,.06-.07l-.1,0,.11-.06s0,0,0,0l.07,0a2.42,2.42,0,0,1-.32.1l.17-.06s.14-.05,0,0h.07s.11,0-.09,0c.13,0,0,0,0,0h.09c-.11,0-.13,0-.14,0h0s-.06,0,0,0h0l-.05,0,.11,0h0c.05,0,0,0,0,0h0l0,0,.11,0s-.08,0-.06,0h0s0,0-.05,0h0s0,0,0,0l0,0a.16.16,0,0,0,.1,0s0,0-.07.13,0,0,0,0v0l0,.12,0-.05,0,0c.06-.13-.12.33-.05.16v0c0-.07-.15.26-.09,0,0,0,0,0,0,0l0,0-.08.1h0s0,0,0,0,.28-.26.07-.16l-.09.06s-.07,0,0-.06-.09,0-.05,0l.07,0-.14,0s.29-.12.29-.15l-.28.07s0,0-.12.05h0a1.69,1.69,0,0,0-.59.24h.16l-.1.06,0,0c-.09.06,0,0,.07,0l-.1.07.22-.05c-.08,0-.17.05-.2.11s.17-.11.25-.11c-.09.07-.16.1-.07.08a.28.28,0,0,1-.12.05c.08,0,.06,0,.17,0-.1.09.07,0-.12.17a.62.62,0,0,1,.18-.05c-.23.12,0,.06-.17.27a.32.32,0,0,1,.26,0,.12.12,0,0,0,.14,0l0,0s0,.1,0,.15c.1-.18.16-.2.23-.32a2.81,2.81,0,0,1-.19.39c.07-.15.12-.14.17-.27a1.25,1.25,0,0,1-.07.21c.11-.24,0,0,.11-.19,0,.12-.09.24,0,.15ZM11.69,17h0l0,.05S11.68,17,11.69,17Zm0-.12s0,0,0,0,.14,0,.14,0A.42.42,0,0,1,11.71,16.84Zm.7.18h0Z"/><rect class="cls-3" x="12.36" y="17.03" width="0.01" height="0.01" transform="translate(-8.67 16.18) rotate(-51.69)"/><path class="cls-3" d="M12.18,17.31Z"/><polygon class="cls-3" points="11.26 17.78 11.29 17.76 11.26 17.77 11.26 17.78"/><path class="cls-3" d="M12.32,16.76l0,0Z"/><path class="cls-3" d="M12.2,16.63v-.05A.13.13,0,0,0,12.2,16.63Z"/><path class="cls-3" d="M12.12,16.51l0,0h0Z"/><path class="cls-3" d="M12.7,18h0S12.73,18,12.7,18Z"/><path class="cls-3" d="M12.61,17.78l.06,0S12.7,17.8,12.61,17.78Z"/><polygon class="cls-3" points="10.98 16.36 10.99 16.36 10.99 16.36 10.98 16.36"/><path class="cls-3" d="M12.65,17.83s0,0,0,0S12.63,17.82,12.65,17.83Z"/><polygon class="cls-3" points="11.39 17.17 11.39 17.18 11.41 17.18 11.39 17.17"/><path class="cls-3" d="M11.42,17.18h0Z"/><path class="cls-3" d="M11.48,17.18h-.05S11.44,17.2,11.48,17.18Z"/><path class="cls-3" d="M11.39,16.91h0Z"/><path class="cls-3" d="M11.37,16.84s-.11.05-.07.08h0C11.26,16.91,11.45,16.85,11.37,16.84Z"/><path class="cls-3" d="M11.78,17l0-.05a.32.32,0,0,1,0,.13C11.69,17.28,11.75,17,11.78,17Z"/><path class="cls-3" d="M11.82,17.14s0,.07-.05.09A.2.2,0,0,0,11.82,17.14Z"/><path class="cls-3" d="M12.15,17.51l-.12,0Z"/><path class="cls-3" d="M12.83,17.54l.07,0h-.11Z"/><polygon class="cls-3" points="11.91 17.61 11.9 17.61 11.94 17.61 11.91 17.61"/><path class="cls-3" d="M11.61,17.45l0-.07S11.62,17.48,11.61,17.45Z"/><path class="cls-3" d="M11.69,17.21c0,.06,0,.11,0,0S11.7,17.19,11.69,17.21Z"/><path class="cls-3" d="M12.32,17.14a.06.06,0,0,1,0,0s0,0,0,0Z"/><path class="cls-3" d="M16.72,11.86s.11-.09.08-.09l-.13.09Z"/><path class="cls-3" d="M16.91,11.6a1.94,1.94,0,0,0-.34.16,2.33,2.33,0,0,0,.27-.1s0,.05-.09.08,0,0,.08,0,.09-.11,0-.08Z"/><path class="cls-3" d="M17.28,11.87h0Z"/><path class="cls-3" d="M17.19,12.24h0Z"/><path class="cls-3" d="M17,12.2h0S17,12.2,17,12.2Z"/><path class="cls-3" d="M17.28,11.87l0,0C17.29,11.88,17.27,11.88,17.28,11.87Z"/><path class="cls-3" d="M16.46,11.54h0Z"/><path class="cls-3" d="M17.05,11.81h0l-.05,0Z"/><path class="cls-3" d="M16.92,11.75l.1-.17c0,.05-.05.08-.06.08Z"/><path class="cls-3" d="M17,11.39h0Z"/><path class="cls-3" d="M17.1,11.9l0,0Z"/><path class="cls-3" d="M16.49,12.48h0Z"/><polygon class="cls-3" points="16.96 11.88 16.97 11.89 17.04 11.86 16.96 11.88"/><path class="cls-3" d="M16.84,12.16Z"/><path class="cls-3" d="M16.93,12a2.15,2.15,0,0,0,.19-.22S17,11.9,16.93,12Z"/><path class="cls-3" d="M16.48,11.53v0S16.47,11.53,16.48,11.53Z"/><path class="cls-3" d="M17.12,11.74Z"/><path class="cls-3" d="M16.78,12.11h0Z"/><path class="cls-3" d="M16.91,12.19h0Z"/><path class="cls-3" d="M16.72,12h0Z"/><polygon class="cls-3" points="16.68 11.92 16.67 11.91 16.67 11.91 16.68 11.92"/><path class="cls-3" d="M17.07,12.75l.07-.16C17.09,12.72,17.08,12.78,17.07,12.75Z"/><path class="cls-3" d="M16.54,11.53h0Z"/><path class="cls-3" d="M16.1,10.91v0Z"/><path class="cls-3" d="M16.48,12.38h0Z"/><path class="cls-3" d="M16.11,10.89l.07.11,0,0Z"/><path class="cls-3" d="M17.14,12.59Z"/><path class="cls-3" d="M17,13a1.78,1.78,0,0,0,.12-.31A2.08,2.08,0,0,1,17,13l.09-.26,0,.1a2.83,2.83,0,0,1,.08-.28l0,.06.13-.32s.07-.17,0,0c0,0,0,.07,0,.12l0-.08c-.09.22,0,.09-.1.26,0-.09.11-.3.07-.25-.11.22,0,.11-.12.29l0-.07c-.16.34,0,0-.15.35-.06.05,0-.13-.06-.09.06-.14.1-.19.16-.33s0-.07,0,0l0,0s0-.08,0-.16.2-.3.07-.24-.07.1-.1.15c-.27.1,0,0-.24,0s0,.18-.05.18c-.28.08.09-.18.06-.25l-.26.14a1.12,1.12,0,0,1,.22-.73c-.08,0-.16,0-.23,0,.17-.2,0-.25-.11-.24l.15.06a.36.36,0,0,1-.11,0c-.07,0,.11,0,.16.05s-.1,0-.15,0c.12.08.21.17,0,.22h0c-.08.05.3.05.14.1h0c-.1.12,0,.21-.19.37.21-.06-.08.15.21,0-.13.13-.19.14-.25.28s.18-.07.22-.06l-.14.09.16-.06-.15.13h.05s0-.06.08-.09,0,.16-.09.21h.17c-.05,0-.09,0-.12.06.16-.07-.11.12.09.1,0,0,.06-.07.08-.09a.18.18,0,0,0,.21.17l-.05.1a.77.77,0,0,0,.45,0,.3.3,0,0,1,0-.26l0,.17c0-.11,0-.06,0-.19s.06.18,0,.24l.06-.07a.65.65,0,0,1,0,.14c0-.1.16.13.15-.05l0,0c.15,0,.19-.14.29-.22-.08-.11,0-.12-.08-.22s.25,0,.29-.16-.09-.07-.16-.13c.12,0,.15-.07.22,0a.38.38,0,0,0-.1-.35.19.19,0,0,1-.11,0s0-.06.11-.07h0c-.11-.07,0-.16,0-.28s0-.23-.08-.18h0l-.17,0s.09,0,.13-.12c-.22.07-.09-.13-.26-.08.19-.34-.2-.1-.17-.33l0,.08c-.07.07,0-.06,0-.08s0,.08,0,.12c-.22,0-.35-.22-.62-.3-.09,0,0,.47-.13.26v-.16a.28.28,0,0,1-.22.13c-.09,0-.17,0-.14.12l0-.09c-.06-.11,0,0,0,.12l-.08-.15c0-.07.06.18,0,.05s0,0,0-.05,0,0,.05.15c0-.07,0,.1,0,0,.1.2-.07-.07.09.21-.16-.29-.14-.23-.05-.08l-.12-.22s0,.06.13.23c-.18-.39.23.34,0-.2l.07.06.17.05a1.24,1.24,0,0,1,.3.11l.57.39c.07.06.21.1.2.17v.2a.2.2,0,0,0,.16-.16c0-.07.06-.18-.09-.22s-.44-.25-.33-.41a2.23,2.23,0,0,1,.52.43c0,.16-.06.3-.09.41a2,2,0,0,0,0,.31.08.08,0,0,0,0,.09c.05.05.18,0,.25,0a.31.31,0,0,0-.1.1s0,0,0,0,0,0-.09,0l.09,0s0,0-.1,0h0l-.52-.22.61.27-.18-.08.19.08-.19-.08.16.07c-.12-.06-.23-.11-.15-.09l.07,0s-.24-.14-.09-.11a2.12,2.12,0,0,0,.31.09l-.05,0-.11,0s-.11-.07,0-.06l.07,0v0h-.09c-.09,0-.26-.07-.18-.07s0,0,.15,0h0s-.11,0,0-.05l.25,0c-.15,0,0-.07-.18-.1l.16,0-.12,0a.32.32,0,0,1,.14,0s-.24,0-.13,0h.05c.06,0-.08-.12,0-.16s.06,0,.21,0c-.05-.08-.25-.1-.23-.17h0c-.26.08.11-.09,0-.07l.12,0c0-.06-.11-.07-.21-.08l.06,0c0-.06,0-.08,0-.12s-.06,0-.13.08c.24-.32-.26,0-.08-.26l.05,0h-.09c-.07.09,0,.06-.09.13s-.09.08-.1.07a.56.56,0,0,0,.14-.2l-.07.08c.11-.18-.14.19-.09,0l0,0s-.09.08-.09.06.05,0,.11-.14-.18.19-.12.07,0,0,.07,0,0-.11,0-.14h0v0c-.2.29-.09,0-.23.21.13-.18.06-.11.13-.25s0-.09,0-.12,0-.11-.1,0c0,0,0,0,0-.12s0,.08-.05.13,0-.22-.16,0h0l-.4.28h0l0,0,.09,0,.17,0a.62.62,0,0,1-.18,0c-.07,0-.05,0,0,.07l-.13,0s.18,0,.11,0l-.19,0,.2,0a.74.74,0,0,1-.19,0,.21.21,0,0,0,.24,0l0,0s-.1.06-.13.06,0-.06.08-.07h0c.26-.12-.06,0-.06-.1l.21,0h-.18a.88.88,0,0,1,.2,0c.1,0-.08,0,0,0h.09c.11,0-.16,0,0,0h0l-.24.16c0-.05,0-.14.12-.27l-.1.36.05-.14s0,0,0,.07a.94.94,0,0,0,.06-.15c0,.14.09,0,0,.19.05-.1,0-.09.07-.15-.1.24,0,0,0,.08s-.05,0-.08.17c.1-.2,0,.06,0,0s.07-.05.12-.08,0,.1,0,.17v0c.11-.14.11-.1.14-.12L17,11.8h0l.08-.07-.09.1s.14-.1.09,0c.09-.09.24-.27.33-.3a.88.88,0,0,1-.17.14s.05,0,0,0l-.09.07s.08-.06.08,0l-.11.1s0,0,0,0a.32.32,0,0,1-.09.12l.11-.09s-.09.08-.12.12,0,0,.12-.08-.05.05-.08.07,0,0,.16-.07h0c.15,0,0,.11,0,.11l-.05,0c.07,0,.05,0,.16,0l-.14,0s.09,0,0,0-.08,0-.07,0-.11,0,0,0c-.12,0-.15,0-.11,0l.09,0s0,0,0,0h.06l-.29,0h0l.09,0c.07,0,.11,0-.06,0a1.48,1.48,0,0,0,.22,0,1.12,1.12,0,0,1-.27,0c-.09,0,.21.05.13.05a.85.85,0,0,1,.22.06l-.25-.06h0l-.09,0,.05,0-.14,0,.11,0c-.08,0,0,0-.08,0l.07,0c-.08,0,.06,0,.06,0s-.13,0-.1,0l-.12-.05s-.06,0-.07,0h0l.06,0,0,0,.14.06-.06,0-.07,0h0l.06,0-.06,0,.08,0s0,0,0,0h0l0,0-.05,0h.06s0,0,0,0h0s0,0,0,0h0l0,0v0l0,0h0L16.7,12l.05.07,0,0,0,0,0-.06v0l0-.07c.06.09,0-.09,0,0a.92.92,0,0,1,0-.09v0s-.09-.19-.07-.16a1,1,0,0,1,.05.11c.1.22,0-.06,0,.07h0c0,.08,0-.12,0-.1v0a.3.3,0,0,1,0-.23.88.88,0,0,0,0,.16s0-.17,0-.21a1.2,1.2,0,0,1,.06.23h0c0,.15,0,0,0,0v.06s0-.19,0-.18v-.05c0-.17,0,.09,0,0v.17a.88.88,0,0,1,.09-.2c0,.13-.07.19-.09.27s0,0,.05-.1,0,.06,0,0,.07-.2.1-.2c-.11.33,0,.1-.07.35.08-.11,0,.06,0,.05.17-.23,0,0,.19-.24,0,0,0,0,0,0l-.1.15c-.05.06-.05,0-.09.09a.84.84,0,0,1-.14.15l.08-.07L17,12c.13-.1-.18.17,0,.07l-.08.06a1.43,1.43,0,0,0,.21-.13l-.13.07h0l.2-.09h0l.1,0h0s0,0,0,0l0,0h0l0,0s0,0,0,.07v0s0,0,0,0h0l-.05.07h0l.25-.23h0v0h0l0,0s0,0,0,0-.08,0,.06-.07l-.1,0,.11-.06s0,0,0,0l.07,0a2.42,2.42,0,0,1-.32.1l.17-.06s.14,0,0,0h.07s.11,0-.09,0c.13,0,0,0,0,0h.09c-.11,0-.13,0-.14,0h0c.05,0-.06,0,0,0l0,0s0,0-.05,0l.11,0s-.07,0,0,0h0c.05,0,0,0,0,0h0l0,0,.11,0s-.08,0-.06,0h0s0,0,0,0l-.05,0h0v0s0,0,0,0l0,0a.16.16,0,0,0,.1,0,.93.93,0,0,1-.07.13s0,0,0,0v0s0,0,0,.12,0-.08,0,0l0,0c.06-.13-.12.33,0,.16l0,0c.06-.06-.14.26-.08,0,0,0,0,0,0,0l0,0-.08.1h0c-.12,0,.28-.25.07-.15l-.09.05s-.07,0,0-.06-.09,0,0,0l.07,0-.14,0s.29-.12.29-.15l-.28.07-.12.06h0a1.69,1.69,0,0,0-.59.23h.16l-.1.06,0,0c-.09.06,0,0,.07,0l-.1.07.22-.05c-.08,0-.17.06-.2.11s.17-.11.25-.11c-.09.07-.16.1-.07.08a.19.19,0,0,1-.12.05c.08,0,.06,0,.17,0-.1.09.07,0-.12.17a.62.62,0,0,1,.18-.05c-.23.12,0,.07-.17.28a.26.26,0,0,1,.26,0c.06,0,.07,0,.14,0s0,.05,0,0,0,.1,0,.15c.1-.17.16-.2.23-.32a2.35,2.35,0,0,1-.19.39c.07-.15.12-.14.17-.27a1.63,1.63,0,0,1-.07.22c.11-.25,0,0,.11-.2,0,.12-.09.24-.05.16Zm-.2-1.53h0l0,0S16.79,11.51,16.8,11.5Zm0-.12a0,0,0,0,1,0,0H17A.28.28,0,0,1,16.82,11.38Zm.7.18h0Z"/><rect class="cls-3" x="17.47" y="11.58" width="0.01" height="0.01" transform="translate(-2.23 18.73) rotate(-53.47)"/><path class="cls-3" d="M17.29,11.85h0l0,0Z"/><polygon class="cls-3" points="16.37 12.33 16.4 12.31 16.37 12.32 16.37 12.33"/><path class="cls-3" d="M17.43,11.3l0,0Z"/><path class="cls-3" d="M17.31,11.18v-.06A.18.18,0,0,0,17.31,11.18Z"/><path class="cls-3" d="M17.23,11.05l0,0h0Z"/><path class="cls-3" d="M17.81,12.57h0S17.84,12.59,17.81,12.57Z"/><path class="cls-3" d="M17.72,12.33l.06,0S17.81,12.34,17.72,12.33Z"/><polygon class="cls-3" points="16.09 10.9 16.1 10.91 16.1 10.91 16.09 10.9"/><path class="cls-3" d="M17.76,12.37s0,0,0,0S17.74,12.36,17.76,12.37Z"/><polygon class="cls-3" points="16.5 11.72 16.5 11.73 16.52 11.72 16.5 11.72"/><path class="cls-3" d="M16.53,11.72h0Z"/><path class="cls-3" d="M16.59,11.73h-.05S16.55,11.74,16.59,11.73Z"/><path class="cls-3" d="M16.5,11.45h0Z"/><path class="cls-3" d="M16.48,11.38s-.11.06-.07.08h0C16.37,11.45,16.56,11.39,16.48,11.38Z"/><path class="cls-3" d="M16.89,11.57l0,0a.5.5,0,0,1,0,.13C16.8,11.82,16.86,11.54,16.89,11.57Z"/><path class="cls-3" d="M16.93,11.68s0,.07-.05.1A.19.19,0,0,0,16.93,11.68Z"/><path class="cls-3" d="M17.26,12.05l-.12,0Z"/><path class="cls-3" d="M17.94,12.09l.07,0H17.9Z"/><polygon class="cls-3" points="17.02 12.15 17.01 12.15 17.05 12.16 17.02 12.15"/><path class="cls-3" d="M16.72,12l0-.08Z"/><path class="cls-3" d="M16.8,11.75c0,.07,0,.11,0,0S16.81,11.73,16.8,11.75Z"/><path class="cls-3" d="M17.43,11.68l.05,0s0,0-.05,0Z"/></g></g></svg>