<svg xmlns="http://www.w3.org/2000/svg" xmlns:xlink="http://www.w3.org/1999/xlink" viewBox="0 0 82.35 97.18"><defs><style>.cls-1{fill:none;}.cls-2{clip-path:url(#clip-path);}.cls-3{fill:#77bdc5;}.cls-4{fill:#dcad6e;}.cls-5{fill:#b58e5b;}.cls-6{fill:#4d4d4d;}</style><clipPath id="clip-path" transform="translate(-0.05 -0.26)"><rect class="cls-1" x="6.18" y="6.18" width="70" height="70" rx="20.09" transform="translate(-17.06 41.18) rotate(-45)"/></clipPath></defs><g id="圖層_2" data-name="圖層 2"><g id="圖層_1-2" data-name="圖層 1"><g class="cls-2"><rect class="cls-3" x="6.23" y="6.43" width="70" height="70" rx="20.09" transform="translate(-17.27 41.03) rotate(-45)"/><path class="cls-4" d="M69.67,55.44c1.13,7.05,1.59,6.84,1.84,10S72.41,77,66.9,84.91c-.61.88-8.22,11.46-20.25,12.45-18.9,1.54-35-21.76-35.44-36.11-.16-5.13-.37-11.34,3.23-16.6A22.16,22.16,0,0,0,18.12,38c.84-2.72.5-4,1.38-7.47a27.35,27.35,0,0,1,2.3-6.23c3.26-5.57,12.06-7.8,18.18-7.88a28.3,28.3,0,0,1,19.1,7.47c6.19,5.6,7.78,12.43,8.74,16.6C68.89,45.07,68.16,46.07,69.67,55.44Z" transform="translate(-0.05 -0.26)"/><ellipse class="cls-5" cx="36.71" cy="46.26" rx="1.15" ry="1.45"/><ellipse class="cls-5" cx="39.24" cy="76.97" rx="1.38" ry="1.45"/><ellipse class="cls-5" cx="42.69" cy="87.56" rx="1.61" ry="1.66"/><ellipse class="cls-5" cx="57.42" cy="68.05" rx="1.15" ry="1.25"/><ellipse class="cls-5" cx="58.8" cy="80.09" rx="1.15" ry="1.25"/><ellipse class="cls-5" cx="28.47" cy="63.53" rx="1.13" ry="1.48" transform="translate(-28.72 23.51) rotate(-31.02)"/><ellipse class="cls-5" cx="18.31" cy="51.96" rx="0.83" ry="0.97" transform="translate(-27.79 21.46) rotate(-37.29)"/><ellipse class="cls-5" cx="25.67" cy="67.74" rx="0.83" ry="0.97" transform="translate(-35.84 29.15) rotate(-37.29)"/><ellipse class="cls-5" cx="25.21" cy="76.45" rx="0.83" ry="0.97" transform="translate(-41.22 30.65) rotate(-37.29)"/><ellipse class="cls-5" cx="46.85" cy="92.64" rx="0.83" ry="0.97" transform="translate(-46.6 47.06) rotate(-37.29)"/><ellipse class="cls-5" cx="34.42" cy="27.48" rx="0.83" ry="0.97" transform="translate(-9.66 26.21) rotate(-37.29)"/><ellipse class="cls-5" cx="47.31" cy="60.26" rx="0.83" ry="0.97" transform="translate(-26.89 40.72) rotate(-37.29)"/><ellipse class="cls-5" cx="59.5" cy="60.26" rx="1.28" ry="1.6" transform="matrix(0.84, -0.54, 0.54, 0.84, -23.17, 41.4)"/><path class="cls-6" d="M39.87,32.62s.14,0,.12,0l-.16,0Z" transform="translate(-0.05 -0.26)"/><path class="cls-6" d="M40.19,32.49a.84.84,0,0,0-.35-.12,2.09,2.09,0,0,0,.26.13s-.06,0-.12,0,0,0,.06.06.14,0,.05-.1Z" transform="translate(-0.05 -0.26)"/><path class="cls-6" d="M40.53,33.36h0Z" transform="translate(-0.05 -0.26)"/><path class="cls-6" d="M40.15,33.84s0,0,0,0Z" transform="translate(-0.05 -0.26)"/><path class="cls-6" d="M40.18,33.63v0S40.19,33.63,40.18,33.63Z" transform="translate(-0.05 -0.26)"/><path class="cls-6" d="M40.53,33.36l-.06,0C40.53,33.39,40.52,33.37,40.53,33.36Z" transform="translate(-0.05 -0.26)"/><path class="cls-6" d="M40,32s0,0,0,0v0Z" transform="translate(-0.05 -0.26)"/><path class="cls-6" d="M40.41,32.92h0Z" transform="translate(-0.05 -0.26)"/><path class="cls-6" d="M40.31,32.6l.19-.05-.1,0Z" transform="translate(-0.05 -0.26)"/><path class="cls-6" d="M40.48,32.26v0Z" transform="translate(-0.05 -0.26)"/><path class="cls-6" d="M40.39,33.15h0Z" transform="translate(-0.05 -0.26)"/><path class="cls-6" d="M39,33.38h0Z" transform="translate(-0.05 -0.26)"/><polygon class="cls-6" points="39.8 32.67 39.8 32.68 39.88 32.72 39.8 32.67"/><path class="cls-6" d="M40.24,33.43Z" transform="translate(-0.05 -0.26)"/><path class="cls-6" d="M40.4,33c.07,0,.11,0,.2-.05A.84.84,0,0,0,40.4,33Z" transform="translate(-0.05 -0.26)"/><path class="cls-6" d="M40,32l0,0A0,0,0,0,0,40,32Z" transform="translate(-0.05 -0.26)"/><polygon class="cls-6" points="40.54 32.69 40.54 32.69 40.55 32.68 40.54 32.69"/><path class="cls-6" d="M40,33h0Z" transform="translate(-0.05 -0.26)"/><path class="cls-6" d="M39.91,33.38l0,0Z" transform="translate(-0.05 -0.26)"/><path class="cls-6" d="M39.85,32.78s0,0,0,0h0S39.88,32.79,39.85,32.78Z" transform="translate(-0.05 -0.26)"/><polygon class="cls-6" points="39.85 32.36 39.83 32.33 39.83 32.35 39.85 32.36"/><path class="cls-6" d="M39.85,34.34a1.09,1.09,0,0,1,.08-.15C39.86,34.31,39.76,34.34,39.85,34.34Z" transform="translate(-0.05 -0.26)"/><path class="cls-6" d="M40,32.07,40,32v0Z" transform="translate(-0.05 -0.26)"/><path class="cls-6" d="M38.85,32.13a.35.35,0,0,1,0-.08A.14.14,0,0,0,38.85,32.13Z" transform="translate(-0.05 -0.26)"/><path class="cls-6" d="M39.16,32.86v0A0,0,0,0,0,39.16,32.86Z" transform="translate(-0.05 -0.26)"/><path class="cls-6" d="M39,31.79l.09,0,0,0Z" transform="translate(-0.05 -0.26)"/><path class="cls-6" d="M39.93,34.19Z" transform="translate(-0.05 -0.26)"/><path class="cls-6" d="M39.31,34.43s.18-.13.28-.22-.09.12-.16.21.25-.18.26-.17l-.07.08c.17-.15.13,0,.34-.2l0,.06.21-.3s.13-.16,0,0a.73.73,0,0,0-.09.11l.07-.07c-.11.21-.09.08-.19.24.11-.07.28-.27.31-.23-.08.23-.19.1-.19.29l-.05-.08c-.13.34,0,0-.2.34.07,0,.12,0,.21,0a1.16,1.16,0,0,1,.31-.11c.09-.15,0-.18.08-.32s.29-.15.44-.18a.36.36,0,0,0,.39-.36c0-.16-.29-.14-.11-.34h.22c.06-.27-.31,0-.15-.24.09,0,.08.07.1,0,.18-.2-.13,0-.12-.07l.18-.13c0-.11-.18-.09-.23-.16a.42.42,0,0,0,.12-.14c-.12-.05-.16-.29-.31-.48l-.11.11a.1.1,0,0,1,0-.1c-.06-.08,0,.09-.08.14s0-.1,0-.14c-.16.08-.35.19-.48.06s0,0,0-.05-.07.31-.18.2v0c-.24,0-.34.26-.55.15.12.18-.18,0,0,.26-.17,0-.18-.11-.37-.06s.1.17.09.23l-.12-.09a.8.8,0,0,0,.08.16l-.18-.06v.08a.15.15,0,0,1,.13,0c0,.1-.2.18-.28.18a1.24,1.24,0,0,0,.1.31c-.06,0-.09-.06-.12-.11.15.19-.17.05,0,.22,0,0,.09,0,.12,0a.26.26,0,0,0,.06.34l-.1,0c.07.2.26.3.41.41,0-.08.11-.21.15-.2l-.08.14c.08-.06,0-.08.12-.14s-.07.18-.14.2h.1s0,0-.09.1.06.23.19.09l0,.05a1.13,1.13,0,0,0,.47.06c0-.14.07-.11.12-.22.1.05.24.14.35.09s0-.12,0-.22c0,.12.15.06.13.17A.46.46,0,0,0,41,34c-.05,0-.07,0-.09-.08s.07,0,.11,0v0c0-.15.12-.17.25-.22s.24-.16.13-.31v0a1.63,1.63,0,0,0-.11-.23c0-.08.09.08.17,0-.2-.24,0-.35-.16-.52.17-.11.11-.25,0-.37a.46.46,0,0,1-.16-.37l-.06.08c-.09,0,0-.09,0-.14s0,.11-.07.12c-.29-.21-.49-.69-.85-1-.13-.1,0,.54-.18.19v-.18c-.1.06-.21,0-.35-.09a.41.41,0,0,0-.17.3c0-.06,0-.11,0-.13s-.11.15-.06.24,0-.08-.09-.11,0,.25-.07.16a.08.08,0,0,1,0-.06c0,.08-.1.11,0,.2-.09,0,0,.19-.14.19.1.15-.13.08,0,.24-.17-.16-.21,0-.13.15-.06-.06-.08,0-.16-.07a.16.16,0,0,0,.11.2c-.28,0,.16.31-.18.27a5.87,5.87,0,0,0,.26.58c-.23,0,0-.18-.27-.17.1.2.31.23.28.36s-.1,0-.14,0,0,.26.2.33H39s0,.07.08,0h0c.13-.08.32,0,.39-.06-.28.08,0,.12-.39.21a.19.19,0,0,0,.14,0s0,0-.13.06l.08,0c.06,0,.11,0,.13,0s-.07,0-.12,0c.11,0,.21,0,.22.07s-.06,0-.07,0,.32,0,.34.14c-.17.13,0,.08-.12.23h.1l0-.09s.17,0,.19,0l-.08.05.13,0,0-.09c.09-.06.09-.22.13-.14s0,0,.06.13h0s.07-.11.11-.06,0,.21,0,.25c0-.15.2-.06.2-.24a.62.62,0,0,0,0,.16s0-.09,0-.14.06,0,.09.12-.14-.19,0-.17c0,0,0,0,0,.05.15,0,.11-.22.2-.24s0,.09.14.15c.05-.12-.06-.32,0-.4h0c-.24-.12.16,0,.06-.12s.13.07.11,0,0-.18-.07-.3l.06,0c.07,0,.06-.11.1-.16s0,0-.15,0c.4-.12-.2-.27.12-.4,0,0,.06,0,.06,0l-.08-.11c-.11,0-.06,0-.15.06s-.13,0-.13,0,.19,0,.25-.06h-.11c.19-.08-.23,0-.11-.06h.06s-.12,0-.11-.06.07,0,.18,0-.27,0-.15-.09l.09,0c.14-.08.1-.08.12-.12h0l0-.09,0,0c-.34.05-.09-.09-.33-.07.23,0,.12,0,.26-.09s.07-.08.11-.09c-.13,0,.07-.09-.12-.07,0,0,0,0,.1-.08-.05,0-.07.05-.13.07s.11-.24-.14-.22h0l-.48-.07c0,.13.1.25.12.35s-.12-.12-.12-.12-.1,0-.08.1a.2.2,0,0,0-.12-.06s.14.11.06.11a.61.61,0,0,1-.15-.12.93.93,0,0,0,.1.2c-.09,0-.11-.07-.15-.11a.21.21,0,0,0,.14.22l0,0s-.11,0-.13,0,.07,0,.11,0l0,0c.28.08,0-.12.05-.17l.17.12-.12-.13c.06,0,.16.07.17.11s0-.07.07,0l0,0,0-.07s.12.09.09.09-.06-.17.07-.08h0v0l-.29,0c.08,0,.13-.08.29-.1l-.31.22.14-.07s0,0-.06.06c.11,0,0,0,.15-.07-.1.1.11.09-.1.19.11,0,.06-.07.15-.06-.23.12.06,0,0,.11s-.08,0-.18.06c.23-.06,0,.09,0,.1s.1,0,.17.07-.07.12-.13.18h0c.18,0,.16,0,.2.06H40.4v0a.14.14,0,0,1,.11,0h-.13s.16.07.08.13c.12,0,.35-.06.44,0a.51.51,0,0,1-.22,0s.06,0,0,0l-.12,0c-.05,0,.1,0,.09,0s-.07,0-.15,0,0,0,0,0a.24.24,0,0,1-.15,0l.15,0s-.12,0-.18,0,0,0,.14,0h-.11c.07,0,0,.1.16.1h0c.13.1-.11.13-.08.21l0,0c0,.06,0,.1.08.18a.27.27,0,0,1-.15,0s.07.07,0,.07-.07,0,0-.06-.12,0,0,.09c-.1-.08-.15-.06-.13,0l.09,0s0,0,0,0l-.13-.1c.17.12.18.25.14.08v.08c0-.09,0-.11,0-.11v-.05s0,.11,0,.07,0,.21-.11.25.07-.24.1-.28,0,0,0,0a.22.22,0,0,0,0-.1l0,0c0-.06,0-.06,0-.14a.24.24,0,0,0-.06.11c0-.08,0,0,0-.08s-.05.08-.06.08-.09.07-.14.05.16-.14.08-.11.12-.11.16-.14,0-.08,0-.09l0,0h0l-.1.06.06,0a3,3,0,0,1-.27.15s0,0,0,0l.07,0h0s.16-.08.18-.07,0,0,0,0h.05c.11-.1-.17,0-.19,0s.15-.07.13-.07-.13.06-.2.07-.07,0-.07,0l0,0c-.08,0-.08,0-.12,0s.06,0,.08,0c-.16,0,.14-.12,0-.12,0,0,.16-.05.19-.07s.11-.07,0-.09a.37.37,0,0,1-.21,0l.1.06h-.18s.09,0,.07,0a.26.26,0,0,0-.17,0c.17-.08-.12,0,0-.12l.29,0c.12-.07-.16,0-.09-.1h0c-.12,0,0,0-.07,0l.2,0c-.07,0,0,0-.19-.08l.13,0c.06,0-.27-.15-.23-.19s.17.09.24.15,0,0,0-.05-.12-.1,0-.06-.14-.1-.13-.11l.05,0a1.15,1.15,0,0,0-.17-.13c.3.18,0-.18.28,0a.3.3,0,0,1,0-.16s0,.06,0,0-.19-.37-.09-.29.05.13.1.2c.22.41,0-.11.13.13v0c.07.14,0-.21,0-.15l0,.07a.49.49,0,0,1,0-.15c0-.1,0-.12,0-.15a.79.79,0,0,0,0,.25s-.07-.28,0-.3a2.5,2.5,0,0,1,.09.37h0c.05.23,0,0,0,.06v.09s0-.24.06-.18v-.07c0-.19,0,.13,0,0v.21s.07-.14.11-.14a1.52,1.52,0,0,0-.11.23s0,0,.06-.07,0,.06,0,0,.09-.16.12-.12c-.13.29,0,.16-.09.36.09,0,0,.09,0,.1.18-.09,0,0,.2-.06,0,0,0,0,0,0l-.11.07c-.06,0-.05,0-.1,0l-.14,0h.18c.12,0-.18,0-.07,0l-.07,0,.17.12-.1-.06s.14.22,0,.14l0-.06s.07.12,0,.07l0-.07s0,.12,0,.09l0-.08c0-.07,0,.22,0,.28a1.14,1.14,0,0,1,0-.27h0s0-.06,0,0a.3.3,0,0,1-.1.14c0-.11.06-.13.06-.15s.05-.06,0,0h0l-.08,0h0s0,0,0,0h0a.54.54,0,0,1-.15,0h.1l.07,0s0-.06.12.05c-.05-.05,0-.06-.08-.11l.11.1s.07,0,.1-.07l.06.08S40.2,33,40.24,33l.14.15s.16.11.08-.06l0,.09a.82.82,0,0,1,0-.14h0v.09h0s0-.1,0-.14v.14c0-.17,0-.22.06-.26s0,.11,0,.08,0-.12,0,0l0,.08s0,0,.07-.11,0,.08,0,.18c0-.06.07-.13.07-.08l0,.06c0,.1.09,0,0,.07l0,0s0-.06,0-.06l-.13.22c0-.07.13-.15.1-.1l0,0h0s0,0,0,0l0,0s0,0,0,0l.08-.07h0v0s.05,0,0,0l.07,0-.16.14a.11.11,0,0,0,0,.07h0v0s0,0,0,.08,0,0,0,0h0s0,0-.09.08-.15.14-.11.07,0,0,0,0-.08,0-.16,0-.17,0,0-.15-.07,0-.17,0l.16,0h-.19c-.06,0,0-.07.14-.1s.13,0,0-.07h-.1s0-.09.07-.06-.1,0,0,0l.07,0-.11-.1c.08,0,.29.12.33,0A.69.69,0,0,0,40,33s0,0-.13,0l0,0c-.21-.1-.41-.24-.6-.21l.1.12h-.11v-.06c-.11,0,0,0,0,.09a.31.31,0,0,0-.13,0l.19.15c-.09,0-.16-.09-.23,0,.09.07.21,0,.25.09s-.19,0-.12.06-.09,0-.11,0,0,.13.12.17c-.14,0,0,.14-.21.14l.08,0c.05,0,.09,0,.09.07-.27,0,0,.16-.29.19.24,0,.14.19.32.24,0,0-.06,0-.06,0s0,.1-.07.16c.18-.08.27,0,.41-.09-.12.15-.23.11-.37.22.13-.09.21,0,.31-.11a.49.49,0,0,1-.14.18c.22-.16.07,0,.22-.1,0,.11-.18.18-.07.14A.39.39,0,0,1,39.31,34.43Zm1.82-1.8h0v0Zm0-.11,0,0-.07.08A.89.89,0,0,0,41.09,32.52Zm-.5.76,0,0h0Z" transform="translate(-0.05 -0.26)"/><polygon class="cls-6" points="40.6 32.97 40.6 32.97 40.62 32.96 40.6 32.97 40.6 32.97"/><path class="cls-6" d="M40.55,33.35h0Z" transform="translate(-0.05 -0.26)"/><polygon class="cls-6" points="39.16 32.38 39.19 32.4 39.18 32.36 39.16 32.38"/><path class="cls-6" d="M41,32.78l0,0Z" transform="translate(-0.05 -0.26)"/><path class="cls-6" d="M41,32.49l0-.05S41,32.48,41,32.49Z" transform="translate(-0.05 -0.26)"/><path class="cls-6" d="M41,32.26l-.06,0h0Z" transform="translate(-0.05 -0.26)"/><path class="cls-6" d="M39,33.7h0S39,33.7,39,33.7Z" transform="translate(-0.05 -0.26)"/><path class="cls-6" d="M40.08,34.37l-.06.05S40.06,34.45,40.08,34.37Z" transform="translate(-0.05 -0.26)"/><polygon class="cls-6" points="38.79 31.88 38.79 31.89 38.8 31.88 38.79 31.88"/><path class="cls-6" d="M40,34.4s0,0,.06,0S40,34.39,40,34.4Z" transform="translate(-0.05 -0.26)"/><polygon class="cls-6" points="39.78 32.01 39.77 32.02 39.79 32.03 39.78 32.01"/><path class="cls-6" d="M39.84,32.28v0S39.86,32.29,39.84,32.28Z" transform="translate(-0.05 -0.26)"/><path class="cls-6" d="M39.88,32.34l0,0S39.84,32.32,39.88,32.34Z" transform="translate(-0.05 -0.26)"/><path class="cls-6" d="M40.06,32l0,0Z" transform="translate(-0.05 -0.26)"/><path class="cls-6" d="M40.11,31.87s-.12,0-.12,0l0,0C40,31.87,40.17,31.94,40.11,31.87Z" transform="translate(-0.05 -0.26)"/><path class="cls-6" d="M40.36,32.34v-.07s-.1.08-.12.06C40.13,32.46,40.35,32.26,40.36,32.34Z" transform="translate(-0.05 -0.26)"/><path class="cls-6" d="M40.36,32.53s-.07,0-.1,0A.1.1,0,0,0,40.36,32.53Z" transform="translate(-0.05 -0.26)"/><path class="cls-6" d="M40.33,33.67l-.11-.06S40.26,33.64,40.33,33.67Z" transform="translate(-0.05 -0.26)"/><polygon class="cls-6" points="40.69 34.01 40.77 34.03 40.69 33.94 40.69 34.01"/><polygon class="cls-6" points="40.18 33.63 40.18 33.63 40.18 33.62 40.18 33.63"/><path class="cls-6" d="M40,32.76l-.14-.14S40,32.81,40,32.76Z" transform="translate(-0.05 -0.26)"/><path class="cls-6" d="M40.25,32.54c0,.09,0,.15,0,.08S40.26,32.52,40.25,32.54Z" transform="translate(-0.05 -0.26)"/><polygon class="cls-6" points="39.99 33.04 39.99 33.04 39.85 33.04 39.86 33.04 39.99 33.04 39.99 33.04"/><path class="cls-6" d="M50.72,32.62s.14,0,.12,0l-.16,0Z" transform="translate(-0.05 -0.26)"/><path class="cls-6" d="M51,32.49a.84.84,0,0,0-.35-.12,2.09,2.09,0,0,0,.26.13s-.06,0-.12,0,0,0,.06.06.14,0,0-.1Z" transform="translate(-0.05 -0.26)"/><path class="cls-6" d="M51.38,33.36h0Z" transform="translate(-0.05 -0.26)"/><path class="cls-6" d="M51,33.84s0,0,0,0Z" transform="translate(-0.05 -0.26)"/><path class="cls-6" d="M51,33.63v0Z" transform="translate(-0.05 -0.26)"/><path class="cls-6" d="M51.38,33.36l-.06,0C51.38,33.39,51.36,33.37,51.38,33.36Z" transform="translate(-0.05 -0.26)"/><path class="cls-6" d="M50.8,32s0,0,0,0v0Z" transform="translate(-0.05 -0.26)"/><path class="cls-6" d="M51.26,32.92h0Z" transform="translate(-0.05 -0.26)"/><path class="cls-6" d="M51.16,32.6l.19-.05-.1,0Z" transform="translate(-0.05 -0.26)"/><path class="cls-6" d="M51.33,32.26v0Z" transform="translate(-0.05 -0.26)"/><path class="cls-6" d="M51.24,33.15h0Z" transform="translate(-0.05 -0.26)"/><path class="cls-6" d="M49.86,33.38h0Z" transform="translate(-0.05 -0.26)"/><polygon class="cls-6" points="50.65 32.67 50.65 32.68 50.73 32.72 50.65 32.67"/><path class="cls-6" d="M51.09,33.43Z" transform="translate(-0.05 -0.26)"/><path class="cls-6" d="M51.25,33c.07,0,.11,0,.19-.05A.77.77,0,0,0,51.25,33Z" transform="translate(-0.05 -0.26)"/><path class="cls-6" d="M50.82,32v0S50.82,32,50.82,32Z" transform="translate(-0.05 -0.26)"/><polygon class="cls-6" points="51.39 32.69 51.39 32.69 51.4 32.68 51.39 32.69"/><path class="cls-6" d="M50.88,33h0Z" transform="translate(-0.05 -0.26)"/><path class="cls-6" d="M50.76,33.38l0,0Z" transform="translate(-0.05 -0.26)"/><path class="cls-6" d="M50.7,32.78s0,0,0,0h0S50.72,32.79,50.7,32.78Z" transform="translate(-0.05 -0.26)"/><polygon class="cls-6" points="50.7 32.36 50.68 32.33 50.68 32.35 50.7 32.36"/><path class="cls-6" d="M50.7,34.34a1.09,1.09,0,0,1,.08-.15C50.71,34.31,50.61,34.34,50.7,34.34Z" transform="translate(-0.05 -0.26)"/><path class="cls-6" d="M50.87,32.07l0,0v0Z" transform="translate(-0.05 -0.26)"/><path class="cls-6" d="M49.7,32.13a.35.35,0,0,1,0-.08A.14.14,0,0,0,49.7,32.13Z" transform="translate(-0.05 -0.26)"/><path class="cls-6" d="M50,32.86v0S50,32.85,50,32.86Z" transform="translate(-0.05 -0.26)"/><path class="cls-6" d="M49.84,31.79l.1,0,0,0Z" transform="translate(-0.05 -0.26)"/><path class="cls-6" d="M50.78,34.19Z" transform="translate(-0.05 -0.26)"/><path class="cls-6" d="M50.16,34.43s.18-.13.28-.22-.1.12-.16.21.24-.18.26-.17l-.07.08c.17-.15.13,0,.34-.2l0,.06.21-.3s.13-.16,0,0S51,33.93,51,34l.07-.07c-.11.21-.09.08-.19.24.11-.07.28-.27.31-.23-.08.23-.19.1-.19.29l-.06-.08c-.12.34,0,0-.19.34.07,0,.12,0,.21,0a1.16,1.16,0,0,1,.31-.11c.09-.15,0-.18.08-.32s.29-.15.44-.18a.37.37,0,0,0,.39-.36c0-.16-.29-.14-.11-.34h.21c.07-.27-.3,0-.14-.24.09,0,.07.07.1,0,.17-.2-.13,0-.12-.07l.18-.13c0-.11-.18-.09-.23-.16a.42.42,0,0,0,.12-.14c-.12-.05-.16-.29-.31-.48l-.11.11a.12.12,0,0,1,0-.1c0-.08,0,.09-.07.14s0-.1,0-.14c-.16.08-.35.19-.48.06s0,0,0-.05-.07.31-.18.2v0c-.25,0-.34.26-.56.15.13.18-.17,0,0,.26-.16,0-.17-.11-.36-.06s.1.17.09.23l-.12-.09a.8.8,0,0,0,.08.16L50,32.75v.08s.09,0,.13,0-.2.18-.28.18a1.24,1.24,0,0,0,.1.31c-.06,0-.09-.06-.12-.11.15.19-.17.05,0,.22,0,0,.09,0,.12,0a.26.26,0,0,0,.06.34l-.11,0c.08.2.27.3.41.41,0-.08.12-.21.16-.2l-.08.14c.08-.06,0-.08.12-.14s-.07.18-.14.2h.1s-.05,0-.09.1.06.23.19.09l0,.05a1.1,1.1,0,0,0,.46.06c0-.14.08-.11.12-.22.11.05.24.14.36.09s0-.12,0-.22c0,.12.15.06.12.17a.44.44,0,0,0,.24-.32c-.05,0-.08,0-.09-.08s.07,0,.11,0v0c0-.15.12-.17.25-.22s.24-.16.12-.31l0,0a1.63,1.63,0,0,0-.11-.23c0-.08.09.08.17,0-.2-.24,0-.35-.16-.52.17-.11.11-.25,0-.37A.46.46,0,0,1,52,32l-.06.08c-.09,0,0-.09,0-.14s0,.11-.07.12c-.29-.21-.49-.69-.85-1-.13-.1,0,.54-.18.19v-.18c-.1.06-.22,0-.35-.09a.38.38,0,0,0-.17.3c0-.06,0-.11,0-.13s-.12.15-.06.24,0-.08-.09-.11,0,.25-.08.16a.15.15,0,0,1,0-.06c0,.08-.1.11,0,.2-.09,0,0,.19-.14.19.1.15-.13.08,0,.24-.17-.16-.21,0-.13.15-.06-.06-.08,0-.16-.07a.16.16,0,0,0,.11.2c-.28,0,.16.31-.18.27a5.87,5.87,0,0,0,.26.58c-.23,0,0-.18-.27-.17.1.2.31.23.28.36s-.1,0-.14,0,0,.26.2.33h-.07s0,.07.08,0h0c.13-.08.32,0,.39-.06-.28.08,0,.12-.39.21a.19.19,0,0,0,.14,0s0,0-.13.06l.08,0c.06,0,.1,0,.13,0s-.07,0-.12,0c.11,0,.21,0,.21.07s-.05,0-.06,0,.32,0,.34.14c-.17.13,0,.08-.12.23h.1l0-.09s.17,0,.19,0l-.08.05.13,0,0-.09c.1-.06.1-.22.14-.14s.05,0,.05.13h0s.08-.11.12-.06,0,.21,0,.25c0-.15.2-.06.2-.24a.38.38,0,0,0,0,.16s0-.09,0-.14.06,0,.09.12-.14-.19,0-.17a.43.43,0,0,1,0,.05c.15,0,.11-.22.2-.24s0,.09.14.15c0-.12-.06-.32,0-.4h0c-.24-.12.16,0,.06-.12s.13.07.1,0,0-.18-.06-.3l.06,0c.07,0,.06-.11.1-.16s0,0-.15,0c.4-.12-.2-.27.12-.4,0,0,.06,0,.06,0l-.08-.11c-.11,0-.06,0-.15.06s-.13,0-.13,0,.18,0,.25-.06h-.11c.19-.08-.23,0-.11-.06h.06s-.12,0-.11-.06.07,0,.18,0-.27,0-.15-.09l.09,0c.14-.08.1-.08.11-.12h0l0-.09,0,0c-.35.05-.09-.09-.33-.07.23,0,.12,0,.26-.09s.07-.08.11-.09c-.13,0,.07-.09-.12-.07,0,0,0,0,.1-.08-.05,0-.07.05-.13.07s.11-.24-.14-.22h0l-.48-.07c0,.13.1.25.12.35s-.12-.12-.12-.12-.1,0-.08.1a.2.2,0,0,0-.12-.06s.14.11.06.11l-.16-.12a2,2,0,0,0,.11.2c-.09,0-.11-.07-.16-.11a.24.24,0,0,0,.15.22l0,0s-.11,0-.13,0,.07,0,.11,0l0,0c.28.08,0-.12.05-.17l.17.12-.12-.13a.34.34,0,0,1,.17.11c.1,0-.05-.07.06,0l0,0,0-.07s.12.09.09.09-.06-.17.06-.08h0a.08.08,0,0,0,0,0l-.28,0c.08,0,.12-.08.29-.1l-.31.22.14-.07a.15.15,0,0,1-.06.06c.11,0,.05,0,.15-.07-.11.1.11.09-.11.19.12,0,.07-.07.16-.06-.23.12.06,0,0,.11s-.08,0-.18.06c.22-.06,0,.09,0,.1s.1,0,.17.07-.07.12-.13.18h0c.18,0,.16,0,.2.06h-.21v0a.14.14,0,0,1,.11,0h-.14s.17.07.08.13c.13,0,.36-.06.45,0a.51.51,0,0,1-.22,0s.06,0,0,0l-.12,0c-.05,0,.1,0,.09,0s-.07,0-.15,0,0,0,0,0a.24.24,0,0,1-.15,0l.14,0s-.12,0-.17,0,0,0,.14,0h-.11c.07,0,0,.1.16.1h0c.13.1-.11.13-.08.21l0,0c0,.06,0,.1.08.18a.27.27,0,0,1-.15,0s.07.07,0,.07-.07,0,0-.06-.12,0,0,.09c-.1-.08-.15-.06-.13,0l.09,0s0,0,0,0l-.13-.1c.17.12.18.25.14.08v.08a.72.72,0,0,1,0-.11.11.11,0,0,0,0-.05s0,.11,0,.07,0,.21-.11.25.07-.24.1-.28,0,0,0,0a.22.22,0,0,0,0-.1l0,0a.24.24,0,0,1,.05-.14.17.17,0,0,0-.06.11c0-.08,0,0,0-.08l-.06.08c0-.09-.09.07-.14.05s.16-.14.08-.11.12-.11.16-.14,0-.08,0-.09l0,0h0l-.1.06.06,0c-.07,0-.17.11-.27.15s0,0,0,0l.07,0h0s.15-.08.18-.07,0,0,0,0h.05c.11-.1-.17,0-.19,0s.15-.07.13-.07-.13.06-.21.07-.06,0-.06,0l0,0c-.09,0-.08,0-.12,0s.06,0,.08,0c-.16,0,.14-.12,0-.12a1.65,1.65,0,0,1,.2-.07c-.12,0,.11-.07,0-.09a.38.38,0,0,1-.21,0l.1.06h-.18s.08,0,.07,0a.26.26,0,0,0-.17,0c.17-.08-.12,0,0-.12l.29,0c.12-.07-.16,0-.09-.1h-.05c-.12,0,0,0-.07,0l.2,0c-.07,0,0,0-.19-.08l.13,0c.06,0-.28-.15-.23-.19s.17.09.24.15,0,0,0-.05-.13-.1,0-.06-.14-.1-.13-.11l0,0a1.15,1.15,0,0,0-.17-.13c.3.18,0-.18.28,0a.3.3,0,0,1,0-.16s0,.06,0,0-.19-.37-.09-.29.05.13.1.2c.22.41,0-.11.13.13v0c.07.14,0-.21,0-.15l0,.07a.49.49,0,0,1,0-.15c0-.1,0-.12,0-.15a1.18,1.18,0,0,0,0,.25s-.06-.28,0-.3a2.5,2.5,0,0,1,.09.37h0c0,.23,0,0,0,.06v.09s0-.24.05-.18v-.07c0-.19,0,.13,0,0v.21s.07-.14.11-.14a1.52,1.52,0,0,0-.11.23s0,0,.06-.07,0,.06,0,0,.09-.16.12-.12c-.12.29,0,.16-.08.36.09,0,0,.09,0,.1.19-.09,0,0,.21-.06,0,0,0,0,0,0l-.12.07c-.06,0,0,0-.09,0l-.15,0h.18c.13,0-.18,0-.06,0l-.07,0,.17.12-.1-.06s.14.22,0,.14l0-.06s.07.12,0,.07l0-.07s0,.12,0,.09l0-.08c0-.07,0,.22,0,.28a1.41,1.41,0,0,1,0-.27h0s0-.06,0,0a.3.3,0,0,1-.1.14c0-.11,0-.13,0-.15s.06-.06,0,0h0l-.08,0h0a.54.54,0,0,1-.15,0h.09l.08,0s0-.06.12.05c-.05-.05,0-.06-.08-.11l.1.1c.06,0,.08,0,.11-.07l.06.08s-.23-.35-.2-.38l.15.15c.05,0,.16.11.08-.06l0,.09a.82.82,0,0,1,0-.14h0v.09h0s0-.1,0-.14v.14c0-.17,0-.22.06-.26s0,.11,0,.08,0-.12.06,0l0,.08s0,0,.07-.11,0,.08,0,.18c0-.06.07-.13.07-.08l0,.06c0,.1.08,0,0,.07l0,0s0-.06,0-.06l-.13.22c0-.07.13-.15.1-.1l0,0h0s0,0,0,0l0,0s0,0,0,0l.08-.07h0v0s.05,0,0,0l.07,0-.16.14a.11.11,0,0,0,0,.07h0v0s0,0,0,.08,0,0,0,0h0s0,0-.09.08-.15.14-.11.07,0,0,0,0-.08,0-.16,0-.17,0-.05-.15-.07,0-.17,0l.16,0h-.19c-.06,0,0-.07.14-.1s.13,0,0-.07h-.1s0-.09.07-.06-.1,0-.05,0l.08,0-.11-.1c.07,0,.29.12.33,0a.81.81,0,0,0-.23-.17s-.06,0-.13,0l0,0a1.18,1.18,0,0,0-.61-.21l.11.12h-.12l0-.06c-.11,0,0,0,0,.09a.31.31,0,0,0-.13,0l.19.15c-.1,0-.17-.09-.23,0s.21,0,.25.09-.19,0-.12.06-.09,0-.11,0,0,.13.12.17c-.14,0,0,.14-.21.14l.08,0c.05,0,.09,0,.09.07-.27,0,0,.16-.29.19.24,0,.14.19.31.24,0,0-.06,0,0,0s-.05.1-.07.16c.18-.08.27,0,.41-.09-.12.15-.23.11-.38.22.14-.09.22,0,.32-.11a.63.63,0,0,1-.14.18c.22-.16.07,0,.22-.1-.06.11-.18.18-.07.14A.47.47,0,0,1,50.16,34.43ZM52,32.63h0v0Zm0-.11a.43.43,0,0,1,0,0l-.06.08A.89.89,0,0,0,51.94,32.52Zm-.5.76,0,0h0Z" transform="translate(-0.05 -0.26)"/><polygon class="cls-6" points="51.45 32.97 51.45 32.97 51.47 32.96 51.45 32.97 51.45 32.97"/><path class="cls-6" d="M51.4,33.35h0Z" transform="translate(-0.05 -0.26)"/><polygon class="cls-6" points="50.01 32.38 50.04 32.4 50.03 32.36 50.01 32.38"/><path class="cls-6" d="M51.89,32.78l0,0Z" transform="translate(-0.05 -0.26)"/><path class="cls-6" d="M51.85,32.49l0-.05Z" transform="translate(-0.05 -0.26)"/><path class="cls-6" d="M51.85,32.26l-.06,0h0Z" transform="translate(-0.05 -0.26)"/><path class="cls-6" d="M49.88,33.7h0S49.85,33.7,49.88,33.7Z" transform="translate(-0.05 -0.26)"/><path class="cls-6" d="M50.92,34.37l-.05.05S50.91,34.45,50.92,34.37Z" transform="translate(-0.05 -0.26)"/><polygon class="cls-6" points="49.64 31.88 49.64 31.89 49.64 31.88 49.64 31.88"/><path class="cls-6" d="M50.81,34.4s0,0,.06,0S50.83,34.39,50.81,34.4Z" transform="translate(-0.05 -0.26)"/><polygon class="cls-6" points="50.63 32.01 50.62 32.02 50.64 32.03 50.63 32.01"/><path class="cls-6" d="M50.69,32.28v0S50.71,32.29,50.69,32.28Z" transform="translate(-0.05 -0.26)"/><path class="cls-6" d="M50.73,32.34l0,0S50.69,32.32,50.73,32.34Z" transform="translate(-0.05 -0.26)"/><path class="cls-6" d="M50.91,32l0,0Z" transform="translate(-0.05 -0.26)"/><path class="cls-6" d="M51,31.87s-.12,0-.12,0l0,0C50.82,31.87,51,31.94,51,31.87Z" transform="translate(-0.05 -0.26)"/><path class="cls-6" d="M51.21,32.34v-.07s-.1.08-.12.06C51,32.46,51.2,32.26,51.21,32.34Z" transform="translate(-0.05 -0.26)"/><path class="cls-6" d="M51.21,32.53s-.07,0-.1,0A.1.1,0,0,0,51.21,32.53Z" transform="translate(-0.05 -0.26)"/><path class="cls-6" d="M51.18,33.67l-.11-.06S51.11,33.64,51.18,33.67Z" transform="translate(-0.05 -0.26)"/><polygon class="cls-6" points="51.53 34.01 51.62 34.03 51.54 33.94 51.53 34.01"/><polygon class="cls-6" points="51.03 33.63 51.03 33.63 51.03 33.62 51.03 33.63"/><path class="cls-6" d="M50.85,32.76l-.14-.14S50.89,32.81,50.85,32.76Z" transform="translate(-0.05 -0.26)"/><path class="cls-6" d="M51.1,32.54c0,.09,0,.15,0,.08S51.1,32.52,51.1,32.54Z" transform="translate(-0.05 -0.26)"/><polygon class="cls-6" points="50.84 33.04 50.84 33.04 50.7 33.04 50.71 33.04 50.84 33.04 50.84 33.04"/><path class="cls-6" d="M45.61,37.83h0Z" transform="translate(-0.05 -0.26)"/><path class="cls-6" d="M45.92,37.81c-.08,0-.22,0-.37,0h.28s-.06,0-.12,0h.07c.13,0,.13,0,0,0Z" transform="translate(-0.05 -0.26)"/><path class="cls-6" d="M46.18,37.54h0Z" transform="translate(-0.05 -0.26)"/><path class="cls-6" d="M46.27,37.38h0Z" transform="translate(-0.05 -0.26)"/><path class="cls-6" d="M46.45,37.35h0Z" transform="translate(-0.05 -0.26)"/><path class="cls-6" d="M46.18,37.54h0Z" transform="translate(-0.05 -0.26)"/><path class="cls-6" d="M45.52,37.77h0Z" transform="translate(-0.05 -0.26)"/><path class="cls-6" d="M46.31,37.62Z" transform="translate(-0.05 -0.26)"/><path class="cls-6" d="M46.34,37.67h0Z" transform="translate(-0.05 -0.26)"/><path class="cls-6" d="M46.09,37.76h0Z" transform="translate(-0.05 -0.26)"/><path class="cls-6" d="M46.34,37.58h0Z" transform="translate(-0.05 -0.26)"/><path class="cls-6" d="M45.29,36h0Z" transform="translate(-0.05 -0.26)"/><path class="cls-6" d="M46,36h0Z" transform="translate(-0.05 -0.26)"/><path class="cls-6" d="M46.63,37.3Z" transform="translate(-0.05 -0.26)"/><path class="cls-6" d="M46.53,36.83h0Z" transform="translate(-0.05 -0.26)"/><path class="cls-6" d="M45.54,37.77Z" transform="translate(-0.05 -0.26)"/><path class="cls-6" d="M46.23,36.83h0Z" transform="translate(-0.05 -0.26)"/><path class="cls-6" d="M46.55,37.18h0Z" transform="translate(-0.05 -0.26)"/><path class="cls-6" d="M46.35,37.27h0Z" transform="translate(-0.05 -0.26)"/><path class="cls-6" d="M46.35,37.14s0,0,0,0h0S46.37,37.13,46.35,37.14Z" transform="translate(-0.05 -0.26)"/><path class="cls-6" d="M46.35,37.09h0Z" transform="translate(-0.05 -0.26)"/><path class="cls-6" d="M45.35,36.16h0Z" transform="translate(-0.05 -0.26)"/><path class="cls-6" d="M45.6,37.77h0Z" transform="translate(-0.05 -0.26)"/><path class="cls-6" d="M45.24,37.13h0Z" transform="translate(-0.05 -0.26)"/><path class="cls-6" d="M45.37,36.51h0Z" transform="translate(-0.05 -0.26)"/><path class="cls-6" d="M45.24,37.1h0Z" transform="translate(-0.05 -0.26)"/><path class="cls-6" d="M45.48,36.16Z" transform="translate(-0.05 -0.26)"/><path class="cls-6" d="M45.15,36.11a1.72,1.72,0,0,0,.28,0c.06,0-.13,0-.23,0s.22,0,.21,0h-.07c.14,0,0,0,.19,0h.2s.12,0,0,0h-.22l.15,0h-.41s.09,0,0,0a1.77,1.77,0,0,0,.23,0c.17,0-.42,0-.2,0s.33,0,.22,0h-.2s.28,0,.15,0-.06,0-.09,0,.11,0,.11,0h-.17l.18,0h-.15c.08,0,0,0-.12,0h.14a.26.26,0,0,1-.09,0c-.06,0,.09,0,.15,0h-.13c.13,0,.27,0,.11,0h0c-.06,0,.3,0,.16,0h0c-.07,0,.07,0-.15,0,.21,0-.1,0,.2,0l-.3,0h.19c.07,0-.11,0-.19,0h0c.16,0-.16,0,0,0h.13c-.1,0-.1,0-.06,0h-.11s.06,0,.05,0h0c.1,0-.16,0,0,0h0s.06,0,.07,0h.22c-.05,0-.16,0-.14,0h.2a1.44,1.44,0,0,1-.21,0s0,0,.13,0h0c.19,0-.37,0-.11.05H45.3c.22,0,0,0,.12,0-.38,0,0,0-.22,0h.09c.09,0,0,0-.07,0h.13c.1,0-.13,0-.21.08s.46,0,.24,0h-.16c.2,0,0,0,.16.06h-.09c-.12,0,0,0,.1,0h-.14c-.07,0,.15,0,0,0h-.05a.73.73,0,0,0,.13,0c-.07,0,.06,0,0,0,.15,0-.08,0,.14,0-.23,0-.18,0-.08,0h-.16s0,0,.16,0c-.27,0,.22,0-.13,0l.26,0c-.23,0,0,0-.26,0,.09,0,.29,0,.23,0h-.14c.1,0,0,0,.11,0h-.06s0,0,.06,0h0a2.29,2.29,0,0,1,.39,0h-.45a.58.58,0,0,1,.16,0h-.12c.09,0,.19,0,.15,0h-.07s.26,0,.16,0h-.11s.13,0,.07,0h0c.1,0,.24,0,.19,0h-.12c.06,0,.13,0,.08,0h-.12s.08,0,0,0H45.5s.23,0,.19,0h0c.26,0-.13,0,0,0h-.12s.07,0,.15,0h-.07c-.06,0,0,0-.06,0h.15c-.39,0,.21,0-.11,0h-.06l.06,0h0a.4.4,0,0,0,.11,0c-.2,0,.23,0,.1,0h-.06s.11,0,.09,0h-.17s.25,0,.12,0h-.08c-.15,0-.11,0-.14,0h0c.34,0,.06,0,.29,0H45.5c.12,0-.1,0,.08,0h0c.17,0-.2,0,0,0l.34,0h-.18c-.07,0-.06,0,0,0h-.14s.18,0,.11,0h-.08c-.11,0,0,0,.09,0h0c.28,0-.05,0,0,0H46c.11,0-.07,0,0,0h.09c.12,0-.15,0,0,0H46c.14,0-.06,0,.18,0H46c.26,0,0,0,.08,0h.18c-.23,0,.05,0,0,0s-.08,0-.14,0a1.22,1.22,0,0,0,.17,0h0a1,1,0,0,1-.19,0h.23s-.16,0-.07,0h-.14s-.1,0-.09,0h.15s0,0,0,0h.14a.63.63,0,0,0-.18,0h0c-.15,0,.08,0,0,0h.05l-.14,0h.15s-.1,0,0,0,.07,0,.06,0,.12,0,0,0h0s0,0,0,0h.17c.2,0-.35,0,0,0a1.61,1.61,0,0,0-.22,0h.26c.1,0-.24,0-.18,0h.07c.08,0,0,0,.06,0h-.1c.07,0-.12,0-.14,0s.21,0,.14,0h.2c-.11,0,.08,0,.1,0h-.33c.06,0-.07,0,.09,0,0,0,.16,0,.19,0s0,0,0,0h0c.14,0-.18,0-.17,0h-.07c.07,0,0,0,0,0h-.14a.19.19,0,0,1,.08,0c-.16,0,.16,0,.05,0h.21c-.11,0,.12,0,0,0h-.3s.08,0,.06,0h-.17c.18,0-.11,0,0,0h.29c.13,0-.15,0-.08,0h0c-.12,0,0,0-.06,0h.19a1.31,1.31,0,0,0-.19,0h.13c.06,0-.28,0-.24,0h.2c.06,0-.13,0,0,0h-.09a.9.9,0,0,0-.17,0c.3,0,0,0,.24,0l-.07,0h0c.09,0-.29,0-.19,0a.85.85,0,0,1,.15,0c.33,0,0,0,.15,0h0c.11,0-.13,0-.1,0h0l-.26,0h.23c.18,0,0,0,0,0h.08s-.22,0-.21,0h-.06c-.19,0,.11,0,0,0h.2l-.23,0,.31,0s0,0-.12,0h0a1,1,0,0,1-.23,0,3.29,3.29,0,0,0,.4,0c-.15,0,.06,0,0,0-.29,0,0,0-.31,0h.53c-.11,0-.15,0-.11,0H46.5c-.16,0,.25,0,.09,0h.1a.61.61,0,0,0-.24,0h.14s-.26,0-.11,0h.07s-.14,0-.06,0h.07c.1,0-.2,0-.25,0a1.27,1.27,0,0,0,.32,0h0s-.18,0-.26,0c.23,0,.1,0,.23,0h-.19s-.16,0,.05,0h0c.2,0,.15,0,.15,0h-.26c.38,0-.14,0,.2,0h0s.06,0,0,0h-.1s.18,0,0,0h.1s.14,0-.15,0c.19,0,0,0-.06,0h-.06c.07,0-.14,0-.06,0h.09s0,0-.14,0h.11c.09,0-.17,0,0,0h.39c-.1,0-.31,0-.25,0h.08c.11,0,.06,0,.06,0h-.2c-.07,0-.13,0,0,0h-.23l.43,0a1.7,1.7,0,0,0-.32,0h.18a1.21,1.21,0,0,0-.21,0c.08,0,.17,0,.14,0h0c.3,0-.47,0-.09-.06h-.06c.16,0-.16-.06.1-.08.06,0-.06,0-.15,0h0c-.13,0,.37,0,.13,0h-.11s-.06,0,.06,0h.22a1.26,1.26,0,0,0-.28,0h-.78c-.11,0,0,0,0,0h.1a1.74,1.74,0,0,0-.23,0,2.42,2.42,0,0,1,.27,0c-.11,0-.19,0-.1,0h-.13a.47.47,0,0,0,.16,0c-.13,0,0,0-.19,0h.18c-.26,0,0,0-.3,0a1.27,1.27,0,0,1,.24,0s-.06,0,0,0h-.14a2.93,2.93,0,0,1,.36,0h-.34a.67.67,0,0,1,.19,0c-.12,0-.23,0-.15,0Zm.42.17Zm0,0h0Zm1,0h0Z" transform="translate(-0.05 -0.26)"/><path class="cls-6" d="M46.36,36.26h0Z" transform="translate(-0.05 -0.26)"/><path class="cls-6" d="M46.15,37.55h0Z" transform="translate(-0.05 -0.26)"/><polygon class="cls-6" points="45.25 36.24 45.29 36.24 45.26 36.23 45.25 36.24"/><path class="cls-6" d="M45.67,37.62h0Z" transform="translate(-0.05 -0.26)"/><path class="cls-6" d="M45.64,37.66h0Z" transform="translate(-0.05 -0.26)"/><path class="cls-6" d="M45.57,37.68h0Z" transform="translate(-0.05 -0.26)"/><path class="cls-6" d="M45.41,37.27h0Z" transform="translate(-0.05 -0.26)"/><path class="cls-6" d="M45.73,37.39h0Z" transform="translate(-0.05 -0.26)"/><polygon class="cls-6" points="45.18 36.88 45.19 36.88 45.19 36.88 45.18 36.88"/><path class="cls-6" d="M45.67,37.39Z" transform="translate(-0.05 -0.26)"/><path class="cls-6" d="M45.51,37.8h0Z" transform="translate(-0.05 -0.26)"/><path class="cls-6" d="M45.52,37.8h0Z" transform="translate(-0.05 -0.26)"/><path class="cls-6" d="M45.58,37.8h0Z" transform="translate(-0.05 -0.26)"/><path class="cls-6" d="M45.57,37.76h0Z" transform="translate(-0.05 -0.26)"/><path class="cls-6" d="M45.56,37.75h0C45.45,37.76,45.64,37.75,45.56,37.75Z" transform="translate(-0.05 -0.26)"/><path class="cls-6" d="M46.19,37.71h.1C46.45,37.71,46.17,37.72,46.19,37.71Z" transform="translate(-0.05 -0.26)"/><path class="cls-6" d="M46.27,37.68h0Z" transform="translate(-0.05 -0.26)"/><path class="cls-6" d="M46.27,37.49h.12S46.34,37.49,46.27,37.49Z" transform="translate(-0.05 -0.26)"/><polygon class="cls-6" points="45.55 37.19 45.47 37.2 45.59 37.2 45.55 37.19"/><polygon class="cls-6" points="46.46 37.17 46.48 37.17 46.44 37.17 46.46 37.17"/><path class="cls-6" d="M46.47,37.1h0Z" transform="translate(-0.05 -0.26)"/><path class="cls-6" d="M46.31,37h0Z" transform="translate(-0.05 -0.26)"/><polygon class="cls-6" points="46.51 36.27 46.57 36.28 46.52 36.27 46.51 36.27"/><path class="cls-6" d="M40.71,40s-.1.11-.07.1l.12-.11Z" transform="translate(-0.05 -0.26)"/><path class="cls-6" d="M40.59,40.29a1.13,1.13,0,0,0,.27-.27l-.22.19s0-.06,0-.1,0,0-.07,0,0,.14.05.08Z" transform="translate(-0.05 -0.26)"/><path class="cls-6" d="M41.89,41.4v0S41.88,41.4,41.89,41.4Z" transform="translate(-0.05 -0.26)"/><path class="cls-6" d="M42.85,41.88s0,0,0,0Z" transform="translate(-0.05 -0.26)"/><path class="cls-6" d="M43,42.1h0Z" transform="translate(-0.05 -0.26)"/><path class="cls-6" d="M41.89,41.4v.06C41.92,41.41,41.89,41.42,41.89,41.4Z" transform="translate(-0.05 -0.26)"/><path class="cls-6" d="M41,40.12l0,0h0Z" transform="translate(-0.05 -0.26)"/><path class="cls-6" d="M41.4,41.31h0l0,.06Z" transform="translate(-0.05 -0.26)"/><path class="cls-6" d="M41.07,41.14s.08-.1.12-.16l-.07.08Z" transform="translate(-0.05 -0.26)"/><path class="cls-6" d="M40.73,40.62h0Z" transform="translate(-0.05 -0.26)"/><path class="cls-6" d="M41.62,41.46l0,0Z" transform="translate(-0.05 -0.26)"/><path class="cls-6" d="M50.79,39.9v0Z" transform="translate(-0.05 -0.26)"/><polygon class="cls-6" points="51.45 39.99 51.45 40 51.5 40.06 51.45 39.99"/><path class="cls-6" d="M43.26,42.37Z" transform="translate(-0.05 -0.26)"/><path class="cls-6" d="M46.41,42.54c0-.12,0-.16,0-.3C46.4,42.3,46.36,42.46,46.41,42.54Z" transform="translate(-0.05 -0.26)"/><path class="cls-6" d="M41,40.14h0Z" transform="translate(-0.05 -0.26)"/><polygon class="cls-6" points="46.34 41.99 46.34 41.98 46.33 41.97 46.34 41.99"/><path class="cls-6" d="M44.06,42.45v0Z" transform="translate(-0.05 -0.26)"/><path class="cls-6" d="M43.52,42.14v0Z" transform="translate(-0.05 -0.26)"/><path class="cls-6" d="M44.39,42.3s0,0,0,0h0S44.39,42.32,44.39,42.3Z" transform="translate(-0.05 -0.26)"/><polygon class="cls-6" points="44.64 42.08 44.64 42.05 44.63 42.06 44.64 42.08"/><path class="cls-6" d="M50.1,40.38l.07.11C50.12,40.4,50.14,40.35,50.1,40.38Z" transform="translate(-0.05 -0.26)"/><path class="cls-6" d="M41,40.18l0,0h0Z" transform="translate(-0.05 -0.26)"/><path class="cls-6" d="M44.54,41.2l.05,0A.05.05,0,0,0,44.54,41.2Z" transform="translate(-0.05 -0.26)"/><path class="cls-6" d="M48.22,41.1v0S48.22,41.08,48.22,41.1Z" transform="translate(-0.05 -0.26)"/><path class="cls-6" d="M44.72,41.22c0,.05,0,.08,0,.1v0Z" transform="translate(-0.05 -0.26)"/><path class="cls-6" d="M50.17,40.49Z" transform="translate(-0.05 -0.26)"/><path class="cls-6" d="M50.26,40.06s.07.16.12.26-.09-.11-.15-.18.06.22,0,.22a.24.24,0,0,1,0-.07c0,.15-.09.06,0,.24l0,0,.12.22s0,.12,0,0,0,0,0-.08v.05c-.09-.15,0-.07-.06-.18,0,.07,0,.22,0,.19s0-.09-.06-.2l.07,0c-.15-.22,0,0-.13-.23-.07,0,0,.11-.09.09s.06.12.09.21-.24-.35-.2-.12.11.3,0,.22l-.06-.18c-.06,0,.08.26,0,.17s0-.07,0-.09,0,.11,0,.12l-.07-.15c0,.05-.06.19-.12.24a.28.28,0,0,0-.06-.14c0,.11-.18,0-.29,0l0,.15s0-.05,0-.08,0,.08,0,.14-.06-.07-.06-.11c0,.13-.07.31-.18.18v0c-.06,0,0,.3,0,.19v0c-.12,0-.19.14-.33,0,0,.2-.13-.07-.05.22-.1-.13-.1-.18-.2-.25s0,.18,0,.22l0-.15v.17L48.24,41v0s0,.06,0,.1-.12-.08-.14-.16l-.06.15a.47.47,0,0,1,0-.12c0,.16,0-.16-.06,0a.53.53,0,0,1,0,.12c0-.08-.1-.07-.13,0V41c-.08,0-.14.08-.22.09a.4.4,0,0,1,0,.25l0-.16c0,.1,0,.06,0,.18s-.06-.17,0-.23l0,.06s0-.07,0-.13c0,.1-.1-.15-.09,0v0c-.08,0-.1.07-.17.09s0,.11,0,.23c-.06,0-.13-.14-.18-.12s0,.12,0,.21c0-.13-.08-.11-.07-.2s-.08,0-.15.15,0,.07,0,.11-.05,0-.05-.11h0c-.08.2-.27-.35-.32-.07v0l-.07.15s0-.1,0-.17c-.07.22-.14,0-.2.12-.08-.37-.2,0-.28-.2v.09c0,.09,0,0,0-.07s0,.08,0,.13-.34-.12-.5-.21,0,.46-.12.25l0-.17c-.13.2-.25,0-.38.15,0,0,0-.09,0-.09s-.09,0-.1.09,0-.09,0-.14-.08.14-.08,0,0,0,0,0-.07,0-.07.11c0-.06-.09.06-.12,0,0,.15-.07-.08-.1.13,0-.22-.06-.19-.1-.08,0-.07,0-.08,0-.17s-.07,0-.08.15c0-.27-.15.2-.13-.15a1,1,0,0,1-.32.21c.05-.22.1,0,.14-.24-.09.08-.18.26-.25.19s0-.1,0-.13-.15-.06-.25.05l0-.06s0,0,0,.06l0,0a1.25,1.25,0,0,1-.15.36c.09-.28-.06-.09.07-.44a.23.23,0,0,0,0,.13s0-.06,0-.14-.07.16-.11.14a.84.84,0,0,1,0-.12c-.05.09-.09.18-.12.13s0-.07,0-.07-.18.22-.23.11,0-.08.05-.26l-.06,0v.1s-.1.1-.12,0l.05-.06H43v.08c-.06.08-.06.23-.1.16s0,0,0-.12h0s-.08.1-.09,0,.07-.19.08-.23c-.07.14-.09,0-.17.16a1.56,1.56,0,0,0,.06-.15l-.06.12a.27.27,0,0,1,0-.14s-.06.23-.09.11,0,0,0,0-.14,0-.17,0,.07,0,.11-.18-.24.15-.3.08v0c-.11.24,0-.14-.09,0a.67.67,0,0,0,.06-.11c0-.06-.12,0-.23.06l0,0c0-.07-.06-.07-.07-.11s0,0-.09.13c.08-.39-.27.09-.2-.24,0,0,0,0,0,0l-.1,0c0,.1,0,.06,0,.15s-.09.09-.11.08.09-.16.11-.22l-.05.09c.06-.2-.12.2-.11,0l0,0s-.09.08-.11,0,.06,0,.11-.14-.18.19-.14.06.05,0,.08,0,0-.12,0-.15h0v0c-.21.27-.1,0-.27.17.16-.15.08-.1.16-.22a.25.25,0,0,1,0-.13c-.09.09,0-.1-.11,0,0,0,0,0,0-.12s0,.07-.07.12,0-.23-.17-.08-.22.17-.31.2a.35.35,0,0,1,.12-.14c0-.07,0-.08-.07,0a.3.3,0,0,0,.07-.11s-.12.13-.1.05l.14-.14a1.51,1.51,0,0,1-.18.09.79.79,0,0,1,.14-.13.3.3,0,0,0-.21.11v0s.07-.09.09-.11,0,.06,0,.1l0,0c-.16.23.1,0,.12,0l-.14.15.14-.1a.47.47,0,0,1-.12.15c0,.1.06,0,0,.07l0,0,.07,0s-.09.13-.09.09c0,.13.17-.07.09.07h0c.11,0,.1-.12.25-.24l-.18.33.09-.12s0,0,0,.08,0-.06.1-.13c0,.14.13,0,0,.21.08-.09,0-.09.1-.14-.14.23.06,0,0,.11s-.08,0-.11.15c.14-.18,0,.08.08.06s.1,0,.17-.06,0,.13,0,.22l0,0c.1-.15.13-.1.18-.12a.57.57,0,0,1-.12.17h0s.06-.07.08-.07l-.07.11c.05,0,.16-.1.17,0,.06-.11.12-.34.21-.39a.63.63,0,0,1-.11.19s0,0,0,0l-.07.09c0,.06.05-.08.07-.06s0,.07-.06.14,0-.05,0,0a.25.25,0,0,1,0,.16c0-.05.06-.12.08-.12s0,.11,0,.16,0,0,.1-.11,0,.07,0,.11.1,0,.15-.12h0c.13-.1.11.14.2.11l0,.05c.06,0,.1,0,.17-.08s0,.1,0,.15.07-.07.09,0,0,.08-.06,0,0,.13.1,0c-.06.11,0,.16,0,.14v-.1s0,0,.06,0l-.07.15c0,.22.27-.27.23.07.06-.1,0-.09,0-.21,0,0,0,.27,0,.28s.13-.21.17-.14a.47.47,0,0,1,.11-.25.45.45,0,0,1-.07.29s0,0,0,0,0,0,0,.1l0-.06c0,.07.06.08,0,.17a.11.11,0,0,0,0-.13c0,.1.08,0,.12.1s0-.1,0-.1.06-.1.12-.11-.07.21,0,.15a.43.43,0,0,1-.06.2c.08-.1.07.09.09.12l0,0s0,0,0,0l0-.12a.08.08,0,0,1,0,.07,3,3,0,0,1,.09-.29c0,.07.08,0,0,.11,0-.07,0,.16-.09.17s0,0,0,0,0,0,0,0,.07-.17.13-.15,0,.17,0,.15,0-.14.07-.2,0,0,.07,0v0c0-.08,0-.07.07-.09s0,0,0,.08c.07-.15,0,.17.1.08s0,.16,0,.2,0,.13.1.05a.3.3,0,0,1,.06-.2l-.1.07.09-.16s-.07.06-.08,0a.24.24,0,0,0,0-.16c0,.18.08-.09.1,0l-.06.29c0,.15.14-.12.21,0l0-.06c0-.11.05,0,.09-.05a.72.72,0,0,0,0,.2c0-.08.06,0,.1-.18v.13c.06.07.12-.26.17-.22s0,.18-.06.25,0,0,0,0,.08-.12.08,0,0-.15.06-.14a.2.2,0,0,1,0,.05c0-.05,0-.06,0-.17,0,.31.18,0,.2.27a.36.36,0,0,1,.15-.06s0,0,0,0,.06-.27.11-.17,0,.09,0,.15c0,.32.08,0,.11.15v0c0,.11.09-.12.14-.09v0a.4.4,0,0,1,.17-.26c0,.13,0,.07,0,.2s0-.21,0-.25a1.3,1.3,0,0,1,0,.27h0c0,.18,0,0,.08,0v.07c.07,0,.08-.22.15-.2V42.2c0-.19,0,.11.07,0v.19a1.64,1.64,0,0,1,.14-.22,1.12,1.12,0,0,1-.11.3s.09,0,.1-.11,0,.07,0,0,.07-.23.12-.23c0,.38.13.09.18.39.09-.15.19,0,.3,0-.06-.29,0,0,0-.31,0,0,0,0,0,0l.09.18c0,.09,0,.07,0,.14s0,.12.07.2c0-.11,0-.16,0-.12l0-.13c.06-.17.09.25.15.08v.1c0-.06.15,0,.16-.26,0,0,0,.11,0,.14s.18-.29.28-.15v.08s0-.15,0-.07,0,.07,0,.07,0-.13,0-.09v.08c.1.09.11-.22.17-.28,0,.22.12.27.16.3v0c.11,0,.15-.21.23-.31.1.23.22.06.35.17a.44.44,0,0,1,0-.19s0-.17.07,0h0c.06.19.1.13.14.12l-.06-.25c.19.35.22-.2.36.12,0-.07,0-.08,0-.15l0,.14a.17.17,0,0,0,.18,0l0,.1s-.06-.41,0-.43l.07.2c.08,0,.21.13.23-.08,0,0,0,.09,0,.1s.19.09.08-.18c.07.18.09,0,.1-.1l0,.13c0-.18,0-.22,0-.29s.05.1,0,.08,0-.14.06-.08v.09s0,0,0-.16.09,0,.14.12c0-.07,0-.17,0-.15a.23.23,0,0,1,0,.09c.1.06,0-.19.13-.08l0,.08h-.1c.05.12.1.13.13.3,0-.1,0-.32,0-.28l0,0v0s0,0,0,0l.05,0c0,.09.07,0,.09,0s0-.12-.09-.22,0,0,0,0v0l0,0c0-.07,0-.13,0-.07l-.06-.22c.11.17.2.24.26.35,0-.1.12-.12.05-.37,0,0,0,.06.08.09s0,0,0,.07.09-.07,0-.24c.08.05.06.16.1.11l0,.05c.25.2,0-.51.27-.25a.07.07,0,0,1,0-.05c.22.07.21-.29.49-.15.06,0,0-.08,0-.18l.09.13-.05-.18c0-.14.3.25.24,0l-.07-.08s.05-.1.11,0,0-.1,0-.06l0,.06v-.15c.08,0,.17.26.25.22a.56.56,0,0,0-.1-.27.17.17,0,0,1-.1-.09v0a1.66,1.66,0,0,0-.41-.48l0,.14-.08-.08,0,0c-.08-.07,0,0,0,.07L51,39.78l.09.21c0-.07-.08-.16-.14-.19s.14.16.15.24C51,40,51,39.89,51,40a.58.58,0,0,1-.07-.11c0,.07,0,.06,0,.16-.09-.09,0,.07-.16-.11a.59.59,0,0,1,.05.19c-.11-.25-.07,0-.22-.22.11.22,0,.14,0,.28,0,0,0-.05,0,0s-.08-.06-.12-.09a1.25,1.25,0,0,1,.13.34c-.13-.14-.1-.2-.2-.36.08.14,0,.17.1.28l-.14-.17c.12.21,0,0,.06.19-.09-.09-.12-.2-.12-.11A.28.28,0,0,1,50.26,40.06Zm-.7.81h0Zm-.08,0h0l0,.09S49.51,40.93,49.48,40.9Zm.55.83s0,0,0,0a0,0,0,0,0,0,0v0Z" transform="translate(-0.05 -0.26)"/><polygon class="cls-6" points="49.93 41.29 49.93 41.28 49.91 41.26 49.92 41.3 49.93 41.29"/><path class="cls-6" d="M41.89,41.38h0v0Z" transform="translate(-0.05 -0.26)"/><polygon class="cls-6" points="48.24 40.75 48.25 40.78 48.25 40.75 48.24 40.75"/><path class="cls-6" d="M41.67,40.73a.08.08,0,0,0,0,0Z" transform="translate(-0.05 -0.26)"/><path class="cls-6" d="M41.51,40.6v0Z" transform="translate(-0.05 -0.26)"/><path class="cls-6" d="M41.42,40.46l0,0h0Z" transform="translate(-0.05 -0.26)"/><path class="cls-6" d="M43.72,41.22h0S43.74,41.2,43.72,41.22Z" transform="translate(-0.05 -0.26)"/><path class="cls-6" d="M42.93,41.34l0-.06S43,41.26,42.93,41.34Z" transform="translate(-0.05 -0.26)"/><polygon class="cls-6" points="44.49 40.94 44.49 40.95 44.49 40.95 44.49 40.94"/><path class="cls-6" d="M43,41.3s0,0,0,0S43,41.31,43,41.3Z" transform="translate(-0.05 -0.26)"/><polygon class="cls-6" points="40.87 39.77 40.86 39.76 40.85 39.77 40.87 39.77"/><path class="cls-6" d="M40.9,40h0Z" transform="translate(-0.05 -0.26)"/><path class="cls-6" d="M40.85,40.05h0S40.88,40,40.85,40.05Z" transform="translate(-0.05 -0.26)"/><path class="cls-6" d="M41,40.2l0,0Z" transform="translate(-0.05 -0.26)"/><path class="cls-6" d="M41.09,40.22s0-.11,0-.09l0,0C41.12,40.1,41,40.28,41.09,40.22Z" transform="translate(-0.05 -0.26)"/><path class="cls-6" d="M41,40.89l0-.06c0,.05,0,.12-.08.11C40.82,41.12,40.91,40.83,41,40.89Z" transform="translate(-0.05 -0.26)"/><path class="cls-6" d="M41.06,41.05s0,.07-.06.1S41.06,41.11,41.06,41.05Z" transform="translate(-0.05 -0.26)"/><path class="cls-6" d="M42.2,41.64l-.05.12S42.17,41.71,42.2,41.64Z" transform="translate(-0.05 -0.26)"/><polygon class="cls-6" points="42.61 40.85 42.62 40.77 42.57 40.88 42.61 40.85"/><polygon class="cls-6" points="42.43 41.76 42.41 41.77 42.47 41.74 42.43 41.76"/><path class="cls-6" d="M44.63,42.45v-.16S44.6,42.5,44.63,42.45Z" transform="translate(-0.05 -0.26)"/><path class="cls-6" d="M45.57,42.35c0,.08,0,.13,0,0S45.58,42.33,45.57,42.35Z" transform="translate(-0.05 -0.26)"/><polygon class="cls-6" points="48.31 42.03 48.3 42.09 48.33 42.04 48.31 42.03"/></g></g></g></svg>