<svg xmlns="http://www.w3.org/2000/svg" viewBox="0 0 75.73 69.49"><defs><style>.cls-1{fill:#dcad6e;}.cls-2{fill:#b58e5b;}.cls-3{fill:#4d4d4d;}</style></defs><g id="圖層_2" data-name="圖層 2"><g id="圖層_1-2" data-name="圖層 1"><path class="cls-1" d="M56.06,14.46c5.84,4.11,6,3.63,8.43,5.63S73.43,27.54,75.26,37c.2,1.06,2.48,13.89-5.2,23.2-12.08,14.63-40,9.89-50.6.22C15.67,57,11.07,52.76,9.81,46.52a21.66,21.66,0,0,0-2.19-7.27c-1.36-2.5-2.51-3.15-4.39-6.2a28.09,28.09,0,0,1-2.86-6C-1.35,20.84,3.19,13,7.4,8.53A28.28,28.28,0,0,1,26.08.05c8.32-.53,14.33,3.1,18,5.31C48.09,7.79,48.3,9,56.06,14.46Z"/><ellipse class="cls-2" cx="26.72" cy="31.82" rx="1.15" ry="1.45" transform="translate(-14.72 28.78) rotate(-45.78)"/><ellipse class="cls-2" cx="50.5" cy="51.43" rx="1.38" ry="1.45" transform="translate(-21.58 51.75) rotate(-45.78)"/><ellipse class="cls-2" cx="60.49" cy="56.34" rx="1.61" ry="1.66" transform="translate(-22.07 60.4) rotate(-45.78)"/><ellipse class="cls-2" cx="56.78" cy="32.18" rx="1.15" ry="1.25" transform="translate(-5.88 50.43) rotate(-45.78)"/><ellipse class="cls-2" cx="66.37" cy="39.58" rx="1.15" ry="1.25" transform="translate(-8.29 59.54) rotate(-45.78)"/><ellipse class="cls-2" cx="33.14" cy="49.63" rx="1.13" ry="1.48" transform="translate(-22.75 70.56) rotate(-76.8)"/><ellipse class="cls-2" cx="17.76" cy="48.84" rx="0.83" ry="0.97" transform="translate(-32.87 60.58) rotate(-83.07)"/><ellipse class="cls-2" cx="34.2" cy="54.57" rx="0.83" ry="0.97" transform="translate(-24.1 81.93) rotate(-83.07)"/><ellipse class="cls-2" cx="40.12" cy="60.97" rx="0.83" ry="0.97" transform="translate(-25.25 93.45) rotate(-83.07)"/><ellipse class="cls-2" cx="66.81" cy="56.76" rx="0.83" ry="0.97" transform="translate(2.4 116.23) rotate(-83.07)"/><ellipse class="cls-2" cx="11.44" cy="20.22" rx="0.83" ry="0.97" transform="translate(-10.01 29.14) rotate(-83.07)"/><ellipse class="cls-2" cx="43.93" cy="33.85" rx="0.83" ry="0.97" transform="translate(5.02 73.38) rotate(-83.07)"/><ellipse class="cls-2" cx="52.43" cy="25.11" rx="1.28" ry="1.6" transform="translate(17.33 71.46) rotate(-78.45)"/><path class="cls-3" d="M18.93,19.9s.1-.09.07-.1l-.13.1Z"/><path class="cls-3" d="M19.07,19.58a1.07,1.07,0,0,0-.34.17,2.33,2.33,0,0,0,.27-.1s0,.06-.07.1,0,.05.09,0,.06-.13-.05-.11A.53.53,0,0,1,19.07,19.58Z"/><path class="cls-3" d="M19.92,20v0A0,0,0,0,1,19.92,20Z"/><path class="cls-3" d="M20,20.55a.08.08,0,0,0,0,0A.08.08,0,0,0,20,20.55Z"/><path class="cls-3" d="M19.87,20.39h0S19.87,20.38,19.87,20.39Z"/><path class="cls-3" d="M19.92,20l0,.05S19.92,20,19.92,20Z"/><path class="cls-3" d="M18.57,19.44h0l0,0Z"/><path class="cls-3" d="M19.52,19.72h0l-.05.05Z"/><path class="cls-3" d="M19.22,19.58a1.15,1.15,0,0,0,.1-.18c0,.05,0,.08-.06.08Z"/><path class="cls-3" d="M19.1,19.21h0Z"/><path class="cls-3" d="M19.67,19.9l0,0Z"/><path class="cls-3" d="M18.88,21.05v0S18.87,21,18.88,21.05Z"/><polygon class="cls-3" points="19.14 20.13 19.15 20.13 19.22 20.11 19.14 20.13"/><path class="cls-3" d="M19.77,20.2h0Z"/><path class="cls-3" d="M19.56,19.78c0-.08.08-.08.11-.17A.71.71,0,0,0,19.56,19.78Z"/><path class="cls-3" d="M18.58,19.42s0,0,0,0A0,0,0,0,0,18.58,19.42Z"/><polygon class="cls-3" points="19.67 19.61 19.67 19.61 19.67 19.59 19.67 19.61"/><path class="cls-3" d="M19.31,20l0,0Z"/><path class="cls-3" d="M19.51,20.4v0A0,0,0,0,0,19.51,20.4Z"/><path class="cls-3" d="M19,20s0,0,0,0h0S19.06,20,19,20Z"/><polygon class="cls-3" points="18.95 19.87 18.92 19.87 18.93 19.88 18.95 19.87"/><path class="cls-3" d="M20.15,21.11a.6.6,0,0,1,0-.16C20.13,21.09,20.09,21.18,20.15,21.11Z"/><path class="cls-3" d="M18.64,19.41h-.05Z"/><path class="cls-3" d="M17.87,20.29l0-.09A.16.16,0,0,0,17.87,20.29Z"/><path class="cls-3" d="M18.61,20.58l0,0S18.59,20.58,18.61,20.58Z"/><path class="cls-3" d="M17.72,20c.05,0,.08,0,.09-.05h0Z"/><path class="cls-3" d="M20.1,21Z"/><path class="cls-3" d="M19.84,21.56c.05,0,0-.22,0-.35s0,.16,0,.26c0-.06.05-.3.06-.31a.37.37,0,0,1,0,.11c0-.22.1-.08.1-.38l0,.06a3.47,3.47,0,0,1-.08-.36s0-.21,0,0c0,0,0,.08,0,.14v-.1c.08.22,0,.12,0,.3,0-.13,0-.39,0-.39.11.22,0,.21.08.35l-.09,0c.15.33-.05,0,.11.38.07,0,.09-.08.12-.17a1.7,1.7,0,0,1,.14-.3c0-.17-.12-.13-.17-.28s.09-.31.18-.44a.36.36,0,0,0,0-.52c-.14-.09-.31.1-.32-.17a1.07,1.07,0,0,1,.16-.14c-.16-.24-.23.2-.27-.07,0-.08.1,0,.09,0,0-.27-.09.08-.13,0l0-.22c-.11,0-.18.06-.28.05a.37.37,0,0,0,0-.18c-.12.05-.32-.09-.56-.11v.15a.13.13,0,0,1-.06-.08c-.09,0,.05.08.05.15s-.1-.05-.1-.1c-.05.16-.1.38-.29.38,0,0,0,0,0-.05s.18.27,0,.27v0c-.17.18-.06.43-.28.51.2,0-.11.14.19.17-.15.09-.21,0-.3.22s.19.05.23.1l-.15,0,.17.05-.16.09,0,0s.05-.07.1-.08,0,.27-.07.32a1,1,0,0,0,.29.15c0,.05-.11,0-.16,0,.24,0-.09.16.15.16,0,0,.06-.07.08-.09s.17.2.28.19l-.05.09a1,1,0,0,0,.58,0c-.07,0-.07-.23,0-.25l0,.16c0-.11-.06-.06,0-.19s.08.18.05.24l.07-.08s0,.08,0,.14c0-.1.2.12.19-.07l0,0a.87.87,0,0,0,.36-.29c-.09-.1,0-.12-.07-.23.11-.05.27-.08.31-.2s-.09-.08-.16-.15c.12.06.15-.06.22,0a.49.49,0,0,0-.07-.39c-.06,0-.08,0-.12,0s.05-.06.11,0h0c-.1-.1,0-.2,0-.33s.05-.28-.13-.3h0a1.09,1.09,0,0,0-.24-.07c0-.08.12,0,.14-.11-.31,0-.24-.26-.49-.24,0-.2-.1-.26-.24-.28a.48.48,0,0,1-.39-.14l0,.09c0,.08-.06-.06-.11-.09s.07.09,0,.14c-.35.06-.84-.13-1.29-.07-.16,0,.37.38,0,.26l-.13-.14c0,.12-.15.15-.3.19a.4.4,0,0,0,.09.33s-.09-.05-.1-.07,0,.18.13.21-.09,0-.14,0,.18.16.06.16a.08.08,0,0,1-.06,0c.07,0,0,.15.15.14-.05.08.1.17,0,.23.18,0,0,.15.21.14-.24,0-.13.18,0,.2-.08,0-.05.06-.16.06a.15.15,0,0,0,.22.06c-.19.21.33.11.07.32a4.67,4.67,0,0,0,.6.22c-.15.18-.16-.1-.32.08.22.07.38-.06.46.05s-.07.07-.1.1c.16,0,.21.15.37.08l-.05.05s0,0,.08,0h0c0-.15.21-.25.24-.32-.15.26.06.11-.12.43a.2.2,0,0,0,.07-.12s0,.07,0,.14l.07,0c.05,0,.06-.09.12-.07s0,.06-.06.11.13-.16.2-.11,0,.07,0,.07.21-.24.33-.16,0,.07.09.25l.07-.06-.05-.09c.07,0,.09-.15.16-.11l0,.09.11-.08-.09,0c0-.11-.09-.22,0-.2s0,0,.13.06h0c0-.07,0-.14,0-.13s.13.16.16.18c-.07-.13.1-.18,0-.31a.38.38,0,0,0,.13.08l-.1-.08c.05,0,.07,0,.15,0s-.24,0-.11-.13,0,0,0,0c.08-.14-.08-.23,0-.31s.06.06.21,0c-.06-.12-.28-.18-.28-.29v0c-.25.08.09-.13-.05-.13l.12,0c0-.09-.14-.12-.27-.16l.07,0c0-.07,0-.11-.05-.17s-.07,0-.13.07c.19-.37-.33-.05-.21-.36,0,0,.07,0,.06,0l-.13,0c-.06.09,0,.06-.07.15s-.1.07-.12.05.11-.15.13-.21l-.07.09c.07-.2-.14.18-.12,0l0-.05s-.1.06-.12,0,.06,0,.12-.13-.2.17-.17,0,.06,0,.09,0,0-.12,0-.16h0l0-.1v0c-.21.29-.13,0-.29.19.15-.17.06-.11.13-.24a.17.17,0,0,1,0-.14c-.08.1,0-.12-.14,0,0-.05,0,0,0-.13s0,.08,0,.14-.11-.25-.27,0h0l-.39.3c.1.09.26.1.34.15a.25.25,0,0,1-.17,0c-.07.05-.05.09,0,.12a.24.24,0,0,0-.13.05s.18,0,.12,0l-.2,0a1.87,1.87,0,0,0,.22.07c-.07,0-.13,0-.19,0a.25.25,0,0,0,.26.05l0-.05s-.1.06-.13.06,0-.08.06-.1h0c.25-.14-.09-.08-.09-.16l.21,0h-.18c.05,0,.16-.06.19,0s-.08,0,0-.07h0l-.07,0s.15,0,.12,0-.16-.07,0-.1h0l0,0-.22.18c.05,0,0-.15.12-.28l-.06.38.05-.15s0,0,0,.08,0-.06.06-.15c0,.14.14,0,.06.21.06-.11,0-.1.07-.16-.08.25.06,0,.06.1s-.07,0-.08.17c.11-.2,0,.07.08,0s.1,0,.17-.06,0,.13,0,.21l0,0c.11-.15.13-.1.18-.1a.88.88,0,0,1-.14.14l0,0s.06-.06.09-.06l-.09.1s.17-.07.15,0c.09-.09.2-.29.31-.31a.7.7,0,0,1-.15.15s.05,0,0,0l-.1.07c0,.05.08-.06.08,0s0,.06-.09.11,0,0,0,0a.27.27,0,0,1-.07.15.36.36,0,0,1,.12-.09s-.08.09-.1.14,0,0,.13-.06,0,.05-.07.08.07.06.18,0h0c.16,0,0,.18.1.21l-.05,0c.07,0,.07.07.18.06s-.07.06-.13.08.1,0,0,.07-.07,0-.07,0-.11.08,0,.09c-.12,0-.15.06-.11.07l.09-.05a0,0,0,0,1,0,.05l-.16,0c.21,0,.31.05.15,0,0,0,0,0,0,0h0L20,20.46l0,0s.06.11,0,.08.12.18.1.25-.12-.22-.13-.27,0,0,0,0a.27.27,0,0,0,0-.1l0,.05c0-.05-.05,0-.07-.13a.34.34,0,0,0,0,.12c0-.08,0,0-.07-.05s0,.1,0,.1,0,.12-.06.14,0-.21,0-.14a.62.62,0,0,1,0-.2c0,.11,0-.08,0-.1v0l0,.11a.1.1,0,0,1,0-.07,2.43,2.43,0,0,1-.09.3c0-.05,0,0,0,0s0,0,0-.08v0s0-.17.07-.18,0,0,0,0h0a.05.05,0,0,1,0,0c0-.14-.08.16-.13.14s.05-.16,0-.15,0,.14-.09.2-.06,0-.07,0v0c0,.08-.05.06-.09.07s0,0,0-.06c-.1.13,0-.18-.07-.1s.08-.15.08-.19,0-.13-.05-.07a.37.37,0,0,1-.13.17l.11,0-.14.12s.09,0,.09,0-.06,0-.1.13c.07-.17-.11.05-.08-.07l.17-.24c0-.14-.14.08-.13,0l0,.05c-.09.07,0,0-.08,0l.15-.13c-.06,0,0,0-.19.08l.11-.08s-.3.1-.3,0a2.46,2.46,0,0,1,.27-.08s0,0-.06,0-.16,0-.07,0-.17,0-.17,0h.06c-.06,0-.09,0-.21,0,.34-.09-.11-.15.22-.18a.36.36,0,0,1-.13-.1s.07,0,.05,0-.39-.12-.27-.14.13.06.21.07c.46.13-.07-.07.19,0h0c.15.05-.18-.11-.1-.1l.06,0-.12-.08c-.09-.07-.09-.1-.09-.14a1.13,1.13,0,0,0,.21.15s-.24-.15-.24-.18a1.59,1.59,0,0,1,.32.18h0c.21.13,0,0,.08,0l.07.05s-.16-.17-.1-.16L19,19.46c-.11-.15.11.08,0,0l.14.15s-.05-.15,0-.18a2.18,2.18,0,0,0,.08.24s0,0,0-.08,0,.05,0,0-.06-.17,0-.17c.12.29.14.09.2.31,0-.09.07.06.09.06.07-.19,0,0,.1-.19,0,0,0,0,0,0l0,.12c0,.05,0,0-.07.07s-.05.07-.09.12.08-.08.07-.06l.06-.07c.11-.06-.13.13,0,.07l-.07,0,.21,0-.11,0s.25.06.12.08h-.07s.13,0,.06,0l-.07,0s.12.05.08.05l-.08,0c-.09,0,.18.12.19.21-.21-.14-.17-.11-.22-.16h0a.3.3,0,0,1,0,.18c0-.11-.05-.14-.07-.15s0-.07,0,0h0l0,.09s0,0,0,0,0,0,0,0h0a.56.56,0,0,1-.07.13h0l.1-.1h0l.07,0c.05,0-.07,0,.12,0a.35.35,0,0,1-.13,0h.14s.05-.05,0-.13l.1,0s-.4-.08-.4-.12h.21c0-.07.19,0,0-.11l.09,0s-.16-.08-.13-.07h0l.08.05h0l-.07-.12.09.1c-.11-.13-.14-.17-.14-.22s.07.08,0,.06-.05-.11,0-.07l0,.08s0,0,0-.12.07,0,.11.13c0-.07,0-.15,0-.11a.14.14,0,0,1,0,.07c.06.08,0-.09.07,0l0,.06-.05-.05c0,.1,0,.12.07.25,0-.07,0-.2,0-.14v0h0v0c0,.05,0,0,0,.05s0,0,0-.11h0v0s0,0,0,0l0-.08a1,1,0,0,1,0,.21s0,0,0,.06,0,0,0,0h0S20,20,20,20s0,0,0,0v0s0,0,0,.13,0,.2,0,.12v0s0,.09-.08.16-.15.09-.13-.07-.06.05-.13.12l.08-.15a.86.86,0,0,1-.13.14c-.06,0,0-.08,0-.16s.07-.12,0-.07l-.08.08s-.09,0,0-.1-.09.05-.05,0l.06,0h-.14c0-.08.28-.13.27-.2a.73.73,0,0,0-.29,0,.22.22,0,0,1-.11.08l-.05,0c-.22.08-.46.13-.57.29h.16l-.09.07,0-.05c-.09.07,0,.06.08.05a.31.31,0,0,0-.1.08l.24,0c-.08.05-.18.05-.19.13s.15-.14.25-.11c-.07.09-.15.13,0,.12a.15.15,0,0,1-.11.05c.08,0,.09.09.2,0-.07.12.11.09-.05.25L19,21a.2.2,0,0,1,.12,0c-.22.16.09.12-.07.34.17-.16.24,0,.39-.06,0,0,0,0,0,0s0,.11.06.16c.07-.18.16-.22.22-.34,0,.18-.08.23-.1.41,0-.15.14-.16.14-.3a.61.61,0,0,1,0,.22c0-.26,0-.05.08-.22,0,.11,0,.25.05.15A.4.4,0,0,1,19.84,21.56Zm0-2.56Zm-.12,0,.06,0c0,.06,0,.11,0,.1A.33.33,0,0,0,19.7,19Zm.2.88v0h0Z"/><polygon class="cls-3" points="19.91 19.76 19.91 19.76 19.91 19.74 19.91 19.76 19.91 19.76"/><polygon class="cls-3" points="19.93 19.92 19.93 19.93 19.95 19.91 19.93 19.92"/><polygon class="cls-3" points="18.48 20.38 18.52 20.37 18.48 20.36 18.48 20.38"/><path class="cls-3" d="M19.86,19.18v0S19.86,19.16,19.86,19.18Z"/><path class="cls-3" d="M19.63,19v-.06A.35.35,0,0,0,19.63,19Z"/><path class="cls-3" d="M19.46,18.84l0,.06h0Z"/><path class="cls-3" d="M19.12,21.26h0S19.1,21.27,19.12,21.26Z"/><path class="cls-3" d="M20.33,21v.08S20.37,21,20.33,21Z"/><polygon class="cls-3" points="17.87 20.3 17.87 20.3 17.87 20.29 17.87 20.3"/><path class="cls-3" d="M20.27,21.08s.05,0,.06,0S20.28,21.06,20.27,21.08Z"/><polygon class="cls-3" points="18.65 19.68 18.65 19.7 18.67 19.69 18.65 19.68"/><path class="cls-3" d="M18.67,19.69h0A0,0,0,0,0,18.67,19.69Z"/><path class="cls-3" d="M18.74,19.7h0S18.7,19.72,18.74,19.7Z"/><path class="cls-3" d="M18.59,19.31h0Z"/><path class="cls-3" d="M18.56,19.2s-.1.08-.06.12h0C18.46,19.31,18.65,19.22,18.56,19.2Z"/><path class="cls-3" d="M19.07,19.35l0-.05c0,.05,0,.12,0,.13C19,19.61,19,19.31,19.07,19.35Z"/><path class="cls-3" d="M19.21,19.49s0,.07-.05.1S19.21,19.54,19.21,19.49Z"/><path class="cls-3" d="M20,20.31l-.12,0S19.93,20.33,20,20.31Z"/><polygon class="cls-3" points="20.71 20.43 20.79 20.38 20.67 20.38 20.71 20.43"/><polygon class="cls-3" points="20.09 20.52 20.09 20.52 20.08 20.52 20.09 20.52"/><path class="cls-3" d="M19.12,19.91h0Z"/><path class="cls-3" d="M19.14,19.57c.07.06.11.1.07,0Z"/><polygon class="cls-3" points="19.54 20.25 19.54 20.25 19.44 20.35 19.44 20.34 19.54 20.25 19.54 20.25"/><path class="cls-3" d="M26.49,12.12s.11-.09.08-.09l-.14.09Z"/><path class="cls-3" d="M26.63,11.81a.84.84,0,0,0-.34.16,1.37,1.37,0,0,0,.28-.1s0,.07-.07.1,0,.06.08,0,.07-.13,0-.1A.24.24,0,0,1,26.63,11.81Z"/><path class="cls-3" d="M27.49,12.17v0Z"/><path class="cls-3" d="M27.57,12.77v0A0,0,0,0,0,27.57,12.77Z"/><path class="cls-3" d="M27.44,12.62h0Z"/><path class="cls-3" d="M27.49,12.17l0,.05C27.51,12.2,27.49,12.19,27.49,12.17Z"/><path class="cls-3" d="M26.13,11.66h0Z"/><path class="cls-3" d="M27.09,12h0L27,12Z"/><path class="cls-3" d="M26.79,11.8l.1-.17-.06.08Z"/><path class="cls-3" d="M26.66,11.43h0Z"/><path class="cls-3" d="M27.24,12.13l0,0Z"/><path class="cls-3" d="M26.44,13.27h0Z"/><polygon class="cls-3" points="26.71 12.36 26.72 12.36 26.79 12.33 26.71 12.36"/><path class="cls-3" d="M27.33,12.43Z"/><path class="cls-3" d="M27.13,12c0-.09.08-.08.1-.18A.61.61,0,0,0,27.13,12Z"/><path class="cls-3" d="M26.14,11.64v0Z"/><polygon class="cls-3" points="27.23 11.83 27.23 11.83 27.23 11.82 27.23 11.83"/><path class="cls-3" d="M26.88,12.27l-.05,0Z"/><path class="cls-3" d="M27.07,12.63v0Z"/><path class="cls-3" d="M26.6,12.25s0,0,0,0h0Z"/><polygon class="cls-3" points="26.52 12.1 26.48 12.1 26.49 12.1 26.52 12.1"/><path class="cls-3" d="M27.72,13.34a1,1,0,0,1-.06-.16C27.7,13.31,27.65,13.41,27.72,13.34Z"/><path class="cls-3" d="M26.21,11.64h-.07l0,0Z"/><path class="cls-3" d="M25.43,12.52a.29.29,0,0,1,0-.09A.29.29,0,0,0,25.43,12.52Z"/><path class="cls-3" d="M26.17,12.81l0,0A0,0,0,0,0,26.17,12.81Z"/><path class="cls-3" d="M25.29,12.17a.15.15,0,0,0,.09-.05h-.05Z"/><path class="cls-3" d="M27.66,13.17h0Z"/><path class="cls-3" d="M27.4,13.79c.05,0,0-.22,0-.35s0,.15,0,.26c0-.07,0-.3.06-.31s0,0,0,.1c0-.21.1-.07.09-.38l0,.06c0-.12-.05-.25-.07-.35s0-.21,0-.05a.37.37,0,0,0,0,.14v-.1c.07.23,0,.12,0,.31,0-.13,0-.39,0-.39.11.22-.06.21.07.34H27.7c.16.32-.05,0,.11.37.07,0,.1-.07.13-.17a1.7,1.7,0,0,1,.14-.3c0-.16-.12-.12-.17-.27s.09-.31.18-.44a.38.38,0,0,0,0-.53c-.14-.09-.31.11-.32-.16a1.14,1.14,0,0,1,.16-.15c-.16-.23-.23.21-.28-.06,0-.09.1,0,.1,0,0-.26-.1.09-.13,0l0-.23c-.12,0-.19.07-.28.05a.4.4,0,0,0,0-.18c-.12,0-.32-.09-.56-.11V11s-.06,0-.06-.08,0,.08,0,.14-.09,0-.09-.1c-.06.17-.1.39-.29.38a0,0,0,0,1,0,0c-.11,0,.17.26,0,.27l0,0c-.16.18-.05.43-.28.5.21,0-.1.15.19.17-.15.09-.2.05-.29.22s.19,0,.23.1l-.16,0,.18.05-.17.09.06,0a.11.11,0,0,1,.09-.08c.09,0,0,.26-.06.32a1.57,1.57,0,0,0,.29.15s-.11,0-.16,0c.24,0-.09.15.14.15,0,0,.07-.06.09-.09a.24.24,0,0,0,.27.19l0,.1a1,1,0,0,0,.59,0c-.08,0-.08-.22,0-.25l.05.16c0-.1-.06,0,0-.18s.08.17.05.23l.06-.07a.52.52,0,0,1,0,.14c0-.11.19.11.19-.07l0,0a1.11,1.11,0,0,0,.37-.29c-.09-.11,0-.13-.07-.24s.26-.07.31-.19-.1-.08-.16-.15c.12.05.15-.07.21,0a.49.49,0,0,0-.07-.39.25.25,0,0,1-.12,0s.05-.06.12-.05h0c-.1-.11,0-.2,0-.33s.06-.28-.12-.3h0a.9.9,0,0,0-.23-.08c0-.07.11,0,.14-.11-.31,0-.25-.26-.49-.24,0-.2-.11-.26-.25-.28a.47.47,0,0,1-.38-.14l0,.09c0,.09-.07-.05-.11-.08s.06.09,0,.13c-.35.06-.84-.13-1.3-.07-.16,0,.37.39,0,.26L25.51,11c0,.11-.16.14-.31.18a.42.42,0,0,0,.1.33c-.05,0-.1-.05-.1-.07s0,.19.12.21-.09,0-.14,0,.19.16.06.16a.09.09,0,0,1,0,0c.06,0,0,.15.15.14-.05.08.1.16,0,.22.18,0,0,.15.2.15-.24,0-.13.17,0,.19-.08,0-.05.07-.15.07a.15.15,0,0,0,.21.06c-.19.21.34.1.07.32.24.1.44.16.6.22-.14.18-.16-.1-.31.07.21.07.38-.06.45.06s-.07.07-.1.09c.16,0,.22.15.38.09a.1.1,0,0,1,0,0s0,.06.07,0l0,0c0-.15.2-.25.23-.32-.14.25.07.1-.12.43a.31.31,0,0,0,.08-.12s0,.07,0,.13l.07,0s.06-.08.12-.07,0,.06-.07.12.14-.17.2-.11,0,.06,0,.06c.14,0,.22-.23.34-.15s0,.07.08.25l.07-.07,0-.08c.06,0,.08-.16.15-.12l0,.09.11-.08-.09,0c0-.11-.09-.21,0-.19s0,0,.13,0h0c0-.07,0-.13,0-.12a1.41,1.41,0,0,1,.17.18c-.08-.14.1-.18,0-.31a.41.41,0,0,0,.14.08l-.1-.09a.15.15,0,0,1,.14,0c.06-.12-.23,0-.1-.14s0,0,0,0c.08-.14-.08-.24,0-.31s.06.06.21,0c-.07-.12-.28-.18-.28-.29v0c-.25.09.09-.12,0-.13,0,0,.14,0,.11,0S28,12,27.88,12l.06,0c0-.07,0-.12,0-.18s-.07,0-.14.08c.2-.38-.33-.05-.2-.37,0,0,.06,0,.05,0l-.12,0c-.07.1,0,.07-.07.15s-.11.07-.13.06.11-.15.13-.22l-.06.09c.07-.2-.14.19-.12,0l0,0s-.1.06-.11,0,.05,0,.11-.13-.2.18-.16,0l.09,0c0-.16,0-.13,0-.16h0l0-.1v0c-.2.29-.13,0-.28.19.14-.17.06-.11.12-.25A.33.33,0,0,1,27,11c-.07.1,0-.11-.13,0,0,0,0,0,0-.13s0,.08,0,.14-.1-.24-.26,0h0l-.38.29c.1.1.25.1.34.16a.26.26,0,0,1-.18,0c-.06.06,0,.1,0,.12l-.12,0s.17,0,.12,0a.68.68,0,0,1-.2,0,.94.94,0,0,0,.22.07.27.27,0,0,1-.19,0,.22.22,0,0,0,.26.05l0-.05s-.09.06-.12.06,0-.08.06-.1l0,0c.24-.14-.09-.09-.09-.16l.2,0H26.4a.51.51,0,0,1,.2,0c.09-.05-.08,0,0-.06h0l-.06,0s.14,0,.12,0-.17-.07,0-.1h0l0,0-.22.17c.05-.05,0-.14.11-.27l0,.37,0-.14s0,0,0,.08c.06-.1,0-.07.06-.16,0,.15.13,0,.06.21.05-.1,0-.1.06-.16-.08.25.07,0,.06.11s-.07,0-.08.16c.11-.2.05.08.09.05s.09,0,.17-.07,0,.14,0,.22l0,0c.11-.15.14-.09.19-.1a.7.7,0,0,1-.14.15l0,0s.07-.07.1-.07l-.09.1s.16-.07.14,0c.1-.09.21-.3.32-.31-.05,0-.13.14-.16.14s.06,0,0,0l-.1.06c0,.06.08-.06.09,0s0,.06-.1.11,0,0,0,0a.27.27,0,0,1-.07.15s.1-.1.12-.09-.08.09-.11.14,0,0,.14-.07-.05.06-.08.08.08.07.19,0h0c.17,0,0,.17.1.2l0,0c.07,0,.06.07.18.06a.3.3,0,0,1-.13.07s.1,0,0,.08-.07,0-.07,0-.1.07,0,.08c-.13,0-.15.06-.11.07l.08,0s0,0,0,.05l-.16,0c.2,0,.31.05.15,0,0,0,0,0,0,0l0,0c-.08,0-.09-.06-.09-.06l0,0s.06.1,0,.07a.59.59,0,0,1,.1.26c-.05,0-.12-.22-.13-.27s0,0,0,0a.24.24,0,0,0,0-.11l0,.06c0-.06,0,0-.06-.14a.17.17,0,0,0,0,.12c-.05-.08,0,0-.08,0a.84.84,0,0,1,0,.1c-.06-.07,0,.11-.06.14s0-.22,0-.14a.7.7,0,0,1,0-.21c0,.11,0-.08,0-.1l0,0,0,0,0,.12a.26.26,0,0,1,0-.07,2.65,2.65,0,0,1-.08.29s0,0,0,0a.17.17,0,0,1,0-.08h0s0-.16.07-.18,0,0,0,0h0s0,0,0,0-.08.16-.13.13.05-.16,0-.14,0,.14-.09.19-.06,0-.08,0v0c0,.07-.06.05-.09.07s0,0,0-.07c-.1.13,0-.17-.07-.1s.08-.14.09-.18,0-.13-.06-.07a.31.31,0,0,1-.12.16l.1,0-.13.12s.08,0,.08,0-.05,0-.09.14c.07-.17-.12.05-.09-.08l.17-.24c0-.13-.14.09-.12,0l0,0c-.09.08,0,0-.09,0l.16-.13c-.07,0,0,0-.19.09l.1-.08c0-.05-.3.09-.3,0a2.55,2.55,0,0,1,.28-.08s0,0-.07,0c.07,0-.16,0-.06,0-.05,0-.17,0-.17,0h0a1,1,0,0,0-.21,0c.34-.08-.1-.14.22-.17a.49.49,0,0,1-.13-.1h.06c.12,0-.4-.11-.27-.14s.13.07.21.07c.45.13-.08-.07.19,0l0,0c.15,0-.19-.12-.11-.11l.07,0-.13-.08a.2.2,0,0,1-.09-.13,1.4,1.4,0,0,0,.22.14s-.25-.14-.24-.18a2.6,2.6,0,0,1,.32.19h0c.2.13,0,0,.07,0l.08.06s-.17-.18-.1-.17l-.05,0c-.11-.16.11.08,0,0l.15.16s-.06-.15,0-.18.05.17.09.24,0,0,0-.09,0,.05,0,0-.05-.18,0-.17c.12.29.14.08.2.31,0-.1.07.06.09.05.06-.19,0,0,.1-.19,0,0,0,0,0,0a.31.31,0,0,1,0,.13s0,0-.06.07-.05.07-.09.11l.06-.05a.16.16,0,0,0,.06-.08c.12,0-.12.13,0,.07l-.06,0s0,0,.2,0l-.11,0s.26.05.13.08l-.07,0s.13,0,.06,0l-.08,0s.13.05.08.05l-.07,0c-.09,0,.17.12.19.2-.22-.13-.17-.11-.22-.16h0s0-.05,0,0a.36.36,0,0,1,0,.17.67.67,0,0,0-.07-.14s0-.08,0,0h0l0,.09s0,0,0,0,0,0,0,0h0a.51.51,0,0,1-.08.13h0v0h0l.1-.09h0l.06,0s-.06,0,.13,0c-.07,0-.07,0-.13,0h.14s.05,0,0-.12l.1,0s-.4-.08-.41-.13h.21c0-.08.19,0,0-.11l.1,0L27.21,12h0l.08.06h0l-.08-.11.1.1c-.11-.13-.14-.17-.14-.23s.07.08,0,.06-.06-.11,0-.06l0,.07s0,0,0-.12.08,0,.12.13c0-.06,0-.14,0-.11l0,.07c0,.09,0-.09.07,0v.06l0-.05a1.31,1.31,0,0,1,.06.25c0-.08,0-.2,0-.15v0h0v.08a.34.34,0,0,0,0-.1h0v0s0-.05,0,0v-.08a1,1,0,0,1,0,.21s0,0,.05.06l0,0v0s0,.06,0,.1,0,0,0,0v0s0,0,0,.13,0,.2,0,.13,0,0,0,0,0,.08-.09.15-.14.09-.13-.07-.06.05-.12.12l.07-.14-.12.13c-.06,0,0-.08,0-.16s.06-.12,0-.07l-.07.08s-.09,0,0-.1-.1,0-.06,0l.07-.05-.15,0c0-.08.29-.14.27-.21a1,1,0,0,0-.29,0s0,.05-.1.08h-.05c-.22.08-.46.13-.57.29h.16l-.09.07,0-.06c-.08.08,0,.06.08.05s-.08.06-.09.09l.23,0c-.07.06-.17.05-.19.14s.16-.14.25-.12c-.07.09-.14.13,0,.12-.05.05-.09.06-.12.05s.1.1.2,0c-.07.13.12.1,0,.26a.19.19,0,0,1,.09,0,.23.23,0,0,1,.11,0c-.22.16.1.12-.07.34.17-.17.24,0,.39-.06,0,0,0,0,0,0s0,.11.07.16c.06-.19.16-.22.22-.35,0,.19-.08.24-.11.42,0-.16.15-.17.15-.3a.62.62,0,0,1,0,.22c0-.27.05-.05.09-.23,0,.12,0,.26.05.15A.4.4,0,0,1,27.4,13.79Zm0-2.56h0Zm-.11-.05.05,0s0,.11,0,.1A.36.36,0,0,0,27.27,11.18Zm.2.89v0h0Z"/><polygon class="cls-3" points="27.48 11.99 27.48 11.99 27.48 11.97 27.48 11.98 27.48 11.99"/><polygon class="cls-3" points="27.5 12.15 27.5 12.15 27.51 12.14 27.5 12.15"/><polygon class="cls-3" points="26.05 12.6 26.08 12.6 26.05 12.59 26.05 12.6"/><path class="cls-3" d="M27.42,11.4l0,0Z"/><path class="cls-3" d="M27.2,11.23v-.07A.13.13,0,0,0,27.2,11.23Z"/><path class="cls-3" d="M27,11.07l0,0h0Z"/><path class="cls-3" d="M26.69,13.48h0S26.66,13.5,26.69,13.48Z"/><path class="cls-3" d="M27.89,13.2a.11.11,0,0,1,0,.08S27.94,13.27,27.89,13.2Z"/><polygon class="cls-3" points="25.43 12.53 25.44 12.53 25.43 12.52 25.43 12.53"/><path class="cls-3" d="M27.83,13.31s.05,0,.06,0S27.84,13.28,27.83,13.31Z"/><polygon class="cls-3" points="26.21 11.9 26.21 11.92 26.23 11.91 26.21 11.9"/><path class="cls-3" d="M26.23,11.91h0Z"/><path class="cls-3" d="M26.3,11.93h0S26.26,11.94,26.3,11.93Z"/><path class="cls-3" d="M26.16,11.53h0Z"/><path class="cls-3" d="M26.13,11.43s-.1.08-.07.11h0C26,11.53,26.21,11.44,26.13,11.43Z"/><path class="cls-3" d="M26.64,11.58l0-.06c0,.06,0,.13-.05.13C26.57,11.83,26.57,11.53,26.64,11.58Z"/><path class="cls-3" d="M26.77,11.71s0,.08,0,.1A.11.11,0,0,0,26.77,11.71Z"/><path class="cls-3" d="M27.57,12.53l-.12,0S27.5,12.56,27.57,12.53Z"/><polygon class="cls-3" points="28.28 12.65 28.35 12.6 28.23 12.6 28.28 12.65"/><polygon class="cls-3" points="27.66 12.75 27.66 12.75 27.65 12.74 27.66 12.75"/><path class="cls-3" d="M26.69,12.13h0Z"/><path class="cls-3" d="M26.7,11.8c.07.06.12.1.07,0S26.69,11.78,26.7,11.8Z"/><polygon class="cls-3" points="27.1 12.48 27.1 12.48 27 12.57 27.01 12.57 27.1 12.48 27.1 12.48"/><path class="cls-3" d="M26.67,19.42s.1-.1.08-.09l-.12.12Z"/><path class="cls-3" d="M26.87,19.19l-.27.26.21-.2-.08.09s0,0,.05-.05.09-.1,0,0Z"/><path class="cls-3" d="M26.86,18.82h0Z"/><path class="cls-3" d="M26.8,18.64l0,0Z"/><path class="cls-3" d="M26.91,18.49h0Z"/><path class="cls-3" d="M26.86,18.82l0,0S26.86,18.81,26.86,18.82Z"/><path class="cls-3" d="M26.56,19.45l0,0h0Z"/><path class="cls-3" d="M27,18.77h0l.05-.05Z"/><path class="cls-3" d="M27.06,18.79l-.14.14.07-.07Z"/><path class="cls-3" d="M27,19h0Z"/><path class="cls-3" d="M27,18.72l0,0Z"/><path class="cls-3" d="M25.14,18.39l0,0Z"/><path class="cls-3" d="M25.58,17.85h0l.05-.05Z"/><path class="cls-3" d="M27,18.32Z"/><path class="cls-3" d="M26.59,18.07c-.09.09-.12.11-.21.21Z"/><path class="cls-3" d="M26.58,19.43h0S26.57,19.44,26.58,19.43Z"/><path class="cls-3" d="M26.38,18.28Z"/><path class="cls-3" d="M26.86,18.3l-.05,0Z"/><path class="cls-3" d="M26.78,18.5h0Z"/><path class="cls-3" d="M26.68,18.41h0Z"/><path class="cls-3" d="M26.65,18.38l0,0h0Z"/><path class="cls-3" d="M25.29,18.44a.76.76,0,0,0,.09-.09Z"/><path class="cls-3" d="M26.62,19.39l0,0h0Z"/><path class="cls-3" d="M25.91,19.2v0Z"/><path class="cls-3" d="M25.55,18.67h0Z"/><path class="cls-3" d="M25.89,19.18l.06-.07,0,0Z"/><path class="cls-3" d="M25.38,18.35Z"/><path class="cls-3" d="M25.11,18.56s.13-.13.21-.21-.1.1-.16.17l.16-.14-.06.06c.11-.1,0,0,.15-.12l0,0,.18-.18s.08-.08,0,0l-.06.05,0,0c-.12.13-.05,0-.14.13s.15-.13.12-.09,0,0-.15.14l0-.05c-.18.2,0,0-.18.19,0,.05.07-.05,0,0a1.29,1.29,0,0,0,.16-.17c.13-.11-.29.32-.12.16s.23-.23.16-.14l-.14.13s.2-.19.12-.09l-.07.06c-.1.11.08-.08.08-.07l-.11.12.15-.11-.11.12c.07-.05,0,0-.05.11l.1-.1-.06.07.1-.1-.08.09c.09-.08.2-.17.1-.05l0,0c0,.05.22-.21.13-.11l0,0c0,.06.07,0-.07.14.15-.15-.06.08.15-.13l-.19.23.16-.15-.11.11.12-.11-.13.14,0,0,.08-.08-.12.14.1-.08-.09.08c.12-.1-.11.12,0,0l.08-.08c-.06.07-.05.07,0,.05l-.08.07s.06,0,.07,0l.17-.18-.11.11.13-.13a1.35,1.35,0,0,1-.17.17l.05,0-.1.09c.07-.07-.11.13,0,0l0,0s.05,0,.06,0l.16-.16s-.09.12-.08.12l.15-.14a2.09,2.09,0,0,1-.15.15s0,0,.12-.07l.08-.09-.08.09h0c.15-.13-.23.29,0,.11h0l.11-.09-.12.13c.16-.15,0,0,.1-.06-.25.28,0,0-.11.19l.06-.07c.06-.06,0,0-.05.06L25.8,19c.09-.06-.05.13-.08.21s.32-.33.18-.17l-.12.12c.16-.13,0,0,.16-.07l-.06.06c-.08.09,0,0,.07-.06a.65.65,0,0,1-.09.1c-.05.06.11-.1,0,0l0,0s0,0,.09-.08c0,.05.06,0,0,0,.11-.11,0,.06.11-.09-.15.16-.11.14,0,.06a1.1,1.1,0,0,1-.11.12s0,0,.12-.11c-.18.21.17-.14-.07.12a1.45,1.45,0,0,1,.21-.16c-.16.17,0,0-.19.18.07-.06.21-.19.19-.14l-.1.09c.07-.05,0,0,.1,0l-.05,0s0,0,.06-.05l0,0c.1-.11.22-.21.27-.27-.2.21,0,.06-.3.32l.1-.09-.1.1c.05,0,.12-.12.12-.11l-.09.09c.07-.07.14-.13.12-.1l-.05.05s.19-.17.14-.1l-.18.19,0,0,.06-.07s.1-.09.06,0l-.06.05,0,0,.05-.05c.07-.07.16-.17.13-.13s0,0-.07.09h0L26.5,19l-.17.18c.11-.11,0,0,.16-.14l-.11.11.09-.09-.1.11s.17-.18.1-.1l0,0s.07-.05,0,0,0,0-.15.15.18-.15.16-.1v0c.19-.19-.08.1,0,0l-.08.09.12-.09-.05.05c0,.05,0,0,0,.06l.11-.11c-.26.29.17-.12,0,.12l-.05,0,.06,0,.1-.11.1-.09c-.06.05-.13.14-.18.18l.08-.07c-.14.15.16-.17.07-.06l0,0s.08-.08.07-.06l-.12.12s.18-.17.09-.08l-.05.05-.1.11h0l-.05.06,0,0c.25-.24.06,0,.22-.19a1.54,1.54,0,0,0-.19.2l-.09.09c.09-.08-.06.08.07,0l-.09.1.1-.11c.12-.11-.13.16,0,0s.19-.18.26-.23l-.13.12c0,.06,0,.05,0,0l-.09.1s.12-.12.08-.07a1.85,1.85,0,0,0-.14.14l.13-.12-.13.13.16-.14,0,0s-.08.08-.1.1,0,0,.06-.07l0,0c.19-.21,0,0,0,0l.15-.14-.13.12.14-.15,0,0,0,0,0,0L27,19c.08-.09-.12.1,0,0h0c-.06,0-.11.11-.24.23l.26-.28L26.9,19,27,19l-.12.12c.1-.1,0,0,.12-.14-.09.08-.06.07-.12.12.18-.19,0,0,0-.06l.13-.13c-.16.16,0,0,0,0s-.06.05-.11.09a.5.5,0,0,0,.1-.14l0,0a.94.94,0,0,1-.15.13l.15-.14h0l-.08.08.1-.1s-.12.11-.07,0c-.09.1-.24.26-.31.32A1,1,0,0,1,26.8,19s-.05,0,0,0l.09-.08s-.07.07-.07.06l.11-.11s0,0,0,0a.58.58,0,0,1,.1-.12l-.11.1A1.25,1.25,0,0,1,27,18.7c-.05.05,0,0-.11.1l.07-.08a1,1,0,0,0-.13.11h0c-.11.09,0-.08,0,0l0,0-.12.09.1-.11s-.06.06,0,0,.05-.06,0,0,.08-.1,0,0c.09-.08.11-.11.08-.09l-.06.07s0,0,0,0l.12-.12c.13-.15-.26.23,0,0-.09.08-.06.07-.15.16l.17-.2c.06-.07-.18.17-.14.12s-.15.16-.19.19l.2-.21,0,0a.28.28,0,0,0,.08-.08l0,0a.77.77,0,0,1,.1-.12l-.09.09c.05-.06,0,0,0-.05l-.07.07c.05-.06-.08.08-.1.09s.15-.15.09-.11l.14-.14c-.08.07.05-.07.06-.08l0,0,0,0L27,18.4l.05-.06-.22.22s-.05,0,.06-.08c0,.05.11-.11.13-.12s0,0,0,0l0,0c.09-.11-.13.13-.13.12l.1-.11-.15.15c0-.05,0,0,0,0l0,0-.08.07.06-.05c-.12.1.1-.13,0-.06l.14-.15c-.08.08.08-.09,0,0a1.06,1.06,0,0,1-.15.15l.07-.05-.12.11s.05,0,0,0l-.12.12c.13-.13-.08.07,0,0l.21-.21c.08-.11-.12.09-.08,0l0,0c-.08.08,0,0-.05,0a1.35,1.35,0,0,0,.13-.15c0,.06,0,0-.14.13l.09-.09c0-.05-.2.19-.19.16l.18-.18s0,0,0,0-.1.09,0,0l-.1.1,0,0-.12.13c.2-.23,0,0,.14-.2l-.07,0,0,0c.06-.07-.2.2-.14.12s.07-.06.11-.11c.22-.23,0,0,.09-.11v0c.07-.08-.09.08-.08.06l0,0a1.61,1.61,0,0,1-.2.18l.14-.14-.18.17.18-.2h0c.12-.13,0,0,0,0l.06-.05s-.17.15-.16.13l0,.05c-.15.13.07-.09,0,0l.14-.14s-.14.13-.18.15l.23-.21s0,0-.09.07.05-.05,0,0l-.17.15c.27-.28,0-.09.25-.3-.1.09,0-.07,0-.06-.2.22,0,0-.22.22,0,0,0,0,0,0l.12-.14a.75.75,0,0,0,.09-.09l.14-.16c-.07.08-.11.11-.08.08l-.1.1c-.12.11.18-.19.06-.08l.07-.07a.68.68,0,0,0-.19.16l.09-.1s-.2.16-.1.05l.05-.06s-.1.1-.05,0l.05-.05s-.09.09-.07.05l.06-.06c.06-.08-.15.14-.2.16a1.32,1.32,0,0,0,.22-.24l0,0s-.15.11-.22.16c.16-.18.05-.1.13-.2l-.14.13s-.11.11,0,0h0c.14-.15.09-.11.09-.12l-.18.19c.26-.29-.13.07.11-.18l-.1.08.09-.1s0-.05,0,0l.07-.07-.3.29.15-.16s.11-.14,0,0l.08-.07s.08-.11-.12.1c.13-.14,0,0-.06,0l.1-.1-.2.19.05-.06c0-.05-.1.1-.05,0l.06-.07L26,18s0,0,.1-.13l-.1.1.06-.06c.06-.08-.12.1,0,0l.05-.06s0,0,0,0l.23-.23c-.07.06-.23.21-.19.16l0,0h0l0,0c.07-.08,0-.05,0-.05l-.16.16h0c0,.05-.09.09,0,0s-.13.13-.16.16l.28-.31a1.07,1.07,0,0,0-.24.2s0-.06.08-.09,0,0,0,0a1.69,1.69,0,0,0-.16.14l.1-.1,0,0c.19-.23-.36.31-.11,0l0,0c.1-.13-.15.08,0-.13,0,0-.05,0-.12.1l.11-.1-.13.12c-.1.08.25-.28.07-.12l-.07.07s-.05,0,0-.05l0,0,.05-.06-.1.09c0-.05.22-.22.22-.24s-.17.15-.2.19l-.09.1,0,0-.44.46.11-.09-.08.08h0c-.07.08,0,0,0,0l-.08.09.16-.16-.16.17c.07-.07.14-.15.19-.19l-.07.08-.08.08.11-.1c-.09.1,0,0-.12.14a.81.81,0,0,0,.13-.12c-.18.19,0,0-.19.22.16-.16.08-.06.18-.15l0,0-.09.11c.13-.14.17-.17.26-.26l-.29.3c.11-.12.12-.11.21-.2l-.15.16c.17-.18,0,0,.14-.13-.08.09-.16.16-.1.11Zm.42-.19Zm0,0h0l.07-.07Zm.66-.72s0,0,0,0h0Z"/><path class="cls-3" d="M26.07,17.79h0l0,0,0,0Z"/><path class="cls-3" d="M26.84,18.83h0l0,0Z"/><polygon class="cls-3" points="25.49 18.71 25.52 18.68 25.5 18.7 25.49 18.71"/><path class="cls-3" d="M26.56,19.23l0,0Z"/><path class="cls-3" d="M26.56,19.28l0,0Z"/><path class="cls-3" d="M26.53,19.35l0,0h0Z"/><path class="cls-3" d="M26.12,19.18Z"/><path class="cls-3" d="M26.44,19l-.05,0S26.39,19.09,26.44,19Z"/><polygon class="cls-3" points="25.91 19.2 25.91 19.2 25.91 19.2 25.91 19.2"/><path class="cls-3" d="M26.39,19.07s0,0,0,0Z"/><path class="cls-3" d="M26.57,19.47h0v0Z"/><path class="cls-3" d="M26.58,19.46h0Z"/><path class="cls-3" d="M26.62,19.43l0,0Z"/><path class="cls-3" d="M26.59,19.4l0,0Z"/><path class="cls-3" d="M26.57,19.41s-.07.08,0,.06l0,0C26.5,19.49,26.64,19.35,26.57,19.41Z"/><path class="cls-3" d="M27,18.92l0,0,.1-.1C27.16,18.74,27,19,27,18.92Z"/><path class="cls-3" d="M27,18.85l.07-.08Z"/><path class="cls-3" d="M26.88,18.71l.09-.09A.7.7,0,0,0,26.88,18.71Z"/><polygon class="cls-3" points="26.39 19.16 26.34 19.22 26.42 19.14 26.39 19.16"/><polygon class="cls-3" points="27.01 18.49 27.02 18.48 26.99 18.51 27.01 18.49"/><path class="cls-3" d="M26.74,18.29l-.11.12S26.78,18.26,26.74,18.29Z"/><path class="cls-3" d="M26.53,18.31l0,0S26.51,18.32,26.53,18.31Z"/><polygon class="cls-3" points="26.4 17.83 26.44 17.79 26.41 17.82 26.4 17.83"/><path class="cls-3" d="M24.79,24.44s0,.14,0,.12v-.17Z"/><path class="cls-3" d="M24.93,24.73a1.18,1.18,0,0,0,0-.37v.28s0-.05,0-.11,0,0,0,.07.06.13.08,0A.45.45,0,0,1,24.93,24.73Z"/><path class="cls-3" d="M26.63,24.58h0Z"/><path class="cls-3" d="M27.64,24.22a.08.08,0,0,0,0,0A.06.06,0,0,0,27.64,24.22Z"/><path class="cls-3" d="M27.89,24.29h0S27.9,24.3,27.89,24.29Z"/><path class="cls-3" d="M26.63,24.58l.05,0C26.66,24.57,26.65,24.59,26.63,24.58Z"/><path class="cls-3" d="M25.1,24.31s0,0,0,0v0Z"/><path class="cls-3" d="M26.23,24.86h0v0Z"/><path class="cls-3" d="M25.88,25a.74.74,0,0,0,0-.2.58.58,0,0,1,0,.1Z"/><path class="cls-3" d="M25.26,24.86v0Z"/><path class="cls-3" d="M26.49,24.81l0,.05Z"/><path class="cls-3" d="M31.76,17.16h0Z"/><polygon class="cls-3" points="32.51 16.88 32.51 16.89 32.59 16.9 32.51 16.88"/><path class="cls-3" d="M28.28,24.27Z"/><path class="cls-3" d="M30.6,22.14c-.12-.06-.09-.15-.23-.2C30.42,22,30.51,22.12,30.6,22.14Z"/><path class="cls-3" d="M25.11,24.33h0Z"/><polygon class="cls-3" points="30.37 21.94 30.37 21.94 30.36 21.93 30.37 21.94"/><path class="cls-3" d="M28.89,23.76l0-.05Z"/><path class="cls-3" d="M28.3,23.92h0Z"/><path class="cls-3" d="M29,23.42s0,0,0,0h0S29,23.43,29,23.42Z"/><polygon class="cls-3" points="29.26 23.22 29.24 23.2 29.23 23.21 29.26 23.22"/><path class="cls-3" d="M31.62,18l.13,0C31.65,18,31.63,17.94,31.62,18Z"/><path class="cls-3" d="M25.11,24.39v-.06h0Z"/><path class="cls-3" d="M28.34,22.54h.05A0,0,0,0,0,28.34,22.54Z"/><path class="cls-3" d="M30.83,19.83v0S30.81,19.82,30.83,19.83Z"/><path class="cls-3" d="M28.48,22.43l.08.06,0,0Z"/><path class="cls-3" d="M31.75,18Z"/><path class="cls-3" d="M31.51,17.64s.17.07.27.1-.14,0-.23,0,.19.11.18.13a.13.13,0,0,1-.08,0c.13.07,0,.1.15.19h-.05l.24.07s.1.07,0,0,0,0-.08,0l.05,0c-.17,0-.05,0-.17-.08,0,0,.16.14.1.16s0-.09-.18-.1l.07,0c-.27-.05,0,0-.26-.08-.06.05.07.09,0,.14a1.43,1.43,0,0,1,.22.08c.13.14-.43-.08-.23.06s.3.13.18.13l-.18-.08c0,.05.25.13.11.14s-.05-.06-.07-.06.09.06.08.09l-.16,0c0,.07.09.17.09.25a.59.59,0,0,0-.14-.06c.05.12-.09.17-.22.21l.12.08s-.06,0-.08,0,.08,0,.13.08-.09,0-.13,0,.18.26,0,.25l0,0c-.07,0,.25.18.11.16l0,0c-.11.07,0,.23-.27.2.18.11-.13.05.12.19-.15,0-.19-.06-.32,0s.15.12.16.16l-.14-.08.13.12-.17-.08,0,0,.11,0c0,.07-.15,0-.22,0l.07.15c-.05,0-.06-.06-.09-.09.11.13-.15-.07-.05,0a.41.41,0,0,1,.11.07c-.09,0-.12,0-.11.07L30.55,20c-.06,0,0,.16-.08.22s.21.11.21.14l-.14-.08c.08.07.06,0,.15.11s-.17-.09-.2-.13l0,.06c-.05,0-.06,0-.11-.08s-.17,0,0,.08l0,0c0,.07,0,.13,0,.19s.07.08.15.16-.18,0-.21.05.09.08.15.14c-.1-.07-.13,0-.19-.09a.31.31,0,0,0,0,.22c.05,0,.08,0,.11.06s-.07,0-.11-.05h0c.09.2-.44,0-.27.18h0l.06.15c-.05,0-.07-.08-.14-.11.11.2-.11.09,0,.23-.33-.2-.11.17-.34.06l.07.06c.05.07-.06,0-.08,0s.07,0,.1.08c0,.2-.33.16-.5.22s.3.35.1.25l-.1-.13c0,.23-.19.16-.16.37,0,0-.06-.07-.05-.08s-.07.06,0,.13-.06-.06-.1-.09,0,.16,0,.07a.08.08,0,0,1,0,0c0,.05-.07,0,0,.13-.07,0,0,.11-.1.07.08.13-.11,0,0,.16-.14-.18-.17-.09-.13,0,0-.06-.06,0-.11-.12s0,.07.05.16c-.21-.18,0,.25-.2,0a.9.9,0,0,1-.07.37c-.13-.19.06-.07-.08-.26,0,.12.06.31,0,.31s0-.09-.06-.13c0,.13-.14.08-.14.22a.14.14,0,0,1,0-.06s-.05,0,0,.07v0a1.43,1.43,0,0,1,.15.37c-.13-.27-.1,0-.26-.36a.33.33,0,0,0,.05.12s0,0-.07-.11.06.16,0,.18,0-.06-.05-.12c0,.1.06.19,0,.18s0-.06,0-.06,0,.28-.09.24c-.09-.2-.06-.05-.15-.21v.06l.06.08s0,.14-.06.11v-.08l0,.06.06,0c0,.1.12.21.05.19s0,0-.1-.08h0c0,.06,0,.13,0,.1a2.24,2.24,0,0,1-.11-.22c.05.15-.06.08,0,.24a1.16,1.16,0,0,0-.06-.15l0,.12a.26.26,0,0,1-.07-.11c-.06,0,.11.2,0,.14a.43.43,0,0,1,0-.05c-.07,0-.07.12-.14.09s0-.06-.06-.2c-.06.06-.06.27-.15.26l0,0c.1.25-.1-.1-.09,0s0-.14,0-.11-.07.1-.12.2v-.06c0-.05-.09,0-.13,0s0,.07,0,.16c-.22-.33-.12.26-.31,0,0,0,0-.06,0-.06l-.06.08a.42.42,0,0,0,.08.15c0,.07,0,.12,0,.13s0-.18-.08-.24l0,.11c-.1-.19,0,.23,0,.11v-.06s0,.12,0,.11,0-.07,0-.18,0,.27-.06.15,0-.05,0-.09-.06-.1-.09-.12h0l-.06-.05,0,0c.05.35-.06.09-.06.32,0-.22,0-.12-.05-.27a.23.23,0,0,1-.06-.12c0,.12-.06-.09-.06.09,0,0,0,0,0-.12,0,0,0,.09,0,.15s-.15-.18-.18.06,0,.27-.07.36a.32.32,0,0,1,0-.18c0-.07-.06,0-.08,0a.35.35,0,0,0,0-.13s0,.18,0,.11,0-.14,0-.2a1.06,1.06,0,0,1-.06.19.5.5,0,0,1,0-.18.29.29,0,0,0-.07.22l0,0s0-.11,0-.14.05.05.06.09l0,0c.06.28.08-.06.12-.05v.21l0-.18a.54.54,0,0,1,0,.2c0,.1,0-.07.06,0v0l0-.07c0,.05,0,.15,0,.12s.06-.17.11,0v0c.06-.09,0-.15,0-.34l.11.36,0-.15s0,0,0,.07c0-.1,0-.06,0-.16.07.13.09-.09.15.15,0-.12,0-.08,0-.17.07.25,0-.05.1.06s0,.07,0,.18c0-.23.08,0,.1,0s0-.09.08-.16.11.07.18.12v0c-.05-.18,0-.16,0-.21a.73.73,0,0,1,0,.21h0a.23.23,0,0,1,0-.12l0,.13s0-.18.12-.11c0-.12-.16-.33-.13-.42a1.36,1.36,0,0,1,.06.2s0-.06,0,0v.12s0-.1,0-.1a1.14,1.14,0,0,1,.06.14s0,0,0,0a.26.26,0,0,1,.11.12s0-.13,0-.14.06.1.1.14,0,0,0-.15,0,.06.06.1.09-.06,0-.19h0c0-.16.18,0,.22-.06l0,0c0-.07.08-.07.07-.18a.32.32,0,0,1,.08.13c0-.05,0-.1.07-.05s.05.07,0,.08.1.09.09-.06c0,.12.09.13.1.09l-.07-.07s0,0,.06,0l.06.15c.17.14,0-.38.21-.11,0-.11-.08,0-.12-.18s.2.2.21.19-.07-.24,0-.21a.5.5,0,0,1-.11-.26s.17.2.17.25,0,0,0,0a.11.11,0,0,0,0,.1l0-.05c.05,0,.1,0,.13.1a.11.11,0,0,0-.07-.11c.09.05.08,0,.16,0s-.07-.08-.06-.09,0-.11,0-.16.1.19.11.1.08.13.09.18c0-.13.13,0,.16,0v.05s0,0,0,0l-.08-.1a.1.1,0,0,1,.07.05c0-.08-.12-.16-.14-.27s0-.09.1,0c-.08,0,.09.13.06.18s0,0,0,0,0,0,0,0-.07-.16,0-.2.1.14.1.12-.09-.12-.1-.19,0-.07,0-.08h0c0-.08,0-.08,0-.12s0,.05,0,.07c-.06-.14.15.1.13,0s.09.14.13.16c0-.13.12.07.11,0a.27.27,0,0,1-.1-.18l0,.12-.05-.18s0,.09,0,.09,0-.07-.08-.15c.13.13,0-.12.1-.05l.17.25c.13.07,0-.19.11-.18l0,0c-.06-.1,0-.05,0-.1a.9.9,0,0,0,.14.14c0-.06,0,0-.06-.19l.11.08c.08,0-.11-.27,0-.28s.11.14.13.22,0,0,0-.06,0-.14,0-.08-.09-.12-.06-.13l0,0s0-.08-.1-.15c.24.2.12-.13.34,0a.39.39,0,0,1,.06-.15s0,0,0,0-.16-.24-.05-.2,0,.08.09.12c.22.23,0-.09.19,0v0c.1.05,0-.15,0-.17l0,0a.47.47,0,0,1-.07-.31c.08.11,0,.07.13.15s-.15-.14-.14-.2a1,1,0,0,1,.22.16l0,0c.14.12,0,0,.07,0l.05.06c0-.06-.1-.2,0-.25l-.05,0c-.11-.17.1.05,0-.08l.15.13a.77.77,0,0,1-.07-.26,1.27,1.27,0,0,1,.14.3s.05-.07,0-.15,0,.06,0,0-.11-.21-.07-.25c.27.27.16,0,.4.14,0-.16.17-.09.23-.19-.25-.17,0,0-.23-.23,0,0,0,0,0,0l.19.06c.08,0,0,.06.09.1s.11.07.2.09c-.09-.06-.11-.11-.05-.11L30.66,22c-.08-.16.24.12.16-.05l.06.08c0-.06.1-.11-.07-.3,0,0,.1.06.11.09s-.08-.33.09-.29l0,.05s-.09-.11,0-.09l.07,0s-.08-.12,0-.11l.06.07c.13,0-.09-.24-.08-.33a.38.38,0,0,0,.33.1l0,0c.09-.08,0-.26-.06-.39.23.09.2-.12.36-.13a.36.36,0,0,1-.15-.12c.05,0-.09-.14.07,0h0c.17.09.16,0,.18,0l-.22-.14c.38.11,0-.3.33-.17,0,0,0-.08-.07-.13l.12.07a.18.18,0,0,0,.1-.15l.09.06s-.34-.25-.32-.29L32,20c0-.07.24-.06.1-.22,0,0,.08,0,.08.06s.2-.07-.07-.18c.17.08,0-.07,0-.15l.12.07c-.15-.11-.19-.13-.21-.2s.1,0,.06,0-.1-.08,0-.1l.08.06s0-.05-.11-.12.07,0,.18,0c-.06,0-.15-.1-.11-.1a.14.14,0,0,1,.08,0c.12,0-.11-.15,0-.15l.08,0c0,.05,0,.09-.06.08s.16,0,.31.12c-.08-.08-.25-.21-.18-.23h.06s0,0,0,0l0,0c.1,0,.07,0,.08,0s-.1-.07-.21-.08,0,0,0,0,0,0,0,0h0V19c-.06-.05-.11-.08,0-.08l-.2-.11c.19,0,.31,0,.43.06,0-.09,0-.17-.23-.3,0,0,.08,0,.12,0s0,0,0,0,0-.11-.16-.18c.09,0,.15.08.14,0l0,0c.32,0-.38-.34,0-.37a.09.09,0,0,1-.07,0c.21-.11-.06-.36.23-.46.06,0,0-.06-.14-.11l.15,0-.16-.08c-.11-.09.39-.05.17-.18h-.1s0-.11.07-.08-.1,0-.05,0h.08l-.12-.1c.06-.05.3.06.33,0a.56.56,0,0,0-.27-.12s0,0-.13,0l0,0a1.55,1.55,0,0,0-.63,0l.13.06H31.9v0c-.11,0,0,0,0,.06h-.12L32,17c-.09,0-.17,0-.23,0,.1,0,.21,0,.27.05-.11,0-.19,0-.11,0l-.12,0c.07,0,0,.06.14.09-.13,0,0,.08-.2,0,0,0,.17.07.17.09-.25-.08,0,.08-.3,0,.22.08.08.12.2.2s-.06,0,0,0-.1,0-.15,0a1.56,1.56,0,0,1,.34.16c-.2,0-.22-.08-.4-.11.15,0,.14.09.27.12l-.22,0c.23.06,0,0,.17.09-.12,0-.22-.05-.16,0A.27.27,0,0,1,31.51,17.64Zm.09,1.07h0v0Zm0,.08,0,0s.09,0,.08,0Zm1,.18s0,0,0,0a0,0,0,0,0,0,0h0Z"/><path class="cls-3" d="M32.38,18.88h0l0,0Z"/><path class="cls-3" d="M26.61,24.57h0v0Z"/><polygon class="cls-3" points="30.81 19.71 30.84 19.73 30.82 19.71 30.81 19.71"/><path class="cls-3" d="M26,24.26l0,0Z"/><path class="cls-3" d="M25.79,24.29l0,0Z"/><path class="cls-3" d="M25.62,24.26l0,.06h0Z"/><path class="cls-3" d="M27.78,23.14h0Z"/><path class="cls-3" d="M27.31,23.79a.17.17,0,0,1,0-.07S27.27,23.72,27.31,23.79Z"/><polygon class="cls-3" points="28.34 22.54 28.34 22.54 28.34 22.54 28.34 22.54"/><path class="cls-3" d="M27.33,23.71s0,0,0,0S27.33,23.73,27.33,23.71Z"/><path class="cls-3" d="M25,24.31h0v0Z"/><path class="cls-3" d="M25,24.33v0S25,24.35,25,24.33Z"/><path class="cls-3" d="M24.94,24.39v0S24.94,24.35,24.94,24.39Z"/><path class="cls-3" d="M25.17,24.35v0Z"/><path class="cls-3" d="M25.23,24.33s-.05-.11-.07-.07v0C25.17,24.22,25.23,24.41,25.23,24.33Z"/><path class="cls-3" d="M25.62,24.89l-.07,0c0,.05.05.12,0,.13S25.54,24.89,25.62,24.89Z"/><path class="cls-3" d="M25.81,24.93s0,.08,0,.11S25.84,25,25.81,24.93Z"/><path class="cls-3" d="M27,24.52l.05.12S27.05,24.59,27,24.52Z"/><polygon class="cls-3" points="26.96 23.82 26.91 23.76 26.95 23.87 26.96 23.82"/><polygon class="cls-3" points="27.48 24.58 27.48 24.6 27.5 24.54 27.48 24.58"/><path class="cls-3" d="M29.29,23.35l-.1-.12S29.3,23.4,29.29,23.35Z"/><path class="cls-3" d="M29.88,22.6c.06,0,.11.07.07,0S29.87,22.58,29.88,22.6Z"/><polygon class="cls-3" points="31.78 20.56 31.82 20.6 31.8 20.55 31.78 20.56"/></g></g></svg>