<svg xmlns="http://www.w3.org/2000/svg" viewBox="0 0 80.1 83.72"><defs><style>.cls-1{fill:#f1edb1;}.cls-2{fill:#fff;}.cls-3{fill:#4d4d4d;}</style></defs><g id="圖層_2" data-name="圖層 2"><g id="圖層_1-2" data-name="圖層 1"><path class="cls-1" d="M43.11,83.33c-.23-.29-1-.12-1.26-.41s.42-1.29.19-1.57-.62-.45-.85-.73-1.43.2-1.66-.09.12-1-.12-1.33-.06-.9-.29-1.18-.35-.67-.58-1-1.35.14-1.58-.15.54-1.38.31-1.67-1.13,0-1.37-.32-.61-.45-.84-.74-.57-.49-.8-.77.26-1.16,0-1.45-1.43.22-1.66-.07.75-1.56.52-1.85-1.44.22-1.67-.07-.55-.5-.78-.79-.4-.63-.63-.91-.06-.9-.29-1.19-1-.17-1.19-.46-.5-.54-.73-.83.6-1.44.37-1.72-1.19,0-1.42-.28l-.69-.86c-.23-.29-.24-.75-.47-1s-.27-.73-.5-1-.14-.83-.37-1.12-.95-.18-1.18-.47-1.09-.08-1.32-.36-.14-.84-.37-1.12-.23-.76-.46-1.05.14-1-.09-1.34-1.19,0-1.42-.29.15-1.05-.08-1.34-1.42.18-1.65-.11-.11-.86-.33-1.15S17,52.25,16.81,52s.41-1.26.19-1.55-1-.14-1.25-.43c0,0,.51-.93,0-1.49-.21-.23-1.19.14-1.47-.2s.05-1-.21-1.28-.45-.56-.69-.88-.76-.34-1-.66-.36-.64-.59-1-.09-.83-.31-1.15-1-.21-1.22-.53-.79-.37-1-.7-.3-.69-.5-1-.1-.82-.31-1.15.12-.94-.08-1.27-1.07-.22-1.27-.55-.72-.45-.91-.79.42-1.1.23-1.43-.12-.79-.3-1.13-.64-.5-.83-.83-.76-.44-.94-.78-.67-.49-.85-.83-.14-.78-.31-1.12-.41-.63-.59-1-.25-.72-.42-1.06.47-1.08.3-1.42S1.07,27.64.9,27.3s.87-1.18.72-1.62-1.11-.62-1.12-1-.2-1.2,0-1.56.84-.61,1.15-.81a6.28,6.28,0,0,1,1.06-.67c.39-.12.82-.32,1.1-.38a10.39,10.39,0,0,1,1-.12c.35,0,.69,1.58,1,1.6s.9-1.51,1.09-1.48c.37.06.68.36,1,.41s.65.62,1,.67.75-.15,1.09-.11.7.56,1,.58.75-1,1.09-1,.75.82,1.09.78.57-.67.91-.77,1,.5,1.28.33a6.91,6.91,0,0,0,1.16-.54c.3-.27-.36-1.35-.15-1.65s1.17-.21,1.32-.53-.17-1-.08-1.27.58-.6.66-1-.1-.76-.06-1.14.33-.72.33-1.1.23-.76.19-1.15.07-.76,0-1.14-.3-.71-.37-1.09-.26-.71-.33-1.09-.39-.68-.48-1.1.32-.85.22-1.25-.15-.76-.26-1.15-.39-.69-.51-1.08.21-.78.08-1.16c0-.2-.77-.51-.64-1a6,6,0,0,1,.41-1c.16-.31.76-.31,1-.57s-.08-1.4.25-1.57,1,.18,1.36.16.9-.51,1.25-.44A8.76,8.76,0,0,1,22,.69c.36.14.15,1.58.45,1.72s.88-.1,1.2.06.83,0,1.15.23.46.72.78.9.54.56.85.75.62.42.93.61.59.45.89.65,1.2-.42,1.5-.21S29.67,6.78,30,7s.95,0,1.24.21.66.39.94.62,1,0,1.23.28.49.63.74.87.48.64.72.88.11,1,.32,1.24a2.38,2.38,0,0,1,.59,1c.27.26.38.69.65.94s1.07,0,1.33.2.21.86.48,1.11,1.21-.2,1.48.06-.23,1.34,0,1.59,1.4-.42,1.67-.17l.81.77c.27.25.21.86.48,1.11s.62.43.89.68-.09,1.18.19,1.43,1.46-.49,1.73-.24-.14,1.25.13,1.5,1.21-.22,1.49,0,.4.64.68.89-.18,1.28.09,1.53,1.27-.29,1.54,0,.6.44.87.69.66.36.94.6l.8.76c.27.25.43.62.7.87s0,1.11.24,1.36,1.05-.06,1.32.19,0,1,.31,1.29.47.57.74.82.3.76.57,1,1.51-.55,1.78-.29,0,1.13.23,1.38.92.08,1.2.33.05,1,.32,1.28.3.74.57,1,1.18-.19,1.45.06.66.36.93.62,0,1.1.25,1.36,1.18-.19,1.46.07,0,1.09.24,1.35,1,.06,1.23.31-.11,1.18.17,1.44l.8.79c.26.24,1.2-.2,1.49.08s.7.34,1,.61.08,1,.37,1.26.68.36,1,.63.64.43.92.7.45.61.73.88-.12,1.22.16,1.48.77.29,1,.55,1.12-.08,1.4.19.57.5.85.76.67.39,1,.65-.16,1.27.12,1.53.86.2,1.14.47,0,1,.32,1.31,1.35-.32,1.63-.05-.17,1.29.11,1.56"/><path class="cls-2" d="M43.3,83c-.28-.2-1-.16-1.07-.53s.28-.67.24-1a2,2,0,0,0-1.61-1.33c-.23,0-.54.14-.77.08-.41-.09-.2-.06-.23-.52a5.37,5.37,0,0,0-.25-1.43c-.23-.7-.58-1.58-1.38-1.69-.17,0-.59.13-.73,0-.3-.17,0-.12-.07-.34s.34-.65.24-1a.7.7,0,0,0-.38-.46c-.13-.07-.29,0-.43-.09a3.46,3.46,0,0,1-1.54-.8,1.7,1.7,0,0,1-.61-1.52c0-.3,0-.55-.24-.76a1.08,1.08,0,0,0-.75-.13c-.87,0-.83.4-.46-.47.17-.41.5-1,.07-1.32a1.16,1.16,0,0,0-.86-.11c-.51,0-.54.09-1-.17a2.83,2.83,0,0,1-.88-1.06c-.25-.44-.23-1.18-.57-1.56s-.6-.22-.9-.36c-1.75-.78,0-1.61-.58-2.58a.81.81,0,0,0-.57-.3c-.19-.05-.41,0-.6,0-.6-.17-.88-.74-1.14-1.25s-.41-.88-.6-1.3-.29-1.22-.68-1.58c-.68-.6-2-.39-2.51-1.17a8.35,8.35,0,0,1-.51-1.37c-.19-.51,0-1-.19-1.49a.78.78,0,0,0-.64-.49c-.72-.17-.79.09-.81-.72,0-1.18-.77-.63-1.54-.81-.54-.13-.27-.72-.63-1.12-.16-.18-.31-.15-.48-.3-.56-.5-.35-.52-.27-1.08.16-1.13-.78-.75-1.44-1.24l.13.52a2,2,0,0,0,.2-1.52c-.23-.63-.56-.51-1.1-.6s-.5-.24-.62-.81a1.78,1.78,0,0,0-.33-.64,4.72,4.72,0,0,0-.87-1A3.38,3.38,0,0,1,12,43.84c-.18-.56-.2-.82-.78-1A3,3,0,0,1,9.15,41a5.73,5.73,0,0,1-.37-1.52c0-.31.11-.6,0-.89-.27-.53-.91-.44-1.36-.72s-.75-.65-.75-1,.21-.56.19-.86A2.76,2.76,0,0,0,6,34.11c-.53-.54-1.14-1-1.66-1.51a3.52,3.52,0,0,1-.76-1.46,14.9,14.9,0,0,1-.86-1.69c-.17-.61.43-1.31.11-1.86s-1.44-.36-1.47-.51c-.07-.33.74-.88.66-1.4s-.91-.74-1.15-1.31c-.45-1.11,1-1.88,1.79-2.31a3.83,3.83,0,0,1,1.9-.55c.49.14.48.63.7,1s.34.6.75.51c.64-.14.57-1,1-1.32s-.44-.3.42.12c.13.06.32.09.43.15a7.48,7.48,0,0,0,.71.55c.33.17.43.1.81.11a3.59,3.59,0,0,1,1.27.35c.13,0,.25.14.39.14.65,0,.65-.76,1.11-.88s.7.75,1.22.68c.34-.05.38-.33.63-.46.54-.26.7,0,1.18.05a2.48,2.48,0,0,0,1.71-.66c.36-.46,0-.82,0-1.31,0-.79.94-.37,1.25-1a1.77,1.77,0,0,0,0-.76,2.55,2.55,0,0,1,.39-1.13,1.55,1.55,0,0,0,.17-.86,15.48,15.48,0,0,1,.36-2.28A5.29,5.29,0,0,0,19,11.85a9.36,9.36,0,0,1-.71-3.3,7,7,0,0,0-.64-2.46c-.23-.72,0-1.19-.33-1.84s-.1-1,.61-1.55c.18-.14.32-.18.44-.37a1.34,1.34,0,0,0,.11-.69c0-.09-.05-.45,0-.5.24-.29.63,0,.9,0,.65,0,2-.74,2.47-.1.34.44-.13,1.24.41,1.65s1.42,0,2,.26c.86.32,1.56,1.38,2.33,1.91.56.4,1.25,1.12,2,1.15.24,0,.78-.36,1-.27s0,.91,0,1c.11.51.35.56.82.68A8.72,8.72,0,0,1,32,8.15c.32.15.66.09,1,.21,1.11.44,1.42,1.78,1.81,2.7a11.84,11.84,0,0,0,1.1,1.83c.43.63.57.46,1.24.62s.51,1.09,1.25,1.28c.26.06.56-.12.8-.06.44.12.2.28.17.72s0,.81.48,1c.88.28,1.37-.67,2.1.45.21.33.26.72.5,1,.36.48.82.59.93,1.21.08.45-.1.88.43,1.1s1.26-.46,1.49-.14-.28.95.22,1.33c.68.51,1.49-.45,2,.77.18.47-.19,1.21.22,1.63s1.28-.07,1.83.19a7.91,7.91,0,0,1,2.72,2.32,1.57,1.57,0,0,1,.31,1.05,1.07,1.07,0,0,0,.24.68c.53.54,1.12-.21,1.37.69a7.67,7.67,0,0,0,1.22,2c.28.45.34.74.92.72.3,0,.65-.32.93-.28.51.07.15.33.31.84s.5.4.92.65c.74.43.69,1.67,1.31,2.26s.86.07,1.41.18a1.79,1.79,0,0,1,1,.73c.12.28-.07.66.08,1,.24.48.59.42,1.07.41.71,0,.47-.05.55.59a1.07,1.07,0,0,0,.23.67c.19.2.41.18.64.25.6.17.48.11.56.65a1.91,1.91,0,0,0,1,1.67c.52.27,1,0,1.52.11,1,.28.78,1.18,1.28,1.81.68.84,2.3,1.1,2.6,2.31.14.54-.21,1,.25,1.45a3.11,3.11,0,0,0,1.8.69c.7.09,2.26,1,2.34,1.76,0,.48-.16.85.23,1.23s.83.16,1.12.92c.1.27,0,.53.24.76.38.38.76.08,1.21.11s.4,0,.37.52a1.48,1.48,0,0,0,.13.84c.22.43.87.05.65-.38s.3-1.19-.17-1.64-1.2.19-1.56-.17-.11-.91-.73-1.29-.77-.13-.74-.9a1.28,1.28,0,0,0-.13-.82c-.17-.27-.53-.37-.78-.56a9.41,9.41,0,0,0-1.24-1c-.63-.29-1.32,0-1.93-.46s-.18-1-.52-1.65c-.56-1-1.68-1.27-2.38-2.06-.39-.44-.24-.91-.54-1.34a2,2,0,0,0-.64-.45,2.94,2.94,0,0,0-.78-.42c-.43-.1-.79.13-1.2,0-1.07-.47-.38-1.13-.75-1.85-.13-.25-.25-.3-.51-.43-.1,0-.25,0-.36,0-.72-.24-.44-.19-.51-.74s-.16-.73-.6-.84c-.2-.06-.83.16-1,.07s-.06-.75-.15-1a1.85,1.85,0,0,0-2.09-1.1c-.71,0-.86-.44-1.06-1.14s-.08-1-.69-1.26c-.15-.07-.23,0-.36-.06-.75-.28-.35-.13-.47-.63-.06-.28,0-.6-.22-.82s-.86-.05-1.26.05c-.66.17-.53.11-.87-.46s-.82-.83-1-1.5c-.13-.5,0-.89-.6-1.09-.23-.09-.66.09-.85,0s-.1-.73-.19-1a5.06,5.06,0,0,0-1.69-2c-.39-.31-.83-.54-1.22-.84s-.59-.56-1-.62-.66.18-.9.12c-.46-.11-.12-.42-.16-.81a2.2,2.2,0,0,0-1.11-1.66,1.38,1.38,0,0,0-.5,0,2.09,2.09,0,0,1-.5.08c-.4-.12-.15-.08-.21-.42s.15-1-.46-1.16a1.39,1.39,0,0,0-.7.09c-.52.14-.59.35-.73-.15-.07-.23,0-.5-.06-.73-.22-.52-.88-.7-1.14-1.19s-.51-1.35-1.26-1.68a1.11,1.11,0,0,0-.57-.09,2.86,2.86,0,0,0-.42.1c-.38.09-.45.26-.56,0s.33-.93-.09-1.35a.89.89,0,0,0-.63-.19c-.11,0-.23.06-.34.05-.57-.06-.43-.08-.73-.62s-.47-.49-1.05-.62a1.31,1.31,0,0,1-1-.7c-.16-.27-.3-.56-.46-.84a11.24,11.24,0,0,0-1-2.13c-.44-.55-.85-1.22-1.53-1.45a8.4,8.4,0,0,1-1-.24c-.28-.13-.51-.4-.79-.51a6.29,6.29,0,0,0-.66-.16c-.59-.2-.43-.27-.49-.9A.92.92,0,0,0,30,5.17c-.44-.43-.9.06-1.38.06s-1-.52-1.42-.8A9.69,9.69,0,0,1,25.51,3,2,2,0,0,0,24,2.16c-.13,0-1.26-.06-1.31-.11s-.05-.94-.15-1.2c-.23-.61-1-.81-1.6-.85a2,2,0,0,0-.69.12,5.63,5.63,0,0,1-1.64.12c-.47,0-.75.12-.88.58s.07.71-.14,1-.61.34-.87.65a2.17,2.17,0,0,0-.49,1.64c.1.3.41.38.53.63s-.09.83,0,1.23.5.94.62,1.47c.15.7-.14,1.26-.08,1.91a2.53,2.53,0,0,0,.31.76,14.1,14.1,0,0,1,.63,1.9,4.83,4.83,0,0,1,.16,2.1c-.08.63-.36,1.2-.44,1.81a4.74,4.74,0,0,1-.15,1.45c-.16.34-.4.46-.47.84,0,.16.07.29.07.44,0,.46,0,.45-.34.64s-.48.07-.69.23c-.66.53.05,1-.08,1.59-.22,1-1.47.27-2,.3a.89.89,0,0,0-.55.22c-.53.42-.36.52-.9.08-.35-.28-.65-.41-1.05-.15-.2.13-.41.68-.62.73s-.87-.45-1.1-.5-.58.05-.84,0a1.27,1.27,0,0,1-.77-.37,4.57,4.57,0,0,0-1-.43c-.56-.21-.72-.22-1.06.24-.15.2-.28.81-.51.93,0,0,.21.23,0,0a3.27,3.27,0,0,1-.25-.6c-.28-.61-.43-.82-1.1-.8a5.23,5.23,0,0,0-2.41.74A5.59,5.59,0,0,0,.19,22.9a2.71,2.71,0,0,0,0,2c.32.69,1.23.65.67,1.54-.21.34-.51.72-.24,1.1a.88.88,0,0,0,.58.29c.16,0,.33,0,.48.07.44.13.31,0,.34.34s-.24.61-.21.94a4,4,0,0,0,.45,1.2A9,9,0,0,0,3.67,33c.57.56,1.25,1,1.78,1.6A1.8,1.8,0,0,1,6,35.75c.08.52-.14.8-.16,1.31s.56,1,1,1.34a2.08,2.08,0,0,0,.54.32c.77.29.54.3.64,1.07a4.31,4.31,0,0,0,2.29,3.53c.32.15.7.1.92.41s.17.82.34,1.13a3.56,3.56,0,0,0,.77,1.07c.44.39.91.53,1.23,1.07s0,1.38.67,1.72,1.87-.32,1.18,1.07a.38.38,0,0,0,.13.51c.41.3,1,.07,1,.65,0,.38-.32.69-.13,1.11.12.27.36.3.57.47a2.48,2.48,0,0,1,.71,1c.1.17.12.35.28.48a1.09,1.09,0,0,0,.75.14c.81,0,.71-.2.73.58a1,1,0,0,0,.18.68c.33.35.76.06,1.1.25s.17.59.24,1A8,8,0,0,0,21.58,58c.11.34.15.93.43,1.2s.95.28,1.39.42a1.9,1.9,0,0,1,1.19.81c.27.51.48,1.13.72,1.67.36.78.8,2,1.73,2.2.61.15.85-.07.58.67a1.52,1.52,0,0,0-.17.81,2.47,2.47,0,0,0,.86,1.13c.44.33,1,.23,1.23.79a6.47,6.47,0,0,0,.61,1.39,4.4,4.4,0,0,0,1.06,1.17,1.24,1.24,0,0,0,.83.18c.77,0,.86-.42.52.36-.19.42-.59,1-.13,1.43a1.16,1.16,0,0,0,.86.11l.26,0c.41-.18.53-.08.36.29,0,.21-.12.46-.08.69a4.54,4.54,0,0,0,2.05,2.08c.26.1.85,0,1,.29s-.43.88-.32,1.25a.62.62,0,0,0,.43.46c.71.28,1.06-.28,1.61.54A4.6,4.6,0,0,1,39.08,80c0,.39,0,.7.39.91s.78-.05,1.15,0a.84.84,0,0,1,.65.28c.6.6.32.61.21,1.19-.22,1.22.75.78,1.44,1.27.4.28.78-.37.38-.65Z"/><path class="cls-3" d="M19.48,30.74s.11-.1.08-.1l-.14.09Z"/><path class="cls-3" d="M19.62,30.42a.84.84,0,0,0-.34.16,1.22,1.22,0,0,0,.27-.09s0,.06-.07.09,0,.06.09,0,.07-.13,0-.1A.18.18,0,0,1,19.62,30.42Z"/><path class="cls-3" d="M20.48,30.78v0Z"/><path class="cls-3" d="M20.55,31.38s0,0,0,0Z"/><path class="cls-3" d="M20.42,31.23h0S20.42,31.21,20.42,31.23Z"/><path class="cls-3" d="M20.48,30.78l0,.06S20.47,30.8,20.48,30.78Z"/><path class="cls-3" d="M19.12,30.27l.05,0,0,0Z"/><path class="cls-3" d="M20.07,30.56h0l-.05.05Z"/><path class="cls-3" d="M19.78,30.41a1.81,1.81,0,0,0,.09-.17l-.05.08Z"/><path class="cls-3" d="M19.65,30.05h0Z"/><path class="cls-3" d="M20.23,30.74l0,0Z"/><path class="cls-3" d="M19.43,31.89l0,0S19.43,31.88,19.43,31.89Z"/><polygon class="cls-3" points="19.69 30.97 19.7 30.97 19.78 30.94 19.69 30.97"/><path class="cls-3" d="M20.32,31h0S20.32,31,20.32,31Z"/><path class="cls-3" d="M20.11,30.62c0-.08.09-.08.11-.18A.94.94,0,0,0,20.11,30.62Z"/><path class="cls-3" d="M19.13,30.25v0S19.12,30.25,19.13,30.25Z"/><polygon class="cls-3" points="20.22 30.44 20.22 30.44 20.22 30.43 20.22 30.44"/><path class="cls-3" d="M19.86,30.88l-.05,0Z"/><path class="cls-3" d="M20.06,31.24v0Z"/><path class="cls-3" d="M19.59,30.87s0,0,0,0h0S19.61,30.85,19.59,30.87Z"/><polygon class="cls-3" points="19.5 30.71 19.47 30.71 19.48 30.71 19.5 30.71"/><path class="cls-3" d="M20.7,32a.75.75,0,0,1-.05-.16C20.68,31.92,20.64,32,20.7,32Z"/><path class="cls-3" d="M19.19,30.25s-.05,0-.06,0v0Z"/><path class="cls-3" d="M18.42,31.13a.29.29,0,0,1,0-.09A.1.1,0,0,0,18.42,31.13Z"/><path class="cls-3" d="M19.16,31.42l0,0S19.14,31.42,19.16,31.42Z"/><path class="cls-3" d="M18.28,30.78a.19.19,0,0,0,.08,0h0Z"/><path class="cls-3" d="M20.65,31.79Z"/><path class="cls-3" d="M20.39,32.4c.05,0,0-.22,0-.35s0,.15,0,.26c0-.07,0-.3.06-.31a.4.4,0,0,1,0,.11c0-.22.1-.08.1-.38l0,.06a3.21,3.21,0,0,1-.07-.36s0-.21,0-.05,0,.08,0,.14v-.09c.08.22,0,.11,0,.3,0-.13,0-.39.06-.39.1.22-.06.21.07.34h-.09c.15.32-.05,0,.11.37.07,0,.09-.07.12-.17a1.7,1.7,0,0,1,.14-.3c0-.16-.11-.12-.17-.27s.09-.31.18-.44a.37.37,0,0,0,0-.53c-.14-.09-.3.11-.31-.16a1.06,1.06,0,0,1,.15-.15c-.15-.23-.23.21-.27-.06,0-.08.1,0,.09-.05,0-.26-.09.09-.13.05l0-.23c-.11,0-.18.07-.27.05a.4.4,0,0,0,0-.18c-.12,0-.32-.09-.56-.11v.16s-.07,0-.06-.08,0,.08,0,.14-.09-.05-.09-.09c-.06.16-.11.38-.3.37,0,0,0,0,0,0s.18.27,0,.27v0c-.17.18-.05.43-.28.5.21,0-.11.15.19.17-.15.09-.21.05-.3.22s.19.06.23.1l-.15,0,.17.05-.16.09.06,0s0-.07.09-.08,0,.26-.07.32l.3.15c-.05,0-.11,0-.17,0,.24,0-.08.15.15.16,0-.05.06-.07.08-.1a.25.25,0,0,0,.28.19l-.05.1a1,1,0,0,0,.58,0,.22.22,0,0,1,0-.25l0,.16c0-.1-.05,0,0-.18s.07.17,0,.23l.07-.07s0,.08,0,.14c0-.1.2.11.2-.07l0,0a1.07,1.07,0,0,0,.36-.29c-.08-.11,0-.13-.07-.24.11,0,.27-.07.31-.19s-.09-.08-.15-.15c.12.05.14-.07.21,0a.49.49,0,0,0-.07-.39.26.26,0,0,1-.12,0s.05-.06.11-.05h0c-.1-.11,0-.2,0-.33s0-.28-.13-.3h0a1.13,1.13,0,0,0-.24-.08c0-.07.12,0,.14-.1-.31,0-.24-.26-.48-.25,0-.2-.11-.25-.25-.28s-.28,0-.38-.14v.1c0,.08-.06-.06-.1-.09s.06.09,0,.13c-.36.06-.84-.12-1.3-.07-.16,0,.37.39,0,.26l-.12-.13c0,.11-.16.14-.31.18a.4.4,0,0,0,.09.33s-.09,0-.1-.07,0,.19.13.22-.09,0-.14,0,.18.17.06.16l-.06,0c.07.05,0,.15.16.14,0,.08.1.16,0,.23.18,0,0,.14.21.14-.24,0-.13.17,0,.2-.08,0,0,.06-.16.06a.16.16,0,0,0,.22.06c-.19.21.33.1.07.32.24.1.44.16.6.22-.14.18-.16-.1-.32.07.22.07.38,0,.46.06s-.07.07-.1.1c.16,0,.21.14.37.08a.12.12,0,0,1,0,.05s0,0,.08-.05l0,0c0-.15.2-.25.23-.32-.14.26.07.1-.12.43a.34.34,0,0,0,.08-.12s0,.07-.05.13.06,0,.07,0,.07-.08.12-.07a.34.34,0,0,1-.06.12c.08-.08.14-.17.2-.11s0,.07,0,.06c.14,0,.21-.23.34-.15s0,.07.08.25l.07-.07,0-.08c.07,0,.09-.16.16-.12l0,.09.12-.08-.1,0c0-.11-.09-.21,0-.19s0,0,.13,0h0c0-.07,0-.13,0-.12s.13.16.17.18c-.08-.14.1-.18,0-.31a.38.38,0,0,0,.13.08.39.39,0,0,0-.1-.08.16.16,0,0,1,.15,0c.06-.12-.23,0-.11-.13s0,0,.05,0c.08-.14-.08-.23,0-.31s.06.06.21,0c-.06-.12-.27-.18-.27-.29l0,0c-.25.09.1-.12,0-.12l.11,0c0-.09-.13-.12-.26-.17l.06,0c0-.07,0-.12,0-.18s-.08,0-.14.08c.19-.38-.33-.05-.21-.37,0,0,.07,0,.06,0l-.13,0c-.06.1,0,.07-.06.15s-.11.07-.13.06.11-.15.13-.22l-.07.09c.08-.2-.14.19-.12,0l0,0s-.1.06-.12,0,.06,0,.12-.13-.2.18-.17.05.06,0,.09,0,0-.13,0-.16h0l0-.1v.05c-.2.29-.13,0-.29.19.15-.17.06-.11.13-.25s0-.1,0-.13,0-.12-.13,0c0,0,0,0,0-.13s0,.09,0,.14-.1-.24-.26-.05h0l-.38.3c.09.09.25.09.34.15a.25.25,0,0,1-.18,0c-.07.06-.05.1,0,.13a.22.22,0,0,0-.13,0s.18,0,.13,0l-.2,0a1.66,1.66,0,0,0,.21.06.25.25,0,0,1-.18,0,.21.21,0,0,0,.25.05l0-.05s-.1.07-.13.06,0-.08.06-.1l0,0c.25-.14-.08-.08-.09-.16l.21,0h-.18a.51.51,0,0,1,.2,0c.09-.05-.08,0,0-.06s0,0,0,0l-.07,0c.05,0,.15,0,.12,0s-.16-.07,0-.1h0l0,0-.23.17c.05-.05,0-.14.12-.27l-.06.37,0-.14s0,0,0,.08,0-.07.06-.16c0,.15.14,0,.07.21,0-.1,0-.09.06-.16-.08.25.07,0,.06.11s-.07,0-.08.17c.11-.21,0,.07.09,0s.09,0,.16-.07,0,.14,0,.22l0,0c.11-.15.13-.09.18-.1a.41.41,0,0,1-.14.15l0,0a.21.21,0,0,1,.09-.07l-.09.1s.17-.07.15,0c.09-.09.21-.3.32-.31a1,1,0,0,1-.16.15s.05,0,0,0l-.1.06c0,.06.08-.06.09,0s0,.06-.1.11,0,0,0,0,0,.09-.06.15a.27.27,0,0,1,.11-.09s-.08.09-.1.14,0,0,.13-.07,0,.06-.07.09.07.06.19,0h0c.17,0,0,.17.1.2l-.05,0c.08,0,.07.07.18.06s-.07.06-.13.08.1,0,0,.07-.07,0-.07,0-.11.07,0,.08c-.13,0-.15.07-.11.07l.08,0s0,0,0,.05l-.17,0c.21,0,.31.05.15,0,0,0,0,0,.05,0h0l-.09-.06,0,0s.06.1,0,.07.12.19.1.26-.12-.22-.12-.27,0,0,0,0l-.05-.11,0,.06a.35.35,0,0,1-.07-.14.24.24,0,0,0,0,.12c0-.07,0,0-.07,0s0,.1,0,.1,0,.11-.05.14,0-.22,0-.14a.49.49,0,0,1,0-.21c0,.12,0-.08,0-.1v0l0,.12a.26.26,0,0,1,0-.07c0,.07,0,.19-.08.29s0,0,0,0a.37.37,0,0,1,0-.08h0s.05-.16.07-.18,0,0,0,0h0s0,0,0,0-.08.16-.13.14,0-.16,0-.15-.05.14-.1.19-.05,0-.07,0v0c-.05.08-.06.06-.1.07s.05,0,.05-.06c-.1.12,0-.18-.07-.1,0-.07.08-.15.09-.19s0-.13-.06-.07a.34.34,0,0,1-.13.16l.11,0-.13.12s.08,0,.08,0-.05,0-.09.14c.06-.17-.12.05-.09-.08L19.9,31c0-.13-.14.09-.13,0l0,0c-.09.08,0,0-.08,0l.15-.13c-.06,0,0,0-.19.08l.11-.08s-.3.09-.3,0a2.46,2.46,0,0,1,.27-.08s0,0-.06,0-.16,0-.07,0-.16,0-.17,0h.06a1,1,0,0,0-.21,0c.34-.08-.11-.14.22-.17a.36.36,0,0,1-.13-.1h.06c.11,0-.4-.11-.27-.14s.12.07.2.07c.46.14-.07-.07.2,0l0,0c.15.05-.18-.12-.1-.11l.06,0a.62.62,0,0,1-.12-.08c-.08-.06-.09-.1-.09-.13a1.1,1.1,0,0,0,.21.14s-.24-.14-.24-.18a3.53,3.53,0,0,1,.33.19h0c.2.13,0,0,.07,0l.07.06s-.16-.17-.09-.17l-.06,0c-.11-.16.11.08,0,0l.14.16s-.05-.15,0-.18a1.54,1.54,0,0,0,.09.24s0,0,0-.09,0,.05,0,0-.06-.18,0-.17c.13.29.14.08.21.31,0-.09.07.06.09.06.06-.2,0,0,.1-.19,0,0,0,0,0,0l0,.13c0,.05,0,0-.07.07s-.05.07-.08.11l.06-.05.06-.08c.12-.05-.12.13,0,.07l-.06,0s0,0,.2,0l-.11,0s.26.05.12.08l-.07,0s.13,0,.06,0h-.07s.12.05.08,0l-.08,0c-.09,0,.18.12.19.2a1.77,1.77,0,0,1-.22-.15h0s0-.06,0,0a.28.28,0,0,1,0,.17.67.67,0,0,0-.07-.14s0-.08,0,0,0,0,0,0l0,.09s0,0,0,0,0,0,0,0h0a.42.42,0,0,1-.07.13h0l0,0h0l.1-.09h0l.07,0c.05,0-.06,0,.13-.05-.07,0-.07,0-.14,0h.14s.06-.06,0-.13l.1,0s-.41-.08-.41-.13h.21c0-.08.19,0,0-.11l.09,0-.12-.07h0l.07.06h0l-.07-.11.1.1c-.12-.13-.15-.17-.15-.23s.08.09.05.06-.06-.11,0-.06l0,.07s0,0,0-.12.07,0,.12.13c0-.06,0-.14,0-.1a.12.12,0,0,1,0,.07c.06.08,0-.09.08,0v.06l0-.05c0,.1,0,.12.06.25,0-.08,0-.2,0-.14v0h0v0c0,.06,0,0,0,.05s0,0,0-.1h0v0s0,0,0,0V30.5a1,1,0,0,1,0,.21s0,0,0,.06,0,0,0,0v0a.93.93,0,0,0,0,.1s0-.05,0,0h0s0,0,0,.12,0,.2,0,.13v0a.74.74,0,0,1-.08.15c-.05.07-.14.09-.13-.07s-.06.05-.13.13l.08-.15a.8.8,0,0,1-.13.13c-.06,0,0-.08,0-.16s.07-.12,0-.06l-.07.07s-.1,0,0-.1-.09.06-.05,0l.07-.05-.15,0c0-.08.28-.13.27-.21a1.45,1.45,0,0,0-.29,0s0,.05-.11.08H19.7a1.19,1.19,0,0,0-.57.29h.16l-.09.07,0-.06c-.08.08,0,.06.08.06a.49.49,0,0,0-.1.08l.24,0c-.07.06-.18.05-.19.14s.16-.14.25-.12c-.07.09-.15.13-.05.13a.15.15,0,0,1-.11.05c.08,0,.09.09.2,0-.07.13.11.1,0,.26l.08,0a.27.27,0,0,1,.12,0c-.22.16.1.12-.07.34.17-.16.24,0,.39-.06,0,0,0,0,0,0s0,.11.06.16c.07-.19.16-.22.23-.35,0,.19-.09.24-.11.42,0-.16.14-.17.14-.3a.43.43,0,0,1,0,.22c0-.27,0-.05.09-.23,0,.12,0,.26,0,.15A.42.42,0,0,1,20.39,32.4Zm0-2.56Zm-.11-.05s0,0,0,0,0,.11,0,.1A.55.55,0,0,0,20.26,29.79Zm.2.89a0,0,0,0,1,0,0h0Z"/><polygon class="cls-3" points="20.46 30.6 20.47 30.6 20.46 30.58 20.46 30.6 20.46 30.6"/><polygon class="cls-3" points="20.49 30.76 20.48 30.76 20.5 30.75 20.49 30.76"/><polygon class="cls-3" points="19.04 31.21 19.07 31.21 19.04 31.2 19.04 31.21"/><path class="cls-3" d="M20.41,30a0,0,0,0,0,0,0S20.41,30,20.41,30Z"/><path class="cls-3" d="M20.18,29.84v-.07A.35.35,0,0,0,20.18,29.84Z"/><path class="cls-3" d="M20,29.68l0,.05h0Z"/><path class="cls-3" d="M19.67,32.1h0Z"/><path class="cls-3" d="M20.88,31.81v.08S20.92,31.88,20.88,31.81Z"/><polygon class="cls-3" points="18.42 31.14 18.42 31.14 18.42 31.13 18.42 31.14"/><path class="cls-3" d="M20.82,31.92a0,0,0,0,0,.06,0S20.83,31.89,20.82,31.92Z"/><polygon class="cls-3" points="19.2 30.52 19.2 30.53 19.22 30.52 19.2 30.52"/><path class="cls-3" d="M19.22,30.52h0S19.24,30.52,19.22,30.52Z"/><path class="cls-3" d="M19.29,30.54h-.05S19.25,30.55,19.29,30.54Z"/><path class="cls-3" d="M19.14,30.14h0Z"/><path class="cls-3" d="M19.11,30s-.1.08-.06.11h0C19,30.14,19.2,30.05,19.11,30Z"/><path class="cls-3" d="M19.62,30.19l0-.06c0,.06,0,.13,0,.13C19.55,30.44,19.56,30.14,19.62,30.19Z"/><path class="cls-3" d="M19.76,30.33s0,.07-.05.09S19.76,30.38,19.76,30.33Z"/><path class="cls-3" d="M20.56,31.14l-.12,0S20.48,31.17,20.56,31.14Z"/><polygon class="cls-3" points="21.27 31.27 21.34 31.21 21.22 31.21 21.27 31.27"/><polygon class="cls-3" points="20.65 31.36 20.65 31.36 20.63 31.36 20.65 31.36"/><path class="cls-3" d="M19.67,30.74h-.2C19.52,30.75,19.74,30.75,19.67,30.74Z"/><path class="cls-3" d="M19.69,30.41c.07.06.12.1.07,0S19.68,30.39,19.69,30.41Z"/><polygon class="cls-3" points="20.09 31.09 20.09 31.09 19.99 31.18 19.99 31.18 20.09 31.09 20.09 31.09"/><path class="cls-3" d="M27.74,22.24s.11-.09.08-.09l-.14.09Z"/><path class="cls-3" d="M27.88,21.93a.84.84,0,0,0-.34.16,1.37,1.37,0,0,0,.28-.1s0,.07-.07.1,0,.06.08,0,.07-.13,0-.1A.24.24,0,0,1,27.88,21.93Z"/><path class="cls-3" d="M28.74,22.29v0Z"/><path class="cls-3" d="M28.82,22.89a.1.1,0,0,1,0,0A0,0,0,0,0,28.82,22.89Z"/><path class="cls-3" d="M28.69,22.73v0Z"/><path class="cls-3" d="M28.74,22.29l0,.05C28.76,22.32,28.74,22.31,28.74,22.29Z"/><path class="cls-3" d="M27.38,21.78h0Z"/><path class="cls-3" d="M28.34,22.07h0l0,.05Z"/><path class="cls-3" d="M28,21.92l.1-.17a.37.37,0,0,1-.06.08Z"/><path class="cls-3" d="M27.91,21.55h0Z"/><path class="cls-3" d="M28.49,22.25l0,0Z"/><path class="cls-3" d="M27.69,23.39h0Z"/><polygon class="cls-3" points="27.96 22.48 27.96 22.48 28.04 22.45 27.96 22.48"/><path class="cls-3" d="M28.58,22.55Z"/><path class="cls-3" d="M28.38,22.13c0-.09.08-.08.1-.18A.61.61,0,0,0,28.38,22.13Z"/><path class="cls-3" d="M27.39,21.76v0Z"/><polygon class="cls-3" points="28.48 21.95 28.48 21.95 28.48 21.94 28.48 21.95"/><path class="cls-3" d="M28.12,22.39l0,0Z"/><path class="cls-3" d="M28.32,22.75v0Z"/><path class="cls-3" d="M27.85,22.37s0,0,0,0h0S27.87,22.36,27.85,22.37Z"/><polygon class="cls-3" points="27.77 22.22 27.73 22.22 27.74 22.22 27.77 22.22"/><path class="cls-3" d="M29,23.46a1,1,0,0,1-.06-.16C29,23.43,28.9,23.53,29,23.46Z"/><path class="cls-3" d="M27.46,21.76h-.07l0,0Z"/><path class="cls-3" d="M26.68,22.64a.29.29,0,0,1,0-.09S26.67,22.61,26.68,22.64Z"/><path class="cls-3" d="M27.42,22.93l0,0A0,0,0,0,0,27.42,22.93Z"/><path class="cls-3" d="M26.54,22.29a.15.15,0,0,0,.09-.05h-.05Z"/><path class="cls-3" d="M28.91,23.29h0Z"/><path class="cls-3" d="M28.65,23.91c.05,0,0-.22,0-.35s0,.15,0,.26c0-.07,0-.3.06-.31s0,0,0,.1c0-.21.1-.07.09-.38l0,.06c0-.12-.05-.25-.07-.35s0-.21,0-.05a.37.37,0,0,0,0,.14v-.1c.07.23,0,.12,0,.31,0-.13,0-.39,0-.39.11.22-.06.21.07.34H29c.16.32-.05,0,.11.37.07,0,.1-.08.13-.17a1.7,1.7,0,0,1,.14-.3c0-.16-.12-.12-.17-.27s.09-.31.18-.44a.38.38,0,0,0,0-.53c-.14-.09-.31.11-.32-.16a1.14,1.14,0,0,1,.16-.15c-.16-.24-.23.21-.28-.06,0-.09.1,0,.1,0,0-.26-.1.09-.13,0l0-.23c-.12,0-.19.07-.28.05a.4.4,0,0,0,0-.18c-.12.05-.32-.09-.56-.11v.16s-.06-.05-.06-.08,0,.08,0,.14-.09,0-.09-.1c-.06.17-.1.38-.29.38,0,0,0,0,0,0s.18.26,0,.27l0,0c-.16.18-.05.43-.28.5.21,0-.1.15.19.17-.15.09-.2.05-.29.22s.19.05.23.1l-.16,0,.18,0-.17.1.06.05a.11.11,0,0,1,.09-.08c.09.05,0,.26-.06.31a1.15,1.15,0,0,0,.29.16s-.11,0-.16,0c.24,0-.09.15.14.15,0,0,.07-.06.09-.09a.24.24,0,0,0,.27.19l0,.1a1,1,0,0,0,.59,0c-.08,0-.08-.22,0-.25l.05.16c0-.1-.06,0,0-.18s.08.17.05.23l.06-.07a.52.52,0,0,1,0,.14c0-.11.19.11.19-.07l0,0a1.11,1.11,0,0,0,.37-.29c-.09-.11,0-.13-.07-.24s.26-.07.31-.19-.1-.08-.16-.15c.12,0,.15-.07.21,0a.49.49,0,0,0-.07-.39.25.25,0,0,1-.12,0s.05-.06.12-.05h0c-.1-.11,0-.2,0-.33s.06-.28-.13-.3h0a.9.9,0,0,0-.23-.08c0-.07.11,0,.14-.11-.31,0-.25-.26-.49-.24,0-.2-.11-.26-.25-.28a.47.47,0,0,1-.38-.14l0,.09c0,.09-.07-.06-.11-.08s.06.09,0,.13c-.35.06-.84-.13-1.3-.07-.16,0,.37.39,0,.26l-.13-.14c0,.12-.16.15-.31.19a.42.42,0,0,0,.1.33c-.05,0-.1-.05-.1-.07s0,.19.12.21-.09,0-.14,0,.19.16.06.16a.09.09,0,0,1,0,0c.06,0,0,.15.15.14-.05.08.1.16,0,.22.18,0,0,.15.2.15-.24,0-.13.17,0,.19-.08,0-.05.07-.15.07a.15.15,0,0,0,.21.06c-.19.21.34.1.07.32.24.1.44.16.6.22-.14.18-.16-.1-.31.07.21.07.38-.06.45.05s-.07.08-.1.1c.16,0,.22.15.37.09,0,0,0,0,0,0s0,.06.07,0l0,0c0-.15.2-.25.23-.32-.14.25.07.1-.12.43a.31.31,0,0,0,.08-.12s0,.07,0,.13l.07,0s.06-.09.12-.07,0,.06-.07.12.14-.17.2-.11,0,.06,0,.06c.14,0,.22-.24.34-.15s0,.06.08.25l.07-.07,0-.08c.06,0,.08-.16.15-.12l0,.09.11-.08-.09,0c0-.11-.09-.21,0-.19s0,0,.13.05h0c0-.07,0-.13,0-.12a1.41,1.41,0,0,1,.17.18c-.08-.14.1-.19,0-.31a.41.41,0,0,0,.14.08l-.1-.09a.15.15,0,0,1,.14,0c.06-.12-.23,0-.1-.14s0,0,0,0c.08-.14-.08-.24,0-.31s.06.06.21,0c-.07-.12-.28-.18-.28-.3v0c-.25.09.09-.12,0-.13,0,0,.14,0,.11,0s-.13-.12-.26-.17l.06,0c0-.07,0-.12,0-.18s-.07,0-.14.08c.2-.38-.33-.05-.2-.37,0,0,.06,0,.05,0l-.12,0c-.07.1,0,.07-.07.15s-.11.07-.13.06.11-.15.13-.22l-.06.09c.07-.2-.14.19-.12,0l0-.05s-.1.07-.11,0,.05,0,.11-.13-.2.18-.16,0,.05,0,.09,0,0-.13,0-.16h0l0-.1v.05c-.2.29-.13,0-.28.19.14-.17.06-.11.12-.25a.33.33,0,0,1,0-.14c-.07.1,0-.11-.13,0,0-.05,0,0,0-.13s0,.08,0,.14-.1-.24-.26,0h0l-.38.29c.1.1.25.1.34.16a.26.26,0,0,1-.18,0c-.06.06,0,.1,0,.12l-.12.05s.17,0,.12,0a.68.68,0,0,1-.2,0,.94.94,0,0,0,.22.07.27.27,0,0,1-.19,0,.22.22,0,0,0,.26.05l0-.05s-.09.06-.12.06,0-.08.06-.1l0,0c.24-.15-.09-.09-.09-.16l.2,0h-.18a.51.51,0,0,1,.2,0c.09-.05-.08,0,0-.06h0l-.06,0s.14,0,.11,0-.16-.07,0-.1h0l0,0-.22.17c.05,0,0-.14.11-.27l0,.37,0-.14s0,0,0,.08c.06-.1,0-.07.06-.16,0,.15.13,0,.06.21.05-.1,0-.1.06-.16-.08.25.07,0,.06.11s-.07,0-.08.16c.11-.2.05.08.09,0s.09,0,.17-.07,0,.14,0,.22l0,0c.11-.15.14-.09.19-.1a.7.7,0,0,1-.14.15l0,0c0-.05.07-.07.1-.07l-.09.1s.16-.07.14,0c.1-.09.21-.3.32-.31a.87.87,0,0,1-.16.14s.06,0,0,0l-.1.06c0,.06.08-.06.09,0s0,.07-.1.12,0,0,0,0a.27.27,0,0,1-.07.15s.1-.1.12-.09-.08.09-.11.14,0,0,.14-.07-.05.06-.08.08.08.07.19,0h0c.17,0,0,.17.1.2l0,0c.07,0,.06.08.18.07a.3.3,0,0,1-.13.07s.1,0,0,.08-.07,0-.07,0-.1.07,0,.08c-.13,0-.15.06-.11.07l.08,0s0,0,0,.05l-.17,0c.21,0,.31.05.16,0l0,0,0,0c-.08,0-.09-.06-.09-.06s0,0,0,0,.06.1,0,.07a.59.59,0,0,1,.1.26c-.05,0-.12-.23-.13-.27l0,0a.24.24,0,0,0,0-.11l0,.06a.45.45,0,0,1-.07-.14.23.23,0,0,0,.05.12c-.05-.08,0,0-.08,0a.84.84,0,0,1,0,.1c-.06-.07,0,.11-.06.14s0-.22,0-.14a.7.7,0,0,1,0-.21c0,.11,0-.08,0-.1l0,0,0,0,0,.12a.26.26,0,0,1,0-.07,2.65,2.65,0,0,1-.08.29s0,0,0,0a.17.17,0,0,1,0-.08h0s0-.16.07-.18,0,0,0,0h0s0,0,0,0-.08.16-.13.13.05-.16,0-.14,0,.14-.09.19-.06,0-.08,0v0c0,.07-.06.05-.1.07s.05,0,.05-.07c-.1.13,0-.17-.07-.1s.08-.14.09-.18,0-.13-.06-.07a.31.31,0,0,1-.12.16l.1,0-.13.12s.08,0,.08,0-.05.05-.09.14c.07-.17-.12.05-.09-.08l.17-.24c0-.13-.14.09-.13,0l0,0c-.09.08,0,0-.09,0l.16-.13c-.07,0,0,0-.19.09l.1-.08c0-.05-.3.09-.3,0s.19-.06.28-.07,0,0-.07,0c.07,0-.16,0-.06,0-.05,0-.17,0-.17,0h0a1,1,0,0,0-.21,0c.34-.08-.1-.14.22-.17a.49.49,0,0,1-.13-.1h.06c.12,0-.4-.11-.27-.14s.13.06.21.07c.45.13-.08-.07.19,0l0,0c.15,0-.19-.12-.11-.11l.07,0-.13-.08a.2.2,0,0,1-.09-.13,1.4,1.4,0,0,0,.22.14s-.25-.14-.24-.18a2.6,2.6,0,0,1,.32.19h0c.2.13,0,0,.07,0L28,22s-.17-.18-.1-.17l-.05-.05c-.11-.15.11.09,0,0l.15.16s-.06-.16,0-.18.05.17.09.24,0,0,0-.09,0,.05,0,0-.05-.18,0-.17c.12.29.14.08.2.31,0-.1.07.06.09.05.06-.19,0,0,.1-.19,0,0,0,0,0,0a.31.31,0,0,1,0,.13c0,.05,0,0-.06.07s-.05.07-.09.11.08-.08.06-.05a.21.21,0,0,0,.06-.08c.12-.05-.12.13,0,.07l-.06,0s0,0,.2,0l-.11,0s.26.05.13.08l-.07,0s.13,0,.06,0l-.08,0s.13.05.08.05l-.07,0c-.09,0,.17.12.19.2-.22-.13-.17-.11-.22-.16h0s0-.05,0,0a.36.36,0,0,1,0,.17.67.67,0,0,0-.07-.14s0-.08,0,0h0l0,.09s0,0,0,0h0a.51.51,0,0,1-.08.13h0v0h0l.1-.09h0s0,0,.06,0-.06,0,.13,0a.68.68,0,0,1-.14,0h.15s.05-.05,0-.12l.1,0s-.4-.08-.41-.13h.21c0-.08.19,0,0-.11l.1,0-.13-.07h0l.08.06h0L28.45,22l.1.1c-.11-.14-.14-.17-.14-.23s.07.08,0,.06-.06-.11,0-.06l0,.07s0,0,0-.12.08,0,.12.13c0-.06,0-.14,0-.11s0,.06,0,.07,0-.09.07,0V22l0,0a1.31,1.31,0,0,1,.06.25c0-.08,0-.2,0-.15v0h0v.08a.34.34,0,0,0,0-.1h0v0s0,0,0,0V22a1,1,0,0,1,0,.21s0,0,.05.06l0,0v0s0,.06,0,.1,0-.05,0,0v0s0,0,0,.13,0,.2,0,.13,0,0,0,0,0,.08-.09.15-.14.09-.13-.07-.06.05-.12.12l.07-.14-.12.13c-.06,0,0-.08,0-.16s.06-.12,0-.07l-.07.08s-.09,0,0-.1-.1.05-.06,0l.07-.05-.15,0c0-.08.29-.14.27-.21a1,1,0,0,0-.29,0s0,.05-.1.08H28c-.22.08-.46.13-.57.29h.16l-.09.07,0-.06c-.08.08,0,.06.08.05s-.08.06-.09.09l.23,0c-.07.06-.17.05-.19.14s.16-.14.25-.12c-.07.09-.14.13,0,.12-.05,0-.09.06-.12.05s.1.09.2,0c-.07.13.12.1,0,.26a.19.19,0,0,1,.09,0,.23.23,0,0,1,.11,0c-.22.16.1.12-.07.34.17-.17.24,0,.39-.07,0,0,0,0,0,0s0,.11.07.16c.06-.19.16-.22.22-.35,0,.19-.08.24-.11.42,0-.16.15-.17.15-.3a.62.62,0,0,1,0,.22c0-.27.05-.05.09-.23,0,.12,0,.26.05.15A.4.4,0,0,1,28.65,23.91Zm0-2.56h0Zm-.11-.05.05,0c0,.05,0,.11,0,.1A.36.36,0,0,0,28.52,21.3Zm.2.89v0h0Z"/><polygon class="cls-3" points="28.73 22.11 28.73 22.11 28.73 22.09 28.73 22.1 28.73 22.11"/><polygon class="cls-3" points="28.75 22.27 28.75 22.27 28.76 22.26 28.75 22.27"/><polygon class="cls-3" points="27.3 22.72 27.33 22.72 27.3 22.7 27.3 22.72"/><path class="cls-3" d="M28.67,21.52l0,0Z"/><path class="cls-3" d="M28.45,21.35v-.07A.15.15,0,0,0,28.45,21.35Z"/><path class="cls-3" d="M28.28,21.19l0,0h0Z"/><path class="cls-3" d="M27.94,23.6h0S27.91,23.62,27.94,23.6Z"/><path class="cls-3" d="M29.14,23.32a.11.11,0,0,1,0,.08S29.19,23.39,29.14,23.32Z"/><polygon class="cls-3" points="26.68 22.65 26.69 22.65 26.68 22.64 26.68 22.65"/><path class="cls-3" d="M29.08,23.43s.05,0,.06,0S29.09,23.4,29.08,23.43Z"/><polygon class="cls-3" points="27.46 22.02 27.46 22.04 27.48 22.03 27.46 22.02"/><path class="cls-3" d="M27.48,22h0Z"/><path class="cls-3" d="M27.55,22.05h0S27.51,22.06,27.55,22.05Z"/><path class="cls-3" d="M27.41,21.65h0Z"/><path class="cls-3" d="M27.38,21.55s-.1.08-.07.11h0C27.28,21.65,27.46,21.56,27.38,21.55Z"/><path class="cls-3" d="M27.89,21.7l0-.06c0,.06,0,.13-.05.13C27.82,22,27.82,21.65,27.89,21.7Z"/><path class="cls-3" d="M28,21.83s0,.08,0,.1S28,21.89,28,21.83Z"/><path class="cls-3" d="M28.82,22.65l-.12,0S28.75,22.67,28.82,22.65Z"/><polygon class="cls-3" points="29.53 22.77 29.6 22.72 29.48 22.72 29.53 22.77"/><polygon class="cls-3" points="28.91 22.87 28.91 22.87 28.9 22.86 28.91 22.87"/><path class="cls-3" d="M27.94,22.25h-.2S28,22.26,27.94,22.25Z"/><path class="cls-3" d="M28,21.92c.07.06.12.1.07,0S27.94,21.9,28,21.92Z"/><polygon class="cls-3" points="28.35 22.6 28.35 22.6 28.25 22.69 28.26 22.69 28.35 22.6 28.35 22.6"/><path class="cls-3" d="M25.11,27.75s.11.09.11.06l-.12-.11Z"/><path class="cls-3" d="M25.43,27.84a1,1,0,0,0-.25-.28c.1.13.05.09.17.24s-.06,0-.1-.06-.05,0,0,.08.14,0,.08-.05Z"/><path class="cls-3" d="M27.07,27.45v0A0,0,0,0,0,27.07,27.45Z"/><path class="cls-3" d="M28.07,27.69s0,0,0,0Z"/><path class="cls-3" d="M28.16,27.91h0S28.15,27.92,28.16,27.91Z"/><path class="cls-3" d="M27.07,27.45l0,.05C27.1,27.45,27.08,27.46,27.07,27.45Z"/><path class="cls-3" d="M25.35,27.36a.17.17,0,0,0,0,.05v0Z"/><path class="cls-3" d="M26.64,27.62h0v0Z"/><path class="cls-3" d="M26.35,27.72s0-.13-.05-.19a.58.58,0,0,1,0,.1Z"/><path class="cls-3" d="M25.78,27.75v0Z"/><path class="cls-3" d="M26.88,27.62v0Z"/><path class="cls-3" d="M24.55,28.06h0Z"/><polygon class="cls-3" points="25.4 27.98 25.4 27.98 25.46 28.03 25.4 27.98"/><path class="cls-3" d="M28.27,28.17h0S28.27,28.18,28.27,28.17Z"/><path class="cls-3" d="M27.63,29.86c.11.07.07.16.2.22C27.79,30.05,27.71,29.89,27.63,29.86Z"/><path class="cls-3" d="M25.37,27.37l0,0A0,0,0,0,0,25.37,27.37Z"/><polygon class="cls-3" points="27.83 30.08 27.83 30.08 27.85 30.09 27.83 30.08"/><path class="cls-3" d="M28.51,28.35h0Z"/><path class="cls-3" d="M28.54,28v0A0,0,0,0,0,28.54,28Z"/><path class="cls-3" d="M28.71,28.5s0,0,0,0h0S28.69,28.51,28.71,28.5Z"/><polygon class="cls-3" points="28.66 28.73 28.69 28.73 28.68 28.73 28.66 28.73"/><path class="cls-3" d="M24.4,29.32l.13,0C24.43,29.31,24.39,29.25,24.4,29.32Z"/><path class="cls-3" d="M25.4,27.42l0-.05h0Z"/><path class="cls-3" d="M29.81,28.64l0,.08A.11.11,0,0,0,29.81,28.64Z"/><path class="cls-3" d="M26,31.71h0S26,31.73,26,31.71Z"/><path class="cls-3" d="M29.75,28.94a.22.22,0,0,0-.1,0l0,0Z"/><path class="cls-3" d="M24.53,29.3Z"/><path class="cls-3" d="M24.2,28.86c0,.07.18.05.29.07s-.14,0-.24,0c.05.06.22.1.21.13h-.08c.15,0,0,.14.2.19h0l.25,0s.12,0,0,.06,0,0-.08,0l.05,0c-.17,0-.06,0-.19,0,.06.05.21.09.17.14s-.07-.09-.22,0l.06-.07c-.26.07,0,0-.26,0,0,.09.09.09.05.18s.14,0,.24,0-.41.16-.17.21.33,0,.23,0l-.19,0c0,.09.28,0,.17.09s-.07,0-.09,0,.11,0,.12.05l-.16.06a1.51,1.51,0,0,0,.26.2.27.27,0,0,0-.15.05c.12.07.07.23,0,.39l.15,0s-.05.05-.08.05.09,0,.15,0-.06.07-.11.07c.15,0,.34.07.26.23H25c0,.09.3-.11.22,0h0c.05.16.25.18.21.43.14-.15.09.19.26-.05,0,.17-.05.21.06.36s.13-.14.18-.15l-.05.14.12-.13,0,.19.06,0s0-.08,0-.12.16.14.15.22a.88.88,0,0,0,.19-.12.2.2,0,0,1-.06.12c.09-.15,0,.17.1,0a.49.49,0,0,1,0-.12.11.11,0,0,0,.19,0v.11c.12,0,.23-.09.35-.12,0,0-.09-.22-.06-.24l.05.15c0-.1-.05-.05,0-.18s.08.17.07.23l0-.07a1.3,1.3,0,0,1,0,.13c0-.1.14.12.12-.05v0c.12,0,.15-.12.23-.16s0-.12,0-.23.2.08.26,0-.05-.11-.07-.19c.07.11.13.06.14.16a.34.34,0,0,0,.12-.24.23.23,0,0,1-.08-.09s.07,0,.1.07v0c0-.22.46.12.37-.16V30.8c.05,0,.05.1.12.13-.06-.23.16-.09.12-.26.32.22.16-.2.4-.1l-.07-.06c0-.07.06,0,.09,0s-.08,0-.11-.08c.06-.23.38-.24.58-.37s-.35-.31-.12-.27l.12.12c-.07-.24.2-.29.14-.52,0,0,.07.05.06.06s.07-.12,0-.16.08,0,.13,0-.1-.15,0-.12,0,0,0,0,.06-.1-.08-.13c.09,0,0-.15.08-.17-.14-.08.1-.11-.11-.17.22.06.21-.09.11-.15.06,0,.07,0,.16,0s0-.12-.15-.11c.28-.11-.22-.2.12-.29a5.15,5.15,0,0,0-.38-.4c.21-.09.09.14.3.06-.14-.13-.35-.11-.38-.25s.09,0,.13-.05c-.15-.07-.16-.25-.34-.24,0,0,0,0,.06,0s0-.06-.09,0h0c-.08.13-.27.18-.32.24.21-.21,0-.11.23-.38a.35.35,0,0,0-.1.09s0-.06.07-.11c-.1,0-.13.1-.19.07a.43.43,0,0,1,.09-.1c-.09.06-.16.13-.19.06s0-.06,0-.05-.25.16-.3,0c.1-.19,0-.08.05-.26l-.07,0v.09s-.13.09-.14,0l0-.06h-.09l0,.08c-.07.08-.06.23-.1.16s0,0,0-.12h0c0,.05-.08.1-.09.05A1.4,1.4,0,0,1,28.1,27c-.06.15-.12,0-.18.18A.62.62,0,0,0,28,27l0,.13a.33.33,0,0,1,0-.14c-.05,0,0,.23-.07.12a.17.17,0,0,1,0-.05c-.06-.06-.15.06-.2,0s.06,0,.06-.2c-.11,0-.22.2-.31.15l0,0c0,.26-.06-.14-.12,0s0-.14,0-.11-.14.05-.23.14v-.07c0-.06-.1,0-.14-.07s0,.06,0,.16c-.15-.38-.22.22-.36-.08,0,0,0-.07,0-.07l-.09.08a.77.77,0,0,0,.06.15c0,.07,0,.13,0,.13s0-.18-.06-.24l0,.11c-.09-.19,0,.23-.05.11v-.06s0,.11-.05.11,0-.07,0-.18,0,.27-.07.15,0,0,0-.09-.07-.1-.11-.12h0l-.09,0,0,0c.06.35-.08.1-.06.33,0-.22,0-.12-.08-.26S26,27,25.94,27c0,.13-.09-.06-.06.12,0,0,0,0-.08-.1,0,.05.05.07.07.13s-.24-.11-.21.14.06.27.06.37a.27.27,0,0,1-.09-.15c-.08,0-.09,0-.09.06a.41.41,0,0,0-.09-.1s.1.15,0,.13a1.51,1.51,0,0,1-.1-.17,1.55,1.55,0,0,0,0,.21.32.32,0,0,1-.1-.16.21.21,0,0,0,.06.23l.05,0s-.09-.08-.1-.1.07,0,.11,0v0c.22.19,0-.1.09-.13l.12.18-.07-.17s.12.12.12.16,0-.08.07,0,0,0,0,0v-.07s.09.12.06.1,0-.18.08-.06v0c0-.1-.08-.14-.12-.32l.22.3L26,27.59s0,0,.06.06c0-.11,0-.06-.07-.16.1.11.07-.1.18.11,0-.11-.07-.06-.06-.15.12.23,0-.07.1,0s0,.08.07.18c-.07-.22.07,0,.08,0s0-.09.06-.16.12.07.17.13v0c0-.18,0-.16.05-.21a.82.82,0,0,1,0,.21h0a.17.17,0,0,1,0-.11l0,.13s.06-.17.12-.08c0-.13-.09-.35,0-.44a.79.79,0,0,1,0,.21s0-.06,0,0l0,.12s0-.1,0-.09a1,1,0,0,1,0,.15s0,0,0,0a.29.29,0,0,1,.07.14.32.32,0,0,1,0-.14c.05,0,0,.11.05.16s0,0,0-.14,0,.07,0,.11.1,0,.08-.18h0c.07-.14.15.09.22,0v0s.09,0,.14-.13a.29.29,0,0,1,0,.15s0-.09.08,0,0,.08,0,.06,0,.13.1,0c0,.12,0,.16,0,.13l0-.1a.06.06,0,0,1,.06,0l0,.17c0,.21.21-.32.2,0,.05-.11,0-.09,0-.22,0,0,0,.27,0,.28s.11-.23.14-.15,0-.22.11-.26,0,.25-.07.29,0,0,0,0,0,0,0,.1l0-.06c0,.07,0,.08,0,.16a.15.15,0,0,0,0-.12c0,.1.06,0,.08.1l0-.1c0,.09.08-.1.13-.1s-.1.19,0,.14a.49.49,0,0,1-.1.19c.09-.09,0,.09,0,.12l0,0s0,0,0,0l.05-.11a.11.11,0,0,1,0,.07,2.23,2.23,0,0,1,.17-.25c0,.06.07,0,0,.11,0-.07-.09.13-.13.13s0,0,0,0l0,0c-.05.13.12-.14.15-.11s-.1.14-.08.13a.45.45,0,0,1,.14-.17c0,.07.05,0,.06,0v0c.06-.06.07,0,.1,0s0,0-.06,0-.09.15,0,.1-.13.11-.15.14-.09.08,0,0l.19-.1h-.1l.16-.07s-.08,0-.07,0a.48.48,0,0,0,.14-.09c-.13.12.12,0,0,.08l-.26.14c-.11.07.17,0,.11.05l0,0c.12,0,0,0,.08,0a1.08,1.08,0,0,0-.19.06c.07,0,0,0,.19,0l-.12,0c-.05,0,.28,0,.25.09s-.18,0-.26,0,0,0,.05,0,.13.05,0,.06.14,0,.13,0H28.8c.05,0,.06.05.17.05-.31,0,0,.16-.28.13a.25.25,0,0,1,0,.14l0,0c-.11,0,.25.14.13.16s-.07-.07-.13-.07c-.3-.14,0,.08-.18,0v0c-.11,0,.07.12,0,.15l-.05,0a.37.37,0,0,1,.15.27.45.45,0,0,0-.16-.12s.18.11.18.17a1.92,1.92,0,0,1-.25-.11l0,0c-.16-.08,0,.05-.06.05l-.07-.05c0,.06.15.18.09.23l.05,0c.13.15-.1,0,0,.08l-.17-.11a.58.58,0,0,1,.09.25,1.45,1.45,0,0,1-.16-.28s-.05.07,0,.14,0-.06,0-.05.14.21.1.25c-.28-.26-.16,0-.41-.14.05.16-.16.09-.21.17.23.19,0,0,.2.24,0,0,0,0,0,0L27.66,30c-.08-.05,0-.06-.08-.11s-.11-.08-.19-.12c.08.08.1.13.05.12l.12.07c.06.17-.21-.15-.16,0l0-.09c0,.07-.1.08,0,.29,0,0-.09-.08-.09-.11s0,.33-.14.24l0-.06s.05.13,0,.08,0-.07-.05-.07,0,.13,0,.11l0-.08c-.12-.05,0,.24,0,.31a.49.49,0,0,0-.23-.25v0c-.08,0-.05.22-.1.33-.11-.21-.18-.05-.25-.18a.64.64,0,0,1,0,.19s0,.16-.05,0h0c0-.19-.05-.14-.07-.15v.27c0-.19,0-.17-.07-.12s-.08.06,0-.1c0,.06,0,0-.08.11l.06-.13s0-.06,0-.05l.06-.07s-.26.3-.3.29l.14-.17s.07-.18-.11-.1l.08-.05s.07-.16-.17,0c.16-.1,0-.06-.11-.05l.13-.06c-.17.06-.22.08-.28.07s.09-.06.07,0-.13,0-.09,0l.09,0s-.05,0-.15,0,0-.08.11-.14c-.07,0-.17.05-.15,0l.09,0c.06-.1-.19,0-.07-.12l.07,0s0,.09,0,.09a1.22,1.22,0,0,1,.3-.13c-.1,0-.31,0-.27,0l0,0h0s0,0,0,0l0,0c.1,0,0-.05,0-.07a1.94,1.94,0,0,0-.22.07h0l0,0c-.07,0-.13,0-.06,0l-.23,0c.18-.09.27-.16.38-.2-.09,0-.08-.11-.34-.1,0,0,.07,0,.11-.05s0,0,.06,0,0-.09-.23-.08c.08-.05.18,0,.14-.05h.06c.28-.13-.49-.16-.11-.31l-.07,0c.17-.13-.13-.34.17-.42.06,0-.05-.06-.13-.11l.15,0-.16-.1c-.09-.11.38,0,.19-.12l-.09,0s0-.11.09-.05-.09-.06,0,0l.07,0-.08-.13c.08,0,.26.17.31.13a.8.8,0,0,0-.19-.23s-.06,0-.12,0l0-.05c-.18-.14-.35-.32-.53-.33l.07.14-.1-.05,0,0c-.1,0,0,0,0,.09a.24.24,0,0,0-.12,0l.16.17c-.09,0-.14-.12-.21-.11s.19.08.23.16c-.11,0-.18-.08-.12,0a.14.14,0,0,1-.1-.08c.05.07,0,.1.09.17-.14,0,0,.11-.22,0,0,0,.14.13.13.16-.22-.15-.06.1-.31,0,.21.12.05.18.16.29s-.06,0,0,0-.1,0-.15.05a1.24,1.24,0,0,1,.33.17c-.19,0-.22-.07-.4-.09.16,0,.14.12.27.12a.68.68,0,0,1-.22,0c.24,0,0,0,.18.09-.12,0-.23,0-.16.06A.18.18,0,0,1,24.2,28.86Zm.61,1.32h0l0,0Zm0,.1a.09.09,0,0,0,0-.05s.09,0,.09,0S24.88,30.25,24.85,30.28Zm.84-.53s0,0,0,0h0Z"/><polygon class="cls-3" points="25.51 29.79 25.5 29.79 25.48 29.81 25.52 29.8 25.51 29.79"/><path class="cls-3" d="M27.06,27.43h0v0Z"/><polygon class="cls-3" points="25.81 31.73 25.82 31.69 25.8 31.72 25.81 31.73"/><path class="cls-3" d="M26.48,27v0A0,0,0,0,0,26.48,27Z"/><path class="cls-3" d="M26.22,27l0,0Z"/><path class="cls-3" d="M26,27l0,.06h0Z"/><path class="cls-3" d="M29.17,27.32h0Z"/><path class="cls-3" d="M28.13,27.15a.15.15,0,0,1,0-.06S28.15,27.07,28.13,27.15Z"/><polygon class="cls-3" points="29.82 28.63 29.81 28.63 29.81 28.64 29.82 28.63"/><path class="cls-3" d="M28.21,27.1s0,0,0,0S28.19,27.12,28.21,27.1Z"/><polygon class="cls-3" points="25.2 27.48 25.19 27.49 25.2 27.5 25.2 27.48"/><path class="cls-3" d="M25.2,27.5v0Z"/><path class="cls-3" d="M25.22,27.57v-.05S25.19,27.53,25.22,27.57Z"/><path class="cls-3" d="M25.46,27.34l0,0Z"/><path class="cls-3" d="M25.52,27.28s-.11-.06-.11,0l0,0C25.4,27.23,25.55,27.36,25.52,27.28Z"/><path class="cls-3" d="M26.1,27.66H26s.07.1.06.13S26,27.67,26.1,27.66Z"/><path class="cls-3" d="M26.28,27.67s0,.08,0,.11A.18.18,0,0,0,26.28,27.67Z"/><path class="cls-3" d="M27.43,27.56v.13S27.42,27.64,27.43,27.56Z"/><polygon class="cls-3" points="27.77 26.94 27.76 26.86 27.73 26.97 27.77 26.94"/><polygon class="cls-3" points="27.75 27.86 27.74 27.88 27.79 27.84 27.75 27.86"/><path class="cls-3" d="M28.55,28.65l.16,0S28.51,28.62,28.55,28.65Z"/><path class="cls-3" d="M28.31,29.42c-.07,0-.13-.05-.08,0S28.32,29.44,28.31,29.42Z"/><path class="cls-3" d="M26.3,30.55V30.5l0,0Z"/><path class="cls-3" d="M26,37.82l.1-.06-.14.08Z"/><path class="cls-3" d="M26.26,37.66l-.33.17.25-.13s0,0-.1.06,0,0,.06,0,.12-.07,0,0Z"/><path class="cls-3" d="M26.36,37.3h0Z"/><path class="cls-3" d="M26.36,37.1h0Z"/><path class="cls-3" d="M26.5,37h0Z"/><path class="cls-3" d="M26.36,37.3l0,0S26.37,37.29,26.36,37.3Z"/><path class="cls-3" d="M25.89,37.81h0Z"/><path class="cls-3" d="M26.51,37.3h0l.06,0Z"/><path class="cls-3" d="M26.56,37.34l-.17.09.08,0Z"/><path class="cls-3" d="M26.39,37.53h0Z"/><path class="cls-3" d="M26.52,37.25l0,0Z"/><path class="cls-3" d="M24.83,36.32h0Z"/><path class="cls-3" d="M25.41,35.94h0l.06,0Z"/><path class="cls-3" d="M26.64,36.86Z"/><path class="cls-3" d="M26.32,36.48a2.34,2.34,0,0,0-.27.14Z"/><path class="cls-3" d="M25.91,37.8h0S25.9,37.81,25.91,37.8Z"/><path class="cls-3" d="M26.05,36.62Z"/><path class="cls-3" d="M26.51,36.79l-.06,0Z"/><path class="cls-3" d="M26.37,37l0,0Z"/><path class="cls-3" d="M26.31,36.84s0,0,0,0h0S26.33,36.83,26.31,36.84Z"/><path class="cls-3" d="M26.28,36.8h0Z"/><path class="cls-3" d="M25,36.42l.11-.06C25,36.41,24.94,36.42,25,36.42Z"/><path class="cls-3" d="M26,37.78l-.05,0h0Z"/><path class="cls-3" d="M25.33,37.36h0Z"/><path class="cls-3" d="M25.14,36.73h0S25.13,36.73,25.14,36.73Z"/><path class="cls-3" d="M25.31,37.34l.09-.05h0Z"/><path class="cls-3" d="M25.07,36.36Z"/><path class="cls-3" d="M24.75,36.47l.25-.13c.06,0-.11.07-.2.12l.2-.09-.07,0c.13-.06,0,0,.18-.07l0,0,.22-.12s.11-.05,0,0l-.07,0,0,0-.16.08s.18-.08.14-.05-.06,0-.19.09l.06,0-.24.13s.08,0,0,0l.21-.11c.16-.06-.37.21-.17.12s.3-.15.2-.09l-.17.09s.24-.13.14-.06l-.08,0,.1,0L25,36.5l.17,0-.13.07c.08,0,0,0-.09.1l.13-.06-.08,0,.14-.07L25,36.6c.12-.05.25-.1.12,0l0,0c-.05,0,.27-.13.15-.06h0c0,.05.08,0-.11.12.19-.1-.07.06.19-.08l-.25.16.19-.09-.14.07.15-.07-.16.09,0,0,.09,0c.07,0-.08.06-.15.1l.12-.05-.11.06c.14-.07-.14.08,0,0l.11,0c-.08,0-.08,0,0,0l-.1.05s.06,0,.07,0l.22-.12-.14.08.16-.08-.21.11.05,0-.12.06c.09-.05-.14.09,0,0l0,0s.05,0,.07,0l.2-.1-.12.09a.76.76,0,0,0,.18-.09c-.11.06-.09.07-.18.1s0,0,.13,0l.11-.06-.1.06h0c.17-.08-.32.21-.07.09h0l.13-.05-.15.08c.2-.09,0,0,.12,0-.33.19,0,0-.17.14l.08,0-.06,0,.11-.06c.11,0-.09.11-.14.18s.4-.22.22-.1l-.14.07c.18-.07,0,0,.17,0l-.08,0c-.1.06,0,0,.09,0l-.12.07c-.06,0,.14-.06,0,0l-.05,0c.05,0,0,0,.12-.05-.06,0,.06,0,0,0,.14-.07-.06,0,.13-.06-.2.11-.15.1-.06.05l-.14.08s0,0,.15-.06c-.24.13.2-.09-.1.08l.25-.08c-.2.11,0,0-.24.11.09,0,.26-.11.22-.08l-.12.07c.09,0,0,0,.11,0l-.06,0s0,0,.07,0h0l.35-.17c-.26.13-.06.05-.39.21l.12-.06-.12.07.15-.07-.11.06.14-.06-.06,0s.23-.11.16,0l-.23.12.06,0,.07,0s.13-.05.08,0l-.07,0h0l.06,0c.09,0,.21-.12.17-.08s0,0-.1.06h0l.08,0-.22.12.19-.09-.14.08.12-.06-.13.07s.21-.12.13-.06l-.05,0s.08,0,0,0l-.18.09s.21-.08.18-.05h0c.23-.12-.11.07,0,0s-.13.07-.11,0,.07,0,.15,0l-.06,0s0,0,0,0l.14-.07c-.33.2.2-.07-.08.1l-.05,0h.06l.14-.08c.06,0,.11-.06.11,0l-.22.12.1-.06c-.18.11.2-.1.09,0l-.06,0,.09,0-.15.08s.22-.11.11,0l-.07,0-.12.07h0l-.06,0,0,0a1.87,1.87,0,0,1,.27-.12l-.25.13-.11.07c.11-.06-.08,0,.08,0l-.11.06a.88.88,0,0,0,.13-.07c.15-.07-.17.12,0,0l.31-.14-.16.08c-.06,0-.05,0,0,0l-.11.06s.15-.08.09,0l-.17.09.16-.08a1.46,1.46,0,0,1-.16.09l.19-.09,0,0-.12.06.08,0h0c.25-.14,0,0,0,0l.19-.09-.16.07.18-.09c.09,0-.07,0,0,0l0,0-.06,0,.1-.05c.1-.07-.14.06,0,0h0l-.3.15.33-.18-.14.07.07,0-.15.08c.12-.08-.06,0,.15-.11a.56.56,0,0,1-.15.08c.23-.12,0,0,.06,0l.17-.09c-.21.11,0,0,0,0s-.07,0-.13,0a1.21,1.21,0,0,0,.14-.1h0a.8.8,0,0,1-.18.08l.18-.1h0l-.1.05.12-.07s-.15.07-.07,0c-.11.06-.31.18-.39.21l.19-.1s-.05,0,0,0l.11,0s-.09,0-.08,0l.13-.07s0,0,0,0a.49.49,0,0,1,.13-.08l-.13.06.14-.08-.13.06.1,0a.33.33,0,0,0-.16.07h0c-.13,0,.07-.07,0,0l.05,0a.47.47,0,0,0-.14,0l.13-.08s-.08,0,0,0l.06,0s.1-.06,0,0c.11,0,.13-.08.1-.06l-.08.05s0,0,0,0l.15-.08c.17-.11-.32.14,0,0a1.3,1.3,0,0,0-.19.11,2,2,0,0,1,.22-.14c.08-.05-.22.11-.17.07l-.24.12.26-.14,0,0,.1-.05,0,0,.12-.08-.11.07c.07,0,0,0,0,0l-.08,0c.05,0-.11,0-.13.05s.19-.1.12-.07a1.12,1.12,0,0,1,.18-.1c-.11,0,.06,0,.07-.06l.05,0h0l-.1,0,.06,0-.27.14c.05,0-.06,0,.08-.06-.05,0,.13-.07.16-.08h0l0,0c.12-.08-.16.08-.16.07l.13-.08a.78.78,0,0,1-.19.1s-.05,0-.05,0h0l-.1.05.07,0c-.14.07.14-.09,0,0l.18-.1c-.1,0,.1-.07,0,0l-.19.09.08,0L26.3,37s.07,0,.05,0L26.2,37c.16-.09-.1,0,0,0l.26-.14c.11-.07-.14.06-.08,0l-.05,0c-.1.05,0,0-.06,0l.17-.1c-.06,0,0,0-.17.08l.11-.07s-.25.13-.23.1l.23-.11s0,0-.05,0-.12.06,0,0l-.12.06,0,0-.16.08c.27-.15,0,0,.2-.15l-.07,0,0,0c.08-.05-.25.13-.17.07s.08,0,.13-.07c.29-.15,0,0,.12-.08h0c.09-.06-.11.05-.1,0l.05,0-.25.1.17-.09s-.18.1-.22.11l.24-.14h0c.15-.09,0,0,0,0l.07,0s-.2.09-.19.07l-.05,0c-.18.09.09,0,0,0l.17-.09-.21.08.28-.13-.1,0h0l-.21.09c.34-.18.08-.06.33-.21-.13.05,0,0,0-.06-.26.15,0,0-.28.15,0,0,0,0,0,0l.15-.1.13-.06s.11-.06.18-.11c-.1.06-.14.07-.11,0l-.12.07c-.15.07.22-.13.07-.06l.09,0c-.05,0,0,0-.23.08l.13-.06s-.25.09-.12,0l.06,0s-.12.06-.06,0l.07,0s-.12.06-.08,0l.08,0c.08-.06-.19.07-.25.09a1.72,1.72,0,0,0,.28-.17l0,0s-.17.06-.26.09c.21-.12.08-.08.19-.15l-.17.09s-.14.06,0,0h0c.17-.1.12-.08.13-.09l-.24.12c.33-.19-.14,0,.16-.13l-.12.05.12-.07s0,0,0,0l.09-.05-.38.18.19-.1s.15-.11,0,0l.09,0s.12-.09-.14,0c.17-.09,0,0-.06,0l.12-.06a1.1,1.1,0,0,1-.25.11l.07,0c.06,0-.12.06-.06,0l.08,0-.13.05.14-.08-.13.06.08,0c.08-.05-.15.07,0,0s.06,0,.08,0v0l.28-.16L26,36l0,0h0l0,0c.09,0,0,0,0,0l-.21.11h0c-.07,0-.12.06-.05,0l-.21.1c.18-.1.26-.16.37-.21a.85.85,0,0,0-.29.12l.1-.06.05,0a1.07,1.07,0,0,0-.19.09l.12-.07.05,0c.25-.16-.43.19-.11,0l-.06,0c.14-.11-.16,0,.06-.12.05,0-.06,0-.14.06l.13-.08-.15.08c-.12.05.31-.19.09-.09l-.08,0s-.06,0,0,0-.09,0-.05,0l.07,0-.12.06s.27-.15.28-.17l-.26.12-.11.07h0c-.21.11-.42.22-.56.31l.13-.06-.1.06h0c-.09.06,0,0,.05,0l-.11.06.2-.1-.2.11.24-.13c-.09.06-.17.1-.08.06l-.12.05a.64.64,0,0,0,.15-.06c-.12.07,0,0-.16.1l.16-.07c-.23.11,0,0-.25.15A.78.78,0,0,1,25,36.3l0,0-.12.07.33-.16c-.17.1-.21.11-.37.19a2.09,2.09,0,0,0,.26-.13l-.19.11c.22-.11,0,0,.18-.08l-.14.08Zm.46,0h0Zm0,0h0l.08,0Zm.85-.49s0,0,0,0h0Z"/><path class="cls-3" d="M25.89,36h0l0,0,0,0Z"/><path class="cls-3" d="M26.34,37.31Z"/><polygon class="cls-3" points="25.07 36.75 25.1 36.73 25.08 36.74 25.07 36.75"/><path class="cls-3" d="M26,37.61h0Z"/><path class="cls-3" d="M25.94,37.65l0,0Z"/><path class="cls-3" d="M25.89,37.71l.05,0h0Z"/><path class="cls-3" d="M25.54,37.41Z"/><path class="cls-3" d="M25.89,37.37l-.06,0Z"/><polygon class="cls-3" points="25.33 37.37 25.33 37.36 25.33 37.36 25.33 37.37"/><path class="cls-3" d="M25.83,37.39s0,0,0,0S25.85,37.38,25.83,37.39Z"/><path class="cls-3" d="M25.89,37.84h0Z"/><path class="cls-3" d="M25.9,37.84h0Z"/><path class="cls-3" d="M26,37.81l0,0Z"/><path class="cls-3" d="M25.93,37.78l-.05,0Z"/><path class="cls-3" d="M25.91,37.78s-.09,0-.06,0l0,0C25.82,37.84,26,37.74,25.91,37.78Z"/><path class="cls-3" d="M26.45,37.44l0,0a.57.57,0,0,1,.13-.07C26.68,37.31,26.43,37.46,26.45,37.44Z"/><path class="cls-3" d="M26.5,37.38l.1-.05Z"/><path class="cls-3" d="M26.41,37.2l.11-.06S26.48,37.16,26.41,37.2Z"/><polygon class="cls-3" points="25.81 37.48 25.74 37.52 25.84 37.46 25.81 37.48"/><polygon class="cls-3" points="26.6 37.03 26.61 37.02 26.57 37.04 26.6 37.03"/><path class="cls-3" d="M26.4,36.75l-.14.07Z"/><path class="cls-3" d="M26.19,36.69c.07,0,.11-.06,0,0Z"/><polygon class="cls-3" points="26.2 36.18 26.25 36.16 26.21 36.18 26.2 36.18"/><path class="cls-3" d="M25.37,35.64s-.07.12,0,.12l.09-.14Z"/><path class="cls-3" d="M25.35,36a1,1,0,0,0,.21-.31c-.1.13-.07.07-.19.22s0-.06,0-.11,0-.05-.07,0,0,.15.07.08A.73.73,0,0,1,25.35,36Z"/><path class="cls-3" d="M27.38,36.81v0S27.38,36.8,27.38,36.81Z"/><path class="cls-3" d="M28.81,36.49s0,0,0,0A.06.06,0,0,0,28.81,36.49Z"/><path class="cls-3" d="M29.12,36.5h0Z"/><path class="cls-3" d="M27.38,36.81l0,0S27.4,36.82,27.38,36.81Z"/><path class="cls-3" d="M25.78,35.76l0,0h0Z"/><path class="cls-3" d="M26.74,36.89h0l0,.07Z"/><path class="cls-3" d="M26.25,36.81s.05-.13.07-.18a.21.21,0,0,1-.05.08Z"/><path class="cls-3" d="M25.63,36.32h0Z"/><path class="cls-3" d="M27.09,37v0Z"/><path class="cls-3" d="M33.55,27.14h0Z"/><polygon class="cls-3" points="34.26 26.65 34.27 26.66 34.35 26.66 34.26 26.65"/><path class="cls-3" d="M29.59,36.36h0S29.6,36.38,29.59,36.36Z"/><path class="cls-3" d="M32.24,33.48c-.12,0-.07-.16-.22-.2C32.06,33.31,32.14,33.47,32.24,33.48Z"/><path class="cls-3" d="M25.78,35.78h0Z"/><polygon class="cls-3" points="32.02 33.28 32.02 33.27 32 33.27 32.02 33.28"/><path class="cls-3" d="M30.28,35.61l-.05,0Z"/><path class="cls-3" d="M29.61,36h0Z"/><path class="cls-3" d="M30.41,35.2s0,0,0,0h0S30.43,35.21,30.41,35.2Z"/><path class="cls-3" d="M30.68,34.92l0,0v0Z"/><path class="cls-3" d="M33.5,28.24h.13C33.53,28.24,33.51,28.18,33.5,28.24Z"/><path class="cls-3" d="M25.75,35.83l0,0h0Z"/><path class="cls-3" d="M29.62,34.42l.06,0Z"/><path class="cls-3" d="M32.76,30.73v0Z"/><path class="cls-3" d="M29.78,34.25a.22.22,0,0,0,.1,0l0,0Z"/><path class="cls-3" d="M33.63,28.25Z"/><path class="cls-3" d="M33.35,27.82c0,.06.18.05.29.08s-.14,0-.24,0,.21.1.2.13h-.08c.14.06,0,.13.16.21h0a1.42,1.42,0,0,1,.25,0s.11.06,0,0,0,0-.08,0l.05,0c-.17,0-.05,0-.18-.06.05.06.18.14.12.17s0-.1-.19-.07l.07-.05c-.27,0,0,0-.26,0-.07.07.07.1,0,.17.09,0,.14,0,.23.05s-.43,0-.23.13.32.1.19.13l-.18-.06c0,.07.26.1.12.15s-.05-.07-.08-.06.1.06.09.1l-.16,0c0,.08.1.2.11.29a.4.4,0,0,0-.15,0c0,.13-.08.23-.21.3l.13.08s-.07,0-.1,0,.09,0,.14.07-.09,0-.13,0,.19.29,0,.32l0,0c-.07,0,.26.16.11.17l0,0c-.1.11,0,.3-.27.31.18.1-.14.09.13.21-.17,0-.21,0-.34,0s.15.11.16.16l-.14-.06.13.11-.18-.06,0,.05a.19.19,0,0,1,.12,0c0,.08-.15.07-.22,0l.06.16c-.05,0-.06-.06-.09-.09.11.13-.15-.06,0,.06s.08,0,.11.06-.13,0-.12.1L32.47,31c-.06.06,0,.18-.1.27s.22.09.22.13l-.15-.08c.08.07.07,0,.15.11s-.17-.08-.2-.12l0,.06-.11-.08c.08.07-.17,0,0,.1l0,0c-.06.08,0,.15-.07.22s.07.09.14.18-.2,0-.23.08.09.08.14.15c-.11-.07-.14,0-.19-.09a.37.37,0,0,0,0,.26c.05,0,.08,0,.11.05s-.08,0-.12,0v0c.07.23-.47,0-.33.25v0l0,.17s-.06-.08-.14-.1c.09.22-.14.11-.1.28-.33-.2-.15.21-.4.13l.07.05c.05.08-.06,0-.09,0s.08,0,.11.08c-.07.24-.41.25-.62.36s.31.35.08.28l-.1-.13c0,.26-.24.25-.23.48,0,0-.06-.06-.05-.08s-.09.1,0,.16S30.09,34,30,34s.06.17,0,.11,0,0,0-.05-.08.07,0,.15c-.09,0,0,.12-.13.1.09.13-.13,0,0,.19-.16-.16-.2,0-.15.05,0-.06-.08,0-.13-.1s0,.09.06.16c-.25-.13,0,.27-.24.06a1.15,1.15,0,0,1-.08.44c-.15-.17.08-.11-.09-.27,0,.14.08.32,0,.36s-.06-.08-.08-.12c0,.14-.16.13-.15.28,0,0,0,0,0-.06s0,0,0,.08v0c.12.09.15.28.2.34-.17-.24-.12,0-.33-.3a.57.57,0,0,0,.07.12s-.05,0-.09-.11c0,.09.07.16,0,.2a.41.41,0,0,1-.07-.11c0,.09.07.18,0,.18s-.05,0,0-.06,0,.3-.09.28c-.1-.19-.07,0-.18-.19v.08l.07.06s0,.16-.06.13l0-.09,0,.08.08,0c0,.11.13.2.05.19s0,0-.12-.06h0c0,.06,0,.13,0,.1a2.24,2.24,0,0,1-.11-.22c.05.15-.07.09,0,.25a.53.53,0,0,0-.05-.15l0,.12a.25.25,0,0,1-.07-.12c-.06,0,.11.21,0,.15v0c-.08,0-.1.12-.19.08s0-.06,0-.21c-.06.06-.13.27-.23.24l0,0c0,.26-.09-.13-.12,0a.36.36,0,0,0,0-.11c-.06,0-.12.07-.22.16v-.07c0-.06-.1,0-.14-.06s0,.05,0,.15c-.1-.39-.27.2-.35-.14,0,0,0-.06,0-.06l-.1,0a.39.39,0,0,0,0,.16c0,.07-.07.12-.09.11s0-.18,0-.25l0,.11c0-.21-.05.23-.1.08l0-.06s-.07.1-.1.07,0-.05.07-.16-.14.23-.15.09.06,0,.08-.06,0-.12,0-.15h0l-.05-.08v0c-.14.32-.11,0-.24.23.13-.18,0-.11.1-.25a.22.22,0,0,1,0-.14c-.06.11,0-.11-.11.05,0-.05,0,0,0-.13s0,.08,0,.14-.06-.24-.23-.06-.19.2-.3.24a.28.28,0,0,1,.1-.15c0-.08,0-.09-.1-.05a.89.89,0,0,0,0-.13s-.1.15-.11.07a1.67,1.67,0,0,1,.12-.16,1.74,1.74,0,0,1-.18.11c0-.08.08-.1.12-.15a.31.31,0,0,0-.21.13v.06a.31.31,0,0,1,.07-.12c.08-.08,0,.06,0,.11h0c-.11.27.12,0,.16.05l-.12.18.13-.13c0,.05-.05.16-.09.18s.06-.06,0,.06,0,0,0,0l.06,0s-.05.13-.06.09c0,.14.17-.09.13.06h0c.12,0,.07-.13.2-.27l-.09.37.06-.14s0,0,0,.08,0-.06.08-.15c0,.15.14,0,.07.22.06-.1,0-.1.07-.16-.07.25.07,0,.07.11s-.07,0-.06.17c.09-.21.07.07.12,0s.1-.05.18-.09.1.13.15.2v0c.05-.17.11-.13.16-.16a.39.39,0,0,1-.07.19h0a.2.2,0,0,1,.07-.1l0,.13c.07,0,.14-.14.21,0,0-.13,0-.36.06-.44a.65.65,0,0,1,0,.22s0-.06,0,0l-.05.12s0-.1.06-.09,0,.07,0,.15,0,0,0,0a.23.23,0,0,1,.07.15c0-.05,0-.13,0-.14s0,.12.05.17,0,0,.06-.14,0,.07,0,.11.15,0,.11-.18h0c.09-.15.21.07.31,0v0c.06-.06.13,0,.16-.16a.24.24,0,0,1,.05.14s0-.1.12,0,0,.07,0,.07.11.1.14-.05c0,.13.09.14.11.1l-.07-.07a.12.12,0,0,1,.1,0l0,.16c.21.15.11-.4.33-.13,0-.12-.1,0-.13-.18s.23.18.25.17,0-.25.05-.24a.4.4,0,0,1-.1-.26s.19.18.18.24,0,0,0,0,0,.06,0,.11l0-.06c.06,0,.12,0,.16.08,0-.07,0-.09-.08-.1s.1-.06.19-.06L29,36.43c.14,0,0-.12,0-.19s.12.18.13.08.11.12.12.17c0-.13.15,0,.19,0v.06a.07.07,0,0,1,0-.06l-.09-.08s0,0,.08,0-.14-.14-.18-.25,0-.1.13,0c-.1,0,.11.12.07.19a0,0,0,0,1,0,0s0,0,0,0c.16.06-.08-.16,0-.21s.12.11.12.09-.11-.1-.13-.17,0-.08,0-.09h-.05c0-.07,0-.08,0-.12s0,0,0,.07c-.07-.15.18,0,.15-.06s.12.12.16.13.14,0,.12-.07-.08-.05-.12-.17l0,.14-.07-.18s0,.11,0,.1,0-.07-.1-.13c.15.1,0-.14.11-.08l.2.21c.15,0,0-.2.13-.22l-.06,0c-.08-.09,0,0,0-.11a1.1,1.1,0,0,0,.16.12c-.05,0,.06,0-.07-.2l.12.06c.1,0-.13-.26-.05-.3s.13.12.15.21.05,0,0-.07-.05-.15,0-.1-.1-.11-.07-.13l0,0s0-.08-.11-.14c.28.16.14-.18.38-.05a.67.67,0,0,1,.07-.17s0,0,0,0-.18-.23,0-.21,0,.09.1.11c.25.21,0-.1.21,0v0c.11,0,0-.16.05-.19l0,0a.44.44,0,0,1-.06-.33c.08.1,0,.07.13.15s-.15-.14-.14-.2a.72.72,0,0,1,.24.13l0,.05c.15.1,0-.06.09-.06l.05,0c0-.08-.1-.21,0-.27l0,0c-.11-.17.11,0,0-.09l.16.12a1.16,1.16,0,0,1,0-.28,1.09,1.09,0,0,1,.13.31.13.13,0,0,0,0-.17s0,.07,0,.06-.11-.22-.06-.27c.27.27.18-.06.44.11,0-.19.19-.13.27-.25-.26-.16,0,0-.22-.23,0,0,0-.05,0,0l.2,0c.08,0,0,.07.08.11s.12.07.21.09c-.09-.07-.1-.13,0-.13l-.15,0c-.06-.18.25.1.19-.08l.06.09c0-.07.12-.14,0-.34,0,0,.11.06.11.09s0-.37.15-.35l.05,0s-.09-.12,0-.09l.06,0s-.06-.13,0-.13l0,.07c.15,0,0-.27,0-.38a.34.34,0,0,0,.35.07l0,0c.11-.1,0-.3,0-.46.24.06.23-.18.41-.24a.31.31,0,0,1-.16-.11c.06,0-.09-.15.09-.05h0c.18.07.17,0,.2-.06l-.24-.12c.41.05,0-.37.36-.28,0-.06,0-.1-.07-.15L34,31a.28.28,0,0,0,.12-.21l.08.06c0-.06-.35-.23-.34-.28l.21.06c0-.09.24-.13.1-.29,0,0,.08,0,.09,0s.2-.13-.08-.21c.17.06,0-.1,0-.17l.12.05c-.15-.1-.2-.12-.22-.19s.11,0,.07,0-.12-.07,0-.11l.08.05c0-.05,0-.06-.11-.12s.06-.08.18,0c-.07,0-.16-.09-.12-.11a.19.19,0,0,1,.09,0c.11-.06-.12-.17,0-.19h.08a.25.25,0,0,1,0,.11c.12,0,.16,0,.32.08-.08-.08-.27-.2-.19-.24h0s0,0,0,0a.07.07,0,0,0,0,0c.1,0,.07-.05.08-.07s-.1-.06-.23-.06c0,0,0,0,0,0s0,0,0,0h0v.07c-.06,0-.11-.07,0-.09l-.21-.09c.2,0,.32,0,.44,0-.06-.1,0-.22-.26-.32,0,0,.08,0,.12,0s0,0,.06.05,0-.15-.18-.2c.09,0,.16.07.14,0l.06,0c.32-.12-.42-.34,0-.46h-.07c.2-.19-.1-.44.18-.63.06-.05-.06-.07-.15-.11h.15l-.17-.07c-.12-.09.38-.13.15-.25h-.11s0-.12.07-.11-.11,0-.06,0h.08l-.13-.1c.06-.07.31,0,.33-.09a.57.57,0,0,0-.28-.11s0,.05-.13.05l0,0a1.28,1.28,0,0,0-.63.05l.14.06-.12,0v-.05c-.11,0,0,0,.05.06a.35.35,0,0,0-.13,0l.22.06c-.09,0-.18,0-.23,0,.11,0,.21,0,.27,0-.1,0-.19,0-.1,0a.14.14,0,0,1-.12,0c.07,0,0,.08.15.1-.13,0,0,.1-.19.09.05,0,.17.06.17.09-.26-.07,0,.1-.3.07.24.05.1.14.22.21s-.05,0,0,0-.1,0-.14.06a.88.88,0,0,1,.35.13c-.19,0-.23-.05-.41-.06.16,0,.15.1.28.09a.47.47,0,0,1-.22,0c.24,0,0,0,.18.08-.12,0-.22,0-.16.05A.29.29,0,0,1,33.35,27.82Zm.18,1.35h0v0Zm0,.1s0,0,0,0,.09,0,.09,0S33.55,29.27,33.51,29.27Zm1,0s0,0,0,0a.08.08,0,0,0,0,0h0Z"/><path class="cls-3" d="M34.34,29.2h0l0,0Z"/><path class="cls-3" d="M27.36,36.78h0v0Z"/><polygon class="cls-3" points="32.75 30.59 32.78 30.61 32.76 30.59 32.75 30.59"/><path class="cls-3" d="M26.78,36.25v0Z"/><path class="cls-3" d="M26.54,36.17l0-.06A.39.39,0,0,1,26.54,36.17Z"/><path class="cls-3" d="M26.38,36.05l0,.06h0Z"/><path class="cls-3" d="M29,35.28h0Z"/><path class="cls-3" d="M28.43,36.1s0-.06,0-.08S28.39,36,28.43,36.1Z"/><polygon class="cls-3" points="29.61 34.42 29.62 34.42 29.62 34.42 29.61 34.42"/><path class="cls-3" d="M28.46,36s0,0,0,0S28.46,36,28.46,36Z"/><polygon class="cls-3" points="25.64 35.67 25.63 35.66 25.62 35.68 25.64 35.67"/><path class="cls-3" d="M25.62,35.68h0Z"/><path class="cls-3" d="M25.57,35.71l0,0S25.59,35.68,25.57,35.71Z"/><path class="cls-3" d="M25.84,35.84l0,0Z"/><path class="cls-3" d="M25.91,35.86s0-.12,0-.1l0,0C25.9,35.73,25.86,35.93,25.91,35.86Z"/><path class="cls-3" d="M26,36.57l-.06-.06c0,.05,0,.13-.05.13C25.93,36.82,25.92,36.52,26,36.57Z"/><path class="cls-3" d="M26.2,36.72c-.05,0,0,.08,0,.11S26.21,36.78,26.2,36.72Z"/><path class="cls-3" d="M27.91,36.85l0,.12S27.92,36.93,27.91,36.85Z"/><polygon class="cls-3" points="28.04 36.14 27.99 36.07 28.02 36.18 28.04 36.14"/><polygon class="cls-3" points="28.54 36.92 28.53 36.94 28.57 36.87 28.54 36.92"/><path class="cls-3" d="M30.72,35.05,30.6,35S30.73,35.11,30.72,35.05Z"/><path class="cls-3" d="M31.39,34.1c.06,0,.12.06.08,0S31.38,34.08,31.39,34.1Z"/><polygon class="cls-3" points="33.76 31.41 33.8 31.46 33.78 31.39 33.76 31.41"/></g></g></svg>