<svg xmlns="http://www.w3.org/2000/svg" viewBox="0 0 24.04 23.99"><defs><style>.cls-1{fill:#f1ede2;}</style></defs><g id="圖層_2" data-name="圖層 2"><g id="圖層_1-2" data-name="圖層 1"><path class="cls-1" d="M13.76,2.25A3,3,0,0,0,13,.85C11.57-.51,9.07-.21,7.39,1.52A4.9,4.9,0,0,0,6,4.42a4.87,4.87,0,0,0-4.5,8.24,5.15,5.15,0,0,0,1.26.89l-.18.16a6,6,0,1,0,8.67,8.44,5.89,5.89,0,0,0,1.63-3.22,5.93,5.93,0,0,0,4.61-1.73A5.88,5.88,0,0,0,19.09,13a7.53,7.53,0,0,0,2.81-1.84c2.66-2.73,2.87-6.83.47-9.16C20.13-.15,16.41,0,13.76,2.25Z"/></g></g></svg>