<svg xmlns="http://www.w3.org/2000/svg" viewBox="0 0 36.97 41.42"><defs><style>.cls-1{fill:#8fbf4e;}.cls-2{fill:#a9d66b;}.cls-3{fill:#a67c52;}.cls-4,.cls-6{fill:#8c6239;}.cls-5{fill:none;}.cls-5,.cls-6{stroke:#e6e6e6;stroke-miterlimit:10;stroke-width:0.25px;}</style></defs><g id="圖層_2" data-name="圖層 2"><g id="圖層_1-2" data-name="圖層 1"><path class="cls-1" d="M18.41,13.94a8.6,8.6,0,0,1,.08-3.81,3.18,3.18,0,0,1,.09-.33h0A13.83,13.83,0,0,1,27.8,5.06a13,13,0,0,1,5.76,1,14.29,14.29,0,0,0-12.23,6.57l.08.21a18.42,18.42,0,0,0-2.85,1.38l-.15-.26Z"/><path class="cls-2" d="M18.49,10.13a8.6,8.6,0,0,0-.08,3.81h0l.15.26-.8.51a3.58,3.58,0,0,0-1.43,1.51L16,16.14a12.22,12.22,0,0,1-.28-2.29,10.79,10.79,0,0,1,.33-3,13.06,13.06,0,0,1,2.36-4.65,11.13,11.13,0,0,1,2.42-2.61,11.12,11.12,0,0,1,3.25-1.62,13.72,13.72,0,0,1,3.86-.68,14.78,14.78,0,0,0-4.41,2.19A14.38,14.38,0,0,0,20.91,5.9a10.59,10.59,0,0,0-2.33,3.89h0A3.18,3.18,0,0,0,18.49,10.13Z"/><path class="cls-1" d="M26.2,19.76a4,4,0,0,1,1,2.14,3,3,0,0,1-1.33-.56,7.55,7.55,0,0,0-3.76-1A3.16,3.16,0,0,1,21,20.19l-.25-.12a.48.48,0,0,0,.07-.18.82.82,0,0,0,0-.49,1.56,1.56,0,0,0-.63-.88l.28-.39A5.69,5.69,0,0,1,21.47,17a8,8,0,0,1,4.73,2.8Z"/><path class="cls-2" d="M13.24,11.28a6.81,6.81,0,0,0,2.21,2.51l.27.06A12.22,12.22,0,0,0,16,16.14l.33.08a2.34,2.34,0,0,0-.12.4,1.59,1.59,0,0,0,0,.43,14.18,14.18,0,0,0-3.36-.12A15.57,15.57,0,0,1,10.66,14a7.32,7.32,0,0,1-1-2.23,6.85,6.85,0,0,1,.17-3.44,14.53,14.53,0,0,1,1.38-3A17.29,17.29,0,0,1,14.75.53c.18-.21.41-.44.69-.4A11,11,0,0,0,12.57,9,6.54,6.54,0,0,0,13.24,11.28Z"/><path class="cls-3" d="M19.61,21.08l.25-.13.1.18L36.8,34.78l-.24.3L30.7,41.22c-3-4-6-8.26-9-12.73-1.12-1.67-2.2-3.33-3.26-5l.06,0a1.73,1.73,0,0,0,.63-.79,1.26,1.26,0,0,0,.09-.91,1.14,1.14,0,0,0-.58-.62A1.54,1.54,0,0,0,19.61,21.08Z"/><path class="cls-4" d="M18.64,21.15a1.48,1.48,0,0,0-.26-.11A1.19,1.19,0,0,0,18.64,21.15Zm-2,1.8a2,2,0,0,1-.27-1l.09-.2a.82.82,0,0,0,.42.1,1.26,1.26,0,0,0,.82-.6c.26-.34.54-.76.38-1.15a1.17,1.17,0,0,0-.27-.36l-.25-.23.21-.28a1.61,1.61,0,0,1,1.56-1,1.64,1.64,0,0,1,.79.28,1.56,1.56,0,0,1,.63.88.82.82,0,0,1,0,.49.48.48,0,0,1-.07.18,2.39,2.39,0,0,1-.13.21,2.52,2.52,0,0,1-.71.67l-.25.13a1.54,1.54,0,0,1-1,.07,1.14,1.14,0,0,1,.58.62,1.26,1.26,0,0,1-.09.91,1.73,1.73,0,0,1-.63.79l-.06,0a1.21,1.21,0,0,1-.81.24,1,1,0,0,1-.36-.12A1.75,1.75,0,0,1,16.64,23Z"/><path class="cls-2" d="M17,19.3a.52.52,0,0,0-.3.2l.2-.54a3.3,3.3,0,0,1-.74-1.91,1.59,1.59,0,0,1,0-.43,2.34,2.34,0,0,1,.12-.4,3.58,3.58,0,0,1,1.43-1.51l.8-.51a18.42,18.42,0,0,1,2.85-1.38,13.39,13.39,0,0,1,6.78-1A12.49,12.49,0,0,1,35.12,16v.12c-2.58-.27-5.12-1-7.72-1A9.26,9.26,0,0,0,21.47,17a5.69,5.69,0,0,0-1.07,1.17l-.28.39a1.64,1.64,0,0,0-.79-.28,1.61,1.61,0,0,0-1.56,1l-.21.28A.78.78,0,0,0,17,19.3Z"/><path class="cls-2" d="M16.05,19.23a2.92,2.92,0,0,0-1.62,0,4,4,0,0,0-1.67,1.26c-.13.14-.39.41-.72.81a10.91,10.91,0,0,0-3.36,1.44,13.41,13.41,0,0,0-1.86,1.52A29.15,29.15,0,0,0,3.49,28,33.74,33.74,0,0,0,.27,33.13H.14a25.7,25.7,0,0,1,1.06-5,20.3,20.3,0,0,1,2-4.61,13.74,13.74,0,0,1,4.68-5,11.67,11.67,0,0,1,5-1.57,14.18,14.18,0,0,1,3.36.12A3.3,3.3,0,0,0,16.92,19l-.2.54-.06.09Z"/><path class="cls-2" d="M17.7,21.24a1.26,1.26,0,0,1-.82.6.82.82,0,0,1-.42-.1l-.09.2a2,2,0,0,0,.27,1l-.52.2a10.12,10.12,0,0,0-1.61,2.2,5.6,5.6,0,0,0-.27.55c-2.61,5.66.91,12.26,1.53,13.4-2.08-1-3.37-3.15-4.49-5.18a13.75,13.75,0,0,1-1.46-3.35,11.52,11.52,0,0,1-.24-3.08,8.57,8.57,0,0,1,.6-3.56,9.66,9.66,0,0,1,1-1.66c.32-.47.61-.86.86-1.17s.59-.67.72-.81a4,4,0,0,1,1.67-1.26,2.92,2.92,0,0,1,1.62,0l.61.36.06-.09a.52.52,0,0,1,.3-.2.78.78,0,0,1,.54.2l.25.23a1.17,1.17,0,0,1,.27.36C18.24,20.48,18,20.9,17.7,21.24Z"/><path class="cls-1" d="M16.12,23.15l.52-.2a1.75,1.75,0,0,0,.63.68l-.16.33a8.93,8.93,0,0,0,1.12,5.59,17.08,17.08,0,0,1-1.64-1.76,7.2,7.2,0,0,0-2.14-2.12l-.21.23a5.6,5.6,0,0,1,.27-.55A10.12,10.12,0,0,1,16.12,23.15Z"/><path class="cls-5" d="M.12,33.23s0-.07,0-.11a25.7,25.7,0,0,1,1.06-5,20.3,20.3,0,0,1,2-4.61,13.74,13.74,0,0,1,4.68-5,11.67,11.67,0,0,1,5-1.57,14.18,14.18,0,0,1,3.36.12"/><path class="cls-5" d="M.27,33.13A33.74,33.74,0,0,1,3.49,28a29.15,29.15,0,0,1,3.33-3.74,13.41,13.41,0,0,1,1.86-1.52A10.91,10.91,0,0,1,12,21.3l.09,0"/><path class="cls-5" d="M15.64,20.5a1.53,1.53,0,0,0,.82,1.24.82.82,0,0,0,.42.1,1.26,1.26,0,0,0,.82-.6c.26-.34.54-.76.38-1.15a1.17,1.17,0,0,0-.27-.36l-.25-.23a.78.78,0,0,0-.54-.2.52.52,0,0,0-.3.2l-.06.09a1.57,1.57,0,0,0-.2.89"/><path class="cls-5" d="M18.64,21.15a1.54,1.54,0,0,0,1-.07l.25-.13a2.52,2.52,0,0,0,.71-.67,2.39,2.39,0,0,0,.13-.21.48.48,0,0,0,.07-.18.82.82,0,0,0,0-.49,1.56,1.56,0,0,0-.63-.88,1.64,1.64,0,0,0-.79-.28,1.61,1.61,0,0,0-1.56,1"/><path class="cls-5" d="M18.64,21.15a1.48,1.48,0,0,0-.26-.11A1.19,1.19,0,0,0,18.64,21.15Z"/><path class="cls-5" d="M18.64,21.15h0"/><path class="cls-5" d="M16.37,21.94a2,2,0,0,0,.27,1,1.75,1.75,0,0,0,.63.68,1,1,0,0,0,.36.12,1.21,1.21,0,0,0,.81-.24l.06,0a1.73,1.73,0,0,0,.63-.79,1.26,1.26,0,0,0,.09-.91,1.14,1.14,0,0,0-.58-.62"/><path class="cls-5" d="M16.05,19.23a2.92,2.92,0,0,0-1.62,0,4,4,0,0,0-1.67,1.26c-.13.14-.39.41-.72.81s-.54.7-.86,1.17a9.66,9.66,0,0,0-1,1.66,8.57,8.57,0,0,0-.6,3.56,11.52,11.52,0,0,0,.24,3.08,13.75,13.75,0,0,0,1.46,3.35c1.12,2,2.41,4.15,4.49,5.18-.62-1.14-4.14-7.74-1.53-13.4a5.6,5.6,0,0,1,.27-.55,10.12,10.12,0,0,1,1.61-2.2"/><path class="cls-5" d="M14.45,25.67a7.2,7.2,0,0,1,2.14,2.12,17.08,17.08,0,0,0,1.64,1.76A8.93,8.93,0,0,1,17.11,24"/><path class="cls-5" d="M27.19,21.9h0a4,4,0,0,0-1-2.14A8,8,0,0,0,21.47,17l-.17,0"/><path class="cls-5" d="M21,20.19a3.16,3.16,0,0,0,1.15.13,7.55,7.55,0,0,1,3.76,1,3,3,0,0,0,1.33.56"/><path class="cls-5" d="M16.92,19a3.3,3.3,0,0,1-.74-1.91,1.59,1.59,0,0,1,0-.43,2.34,2.34,0,0,1,.12-.4,3.58,3.58,0,0,1,1.43-1.51l.8-.51a18.42,18.42,0,0,1,2.85-1.38,13.39,13.39,0,0,1,6.78-1A12.49,12.49,0,0,1,35.12,16"/><path class="cls-5" d="M20.4,18.13A5.69,5.69,0,0,1,21.47,17a9.26,9.26,0,0,1,5.92-1.84c2.6,0,5.14.71,7.72,1l.13,0"/><path class="cls-5" d="M18.58,9.79A10.59,10.59,0,0,1,20.91,5.9a14.38,14.38,0,0,1,2.62-2.45,14.78,14.78,0,0,1,4.41-2.19,13.72,13.72,0,0,0-3.86.68,11.12,11.12,0,0,0-3.25,1.62,11.13,11.13,0,0,0-2.42,2.61,13.06,13.06,0,0,0-2.36,4.65,10.79,10.79,0,0,0-.33,3A12.22,12.22,0,0,0,16,16.14"/><path class="cls-5" d="M18.41,13.94a8.6,8.6,0,0,1,.08-3.81,3.18,3.18,0,0,1,.09-.33"/><path class="cls-5" d="M12.93,17l-.11-.11A15.57,15.57,0,0,1,10.66,14a7.32,7.32,0,0,1-1-2.23,6.85,6.85,0,0,1,.17-3.44,14.53,14.53,0,0,1,1.38-3A17.29,17.29,0,0,1,14.75.53c.18-.21.41-.44.69-.4A11,11,0,0,0,12.57,9a6.54,6.54,0,0,0,.67,2.26,6.81,6.81,0,0,0,2.21,2.51"/><path class="cls-5" d="M18.41,10l.17-.19h0A13.83,13.83,0,0,1,27.8,5.06a13,13,0,0,1,5.76,1,14.29,14.29,0,0,0-12.23,6.57l-.09.13"/><path class="cls-5" d="M18.38,23.42l.06.09c1.06,1.65,2.14,3.31,3.26,5,3,4.47,6,8.71,9,12.73l5.86-6.14"/><path class="cls-5" d="M20,21.13,36.8,34.78l.1.08"/><circle class="cls-6" cx="17.89" cy="22.56" r="1.48"/><circle class="cls-6" cx="17.16" cy="20.47" r="1.48"/><circle class="cls-6" cx="19.59" cy="19.68" r="1.73"/></g></g></svg>