<svg xmlns="http://www.w3.org/2000/svg" viewBox="0 0 387 75"><defs><style>.cls-1{fill:#77bdc5;}</style></defs><g id="圖層_2" data-name="圖層 2"><g id="圖層_1-2" data-name="圖層 1"><path class="cls-1" d="M0,0,.06,7.26h0A13.26,13.26,0,0,0,7.59,20.81c4,2,10.62,3.17,14.21,1.43,2.23-1.07,1.35-2.35,4.38-4.52A17,17,0,0,1,35,14.63a16.28,16.28,0,0,1,8,1.24,8.62,8.62,0,0,1,3.65,3.56l9.77,13c4.57,6.08,10.3,12.81,20.23,14.42,9,1.46,18.15-1.93,25-6.07s12.59-9.19,20.58-12.28c4.19-1.62,9.59-2.61,13.81-1a11.42,11.42,0,0,1,5.53,4.29c7.29,10.87,8.29,22.08,16.21,31.05A34.24,34.24,0,0,0,179.2,74.67c12.66,1.71,23.44-3.8,25.51-4.86,6.29-3.21,9.55-7.56,15.8-16.14,4.83-6.63,4.7-7.9,11-17.26C237.12,28.14,240,24,243.66,21.63c10.79-6.81,25.11-6.81,27.27-6.79,8.32.08,13,1.37,23,4.93,15.9,5.64,33.68,8.45,44.26,8.49,14.51.06,32.69-4.62,42-14.06A23.06,23.06,0,0,0,387,0Z"/></g></g></svg>