<svg xmlns="http://www.w3.org/2000/svg" viewBox="0 0 131.46 68.78"><defs><style>.cls-1{fill:#dcad6e;stroke:#f1ede2;stroke-miterlimit:10;}.cls-2{fill:#b58e5b;}.cls-3{fill:#4d4d4d;}</style></defs><g id="圖層_2" data-name="圖層 2"><g id="圖層_1-2" data-name="圖層 1"><path class="cls-1" d="M82,33.14c-.94,5.9-1.33,5.73-1.54,8.34S79.7,51.19,84.3,57.8c.52.74,6.88,9.59,17,10.41C117.06,69.51,130.5,50,130.9,38c.14-4.29.31-9.49-2.7-13.89a18.4,18.4,0,0,1-3.08-5.55c-.7-2.27-.42-3.34-1.15-6.25A23.71,23.71,0,0,0,122,7.1C119.32,2.44,112,.57,106.83.5a23.67,23.67,0,0,0-16,6.25c-5.18,4.69-6.51,10.41-7.32,13.89C82.64,24.46,83.25,25.3,82,33.14Z"/><ellipse class="cls-2" cx="109.53" cy="25.68" rx="0.96" ry="1.22"/><ellipse class="cls-2" cx="107.41" cy="51.37" rx="1.16" ry="1.22"/><ellipse class="cls-2" cx="104.52" cy="60.23" rx="1.35" ry="1.39"/><ellipse class="cls-2" cx="92.2" cy="43.91" rx="0.96" ry="1.04"/><ellipse class="cls-2" cx="91.04" cy="53.98" rx="0.96" ry="1.04"/><ellipse class="cls-2" cx="116.46" cy="39.91" rx="1.24" ry="0.94" transform="matrix(0.52, -0.86, 0.86, 0.52, 22.23, 119.14)"/><ellipse class="cls-2" cx="124.96" cy="30.23" rx="0.81" ry="0.69" transform="translate(25.2 111.33) rotate(-52.71)"/><ellipse class="cls-2" cx="118.8" cy="43.43" rx="0.81" ry="0.69" transform="translate(12.27 111.63) rotate(-52.71)"/><ellipse class="cls-2" cx="119.18" cy="50.72" rx="0.81" ry="0.69" transform="translate(6.62 114.81) rotate(-52.71)"/><ellipse class="cls-2" cx="101.09" cy="64.26" rx="0.81" ry="0.69" transform="translate(-11.28 105.75) rotate(-52.71)"/><ellipse class="cls-2" cx="111.48" cy="9.75" rx="0.81" ry="0.69" transform="translate(36.19 92.54) rotate(-52.71)"/><ellipse class="cls-2" cx="100.7" cy="37.18" rx="0.81" ry="0.69" transform="translate(10.11 94.77) rotate(-52.71)"/><ellipse class="cls-2" cx="90.5" cy="37.18" rx="1.34" ry="1.07" transform="translate(10.35 93.29) rotate(-57.33)"/><path class="cls-3" d="M106.31,14.07s.14,0,.12,0h-.12Z"/><path class="cls-3" d="M106.6,14a1.18,1.18,0,0,0-.36.07l.28,0s0,0-.11,0,0,0,.07,0,.12-.06,0-.07Z"/><path class="cls-3" d="M106,14.75h0Z"/><path class="cls-3" d="M106.93,15.61s0,0,0,0S106.94,15.62,106.93,15.61Z"/><path class="cls-3" d="M107.27,15.6h0Z"/><path class="cls-3" d="M106,14.75l0,0S105.94,14.77,106,14.75Z"/><path class="cls-3" d="M106.18,14h0Z"/><path class="cls-3" d="M105.8,14.22h0l-.06,0Z"/><path class="cls-3" d="M105.87,13.8s.13.06.18.08a.21.21,0,0,1-.08-.05Z"/><path class="cls-3" d="M106.62,13.59h0Z"/><path class="cls-3" d="M105.76,14.53h0Z"/><path class="cls-3" d="M106.42,14.74h0Z"/><polygon class="cls-3" points="107 14.28 107.01 14.28 107.08 14.25 107 14.28"/><path class="cls-3" d="M107.76,15.26h0S107.76,15.27,107.76,15.26Z"/><path class="cls-3" d="M105.57,14.27c.14-.07.15.12.3,0C105.82,14.3,105.66,14.17,105.57,14.27Z"/><path class="cls-3" d="M106.19,13.94Z"/><polygon class="cls-3" points="105.87 14.28 105.88 14.28 105.89 14.27 105.87 14.28"/><path class="cls-3" d="M107.89,14.25l-.06,0Z"/><path class="cls-3" d="M107.58,14.93h0Z"/><path class="cls-3" d="M107.64,13.84s0,0,0,0h0S107.66,13.82,107.64,13.84Z"/><polygon class="cls-3" points="107.49 13.44 107.47 13.47 107.48 13.47 107.49 13.44"/><path class="cls-3" d="M106.34,14.8l0,0Z"/><path class="cls-3" d="M106.25,13.91l-.06,0h0Z"/><path class="cls-3" d="M106.58,14.24l0,0Z"/><path class="cls-3" d="M106.69,14.65h0Z"/><path class="cls-3" d="M106.58,14.21l.08-.06,0,0Z"/><path class="cls-3" d="M106.39,14.82Z"/><path class="cls-3" d="M106.28,14.76l.18.1-.15-.08.1.06,0,0,0,0h0l.09,0,0,0h0l0,0,0,0s0,0,0,0l0,0-.07,0s0,0,0,0h0s-.06,0,0,0,0-.05,0-.05v0s0-.07,0-.06l0,0s0,0,0,0l0,0-.06-.14,0,.08c0-.08,0-.06,0,0v-.13a.54.54,0,0,1,0,.08s0-.08,0-.14a.84.84,0,0,1,0,.12c0-.12.08-.28.08-.12l0,0c0,.06.11-.28.09-.15v0c0,.07.11,0,0,.2.14-.15,0,.13.2-.09-.07.14-.11.17-.16.26s.14-.12.17-.12l-.12.09a1,1,0,0,1,.13-.09l0,0,0,0h0l.1-.05h.07l-.15,0h0a.42.42,0,0,1-.14-.1s.14.15.13.16l-.1-.13a1.18,1.18,0,0,1,.11.15,1.56,1.56,0,0,1-.14-.19l0,0,0,0s0,0,0,0h0l-.07-.14h0v.05c0,.14,0,.11,0,.22s0-.15-.06-.15a1,1,0,0,0,0,.19,1.09,1.09,0,0,1,0-.2l-.07.07,0,.1s0-.06,0-.11h0c0,.05,0,0,0-.11s.07-.09,0-.05h0l-.06,0s0,0,.08,0,0,0,0,0c.15,0,0-.06.1,0l0,0s0,0,0,0,0,0,0-.05.09,0,0,.08.12-.4.08-.23l0,.15,0-.06c.06-.08,0,0,.12-.11l-.06.08c-.08.13,0,0,.08-.07l-.1.13c-.06.07.12-.12,0,0l0,0s0,0,.1-.08c0,.05.07,0,0,0,.14-.08-.06.06.14-.05-.21.12-.16.1-.06.07l-.16.07.16,0c-.26.07.22,0-.12.06a.3.3,0,0,1,.24.17c-.22,0,0-.08-.25-.09.09.05.28.12.21.17s-.09,0-.13,0,0,.1,0,.19l0,0s0,0,.06,0h0a1.39,1.39,0,0,1,.35.18c-.27-.13-.1,0-.42-.14a.44.44,0,0,0,.12.07.24.24,0,0,1-.13,0c0,.06.14.08.13.1l-.11-.06c.08,0,.16.11.11.1s-.06,0,0,0,.15.22,0,.19-.06,0-.17-.19l0,0,.06.07s0,.13,0,.09l0-.08v0a.15.15,0,0,0,0,.06c0,.1.11.22,0,.18s0,0-.07-.09h0c0,.06,0,.12,0,.08s0-.26,0-.2,0,0,0,.15l0-.07h0l0,0c0-.05,0,0,0,0h0l0,0,0,0s-.07,0-.05-.06.06,0,.18-.09c0,0-.26,0-.24-.07l0,0c-.24.09.1-.1,0-.08l.11,0c0-.05-.09-.06-.19-.11h.07c.06,0,0-.07.05-.1s-.06,0-.15,0c.37-.1-.22-.17.11-.24,0,0,0,0,.06,0l-.06-.06a.84.84,0,0,0-.16,0c-.07,0-.12,0-.12-.06a.55.55,0,0,0,.25,0l-.11,0c.21,0-.22,0-.08-.07h.06s-.1-.06-.08-.08.06,0,.16.06-.23-.12-.09-.11l.06.06c.16,0,.12,0,.15,0h0l.08,0h0c-.32-.14,0-.09-.23-.22.18.13.11.05.25.11a.42.42,0,0,1,.13,0c-.1-.07.1,0,0-.09,0,0,0,0,.13,0s-.08,0-.14-.06.22,0,.05-.16h0l-.48.07c.09,0,.22-.14.32-.14a.58.58,0,0,1-.15.1c0,.06,0,.06,0,.06s-.06,0-.11.07.16-.08.11,0l-.18.08a.63.63,0,0,1,.19,0l-.18.05a.68.68,0,0,0,.22,0l0,0s-.11,0-.13.05,0,0,.07-.06h0c.26-.12-.07-.05-.07-.08l.19-.09a.85.85,0,0,0-.17.06.41.41,0,0,1,.17-.11c.07-.08-.07,0,0-.07l0,0h-.07s.11-.1.1-.06c0-.13-.18,0-.08-.1h0l-.28,0c0,.07.13.07.24.19l-.35-.15.13.08s0,0-.08,0,.06,0,.14.09c-.14,0,0,.12-.21,0,.1.06.1,0,.15.07-.24-.09,0,.06-.1.05s0-.07-.17-.08c.21.11-.07,0,0,.1s0,.09.09.16-.12.07-.19.11h0c.18,0,.13.08.17.13a.47.47,0,0,1-.2-.06v0a.15.15,0,0,1,.11.06l-.14,0c0,.06.16.12.06.18.13,0,.36,0,.44,0a.62.62,0,0,1-.21,0s.06,0,0,0l-.12,0s.1,0,.09,0-.07,0-.15,0,0,0,0,0a.3.3,0,0,1-.15.08.23.23,0,0,1,.15,0c0,.05-.12,0-.17.06s0,.05.15,0c0,0-.07,0-.11,0s0,.12.19.06h0c.15,0,0,.18,0,.25h0c.06,0,.07.09.18.08a.33.33,0,0,1-.12.09s.1,0,0,.08-.06,0-.07,0-.07.12.07.09c-.12.05-.11.12-.07.13l.06-.09s0,0,0,.08l-.15.08c0,.13.12.17.25.16s.2,0,.25.16c.08-.11-.1-.11,0-.23.06,0,.15.28.19.28s.09-.25.2-.22a.49.49,0,0,1-.06-.27s.17.19.15.26,0,0,0,0a.07.07,0,0,0,0,.11l0-.06c.06,0,.15,0,.18.09,0-.08,0-.1-.08-.11.12,0,.12-.07.22-.08s-.08-.06-.07-.07,0-.11,0-.18.15.16.14.05.13.1.15.15c0-.14.16-.08.21-.11v.07s0-.06,0-.09l-.12,0s0,0,.09,0-.18-.09-.24-.18,0-.12.13-.06c-.09.07.15,0,.13.15s0,0,0-.06l0,0c.16,0-.15-.11-.12-.18s.16.05.15,0-.14,0-.19-.09,0-.07,0-.09h0c-.08,0-.06,0-.08-.09s0,0,.07,0c-.14-.08.18,0,.09-.11.07,0,.17,0,.21,0s.14-.05.06-.13-.1,0-.2-.07l.06.12-.16-.1s.06.08,0,.09a.24.24,0,0,0-.16-.05c.18,0-.08-.09,0-.11l.29,0c.14-.06-.13-.16,0-.25l0,0c-.12,0,0-.06-.06-.09a.5.5,0,0,0,.19,0c-.07,0,0-.1-.19-.09l.12-.07c0-.11-.29,0-.26-.13s.17-.06.25,0,0-.07-.06-.05-.14,0-.06-.09-.14,0-.14,0l.05,0c-.05,0-.08,0-.17,0,.25-.21-.08-.17.1-.39a.83.83,0,0,1-.15-.11l0,0c0-.13-.22.18-.19,0s.08,0,.1-.1c.2-.28-.08,0,0-.26h0c0-.15-.13,0-.16,0l0,0a2.43,2.43,0,0,1-.28.31A1.31,1.31,0,0,0,107,13s-.11.28-.17.35v0c0-.08,0-.15.07-.32l.06,0c.06-.24-.08,0-.09,0l0-.11c-.11.09-.18.36-.25.39v.08c-.09.28,0-.12-.08.1v-.25c0,.09-.12.32-.16.4a1.29,1.29,0,0,1,.14-.48.29.29,0,0,0-.14.23s0-.11,0-.08c0,.22-.06.35-.11.39-.08-.45-.16,0-.36-.18,0,.15-.11.2-.19.3a.57.57,0,0,0-.21.34c.32,0,0,.07.29.09,0,0,0,.06,0,.06a1.4,1.4,0,0,0-.2.17c-.1.06-.06,0-.14,0s-.13.09-.21.21c.11-.05.16,0,.13.09a.64.64,0,0,1,.13-.15c.16.09-.24.26,0,.35h-.1c.07.06.12.31.34.16,0,0-.07.12-.1.12.08.19.35,0,.38.24l0,.06s.09-.11.09,0,0,.07,0,.08.1-.09.13,0l0,.07c.13.16.25-.13.34-.17a.33.33,0,0,0,.2.33v0c.21,0,.27-.24.37-.4.22.16.36-.12.57-.23-.05,0-.14-.09-.15-.13s-.08-.18.1-.1v0c.2,0,.2-.11.22-.23l-.27,0a.25.25,0,0,0,0-.41c-.09-.1-.18-.14-.07-.28-.08,0-.11,0-.18,0l.11-.09c0-.1-.07-.15-.17-.19l.08-.06s-.31.27-.35.25l.12-.17c-.06-.06-.12-.31-.32-.19,0,0,0-.08.07-.08s-.2-.22-.25.07c.05-.18-.13,0-.2.05l0-.14c-.08.18-.08.23-.15.29s0-.12,0-.08,0,.14-.1.08l0-.1s0,.06-.06.18-.08,0-.12-.12c0,.09,0,.21,0,.19a.27.27,0,0,1,0-.1c-.09-.06,0,.25-.08.14s0-.07,0-.09,0-.06,0-.05a1.22,1.22,0,0,1-.11-.34c0,.12,0,.4,0,.36l0,0v0s0,0,0,0l0,0c-.06-.13,0-.06,0-.07.07.18.07.16.12.3v0l0,0v0a.06.06,0,0,1,0,0c0,.09.07.18,0,.09l.13.31a3.24,3.24,0,0,1-.15-.57c.07,0,.12,0,.29.08l.12,0s.06.18.08.25a1.64,1.64,0,0,1,.06.41c0,.07.12,0,.18,0s-.08-.12-.08-.17.09.25.3.34.16.09.12.12a.42.42,0,0,1-.18,0c.15.14.31,0,.25.14h.1c.22.23,0,.2-.13.16s-.21-.09,0,.06l-.08,0c.23.17.12,0,.44-.16.07-.06,0-.08-.13-.12h.15l-.17-.07s0,0,0-.06.28-.15.09-.21l-.1,0c0-.05-.08-.1,0-.12s-.1,0,0,0l.07,0-.15,0c0-.08.3-.1.27-.2a.42.42,0,0,0-.29,0s0,0-.1.08h0a2.73,2.73,0,0,0-.57.29l.14,0-.1,0v0c-.1.05,0,0,.06,0l-.12.05.22,0a1.27,1.27,0,0,0-.21.07c.1,0,.19-.07.26-.07-.1.05-.18.07-.09.06l-.12,0a.41.41,0,0,0,.16,0c-.13,0,0,0-.18.05h0s0,0-.17,0c.24,0,.11,0,.23.07h0l-.14,0a1.58,1.58,0,0,1,.3.13l-.35-.14a1.67,1.67,0,0,1,.23.11l-.18-.08.13.07-.12-.06Zm-.1-.23h0v0Zm0,0v0l0-.06S106.17,14.46,106.18,14.48Zm-.37-.8,0,0v0Z"/><path class="cls-3" d="M105.92,13.92v0l0,0,0-.05Z"/><path class="cls-3" d="M106,14.73h0Z"/><path class="cls-3" d="M106.53,14.75h0l0,0Z"/><path class="cls-3" d="M106.44,14.26h0Z"/><path class="cls-3" d="M106.51,14.1h0Z"/><path class="cls-3" d="M106.62,14l-.06,0h0Z"/><path class="cls-3" d="M106.69,14.63h0Z"/><path class="cls-3" d="M106.66,15.14v-.07S106.65,15.06,106.66,15.14Z"/><polygon class="cls-3" points="106.58 14.24 106.58 14.24 106.58 14.24 106.58 14.24"/><path class="cls-3" d="M106.67,15.07s0,0,0,0S106.67,15.09,106.67,15.07Z"/><path class="cls-3" d="M106.19,14Z"/><path class="cls-3" d="M106.21,14h0Z"/><path class="cls-3" d="M106.26,14h0Z"/><path class="cls-3" d="M106.21,13.9l0,0Z"/><path class="cls-3" d="M106.18,13.88s-.08.08-.05.07l0,0C106.1,14,106.25,13.83,106.18,13.88Z"/><path class="cls-3" d="M106.11,13.62l.06,0s-.12,0-.12-.07C105.87,13.52,106.16,13.56,106.11,13.62Z"/><path class="cls-3" d="M106,13.77s-.07,0-.1,0S105.91,13.78,106,13.77Z"/><path class="cls-3" d="M106,15.2l-.12.05S105.94,15.23,106,15.2Z"/><path class="cls-3" d="M106.68,15l.06,0-.1.07Z"/><path class="cls-3" d="M106.3,15.86h0Z"/><path class="cls-3" d="M107.62,13.43l-.12.11S107.68,13.44,107.62,13.43Z"/><path class="cls-3" d="M106.69,13.16c0-.1,0-.14,0,0S106.68,13.19,106.69,13.16Z"/><path class="cls-3" d="M107.74,14.54l.06.05,0-.1Z"/><path class="cls-3" d="M97.23,14.07s.14,0,.12,0h-.12Z"/><path class="cls-3" d="M97.53,14a1.18,1.18,0,0,0-.37.07l.28,0s0,0-.11,0,0,0,.07,0,.13-.06,0-.07Z"/><path class="cls-3" d="M96.87,14.75h0Z"/><path class="cls-3" d="M97.85,15.61s0,0,0,0S97.86,15.62,97.85,15.61Z"/><path class="cls-3" d="M98.19,15.6h0Z"/><path class="cls-3" d="M96.87,14.75l0,0S96.87,14.77,96.87,14.75Z"/><path class="cls-3" d="M97.1,14h0Z"/><path class="cls-3" d="M96.73,14.22h0l-.07,0Z"/><path class="cls-3" d="M96.8,13.8s.12.06.18.08a.2.2,0,0,1-.09-.05Z"/><path class="cls-3" d="M97.55,13.59h0Z"/><path class="cls-3" d="M96.68,14.53h0Z"/><path class="cls-3" d="M97.35,14.74h0Z"/><polygon class="cls-3" points="97.92 14.28 97.93 14.28 98 14.25 97.92 14.28"/><path class="cls-3" d="M98.68,15.26h0S98.69,15.27,98.68,15.26Z"/><path class="cls-3" d="M96.49,14.27c.14-.07.15.12.31,0C96.74,14.3,96.59,14.17,96.49,14.27Z"/><path class="cls-3" d="M97.12,13.94h0Z"/><polygon class="cls-3" points="96.8 14.28 96.8 14.28 96.81 14.27 96.8 14.28"/><path class="cls-3" d="M98.82,14.25l-.07,0Z"/><path class="cls-3" d="M98.5,14.93h0Z"/><path class="cls-3" d="M98.56,13.84s0,0,0,0h0S98.58,13.82,98.56,13.84Z"/><polygon class="cls-3" points="98.41 13.44 98.39 13.47 98.4 13.47 98.41 13.44"/><path class="cls-3" d="M97.27,14.8l0,0Z"/><path class="cls-3" d="M97.17,13.91l0,0h0Z"/><path class="cls-3" d="M97.51,14.24v0Z"/><path class="cls-3" d="M97.62,14.65h0Z"/><path class="cls-3" d="M97.5,14.21l.08-.06,0,0Z"/><path class="cls-3" d="M97.31,14.82Z"/><path class="cls-3" d="M97.2,14.76l.19.1-.15-.08.09.06,0,0,0,0h0l.09,0s0,0,0,0h0l-.05,0s0,0,0,0,0,0,0,0l0,0-.08,0s0,0,0,0h0s0,0,0,0,0-.05,0-.05v0l0-.06v0s0,0,0,0v0a.72.72,0,0,1,0-.14l0,.08c0-.08,0-.06,0,0v-.13a.54.54,0,0,1,0,.08s0-.08,0-.14,0,.07,0,.12c0-.12.09-.28.08-.12v0c0,.06.1-.28.08-.15v0c0,.07.12,0,0,.2.15-.15,0,.13.2-.09-.07.14-.11.17-.16.26s.14-.12.18-.12l-.13.09a.67.67,0,0,1,.14-.09l0,0,0,0h0l.11-.05h.07l-.15,0h0a.42.42,0,0,1-.14-.1.92.92,0,0,1,.12.16l-.1-.13a1.18,1.18,0,0,1,.11.15,1.56,1.56,0,0,1-.13-.19l0,0,0,0s0,0,0,0h0l-.06-.14h0v0s0,0,0,0a.94.94,0,0,1,0,.22s0-.15-.06-.15,0,.11,0,.19a1,1,0,0,1,0-.2l-.08.07a.38.38,0,0,1,0,.1s0-.06,0-.11h0c0,.05,0,0,0-.11s.06-.09,0-.05h0l-.07,0s0,0,.08,0,0,0,0,0c.15,0,0-.06.1,0l0,0,0,0,0-.05c0-.09.08,0,0,.08s.11-.4.07-.23l0,.15,0-.06c.05-.08,0,0,.11-.11l-.06.08c-.08.13,0,0,.08-.07l-.1.13c0,.07.12-.12,0,0l0,0s0,0,.11-.08c0,.05.06,0,0,0,.14-.08-.06.06.14-.05-.2.12-.16.1-.06.07l-.15.07.15,0c-.26.07.23,0-.12.06a.31.31,0,0,1,.25.17c-.22,0,0-.08-.25-.09.09.05.27.12.2.17s-.09,0-.13,0,0,.1.06.19l-.06,0s0,0,.06,0h0a1.49,1.49,0,0,1,.34.18c-.26-.13-.09,0-.42-.14l.12.07a.3.3,0,0,1-.13,0c0,.06.14.08.13.1l-.11-.06c.09,0,.16.11.11.1l0,0s.15.22,0,.19-.06,0-.18-.19l0,0,0,.07s0,.13,0,.09l0-.08v0a.09.09,0,0,0,0,.06c0,.1.1.22,0,.18s0,0-.06-.09h0c0,.06,0,.12,0,.08s0-.26,0-.2a.64.64,0,0,1,0,.15l0-.07h0v0c0-.05,0,0,0,0h0s0,.08,0,0l0,0c.06,0-.07,0-.05-.06s.06,0,.18-.09c0,0-.25,0-.24-.07l0,0c-.24.09.1-.1,0-.08l.11,0c0-.05-.08-.06-.18-.11h.07s0-.07,0-.1a.42.42,0,0,0-.16,0c.37-.1-.22-.17.11-.24h.06l-.06-.06a.85.85,0,0,0-.16,0c-.07,0-.12,0-.11-.06a.53.53,0,0,0,.25,0l-.11,0c.21,0-.23,0-.08-.07h0s-.1-.06-.08-.08.06,0,.17.06-.23-.12-.1-.11l.06.06c.16,0,.12,0,.15,0h0l.08,0h0c-.32-.14,0-.09-.24-.22.19.13.12.05.26.11a.61.61,0,0,1,.13,0c-.11-.07.1,0-.05-.09,0,0,0,0,.12,0s-.08,0-.14-.06.23,0,.06-.16h0l-.48.07c.1,0,.22-.14.32-.14a.45.45,0,0,1-.15.1c0,.06,0,.06,0,.06a.34.34,0,0,0-.11.07s.16-.08.1,0l-.18.08a.63.63,0,0,1,.19,0l-.18.05a.68.68,0,0,0,.22,0l0,0s-.11,0-.13.05,0,0,.08-.06h0c.26-.12-.07-.05-.07-.08l.19-.09-.17.06a.44.44,0,0,1,.18-.11c.06-.08-.08,0,0-.07l0,0h-.07s.11-.1.1-.06c0-.13-.19,0-.09-.1h0l-.28,0c0,.07.13.07.24.19l-.35-.15.13.08s0,0-.08,0,.06,0,.14.09c-.14,0,0,.12-.21,0,.1.06.1,0,.15.07-.24-.09,0,.06-.1.05s0-.07-.16-.08c.2.11-.08,0,0,.1s0,.09.1.16-.13.07-.2.11h0c.18,0,.13.08.17.13a.53.53,0,0,1-.2-.06v0a.14.14,0,0,1,.1.06l-.13,0c0,.06.15.12.06.18.12,0,.35,0,.44,0a.68.68,0,0,1-.22,0s.06,0,0,0l-.12,0s.1,0,.09,0-.07,0-.15,0,0,0,0,0-.07.06-.15.08.14,0,.15,0-.12,0-.17.06,0,.05.15,0-.06,0-.1,0,0,.12.18.06h0c.16,0,0,.18,0,.25h0c.07,0,.07.09.18.08s-.06.07-.12.09.1,0,.06.08-.06,0-.08,0-.07.12.07.09c-.11.05-.11.12-.06.13l.05-.09a.11.11,0,0,1,0,.08l-.15.08c0,.13.13.17.25.16s.2,0,.26.16c.07-.11-.1-.11,0-.23.06,0,.15.28.19.28s.09-.25.2-.22a.41.41,0,0,1-.05-.27.36.36,0,0,1,.15.26s0,0,0,0a.08.08,0,0,0,0,.11V15.7c.06,0,.14,0,.17.09,0-.08,0-.1-.08-.11.13,0,.12-.07.22-.08s-.08-.06-.07-.07,0-.11,0-.18.15.16.15.05.12.1.14.15c0-.14.16-.08.21-.11v.07s0-.06,0-.09l-.11,0s0,0,.08,0-.17-.09-.24-.18,0-.12.13-.06c-.09.07.15,0,.13.15s0,0,0-.06l0,0c.16,0-.15-.11-.12-.18s.17.05.16,0-.15,0-.2-.09,0-.07,0-.09h0c-.08,0-.06,0-.07-.09s0,0,.06,0c-.13-.08.18,0,.1-.11s.16,0,.2,0,.14-.05.06-.13-.09,0-.2-.07l.06.12-.15-.1s.06.08,0,.09a.24.24,0,0,0-.16-.05c.19,0-.08-.09,0-.11l.29,0c.15-.06-.13-.16,0-.25l0,0c-.12,0,0-.06-.06-.09a.47.47,0,0,0,.19,0c-.07,0,0-.1-.19-.09l.13-.07c0-.11-.29,0-.27-.13s.17-.06.25,0,0-.07,0-.05-.15,0-.07-.09-.14,0-.14,0l0,0s-.08,0-.17,0c.25-.21-.08-.17.1-.39a.53.53,0,0,1-.14-.11l0,0c0-.13-.22.18-.19,0s.08,0,.1-.1c.2-.28-.08,0,0-.26h0c0-.15-.14,0-.17,0l0,0a2.43,2.43,0,0,1-.28.31.93.93,0,0,0,.12-.27s-.1.28-.16.35v0a1.72,1.72,0,0,1,.07-.32l.06,0c.06-.24-.08,0-.1,0l0-.11c-.11.09-.17.36-.25.39v.08c-.08.28,0-.12-.08.1v-.25c0,.09-.12.32-.15.4a1.52,1.52,0,0,1,.13-.48.29.29,0,0,0-.13.23s0-.11,0-.08a1,1,0,0,1-.11.39c-.09-.45-.17,0-.37-.18,0,.15-.11.2-.18.3a.63.63,0,0,0-.22.34c.32,0,0,.07.3.09,0,0,0,.06,0,.06a1,1,0,0,0-.21.17c-.1.06-.06,0-.13,0s-.14.09-.22.21c.11-.05.17,0,.13.09a1,1,0,0,1,.13-.15c.17.09-.23.26,0,.35h-.1c.07.06.13.31.34.16,0,0-.07.12-.1.12.09.19.36,0,.38.24l0,.06s.09-.11.1,0,0,.07,0,.08.11-.09.13,0l0,.07c.13.16.25-.13.34-.17a.33.33,0,0,0,.2.33v0c.21,0,.27-.24.37-.4.23.16.36-.12.57-.23,0,0-.14-.09-.14-.13s-.09-.18.1-.1v0c.19,0,.19-.11.21-.23l-.26,0a.25.25,0,0,0,0-.41c-.09-.1-.17-.14-.07-.28-.07,0-.1,0-.18,0l.11-.09a.27.27,0,0,0-.17-.19l.08-.06s-.31.27-.35.25l.13-.17c-.07-.06-.12-.31-.32-.19,0,0,0-.08.06-.08s-.19-.22-.25.07c0-.18-.13,0-.2.05l0-.14c-.08.18-.08.23-.15.29s0-.12,0-.08,0,.14-.1.08l0-.1s0,.06-.06.18-.08,0-.12-.12c0,.09,0,.21,0,.19a.51.51,0,0,1,0-.1c-.09-.06,0,.25-.08.14l0-.09s.06-.06.06-.05a1.18,1.18,0,0,1-.12-.34c0,.12,0,.4,0,.36l0,0v0s0,0,0,0l0,0c-.06-.13,0-.06,0-.07a3,3,0,0,1,.13.3l0,0v0c0,.09.07.18,0,.09l.14.31a2.63,2.63,0,0,1-.16-.57c.07,0,.12,0,.3.08l.11,0s.06.18.09.25a1.5,1.5,0,0,1,0,.41c0,.07.12,0,.18,0s-.07-.12-.08-.17.1.25.31.34.15.09.12.12a.47.47,0,0,1-.19,0c.16.14.31,0,.25.14h.11c.22.23,0,.2-.14.16s-.21-.09,0,.06l-.08,0c.24.17.12,0,.45-.16.07-.06-.05-.08-.14-.12h.16l-.18-.07s0,0,0-.06.29-.15.09-.21l-.09,0c0-.05-.09-.1,0-.12s-.11,0-.06,0l.08,0-.16,0c0-.08.3-.1.28-.2a.44.44,0,0,0-.3,0s0,0-.1.08h0a3,3,0,0,0-.57.29l.15,0-.1,0,0,0c-.09.05,0,0,.06,0l-.11.05.22,0a1.15,1.15,0,0,0-.22.07c.1,0,.19-.07.26-.07-.09.05-.18.07-.09.06l-.12,0c.08,0,0,0,.16,0-.13,0,0,0-.18.05h0s0,0-.16,0c.24,0,.1,0,.22.07h0l-.14,0a1.77,1.77,0,0,1,.31.13l-.36-.14a1.85,1.85,0,0,1,.24.11l-.19-.08c.19.09,0,0,.13.07l-.12-.06Zm-.09-.23h0v0Zm0,0v0l0-.06Zm-.37-.8,0,0v0Z"/><path class="cls-3" d="M96.84,13.92V14l0-.05Z"/><path class="cls-3" d="M96.89,14.73h0Z"/><path class="cls-3" d="M97.45,14.75h0l0,0S97.44,14.76,97.45,14.75Z"/><path class="cls-3" d="M97.37,14.26h0Z"/><path class="cls-3" d="M97.43,14.1h0Z"/><path class="cls-3" d="M97.54,14l-.05,0h0Z"/><path class="cls-3" d="M97.61,14.63h0S97.59,14.61,97.61,14.63Z"/><path class="cls-3" d="M97.59,15.14v-.07S97.57,15.06,97.59,15.14Z"/><polygon class="cls-3" points="97.5 14.24 97.51 14.24 97.51 14.24 97.5 14.24"/><path class="cls-3" d="M97.59,15.07s0,0,0,0S97.6,15.09,97.59,15.07Z"/><path class="cls-3" d="M97.12,14h0Z"/><path class="cls-3" d="M97.13,14h0Z"/><path class="cls-3" d="M97.19,14h0Z"/><path class="cls-3" d="M97.13,13.9l0,0Z"/><path class="cls-3" d="M97.1,13.88s-.08.08,0,.07l0,0C97,14,97.17,13.83,97.1,13.88Z"/><path class="cls-3" d="M97,13.62l.06,0s-.12,0-.12-.07C96.79,13.52,97.09,13.56,97,13.62Z"/><path class="cls-3" d="M96.88,13.77s-.07,0-.1,0S96.83,13.78,96.88,13.77Z"/><path class="cls-3" d="M96.93,15.2l-.11.05S96.86,15.23,96.93,15.2Z"/><path class="cls-3" d="M97.6,15l.06,0-.09.07Z"/><path class="cls-3" d="M97.22,15.86h0Z"/><path class="cls-3" d="M98.55,13.43l-.13.11S98.6,13.44,98.55,13.43Z"/><path class="cls-3" d="M97.62,13.16c0-.1,0-.14-.06,0S97.6,13.19,97.62,13.16Z"/><path class="cls-3" d="M98.67,14.54l0,.05a.31.31,0,0,0,0-.1Z"/><path class="cls-3" d="M101.51,18.41h0Z"/><path class="cls-3" d="M101.81,18.39h-.09s0,0-.11,0h.07c.12,0,.13,0,0,0Z"/><path class="cls-3" d="M102.07,18.17h0Z"/><path class="cls-3" d="M102.16,18h0Z"/><path class="cls-3" d="M102.34,18h0Z"/><path class="cls-3" d="M102.07,18.17h0Z"/><path class="cls-3" d="M101.41,18.36h0Z"/><path class="cls-3" d="M102.21,18.23Z"/><path class="cls-3" d="M102.23,18.28h0Z"/><path class="cls-3" d="M102,18.35h0Z"/><path class="cls-3" d="M102.24,18.2h0Z"/><path class="cls-3" d="M101.18,16.89h0Z"/><path class="cls-3" d="M101.88,16.84Z"/><path class="cls-3" d="M102.52,18Z"/><path class="cls-3" d="M102.42,17.57a3,3,0,0,0-.3,0Z"/><path class="cls-3" d="M101.43,18.36Z"/><path class="cls-3" d="M102.12,17.57Z"/><path class="cls-3" d="M102.44,17.87h0Z"/><path class="cls-3" d="M102.24,17.94h0Z"/><path class="cls-3" d="M102.24,17.83h0Z"/><path class="cls-3" d="M102.24,17.79h0Z"/><path class="cls-3" d="M101.25,17h.12C101.27,17,101.24,17,101.25,17Z"/><path class="cls-3" d="M101.49,18.36h0Z"/><path class="cls-3" d="M101.13,17.83h0Z"/><path class="cls-3" d="M101.27,17.3h0Z"/><path class="cls-3" d="M101.13,17.8h0Z"/><path class="cls-3" d="M101.38,17h0Z"/><path class="cls-3" d="M101,17s.18,0,.29,0h-.1c.15,0,0,0,.19,0h.21s.12,0,0,0h-.21l.15,0a1.46,1.46,0,0,0-.21,0h.06a2.25,2.25,0,0,1-.26,0c-.05,0,.08,0,0,0h.24c.17,0-.43,0-.2,0s.32,0,.21,0h-.19s.27,0,.14,0h-.08c-.15,0,.11,0,.11,0h-.17l.18,0h-.16c.09,0,0,0-.12,0h.07c.13,0,.27,0,.12,0h0c-.06,0,.3,0,.17,0h0c-.06,0,.07,0-.15.05.21,0-.09,0,.2,0l-.3,0h0c.15,0-.17,0,0,0h.12c-.09,0-.09,0-.05,0h-.11s.05,0,.05,0h.09a.65.65,0,0,1-.14,0c.1,0-.16,0,0,0h-.05s.05,0,.06,0h.22s-.15,0-.14,0a1.33,1.33,0,0,0,.2,0h-.21l.13,0h0c.2,0-.37,0-.1,0h0c.21,0,0,0,.11,0-.38,0,0,0-.22,0h.15c.11,0-.13.05-.21.07s.46,0,.25,0h-.17c.2,0,0,0,.16.05h-.08c-.12,0,0,0,.09,0h-.14c-.07,0,.15,0,0,0h-.05c.05,0,0,0,.12,0-.07,0,.06,0,0,0,.15,0-.07,0,.14,0-.22,0-.18,0-.07,0h0c-.27,0,.22,0-.12,0a1,1,0,0,1,.25,0c-.22,0,0,0-.26,0,.1,0,.29,0,.23,0a.56.56,0,0,1-.13,0c.09,0,0,0,.1,0h-.06s0,0,.07,0h0s.26,0,.17,0h0c.09,0,.23,0,.18,0h-.28l.21,0h-.17s.24,0,.13,0h0s.09,0,0,0a1.32,1.32,0,0,0-.2,0s.22,0,.18,0h0c.27,0-.13,0,0,0h-.11s.06,0,.15,0h-.07l-.07,0h.16c-.39,0,.2,0-.12,0h.15c-.21,0,.23,0,.09,0h0a1,1,0,0,1-.17,0s.25,0,.12,0h-.07c-.16,0-.12,0-.15,0h0c.35,0,.06,0,.29,0h-.41c.13,0-.09,0,.09,0h0c.17,0-.2,0,0,0l.34,0h-.18c-.07,0-.05,0,0,0h-.13s.18,0,.1,0h-.19l.18,0h.06c.29,0,0,0,0,0h.24c.1,0-.08,0,0,0H102c.12,0-.16,0,0,0h0a.86.86,0,0,0-.16,0c.14,0-.07,0,.18,0h-.17c.26,0-.05,0,.07,0a1.2,1.2,0,0,0,.19,0c-.23,0,.05,0,0,0s-.07,0-.13,0l.16,0h.07s-.16,0-.07,0h-.22s-.06,0,0,0H102c.06,0-.09,0-.08,0h.15s0,0,0,0h.18a1.19,1.19,0,0,0-.15,0H102c-.15,0,.09,0,0,0h.06s-.09,0,0,0,.08,0,.06,0,.12,0,0,0h0s0,0,0,0h.17c.2,0-.34,0,0,0h-.21l.26,0c.09,0-.24,0-.18,0h0a.72.72,0,0,1,.15,0,.28.28,0,0,0-.13,0c.09,0,0,0,.06,0h-.1c.07,0-.11,0-.14,0s.22,0,.14,0h.21c-.12,0,.07,0,.09,0h-.33c.06,0-.06,0,.1,0-.06,0,.15,0,.18,0s0,0,0,0h0c.15,0-.17,0-.17,0h-.07c.07,0,0,0,0,0h-.06c-.16,0,.16,0,.06,0h.2c-.11,0,.13,0,0,0h-.21l.09,0h-.12a.49.49,0,0,0-.17,0c.18,0-.1,0,0,0h.3c.13,0-.16,0-.08,0h0c-.12,0,0,0-.07,0h.2a1.31,1.31,0,0,0-.19,0h.08c.07,0-.13,0,0,0H102c.31,0,0,0,.24,0l-.07,0h0c.09,0-.28,0-.18,0a.6.6,0,0,1,.15,0c.32,0-.05,0,.14,0h0c.11,0-.12,0-.1,0h.05l-.27,0h.23c.18,0,0,0,0,0h-.19c-.2,0,.11,0,0,0h.2l-.23,0h0c.38,0,.09,0,.39,0-.14,0,.06,0,0,0h0c-.16,0,.26,0,.1,0h.09s0,0-.24,0h.14s-.26,0-.11,0h.08s-.14,0-.07,0h.08s-.13,0-.09,0h.09c.09,0-.21,0-.26,0a1.46,1.46,0,0,0,.33,0h0a1.66,1.66,0,0,0-.27,0c.24,0,.1,0,.23,0h-.19s-.15,0,0,0h0c.19,0,.14,0,.15,0h-.27c.39,0-.14,0,.21,0h0s0,0,0,0h.1s-.41,0-.42,0h.21s.18,0,0,0h.1s.15,0-.14,0c.18,0,0,0-.07,0h-.06c.07,0-.13,0-.06,0h.06c.1,0-.16,0,0,0h.39c-.1,0-.31,0-.25,0h.08c.1,0,0,0,.06,0h-.06a1.57,1.57,0,0,0-.32,0h0c.08,0,.17,0,.14,0h.06c.29,0-.47,0-.09-.05h-.07c.17,0-.16,0,.11-.06.05,0-.07,0-.16,0h0c-.13,0,.37,0,.13,0h-.1s-.06,0,.06,0h-.85c-.1,0,0,0,0,0h.1a1.74,1.74,0,0,0-.23,0,2.4,2.4,0,0,1,.27,0h-.07a.67.67,0,0,1-.19,0h-.11c.24,0,.1,0,.24,0h-.16a.72.72,0,0,1,.19,0h-.16A.76.76,0,0,1,101,17Zm.42.14Zm0,0Zm1,0h0Z"/><path class="cls-3" d="M102.26,17.1h0Z"/><path class="cls-3" d="M102.05,18.17Z"/><polygon class="cls-3" points="101.2 17.29 101.23 17.29 101.2 17.29 101.2 17.29"/><path class="cls-3" d="M101.57,18.24h0Z"/><path class="cls-3" d="M101.53,18.27h0Z"/><path class="cls-3" d="M101.46,18.29h0Z"/><path class="cls-3" d="M101.3,17.94h0Z"/><path class="cls-3" d="M101.63,18h0Z"/><polygon class="cls-3" points="101.13 17.83 101.13 17.83 101.13 17.83 101.13 17.83"/><path class="cls-3" d="M101.56,18Z"/><path class="cls-3" d="M101.4,18.38Z"/><path class="cls-3" d="M101.42,18.38h0Z"/><path class="cls-3" d="M101.47,18.39h0S101.43,18.39,101.47,18.39Z"/><path class="cls-3" d="M101.47,18.35h0Z"/><path class="cls-3" d="M101.45,18.34h0C101.34,18.35,101.54,18.35,101.45,18.34Z"/><path class="cls-3" d="M102.08,18.31h.1C102.34,18.31,102.06,18.32,102.08,18.31Z"/><path class="cls-3" d="M102.16,18.28h0Z"/><path class="cls-3" d="M102.16,18.12h0Z"/><polygon class="cls-3" points="101.5 18.09 101.42 18.09 101.54 18.09 101.5 18.09"/><polygon class="cls-3" points="102.41 18.07 102.43 18.07 102.38 18.07 102.41 18.07"/><path class="cls-3" d="M102.37,17.8h0Z"/><path class="cls-3" d="M102.2,17.68c.08,0,.13,0,.06,0Z"/><polygon class="cls-3" points="102.46 17.32 102.51 17.32 102.47 17.32 102.46 17.32"/><path class="cls-3" d="M106.62,20.67s-.09-.11-.09-.08l.1.13Z"/><path class="cls-3" d="M106.35,20.5a1.2,1.2,0,0,0,.22.31l-.15-.25s0,0,.09.08,0,0,0-.08-.12-.07-.07,0Z"/><path class="cls-3" d="M105.05,21l0,0Z"/><path class="cls-3" d="M104.25,21.23v0S104.24,21.21,104.25,21.23Z"/><path class="cls-3" d="M104.06,21.09h0S104.06,21.08,104.06,21.09Z"/><path class="cls-3" d="M105.05,21l0,0S105,21,105.05,21Z"/><path class="cls-3" d="M106.44,20.94s0,0,0,0v0Z"/><path class="cls-3" d="M105.32,20.73h0l0-.07Z"/><path class="cls-3" d="M105.54,20.57a1,1,0,0,0,.09.17s0-.07,0-.09Z"/><path class="cls-3" d="M106,20.53v0Z"/><path class="cls-3" d="M105.13,20.79l0,0Z"/><path class="cls-3" d="M97.12,21.15v0Z"/><polygon class="cls-3" points="97.23 20.37 97.24 20.37 97.28 20.31 97.23 20.37"/><path class="cls-3" d="M103.78,21Z"/><path class="cls-3" d="M101.52,21.29c0,.12,0,.15,0,.3C101.5,21.53,101.55,21.37,101.52,21.29Z"/><path class="cls-3" d="M106.42,20.93h0S106.42,20.94,106.42,20.93Z"/><polygon class="cls-3" points="101.5 21.59 101.5 21.59 101.5 21.6 101.5 21.59"/><path class="cls-3" d="M103.24,21.19v0Z"/><path class="cls-3" d="M103.7,21.3v0Z"/><path class="cls-3" d="M103.05,21.42s0,0,0,0h0S103,21.39,103.05,21.42Z"/><polygon class="cls-3" points="102.81 21.44 102.82 21.47 102.82 21.46 102.81 21.44"/><path class="cls-3" d="M97.87,21.51l0-.12C97.87,21.48,97.82,21.5,97.87,21.51Z"/><path class="cls-3" d="M106.39,20.88l0,.05h0Z"/><path class="cls-3" d="M103.18,22.52l0,0Z"/><path class="cls-3" d="M99.68,22.16h0S99.68,22.18,99.68,22.16Z"/><path class="cls-3" d="M103,22.54a.41.41,0,0,0,0-.1v0Z"/><path class="cls-3" d="M97.92,21.39Z"/><path class="cls-3" d="M97.51,21.55s.1-.15.16-.24,0,.13-.08.22.16-.16.17-.14l0,.07c.1-.12.09,0,.2-.11v0l.11-.23s.08-.09,0,0,0,0,0,.07l0,0c-.06.16,0,0-.11.16.06,0,.16-.14.16-.09s-.08,0-.11.18v-.08c-.09.25,0,0-.12.24,0,.07.1-.05.13,0a1.28,1.28,0,0,1,.11-.2c.14-.12-.13.41,0,.23s.15-.29.14-.17l-.09.17s.14-.24.14-.1-.06,0-.06.07.07-.09.09-.08l-.06.16c.07,0,.17-.09.25-.09a.25.25,0,0,0-.06.14c.11,0,.15.09.2.21l.08-.12a.29.29,0,0,1,0,.09c0,.06,0-.09.07-.14s0,.09,0,.13.24-.21.25,0l0,0c0,.07.14-.27.14-.13l0,0c.08.09.22,0,.23.22.07-.2.07.12.15-.16,0,.15,0,.2,0,.32s.08-.17.11-.2l0,.15.07-.15,0,.19,0,0s0-.07,0-.11.06.13,0,.2l.12-.1a.54.54,0,0,1-.06.11c.08-.14,0,.16,0,0a.53.53,0,0,1,0-.12c0,.1,0,.11.09.08l0,.1c.07,0,.16,0,.23,0a.37.37,0,0,1,0-.25l0,.16c0-.09,0-.06,0-.18a.47.47,0,0,1,0,.24l0,0,0,.13c0-.1,0,.17.08,0v.05c.07,0,.11,0,.17,0s0-.11.08-.22c0,.05.07.17.13.17s0-.12,0-.2c0,.13,0,.12,0,.21s.09,0,.18-.1a.47.47,0,0,1,0-.12s0,0,0,.11v0c.12-.18.17.39.28.13v0l.09-.14s0,.1,0,.18c.1-.21.13,0,.21-.1,0,.38.18,0,.24.23v-.09c0-.08,0,0,0,.08s0-.09,0-.13.32.13.49.21,0-.46.1-.25l0,.17c.12-.2.25,0,.36-.18,0,0,0,.09,0,.09s.09,0,.09-.1,0,.08,0,.13.05-.15.08,0a.43.43,0,0,1,0,0c0-.06.08,0,0-.13,0,.07.07-.06.12,0,0-.15.08.07.06-.15,0,.22.1.17.11.06,0,.07,0,.07,0,.16s0-.05,0-.16c.1.26.08-.24.17.1a1.29,1.29,0,0,1,.21-.3c0,.23-.08,0,0,.28.06-.11.07-.31.16-.27s0,.1,0,.14.15,0,.19-.15a.06.06,0,0,1,0,.06s0,0,0-.07v0a2.23,2.23,0,0,1,0-.4c0,.3.09.06.14.43a1,1,0,0,0,0-.14.28.28,0,0,1,0,.14c0-.07,0-.17,0-.18s0,.07,0,.13c0-.1,0-.2,0-.17s0,.06,0,.07,0-.28.12-.21,0,.06.1.24l0-.07,0-.08s0-.14.07-.09v.08l0-.06-.06-.05c0-.1-.07-.23,0-.19s0,0,.08.09h0c0-.06,0-.12,0-.09l.07.24c0-.15.06-.07,0-.23a.53.53,0,0,0,0,.15l0-.13a.85.85,0,0,1,.06.13s-.1-.22,0-.14,0,0,0,.05.08-.11.14-.07,0,.06,0,.2c.06-.06.06-.27.14-.25l0,0c-.09-.25.1.1.08,0a.53.53,0,0,0,0,.11c.06,0,.07-.1.1-.2l0,.06c.05.05.08,0,.12,0a.37.37,0,0,0,0-.15c.26.31.06-.26.28,0,0,0,0,.07,0,.06l0-.08a.49.49,0,0,0-.1-.13c0-.07,0-.12,0-.13a.5.5,0,0,0,.13.21l0-.1c.13.16-.11-.2,0-.11l0,.06s0-.12,0-.11,0,.06.07.16-.08-.25,0-.15,0,.05,0,.09.09.08.12.09h0l.08,0,0,0c-.15-.32,0-.1,0-.31.07.2.06.11.14.24a.26.26,0,0,1,.09.09c0-.11.09.06,0-.11,0,0,0,0,.08.1,0,0,0-.07-.08-.12s.2.1.13-.12-.1-.25-.1-.35a.36.36,0,0,1,.09.15c.07,0,.08,0,.06,0a.41.41,0,0,0,.09.1s-.1-.15,0-.11a1.51,1.51,0,0,1,.1.17,1.33,1.33,0,0,0,0-.19.59.59,0,0,1,.1.16.32.32,0,0,0-.06-.22l0,0a.59.59,0,0,1,.09.11c0,.1-.06,0-.09-.05v0c-.19-.21,0,.08-.07.09l-.11-.17.07.16a.59.59,0,0,1-.12-.17c-.08-.06,0,.08-.06,0l0,0,0,.06s-.09-.11-.06-.1,0,.17-.07.05h0c0,.09.09.13.15.3l-.24-.29.08.13s0,0-.06-.06c0,.1,0,.06.09.15-.11-.1,0,.1-.18-.1.06.1.08.06.09.14-.15-.21,0,.06-.1,0s0-.08-.09-.16c.11.2-.07,0-.07,0s0,.09,0,.17-.12-.05-.18-.09l0,0c.09.16,0,.15,0,.2a.77.77,0,0,1-.08-.19l0,0a.3.3,0,0,1,0,.11l-.06-.13s0,.18-.07.12a1.36,1.36,0,0,1,.2.4,1.22,1.22,0,0,1-.1-.2s0,.06,0,0l0-.12s0,.09,0,.09,0-.05-.08-.13,0,0,0,0a.26.26,0,0,1-.11-.12c0,.05.06.12.05.14s-.06-.1-.1-.14,0,0,0,.15l-.06-.1c0,.07-.06.06,0,.19h0c0,.16-.15,0-.17.06l0-.05c0,.07-.06.07,0,.17s-.06-.07-.08-.13,0,.1,0,0,0-.07,0-.07-.09-.1-.07,0c0-.12-.08-.14-.08-.1l.05.08s0,0-.05,0l0-.16c-.13-.16,0,.37-.16.07,0,.11.06.06.09.2s-.14-.23-.15-.22,0,.24,0,.19a.68.68,0,0,1,.07.27.5.5,0,0,1-.11-.28l0,0a.14.14,0,0,0,0-.11l0,.06c0-.05-.07,0-.09-.13a.13.13,0,0,0,0,.12c-.06-.07-.06,0-.12,0s.05.1,0,.1,0,.11,0,.15,0-.21-.07-.12A.42.42,0,0,1,104,21c0,.12-.09-.06-.11-.07v-.05s0,0,0,0l0,.11s0,0,0-.06.06.19.07.3c0-.06,0,.07-.08-.08.06,0,0-.15,0-.19s0,0,0,0v0c-.08-.13,0,.17,0,.18s0-.16,0-.14,0,.14,0,.21,0,.06,0,.06l0,0c0,.09,0,.08,0,.12s0-.05,0-.08c0,.16-.09-.15-.1,0,0-.05,0-.16-.06-.2,0,.12-.06-.11-.08,0a.39.39,0,0,1,0,.21l0-.1v.18s0-.08,0-.06a.29.29,0,0,0,0,.16c-.07-.17,0,.11-.09,0l-.06-.29c-.07-.12,0,.17-.13.11l0,0c0,.12,0,0,0,.08a1.24,1.24,0,0,0-.06-.2c0,.08,0,0,0,.2l0-.12c-.06-.05,0,.28-.07.26a1.19,1.19,0,0,1,0-.26s0,0,0,.06,0,.13-.06,0,0,.15,0,.14v0a.39.39,0,0,0,0,.18c-.09-.3-.14,0-.21-.22a.21.21,0,0,1-.11.08s0-.05,0,0,0,.29-.07.19,0-.09,0-.15c0-.32-.05.05-.1-.13v0c0-.11-.06.12-.1.1v-.05a.46.46,0,0,1-.12.28.67.67,0,0,0,0-.2s0,.21,0,.24a2,2,0,0,1,0-.26h0c0-.18,0,0-.06,0V21.4c-.06,0,0,.22-.11.21v.06c0,.19,0-.11-.06,0v-.2a1,1,0,0,1-.11.23,2.46,2.46,0,0,1,.09-.31s-.07,0-.08.12,0-.07,0,0-.06.23-.1.23c0-.39-.11-.1-.13-.4-.07.14-.13-.07-.21,0,0,.3,0,0,0,.31t0,0l0-.19c0-.09,0-.06,0-.13s0-.13,0-.22c0,.11,0,.16,0,.11l0,.15c-.07.15,0-.26-.1-.11l0-.09c0,.05-.11,0-.16.23a.31.31,0,0,1,0-.14c-.06-.05-.19.24-.22.08v-.07s0,.14,0,.06,0-.07,0-.08,0,.13-.06.08l0-.08c-.06-.11-.14.19-.21.23a.46.46,0,0,0,0-.34v0c-.08,0-.17.16-.26.23,0-.25-.14-.13-.19-.28a.38.38,0,0,1,0,.19c0-.05-.08.14,0-.06h0c0-.2,0-.16,0-.17l-.07.26c0-.39-.22.09-.18-.25,0,.06,0,.05-.08.11l0-.14c0-.05,0-.07-.12-.05l0-.1s-.15.38-.19.38l0-.2c-.06,0-.06-.21-.17-.05a.39.39,0,0,1,0-.09s0-.17-.14.11c.06-.18,0,0-.11,0l0-.13c-.08.16-.1.21-.15.24s0-.11,0-.07-.07.11-.08,0l0-.08s0,0-.09.12,0-.05,0-.17c0,.07-.09.16-.09.11A.19.19,0,0,1,99,21c0-.1-.13.12-.12,0a.2.2,0,0,0,0-.08s.06,0,.06,0a1.06,1.06,0,0,1,.11-.31c-.06.08-.18.26-.19.19l0,0h0s0,0,0,0a.07.07,0,0,0,0,0c0-.1,0-.06,0-.07a1.2,1.2,0,0,0-.09.21l0,0h0v0h0c0,.06-.07.11-.06,0l-.11.2c0-.19.06-.3.1-.41-.08.05-.13,0-.27.22,0,0,0-.07,0-.11s0,0,0-.05-.09,0-.18.15c0-.09.09-.14,0-.14l0-.05c0-.3-.37.35-.29,0,0,0,0,0,0,.06,0-.2-.31,0-.28-.28,0-.06-.06,0-.13.1l.08-.13-.13.12c-.12.08.13-.36-.06-.19l0,.09s-.1,0,0-.09-.06.08,0,0l0-.06-.12.07c0-.07.19-.25.14-.3a.93.93,0,0,0-.21.19.24.24,0,0,1-.06.12l0,0a1.56,1.56,0,0,0-.35.53l.12-.09-.06.1h0c0,.09,0,0,.07,0l-.06.11.17-.15c0,.08-.13.13-.13.19s.1-.18.17-.21-.1.16,0,.1A.31.31,0,0,1,97,21c.06-.05.07,0,.15-.09-.06.12.08,0-.05.2,0,0,.13-.13.15-.12-.17.2.06,0-.11.28.16-.18.14,0,.26-.12s0,0,0,0,0,.1,0,.15a1.21,1.21,0,0,1,.24-.28c-.07.18-.13.19-.22.35.08-.14.13-.11.19-.23a1,1,0,0,1-.08.21c.13-.21,0,0,.13-.14,0,.12-.1.2,0,.16A.32.32,0,0,1,97.51,21.55Zm1,0Zm.08,0h0c0-.05,0-.1,0-.09S98.63,21.57,98.63,21.61Zm.22-1s0,0,0,0h0v0Z"/><path class="cls-3" d="M98.76,20.81h0v0l0,0Z"/><path class="cls-3" d="M105.07,21Z"/><polygon class="cls-3" points="99.58 22.21 99.59 22.17 99.58 22.2 99.58 22.21"/><path class="cls-3" d="M105.66,21.27l0,0Z"/><path class="cls-3" d="M105.84,21.2l0,0Z"/><path class="cls-3" d="M106,21.19l0-.05h0Z"/><path class="cls-3" d="M103.92,22.21h0S103.92,22.24,103.92,22.21Z"/><path class="cls-3" d="M104.49,21.71v.07S104.51,21.79,104.49,21.71Z"/><polygon class="cls-3" points="103.19 22.52 103.19 22.52 103.18 22.52 103.19 22.52"/><path class="cls-3" d="M104.46,21.79s0,0,0,0S104.46,21.77,104.46,21.79Z"/><polygon class="cls-3" points="106.55 20.87 106.56 20.87 106.55 20.85 106.55 20.87"/><path class="cls-3" d="M106.55,20.85v0A0,0,0,0,0,106.55,20.85Z"/><path class="cls-3" d="M106.53,20.79v0S106.56,20.83,106.53,20.79Z"/><path class="cls-3" d="M106.36,20.94l0,0Z"/><path class="cls-3" d="M106.32,21s.09.07.09,0l0,0C106.42,21.05,106.28,20.91,106.32,21Z"/><path class="cls-3" d="M105.77,20.6h.06s-.09-.1-.08-.12C105.61,20.39,105.83,20.59,105.77,20.6Z"/><path class="cls-3" d="M105.61,20.61s0-.07-.06-.1S105.57,20.58,105.61,20.61Z"/><path class="cls-3" d="M104.75,21.05l0-.12S104.72,21,104.75,21.05Z"/><polygon class="cls-3" points="104.81 21.74 104.85 21.8 104.82 21.69 104.81 21.74"/><polygon class="cls-3" points="104.38 20.92 104.39 20.9 104.37 20.95 104.38 20.92"/><path class="cls-3" d="M102.84,21.32l0,.15S102.85,21.27,102.84,21.32Z"/><path class="cls-3" d="M102.15,21.52c0-.08,0-.13-.05-.05S102.14,21.54,102.15,21.52Z"/><polygon class="cls-3" points="100.08 21.03 100.1 20.98 100.06 21.02 100.08 21.03"/><path class="cls-1" d="M41,33.14c-1,5.9-1.34,5.73-1.54,8.34s-.76,9.71,3.85,16.32c.51.74,6.88,9.59,16.94,10.41C76.09,69.51,89.53,50,89.92,38c.14-4.29.31-9.49-2.69-13.89a18.19,18.19,0,0,1-3.08-5.55c-.71-2.27-.43-3.34-1.16-6.25A23.56,23.56,0,0,0,81.07,7.1C78.34,2.44,71,.57,65.86.5a23.67,23.67,0,0,0-16,6.25c-5.18,4.69-6.51,10.41-7.32,13.89C41.67,24.46,42.28,25.3,41,33.14Z"/><ellipse class="cls-2" cx="68.55" cy="25.68" rx="0.96" ry="1.22"/><ellipse class="cls-2" cx="66.43" cy="51.37" rx="1.16" ry="1.22"/><ellipse class="cls-2" cx="63.55" cy="60.23" rx="1.35" ry="1.39"/><ellipse class="cls-2" cx="51.22" cy="43.91" rx="0.96" ry="1.04"/><ellipse class="cls-2" cx="50.07" cy="53.98" rx="0.96" ry="1.04"/><ellipse class="cls-2" cx="75.48" cy="39.91" rx="1.24" ry="0.94" transform="translate(2.37 84.03) rotate(-58.98)"/><ellipse class="cls-2" cx="83.99" cy="30.23" rx="0.81" ry="0.69" transform="translate(9.05 78.73) rotate(-52.71)"/><ellipse class="cls-2" cx="77.83" cy="43.43" rx="0.81" ry="0.69" transform="translate(-3.88 79.03) rotate(-52.71)"/><ellipse class="cls-2" cx="78.21" cy="50.72" rx="0.81" ry="0.69" transform="matrix(0.61, -0.8, 0.8, 0.61, -9.53, 82.21)"/><ellipse class="cls-2" cx="60.11" cy="64.26" rx="0.81" ry="0.69" transform="translate(-27.43 73.15) rotate(-52.71)"/><ellipse class="cls-2" cx="70.51" cy="9.75" rx="0.81" ry="0.69" transform="translate(20.04 59.94) rotate(-52.71)"/><ellipse class="cls-2" cx="59.73" cy="37.18" rx="0.81" ry="0.69" transform="translate(-6.04 62.17) rotate(-52.71)"/><ellipse class="cls-2" cx="49.52" cy="37.18" rx="1.34" ry="1.07" transform="translate(-8.51 58.79) rotate(-57.33)"/><path class="cls-3" d="M65.34,14.07s.14,0,.12,0h-.12Z"/><path class="cls-3" d="M65.63,14a1.28,1.28,0,0,0-.37.07l.28,0s-.05,0-.11,0,0,0,.07,0,.13-.06,0-.07Z"/><path class="cls-3" d="M65,14.75h0Z"/><path class="cls-3" d="M66,15.61s0,0,0,0S66,15.62,66,15.61Z"/><path class="cls-3" d="M66.3,15.6h0Z"/><path class="cls-3" d="M65,14.75l0,0C65,14.78,65,14.77,65,14.75Z"/><path class="cls-3" d="M65.21,14h0Z"/><path class="cls-3" d="M64.83,14.22h0l-.07,0Z"/><path class="cls-3" d="M64.9,13.8s.12.06.18.08L65,13.83Z"/><path class="cls-3" d="M65.65,13.59h0Z"/><path class="cls-3" d="M64.79,14.53h0Z"/><path class="cls-3" d="M65.45,14.74h0Z"/><polygon class="cls-3" points="66.02 14.28 66.03 14.28 66.1 14.25 66.02 14.28"/><path class="cls-3" d="M66.78,15.26h0S66.79,15.27,66.78,15.26Z"/><path class="cls-3" d="M64.59,14.27c.14-.07.15.12.31,0C64.84,14.3,64.69,14.17,64.59,14.27Z"/><path class="cls-3" d="M65.22,13.94Z"/><polygon class="cls-3" points="64.9 14.28 64.9 14.28 64.92 14.27 64.9 14.28"/><path class="cls-3" d="M66.92,14.25l-.06,0Z"/><path class="cls-3" d="M66.61,14.93h0Z"/><path class="cls-3" d="M66.67,13.84s0,0,0,0h0S66.68,13.82,66.67,13.84Z"/><polygon class="cls-3" points="66.51 13.44 66.49 13.47 66.51 13.47 66.51 13.44"/><path class="cls-3" d="M65.37,14.8l0,0Z"/><path class="cls-3" d="M65.27,13.91l0,0h0Z"/><path class="cls-3" d="M65.61,14.24l0,0Z"/><path class="cls-3" d="M65.72,14.65h0Z"/><path class="cls-3" d="M65.6,14.21l.09-.06,0,0Z"/><path class="cls-3" d="M65.42,14.82Z"/><path class="cls-3" d="M65.31,14.76l.18.1-.15-.08.1.06,0,0,0,0h0l.09,0,0,0h0l0,0s0,0,0,0,0,0,0,0l0,0-.08,0s0,0,0,0h0s-.06,0-.06,0,0-.05,0-.05v0s0-.07,0-.06v0l0,0,0,0a.64.64,0,0,1-.06-.14l0,.08c0-.08,0-.06,0,0v-.13a.54.54,0,0,1,0,.08s0-.08,0-.14,0,.07,0,.12c0-.12.09-.28.08-.12v0c0,.06.11-.28.09-.15l0,0c0,.07.12,0,0,.2.15-.15,0,.13.2-.09a1.74,1.74,0,0,1-.16.26,1.11,1.11,0,0,1,.18-.12l-.13.09.14-.09c-.08,0-.06,0,0,0l0,0h0l.11-.05h.07l-.15,0h0a.42.42,0,0,1-.14-.1.92.92,0,0,1,.12.16l-.1-.13a.65.65,0,0,1,.11.15,1.56,1.56,0,0,1-.13-.19l0,0,0,0s0,0,0,0h0l-.06-.14h0v0s0,0,0,0a.6.6,0,0,1,0,.22s0-.15-.06-.15a1.81,1.81,0,0,1,0,.19c0-.12,0-.12,0-.2s0,0-.07.07l0,.1s0-.06,0-.11h0c0,.05,0,0,0-.11s.06-.09,0-.05h0l-.06,0s0,0,.07,0,0,0,0,0c.14,0,0-.06.09,0l0,0s0,0,0,0l0-.05c0-.09.08,0,.05.08s.11-.4.08-.23l-.06.15,0-.06c0-.08,0,0,.11-.11l-.06.08c-.07.13,0,0,.08-.07a.45.45,0,0,1-.1.13c0,.07.12-.12,0,0l0,0s0,0,.11-.08c0,.05.06,0,0,0,.14-.08-.06.06.14-.05-.21.12-.17.1-.06.07l-.16.07.16,0c-.27.07.22,0-.13.06a.3.3,0,0,1,.25.17c-.22,0,0-.08-.25-.09.09.05.27.12.21.17s-.1,0-.13,0,0,.1,0,.19l-.06,0s0,0,.06,0h0a1.3,1.3,0,0,1,.34.18c-.26-.13-.09,0-.42-.14l.12.07a.3.3,0,0,1-.13,0c0,.06.15.08.13.1l-.11-.06c.09,0,.16.11.11.1l-.05,0s.15.22.05.19-.06,0-.18-.19l0,0,.06.07s0,.13,0,.09l0-.08v0a.09.09,0,0,0,0,.06c0,.1.1.22.05.18s0,0-.07-.09h0c0,.06,0,.12,0,.08s0-.26,0-.2,0,0,0,.15l0-.07h0l0,0c0-.05,0,0,0,0h0s0,.08,0,0l0,0c.06,0-.07,0,0-.06s.05,0,.18-.09c-.06,0-.26,0-.25-.07v0c-.25.09.1-.1,0-.08l.12,0c0-.05-.09-.06-.19-.11h.07c.05,0,0-.07.05-.1a.42.42,0,0,0-.16,0c.38-.1-.21-.17.11-.24h.06l0-.06a1,1,0,0,0-.17,0c-.06,0-.11,0-.11-.06a.53.53,0,0,0,.25,0l-.11,0c.21,0-.23,0-.08-.07h.06s-.11-.06-.08-.08,0,0,.16.06-.23-.12-.1-.11,0,0,.07.06.12,0,.15,0h0l.08,0h0c-.32-.14,0-.09-.24-.22.19.13.12.05.26.11a.61.61,0,0,1,.13,0c-.11-.07.1,0,0-.09,0,0,0,0,.12,0s-.08,0-.13-.06.22,0,0-.16h0l-.48.07c.1,0,.22-.14.32-.14a.45.45,0,0,1-.15.1c0,.06,0,.06,0,.06a.34.34,0,0,0-.11.07s.16-.08.11,0l-.18.08a.52.52,0,0,1,.18,0l-.17.05a.63.63,0,0,0,.21,0l0,0s-.1,0-.13.05,0,0,.08-.06h0c.26-.12-.08-.05-.07-.08l.18-.09a1,1,0,0,0-.16.06.41.41,0,0,1,.17-.11c.07-.08-.08,0,0-.07l0,0h-.07s.11-.1.1-.06c0-.13-.19,0-.09-.1h0l-.28,0c0,.07.13.07.24.19l-.35-.15.13.08s0,0-.08,0,.07,0,.14.09c-.14,0,0,.12-.21,0,.1.06.1,0,.16.07-.25-.09,0,.06-.1.05s0-.07-.17-.08c.2.11-.08,0-.05.1.18.06.05.09.1.16s-.13.07-.2.11h0c.18,0,.14.08.17.13a.53.53,0,0,1-.2-.06v0c.06,0,.09,0,.1.06l-.13,0c0,.06.15.12.06.18.13,0,.36,0,.44,0a.68.68,0,0,1-.22,0s.06,0,0,0l-.12,0s.1,0,.09,0-.07,0-.15,0,0,0,0,0a.3.3,0,0,1-.15.08s.13,0,.14,0-.12,0-.16.06,0,.05.15,0c0,0-.07,0-.11,0s0,.12.19.06h0c.16,0,0,.18,0,.25h0c.07,0,.08.09.18.08s-.06.07-.12.09.1,0,.06.08-.06,0-.08,0-.07.12.08.09c-.12.05-.12.12-.07.13l0-.09a.11.11,0,0,1,0,.08l-.14.08c0,.13.12.17.24.16s.21,0,.26.16c.07-.11-.1-.11,0-.23.07,0,.15.28.19.28s.09-.25.2-.22a.41.41,0,0,1,0-.27s.17.19.15.26,0,0,0,0a.08.08,0,0,0,0,.11V15.7c.06,0,.15,0,.17.09,0-.08,0-.1-.07-.11.12,0,.12-.07.22-.08s-.09-.06-.08-.07,0-.11,0-.18.14.16.14.05.13.1.15.15c0-.14.15-.08.2-.11v.07a.2.2,0,0,1,0-.09l-.11,0s0,0,.09,0-.18-.09-.25-.18,0-.12.13-.06c-.09.07.16,0,.13.15s0,0,0-.06l0,0c.16,0-.15-.11-.11-.18s.16.05.15,0-.15,0-.2-.09,0-.07,0-.09h0c-.08,0-.07,0-.08-.09s0,0,.07,0c-.14-.08.17,0,.09-.11s.16,0,.21,0,.13-.05,0-.13-.09,0-.2-.07l.06.12-.15-.1s.06.08,0,.09a.21.21,0,0,0-.15-.05c.18,0-.09-.09,0-.11l.3,0c.14-.06-.13-.16,0-.25l-.06,0c-.11,0,0-.06-.06-.09a.53.53,0,0,0,.2,0c-.07,0,0-.1-.2-.09l.13-.07c0-.11-.29,0-.27-.13s.17-.06.26,0,0-.07-.06-.05-.15,0-.06-.09-.15,0-.14,0l0,0s-.07,0-.17,0c.26-.21-.08-.17.1-.39a.53.53,0,0,1-.14-.11l0,0c0-.13-.21.18-.19,0s.08,0,.11-.1c.2-.28-.09,0,0-.26h0c0-.15-.14,0-.17,0l0,0a3.91,3.91,0,0,1-.27.31A2.21,2.21,0,0,0,66,13s-.11.28-.17.35v0c0-.08,0-.15.07-.32L66,13c.06-.24-.08,0-.09,0l0-.11c-.1.09-.17.36-.24.39v.08c-.08.28,0-.12-.08.1v-.25c0,.09-.12.32-.15.4a1.52,1.52,0,0,1,.13-.48.32.32,0,0,0-.13.23s0-.11,0-.08c0,.22-.06.35-.11.39-.09-.45-.17,0-.37-.18a.61.61,0,0,1-.18.3.63.63,0,0,0-.22.34c.33,0,0,.07.3.09,0,0,0,.06,0,.06a1,1,0,0,0-.21.17c-.09.06-.06,0-.13,0s-.14.09-.21.21c.1-.05.16,0,.12.09l.13-.15c.17.09-.23.26,0,.35h-.11c.07.06.13.31.34.16,0,0-.06.12-.1.12.09.19.36,0,.38.24l0,.06s.08-.11.09,0,0,.07,0,.08.1-.09.12,0l0,.07c.13.16.25-.13.35-.17a.32.32,0,0,0,.19.33v0c.2,0,.26-.24.36-.4.23.16.36-.12.57-.23,0,0-.14-.09-.14-.13s-.09-.18.1-.1v0c.2,0,.2-.11.21-.23l-.26,0a.25.25,0,0,0,0-.41c-.09-.1-.17-.14-.06-.28-.08,0-.11,0-.18,0l.1-.09a.28.28,0,0,0-.16-.19l.08-.06s-.32.27-.35.25l.12-.17c-.07-.06-.12-.31-.32-.19,0,0,0-.08.06-.08s-.19-.22-.25.07c0-.18-.13,0-.19.05l0-.14c-.08.18-.09.23-.15.29s0-.12,0-.08,0,.14-.1.08v-.1c-.05,0,0,.06-.06.18s-.08,0-.11-.12c0,.09,0,.21,0,.19a.51.51,0,0,1,0-.1c-.09-.06,0,.25-.08.14l0-.09s.06-.06.06-.05a1.18,1.18,0,0,1-.12-.34c0,.12.05.4,0,.36l0,0v0s0,0,0,0l0,0c0-.13,0-.06,0-.07A3,3,0,0,1,65,14l0,0v0s0,0,0,0L65,14l.14.31a2.63,2.63,0,0,1-.16-.57c.07,0,.12,0,.3.08l.12,0s.06.18.08.25a2.32,2.32,0,0,1,.06.41c0,.07.11,0,.17,0s-.07-.12-.08-.17.1.25.31.34c.06.05.15.09.12.12a.44.44,0,0,1-.19,0c.16.14.32,0,.26.14h.1c.22.23,0,.2-.13.16s-.22-.09,0,.06l-.09,0c.24.17.12,0,.45-.16.07-.06,0-.08-.13-.12h.15l-.18-.07s0,0,0-.06.28-.15.09-.21l-.1,0c0-.05-.08-.1,0-.12s-.11,0-.06,0l.08,0-.16,0c0-.08.3-.1.28-.2a.45.45,0,0,0-.3,0s0,0-.1.08h0a2.89,2.89,0,0,0-.56.29l.14,0-.1,0,0,0c-.09.05,0,0,.06,0l-.11.05.22,0a1.15,1.15,0,0,0-.22.07c.1,0,.19-.07.27-.07-.1.05-.19.07-.09.06l-.13,0c.08,0,0,0,.16,0-.12,0,0,0-.18.05h.06s0,0-.17,0c.24,0,.11,0,.23.07h0l-.13,0a2,2,0,0,1,.3.13c-.18-.06-.19-.08-.35-.14a1.67,1.67,0,0,1,.23.11l-.19-.08c.19.09,0,0,.13.07l-.12-.06Zm-.1-.23h0v0Zm0,0v0l0-.06Zm-.38-.8s0,0,0,0v0Z"/><path class="cls-3" d="M64.94,13.92V14l0-.05Z"/><path class="cls-3" d="M65,14.73h0Z"/><path class="cls-3" d="M65.55,14.75h0l0,0S65.54,14.76,65.55,14.75Z"/><path class="cls-3" d="M65.47,14.26h0Z"/><path class="cls-3" d="M65.54,14.1h0Z"/><path class="cls-3" d="M65.64,14l0,0h0Z"/><path class="cls-3" d="M65.71,14.63h0S65.7,14.61,65.71,14.63Z"/><path class="cls-3" d="M65.69,15.14v-.07S65.67,15.06,65.69,15.14Z"/><polygon class="cls-3" points="65.61 14.24 65.61 14.24 65.61 14.24 65.61 14.24"/><path class="cls-3" d="M65.7,15.07s0,0,0,0S65.7,15.09,65.7,15.07Z"/><path class="cls-3" d="M65.22,14h0Z"/><path class="cls-3" d="M65.23,14h0Z"/><path class="cls-3" d="M65.29,14h0Z"/><path class="cls-3" d="M65.23,13.9l0,0Z"/><path class="cls-3" d="M65.2,13.88s-.07.08,0,.07l0,0C65.13,14,65.27,13.83,65.2,13.88Z"/><path class="cls-3" d="M65.13,13.62l.07,0c-.06,0-.13,0-.13-.07C64.89,13.52,65.19,13.56,65.13,13.62Z"/><path class="cls-3" d="M65,13.77s-.08,0-.11,0S64.93,13.78,65,13.77Z"/><path class="cls-3" d="M65,15.2l-.11.05S65,15.23,65,15.2Z"/><path class="cls-3" d="M65.71,15l.06,0-.1.07Z"/><path class="cls-3" d="M65.33,15.86h0Z"/><path class="cls-3" d="M66.65,13.43l-.13.11S66.71,13.44,66.65,13.43Z"/><path class="cls-3" d="M65.72,13.16c0-.1,0-.14-.06,0S65.7,13.19,65.72,13.16Z"/><path class="cls-3" d="M66.77,14.54a.12.12,0,0,1,0,.05.31.31,0,0,0,0-.1Z"/><path class="cls-3" d="M56.26,14.07s.14,0,.12,0h-.12Z"/><path class="cls-3" d="M56.55,14a1.28,1.28,0,0,0-.37.07l.29,0s0,0-.11,0,0,0,.07,0,.12-.06,0-.07Z"/><path class="cls-3" d="M55.9,14.75h0Z"/><path class="cls-3" d="M56.88,15.61s0,0,0,0S56.89,15.62,56.88,15.61Z"/><path class="cls-3" d="M57.22,15.6h0Z"/><path class="cls-3" d="M55.9,14.75l0,0S55.89,14.77,55.9,14.75Z"/><path class="cls-3" d="M56.13,14h0Z"/><path class="cls-3" d="M55.75,14.22h0l-.06,0Z"/><path class="cls-3" d="M55.82,13.8s.13.06.18.08a.21.21,0,0,1-.08-.05Z"/><path class="cls-3" d="M56.57,13.59h0Z"/><path class="cls-3" d="M55.71,14.53h0Z"/><path class="cls-3" d="M56.37,14.74h0Z"/><polygon class="cls-3" points="56.95 14.28 56.95 14.28 57.03 14.25 56.95 14.28"/><path class="cls-3" d="M57.7,15.26Z"/><path class="cls-3" d="M55.52,14.27c.13-.07.15.12.3,0C55.76,14.3,55.61,14.17,55.52,14.27Z"/><path class="cls-3" d="M56.14,13.94Z"/><polygon class="cls-3" points="55.82 14.28 55.82 14.28 55.84 14.27 55.82 14.28"/><path class="cls-3" d="M57.84,14.25l-.06,0Z"/><path class="cls-3" d="M57.53,14.93h0Z"/><path class="cls-3" d="M57.59,13.84s0,0,0,0h0S57.61,13.82,57.59,13.84Z"/><polygon class="cls-3" points="57.44 13.44 57.42 13.47 57.43 13.47 57.44 13.44"/><path class="cls-3" d="M56.29,14.8l.05,0Z"/><path class="cls-3" d="M56.2,13.91l-.06,0h0Z"/><path class="cls-3" d="M56.53,14.24l0,0Z"/><path class="cls-3" d="M56.64,14.65h0Z"/><path class="cls-3" d="M56.52,14.21l.09-.06,0,0Z"/><path class="cls-3" d="M56.34,14.82Z"/><path class="cls-3" d="M56.23,14.76l.18.1-.15-.08.1.06,0,0,0,0h0l.09,0,0,0h0l0,0,0,0s0,0,0,0l0,0-.07,0s0,0,0,0h0s-.06,0-.05,0,0-.05,0-.05v0s0-.07,0-.06l0,0s0,0,0,0l0,0a.64.64,0,0,1-.06-.14l0,.08c0-.08,0-.06,0,0v-.13a.54.54,0,0,1,0,.08s0-.08,0-.14a.84.84,0,0,1,0,.12c0-.12.08-.28.08-.12l0,0c0,.06.11-.28.09-.15v0c0,.07.11,0,0,.2.15-.15,0,.13.2-.09a1.82,1.82,0,0,1-.15.26s.14-.12.17-.12l-.12.09a1,1,0,0,1,.13-.09l0,0,0,0h0l.1-.05h.07l-.15,0h0a.42.42,0,0,1-.14-.1.86.86,0,0,1,.13.16l-.1-.13c0,.08,0,0,.11.15a1.56,1.56,0,0,1-.14-.19l0,0,0,0s0,0,0,0h0l-.07-.14h0v.05c0,.14,0,.11,0,.22s0-.15-.06-.15a1,1,0,0,0,0,.19,1.09,1.09,0,0,1,0-.2l-.07.07a.38.38,0,0,0,0,.1s0-.06,0-.11h0c0,.05,0,0,0-.11s.07-.09,0-.05h0l-.06,0s0,0,.08,0,0,0,0,0c.15,0,0-.06.1,0l0,0,0,0s0,0,0-.05.08,0,0,.08.11-.4.08-.23l0,.15,0-.06c.06-.08,0,0,.12-.11l-.06.08c-.08.13,0,0,.07-.07a.45.45,0,0,1-.1.13c0,.07.13-.12,0,0l0,0c.05,0,0,0,.1-.08,0,.05.07,0,0,0,.14-.08-.06.06.14-.05-.21.12-.16.1-.06.07l-.16.07.16,0c-.26.07.22,0-.12.06a.3.3,0,0,1,.24.17c-.22,0,0-.08-.25-.09.09.05.28.12.21.17s-.09,0-.13,0,0,.1,0,.19l0,0s0,0,0,0h0a1.39,1.39,0,0,1,.35.18c-.27-.13-.1,0-.43-.14l.12.07a.24.24,0,0,1-.12,0c0,.06.14.08.13.1l-.11-.06c.08,0,.16.11.11.1l-.06,0s.16.22.05.19-.06,0-.17-.19l0,0,.06.07s0,.13,0,.09l0-.08v0a.15.15,0,0,0,0,.06c0,.1.1.22,0,.18s0,0-.07-.09h0c0,.06,0,.12,0,.08s0-.26,0-.2,0,0,0,.15l0-.07h0l0,0v0h0l0,0,0,0s-.08,0,0-.06.06,0,.18-.09c-.05,0-.26,0-.25-.07v0c-.25.09.1-.1,0-.08l.11,0c0-.05-.09-.06-.19-.11h.07c.06,0,0-.07.05-.1a.42.42,0,0,0-.16,0c.38-.1-.21-.17.12-.24h0l0-.06a.84.84,0,0,0-.16,0c-.07,0-.12,0-.12-.06a.54.54,0,0,0,.25,0l-.11,0c.21,0-.23,0-.08-.07h.06s-.1-.06-.08-.08.06,0,.16.06-.23-.12-.09-.11l.06.06c.16,0,.12,0,.15,0h0l.08,0h0c-.32-.14,0-.09-.23-.22.18.13.11.05.25.11a.61.61,0,0,1,.13,0c-.1-.07.1,0,0-.09,0,0,0,0,.12,0s-.08,0-.13-.06.22,0,.05-.16h0l-.48.07c.09,0,.22-.14.31-.14a.45.45,0,0,1-.14.1c0,.06,0,.06,0,.06s-.06,0-.11.07.16-.08.11,0l-.18.08a.62.62,0,0,1,.18,0l-.17.05a.68.68,0,0,0,.22,0l0,0s-.11,0-.14.05,0,0,.08-.06h0c.26-.12-.07-.05-.07-.08l.19-.09a.85.85,0,0,0-.17.06.41.41,0,0,1,.17-.11c.07-.08-.08,0,0-.07l0,0H56.5s.11-.1.1-.06c0-.13-.18,0-.08-.1h0l-.29,0c0,.07.13.07.24.19l-.34-.15.13.08s0,0-.08,0,.06,0,.14.09c-.14,0,0,.12-.21,0,.1.06.09,0,.15.07-.24-.09,0,.06-.1.05s0-.07-.17-.08c.21.11-.07,0,0,.1s0,.09.09.16-.12.07-.19.11h0c.17,0,.13.08.16.13a.47.47,0,0,1-.19-.06v0a.15.15,0,0,1,.11.06l-.14,0c0,.06.16.12.06.18.13,0,.36,0,.44,0a.62.62,0,0,1-.21,0s.05,0,0,0l-.12,0c-.05,0,.1,0,.09,0s-.07,0-.15,0,0,0,0,0a.3.3,0,0,1-.15.08.24.24,0,0,1,.15,0c0,.05-.12,0-.17.06s0,.05.15,0c0,0-.07,0-.11,0s0,.12.19.06h0c.15,0,0,.18,0,.25h0c.06,0,.07.09.18.08a.33.33,0,0,1-.12.09s.1,0,0,.08-.06,0-.07,0-.08.12.07.09c-.12.05-.11.12-.07.13l.06-.09s0,0,0,.08l-.14.08c0,.13.12.17.24.16s.21,0,.26.16c.08-.11-.1-.11,0-.23.06,0,.14.28.19.28s.09-.25.2-.22a.42.42,0,0,1-.06-.27c.05,0,.17.19.15.26s0,0,0,0a.07.07,0,0,0,0,.11l0-.06c.06,0,.15,0,.18.09,0-.08,0-.1-.08-.11.12,0,.12-.07.22-.08s-.09-.06-.08-.07,0-.11,0-.18.15.16.14.05.13.1.15.15c0-.14.16-.08.2-.11l0,.07a.09.09,0,0,1,0-.09l-.12,0s0,0,.09,0-.18-.09-.25-.18,0-.12.13-.06c-.08.07.16,0,.14.15a0,0,0,0,1,0-.06l0,0c.16,0-.14-.11-.11-.18s.16.05.15,0-.14,0-.2-.09c.09,0,0-.07,0-.09h0c-.08,0-.06,0-.08-.09s0,0,.07,0c-.14-.08.18,0,.09-.11.07,0,.16,0,.21,0-.1-.09.13-.05.06-.13s-.1,0-.2-.07l.06.12-.16-.1s.06.08,0,.09a.24.24,0,0,0-.16-.05c.18,0-.09-.09,0-.11l.29,0c.14-.06-.13-.16,0-.25l-.06,0c-.11,0,0-.06-.06-.09a.53.53,0,0,0,.2,0c-.07,0,0-.1-.19-.09l.12-.07c0-.11-.29,0-.26-.13s.16-.06.25,0,0-.07-.06-.05-.14,0-.06-.09-.14,0-.14,0l0,0s-.07,0-.16,0c.25-.21-.08-.17.1-.39a.58.58,0,0,1-.15-.11l0,0c0-.13-.21.18-.18,0s.08,0,.1-.1c.2-.28-.08,0,0-.26h0c0-.15-.13,0-.16,0l0,0a1.89,1.89,0,0,1-.27.31,1.31,1.31,0,0,0,.12-.27s-.11.28-.17.35v0c0-.08,0-.15.07-.32l.06,0c.06-.24-.08,0-.09,0l0-.11c-.11.09-.18.36-.25.39v.08c-.08.28,0-.12-.08.1l0-.25c0,.09-.12.32-.16.4a1.29,1.29,0,0,1,.14-.48.29.29,0,0,0-.14.23s0-.11,0-.08c0,.22-.06.35-.11.39-.08-.45-.16,0-.37-.18,0,.15-.1.2-.18.3a.57.57,0,0,0-.21.34c.32,0,0,.07.29.09,0,0,0,.06,0,.06a1,1,0,0,0-.2.17c-.1.06-.07,0-.14,0s-.13.09-.21.21c.11-.05.16,0,.13.09a.64.64,0,0,1,.13-.15c.16.09-.24.26,0,.35h-.1c.06.06.12.31.34.16,0,0-.07.12-.1.12.08.19.35,0,.38.24l0,.06s.09-.11.09,0,0,.07,0,.08.1-.09.12,0l0,.07c.12.16.25-.13.34-.17a.33.33,0,0,0,.2.33v0c.2,0,.26-.24.37-.4.22.16.35-.12.57-.23-.05,0-.14-.09-.15-.13s-.08-.18.1-.1v0c.2,0,.2-.11.22-.23l-.27,0a.25.25,0,0,0,0-.41c-.09-.1-.18-.14-.07-.28-.08,0-.11,0-.18,0l.1-.09c0-.1-.06-.15-.16-.19l.08-.06s-.31.27-.35.25l.12-.17c-.06-.06-.12-.31-.32-.19,0,0,0-.08.07-.08s-.2-.22-.25.07c.05-.18-.13,0-.2.05l0-.14c-.08.18-.08.23-.15.29s0-.12,0-.08,0,.14-.1.08l0-.1c-.06,0,0,.06-.06.18s-.08,0-.12-.12c0,.09,0,.21,0,.19a.27.27,0,0,1,0-.1c-.09-.06,0,.25-.08.14a.29.29,0,0,1,0-.09l.05-.05a1.22,1.22,0,0,1-.11-.34c0,.12,0,.4,0,.36l0,0v0s0,0,0,0l0,0c-.06-.13,0-.06,0-.07.07.18.07.16.12.3l0,0v0a.06.06,0,0,1,0,0c0,.09.07.18,0,.09l.13.31a3.24,3.24,0,0,1-.15-.57c.06,0,.12,0,.29.08l.12,0s.06.18.08.25a1.64,1.64,0,0,1,.06.41c0,.07.12,0,.18,0s-.08-.12-.08-.17.09.25.3.34.16.09.12.12a.42.42,0,0,1-.18,0c.15.14.31,0,.25.14h.1c.22.23,0,.2-.13.16s-.21-.09.05.06l-.09,0c.24.17.13,0,.45-.16.07-.06,0-.08-.13-.12h.15l-.17-.07s0,0,0-.06.28-.15.09-.21l-.1,0c0-.05-.08-.1,0-.12s-.1,0,0,0l.07,0-.15,0c0-.08.3-.1.27-.2a.42.42,0,0,0-.29,0s0,0-.11.08h0a2.89,2.89,0,0,0-.56.29l.14,0-.1,0v0c-.1.05,0,0,.06,0l-.12.05.22,0a1.27,1.27,0,0,0-.21.07c.1,0,.19-.07.26-.07-.1.05-.18.07-.09.06l-.12,0a.4.4,0,0,0,.16,0c-.13,0,0,0-.18.05h.05s0,0-.17,0c.24,0,.11,0,.23.07h0l-.14,0a2,2,0,0,1,.3.13l-.35-.14a1.67,1.67,0,0,1,.23.11l-.18-.08.13.07-.13-.06Zm-.1-.23h0v0Zm0,0v0l0-.06S56.12,14.46,56.13,14.48Zm-.37-.8,0,0v0Z"/><path class="cls-3" d="M55.86,13.92v0l0,0,0-.05Z"/><path class="cls-3" d="M55.92,14.73h0Z"/><path class="cls-3" d="M56.48,14.75h0l0,0Z"/><path class="cls-3" d="M56.39,14.26h0Z"/><path class="cls-3" d="M56.46,14.1h0Z"/><path class="cls-3" d="M56.57,14l-.06,0h0Z"/><path class="cls-3" d="M56.64,14.63h0Z"/><path class="cls-3" d="M56.61,15.14v-.07S56.6,15.06,56.61,15.14Z"/><polygon class="cls-3" points="56.53 14.24 56.53 14.24 56.53 14.24 56.53 14.24"/><path class="cls-3" d="M56.62,15.07s0,0,0,0S56.62,15.09,56.62,15.07Z"/><path class="cls-3" d="M56.14,14Z"/><path class="cls-3" d="M56.16,14h0Z"/><path class="cls-3" d="M56.21,14h0Z"/><path class="cls-3" d="M56.16,13.9l0,0Z"/><path class="cls-3" d="M56.12,13.88s-.07.08,0,.07l0,0C56.05,14,56.2,13.83,56.12,13.88Z"/><path class="cls-3" d="M56.06,13.62l.06,0s-.12,0-.12-.07C55.82,13.52,56.11,13.56,56.06,13.62Z"/><path class="cls-3" d="M55.91,13.77s-.07,0-.1,0S55.86,13.78,55.91,13.77Z"/><path class="cls-3" d="M56,15.2l-.12.05S55.89,15.23,56,15.2Z"/><path class="cls-3" d="M56.63,15l.06,0-.1.07Z"/><path class="cls-3" d="M56.25,15.86h0Z"/><path class="cls-3" d="M57.57,13.43l-.12.11S57.63,13.44,57.57,13.43Z"/><path class="cls-3" d="M56.64,13.16c0-.1,0-.14,0,0S56.62,13.19,56.64,13.16Z"/><path class="cls-3" d="M57.69,14.54l.06.05a.93.93,0,0,1,0-.1Z"/><path class="cls-3" d="M60.53,18.41h0Z"/><path class="cls-3" d="M60.84,18.39h-.09s-.06,0-.12,0h.07c.13,0,.13,0,0,0Z"/><path class="cls-3" d="M61.1,18.17h0Z"/><path class="cls-3" d="M61.19,18h0Z"/><path class="cls-3" d="M61.37,18h0Z"/><path class="cls-3" d="M61.1,18.17h0Z"/><path class="cls-3" d="M60.44,18.36h0Z"/><path class="cls-3" d="M61.23,18.23Z"/><path class="cls-3" d="M61.26,18.28h0Z"/><path class="cls-3" d="M61,18.35h0Z"/><path class="cls-3" d="M61.26,18.2h0Z"/><path class="cls-3" d="M60.21,16.89h0Z"/><path class="cls-3" d="M60.9,16.84h0Z"/><path class="cls-3" d="M61.55,18Z"/><path class="cls-3" d="M61.45,17.57c-.13,0-.17,0-.3,0Z"/><path class="cls-3" d="M60.46,18.36Z"/><path class="cls-3" d="M61.15,17.57h0Z"/><path class="cls-3" d="M61.47,17.87h0Z"/><path class="cls-3" d="M61.27,17.94h0Z"/><path class="cls-3" d="M61.27,17.83h0Z"/><path class="cls-3" d="M61.27,17.79h0Z"/><path class="cls-3" d="M60.27,17h.13C60.3,17,60.26,17,60.27,17Z"/><path class="cls-3" d="M60.52,18.36h0Z"/><path class="cls-3" d="M60.16,17.83h0Z"/><path class="cls-3" d="M60.29,17.3h0Z"/><path class="cls-3" d="M60.16,17.8h0Z"/><path class="cls-3" d="M60.4,17Z"/><path class="cls-3" d="M60.07,17s.18,0,.28,0h-.1c.15,0,0,0,.2,0h.2s.12,0,0,0h-.22l.15,0a1.46,1.46,0,0,0-.21,0h.07a2.42,2.42,0,0,1-.27,0c-.05,0,.09,0,0,0h.23c.17,0-.43,0-.2,0s.33,0,.22,0h-.2s.28,0,.15,0h-.09c-.15,0,.11,0,.11,0h-.17l.18,0h-.15c.08,0,0,0-.12,0h.07c.12,0,.27,0,.11,0h0c-.06,0,.3,0,.16,0h0c-.07,0,.07,0-.16.05.22,0-.09,0,.21,0l-.3,0h0c.16,0-.16,0,0,0h.13c-.1,0-.1,0-.06,0h-.11s.06,0,.05,0h.1a.65.65,0,0,1-.14,0c.1,0-.16,0,0,0h-.05s.06,0,.07,0h.22s-.16,0-.15,0a1.46,1.46,0,0,0,.21,0h-.21l.13,0h0c.19,0-.37,0-.11,0h-.05c.22,0,0,0,.11,0-.37,0,0,0-.21,0h.15c.1,0-.13.05-.21.07s.46,0,.24,0h-.16c.2,0,0,0,.16.05h-.09c-.12,0,0,0,.1,0h-.14c-.07,0,.15,0,0,0h-.05a.73.73,0,0,0,.13,0c-.07,0,.06,0,0,0,.15,0-.08,0,.14,0-.23,0-.18,0-.08,0h0c-.27,0,.22,0-.13,0a1.18,1.18,0,0,1,.26,0c-.23,0,0,0-.26,0,.09,0,.28,0,.23,0a.65.65,0,0,1-.14,0c.1,0,0,0,.11,0h-.06s0,0,.06,0h0s.26,0,.16,0h0c.1,0,.24,0,.19,0h-.29l.21,0h-.17s.24,0,.14,0h0s.08,0,0,0a1.46,1.46,0,0,0-.21,0s.23,0,.18,0h0c.26,0-.14,0,0,0H60.5s.07,0,.15,0h-.07l-.06,0h.15c-.39,0,.21,0-.11,0h.14c-.2,0,.23,0,.1,0h0a1,1,0,0,1-.17,0s.25,0,.12,0H60.7c-.15,0-.12,0-.14,0h0c.35,0,.07,0,.3,0h-.41c.12,0-.1,0,.08,0h0c.17,0-.2,0,0,0l.34,0h-.18c-.07,0-.06,0,0,0h-.14s.18,0,.11,0h-.2l.18,0h.06c.29,0,0,0,0,0h.23c.1,0-.07,0,0,0h.09c.12,0-.15,0,0,0h0a1,1,0,0,0-.17,0c.14,0-.06,0,.18,0h-.17c.26,0,0,0,.08,0a1.08,1.08,0,0,0,.18,0c-.23,0,.05,0,0,0s-.08,0-.14,0l.17,0h.07s-.16,0-.07,0H61s-.06,0,0,0h.12c.05,0-.1,0-.09,0h.15s0,0,0,0h.17a.79.79,0,0,0-.14,0h-.08c-.15,0,.08,0,0,0h.06s-.1,0,0,0,.07,0,.06,0,.12,0,0,0h0s0,0,0,0h.17c.2,0-.35,0,0,0h-.22l.26,0c.1,0-.24,0-.18,0h0a.84.84,0,0,1,.16,0,.28.28,0,0,0-.13,0c.08,0,0,0,.06,0h-.1c.07,0-.12,0-.14,0s.21,0,.14,0h.2c-.11,0,.08,0,.1,0h-.33c.06,0-.07,0,.09,0,0,0,.16,0,.19,0s0,0,0,0h0c.14,0-.18,0-.17,0h-.07c.07,0-.05,0,0,0h-.06c-.16,0,.16,0,0,0h.21c-.12,0,.12,0,0,0h-.21l.08,0h-.11a.49.49,0,0,0-.17,0c.18,0-.11,0,0,0h.29c.13,0-.15,0-.08,0h0c-.12,0,0,0-.06,0h.19a1.31,1.31,0,0,0-.19,0h.09c.06,0-.13,0,0,0H61c.3,0,0,0,.24,0,0,0-.07,0-.07,0h0c.1,0-.28,0-.18,0a.57.57,0,0,1,.15,0c.33,0,0,0,.15,0h0c.11,0-.13,0-.1,0h0l-.26,0h.23c.17,0,0,0,0,0h-.19c-.19,0,.11,0,0,0h.19l-.22,0h0c.38,0,.1,0,.4,0-.15,0,.06,0,0,0h0c-.16,0,.25,0,.09,0h.1c-.06,0,0,0-.24,0h.14s-.26,0-.11,0h.07s-.14,0-.06,0h.08s-.14,0-.09,0h.08c.1,0-.2,0-.25,0a1.27,1.27,0,0,0,.32,0h0a1.64,1.64,0,0,0-.26,0c.23,0,.1,0,.23,0h-.19s-.16,0,0,0h0c.2,0,.15,0,.15,0h-.26c.38,0-.14,0,.2,0h0s.06,0,0,0h.1s-.41,0-.41,0h.21s.18,0,0,0h.1s.14,0-.15,0c.19,0,0,0-.06,0h-.06c.07,0-.14,0-.06,0h.06c.09,0-.17,0,0,0h.39c-.1,0-.31,0-.25,0h.08c.11,0,.06,0,.06,0h-.23s0,0,0,0h.16a1.7,1.7,0,0,0-.32,0h0c.08,0,.17,0,.14,0h.05c.3,0-.47,0-.09-.05h-.06c.16,0-.16,0,.1-.06.06,0-.06,0-.15,0h0c-.13,0,.37,0,.13,0h-.11s-.06,0,.06,0H60.3c-.11,0,0,0,.05,0h.1a1.74,1.74,0,0,0-.23,0,2.42,2.42,0,0,1,.27,0h-.07a.72.72,0,0,1-.19,0h-.12c.24,0,.11,0,.24,0h-.16a.67.67,0,0,1,.19,0h-.15A.74.74,0,0,1,60.07,17Zm.42.14Zm0,0h0Zm1,0h0Z"/><path class="cls-3" d="M61.28,17.1h0Z"/><path class="cls-3" d="M61.07,18.17h0Z"/><polygon class="cls-3" points="60.22 17.29 60.26 17.29 60.23 17.29 60.22 17.29"/><path class="cls-3" d="M60.59,18.24h0Z"/><path class="cls-3" d="M60.56,18.27h0Z"/><path class="cls-3" d="M60.49,18.29h0Z"/><path class="cls-3" d="M60.33,17.94h0Z"/><path class="cls-3" d="M60.65,18h0Z"/><polygon class="cls-3" points="60.16 17.83 60.16 17.83 60.16 17.83 60.16 17.83"/><path class="cls-3" d="M60.59,18Z"/><path class="cls-3" d="M60.43,18.38h0Z"/><path class="cls-3" d="M60.44,18.38h0Z"/><path class="cls-3" d="M60.5,18.39h0S60.46,18.39,60.5,18.39Z"/><path class="cls-3" d="M60.49,18.35h0Z"/><path class="cls-3" d="M60.48,18.34h0C60.36,18.35,60.56,18.35,60.48,18.34Z"/><path class="cls-3" d="M61.11,18.31h.1C61.37,18.31,61.08,18.32,61.11,18.31Z"/><path class="cls-3" d="M61.19,18.28h0Z"/><path class="cls-3" d="M61.19,18.12h0Z"/><polygon class="cls-3" points="60.52 18.09 60.45 18.09 60.56 18.09 60.52 18.09"/><polygon class="cls-3" points="61.44 18.07 61.45 18.07 61.41 18.07 61.44 18.07"/><path class="cls-3" d="M61.39,17.8h0Z"/><path class="cls-3" d="M61.23,17.68c.08,0,.13,0,.05,0Z"/><polygon class="cls-3" points="61.49 17.32 61.54 17.32 61.5 17.32 61.49 17.32"/><path class="cls-3" d="M65.65,20.67s-.09-.11-.09-.08l.1.13Z"/><path class="cls-3" d="M65.37,20.5a1.51,1.51,0,0,0,.22.31c-.09-.14,0-.09-.15-.25s.06,0,.09.08,0,0,0-.08-.12-.07-.07,0Z"/><path class="cls-3" d="M64.08,21l0,0Z"/><path class="cls-3" d="M63.28,21.23a.08.08,0,0,0,0,0A.08.08,0,0,0,63.28,21.23Z"/><path class="cls-3" d="M63.09,21.09h0S63.09,21.08,63.09,21.09Z"/><path class="cls-3" d="M64.08,21l0,0S64.06,21,64.08,21Z"/><path class="cls-3" d="M65.47,20.94s0,0,0,0v0Z"/><path class="cls-3" d="M64.34,20.73h0l0-.07Z"/><path class="cls-3" d="M64.56,20.57l.1.17s0-.07,0-.09Z"/><path class="cls-3" d="M65.07,20.53v0Z"/><path class="cls-3" d="M64.15,20.79l0,0Z"/><path class="cls-3" d="M56.14,21.15l0,0Z"/><polygon class="cls-3" points="56.25 20.37 56.26 20.37 56.31 20.31 56.25 20.37"/><path class="cls-3" d="M62.8,21h0S62.8,21,62.8,21Z"/><path class="cls-3" d="M60.55,21.29c0,.12,0,.15,0,.3C60.53,21.53,60.58,21.37,60.55,21.29Z"/><path class="cls-3" d="M65.45,20.93h0S65.45,20.94,65.45,20.93Z"/><polygon class="cls-3" points="60.53 21.59 60.53 21.59 60.53 21.6 60.53 21.59"/><path class="cls-3" d="M62.26,21.19l0,0Z"/><path class="cls-3" d="M62.73,21.3l0,0Z"/><path class="cls-3" d="M62.07,21.42s0,0,0,0h0S62.06,21.39,62.07,21.42Z"/><polygon class="cls-3" points="61.84 21.44 61.84 21.47 61.85 21.46 61.84 21.44"/><path class="cls-3" d="M56.9,21.51l0-.12C56.9,21.48,56.85,21.5,56.9,21.51Z"/><path class="cls-3" d="M65.42,20.88l0,.05h0Z"/><path class="cls-3" d="M62.21,22.52l-.05,0Z"/><path class="cls-3" d="M58.71,22.16h0Z"/><path class="cls-3" d="M62,22.54l0-.1v0Z"/><path class="cls-3" d="M56.94,21.39Z"/><path class="cls-3" d="M56.53,21.55s.11-.15.17-.24-.05.13-.08.22.15-.16.17-.14a.27.27,0,0,1,0,.07c.1-.12.09,0,.21-.11l0,0,.11-.23s.09-.09,0,0,0,0-.06.07l0,0c-.06.16,0,0-.1.16.06,0,.16-.14.16-.09s-.08,0-.12.18v-.08c-.09.25,0,0-.12.24,0,.07.1-.05.13,0,.06-.08.06-.13.11-.2s-.12.41,0,.23.16-.29.15-.17l-.09.17s.14-.24.14-.1-.07,0-.07.07.07-.09.1-.08l-.07.16c.07,0,.18-.09.25-.09a.59.59,0,0,0-.06.14c.11,0,.16.09.2.21l.08-.12s0,.06,0,.09,0-.09.07-.14,0,.09,0,.13.24-.21.24,0l0,0c0,.07.14-.27.14-.13l0,0c.07.09.21,0,.22.22.08-.2.07.12.16-.16,0,.15,0,.2,0,.32s.08-.17.11-.2l0,.15.07-.15,0,.19,0,0a.15.15,0,0,1,0-.11c0-.06.06.13,0,.2l.12-.1a.28.28,0,0,1,0,.11c.08-.14,0,.16,0,0s0-.09,0-.12.06.11.1.08l0,.1c.06,0,.15,0,.22,0a.55.55,0,0,1,0-.25l0,.16c0-.09,0-.06,0-.18a.45.45,0,0,1,0,.24l0,0a1.11,1.11,0,0,1,0,.13c0-.1,0,.17.08,0v.05c.07,0,.12,0,.18,0s0-.11.08-.22c0,.05.07.17.12.17s0-.12.06-.2c0,.13,0,.12,0,.21s.08,0,.18-.1a.47.47,0,0,1,0-.12s0,0,0,.11v0c.11-.18.17.39.27.13v0l.09-.14s0,.1,0,.18c.1-.21.13,0,.21-.1,0,.38.19,0,.25.23v-.09c0-.08,0,0,0,.08s0-.09,0-.13.32.13.48.21,0-.46.11-.25l0,.17c.11-.2.25,0,.35-.18,0,0,0,.09,0,.09s.09,0,.08-.1,0,.08,0,.13,0-.15.07,0a0,0,0,0,1,0,0c0-.06.08,0,.05-.13,0,.07.08-.06.12,0,0-.15.08.07.07-.15,0,.22.09.17.11.06,0,.07,0,.07,0,.16s.06-.05,0-.16c.09.26.08-.24.16.1a1.67,1.67,0,0,1,.22-.3c0,.23-.09,0,0,.28.06-.11.07-.31.15-.27s0,.1,0,.14.16,0,.2-.15v.06s0,0,0-.07v0a1.58,1.58,0,0,1,0-.4c0,.3.08.06.14.43a.49.49,0,0,0,0-.14s0,.06,0,.14,0-.17,0-.18a.51.51,0,0,1,0,.13c0-.1,0-.2,0-.17s0,.06,0,.07,0-.28.13-.21,0,.06.1.24l0-.07,0-.08s0-.14.07-.09v.08l0-.06,0-.05c0-.1-.08-.23,0-.19s0,0,.08.09h0c0-.06,0-.12,0-.09s.06.2.08.24c0-.15.06-.07,0-.23a1.31,1.31,0,0,0,0,.15l0-.13a.26.26,0,0,1,.06.13c.05,0-.09-.22,0-.14a.43.43,0,0,1,0,.05c.07,0,.07-.11.14-.07s0,.06,0,.2c.06-.06.06-.27.14-.25l0,0c-.1-.25.1.1.08,0a.53.53,0,0,0,0,.11c.06,0,.06-.1.09-.2l0,.06c.06.05.09,0,.13,0a.29.29,0,0,0-.06-.15c.26.31.07-.26.29,0,0,0,0,.07,0,.06l0-.08a.49.49,0,0,0-.1-.13c0-.07,0-.12,0-.13a.43.43,0,0,0,.14.21l-.06-.1c.13.16-.11-.2,0-.11l0,.06s0-.12,0-.11,0,.06.07.16-.08-.25,0-.15a.27.27,0,0,1,0,.09c.11.12.09.08.12.09h0l.08,0,0,0c-.15-.32,0-.1-.05-.31.08.2.06.11.14.24a.22.22,0,0,1,.1.09c0-.11.08.06,0-.11,0,0,0,0,.09.1,0,0-.06-.07-.09-.12s.21.1.13-.12-.09-.25-.1-.35a.45.45,0,0,1,.1.15c.06,0,.07,0,.06,0a.41.41,0,0,0,.09.1s-.1-.15,0-.11l.1.17s0-.14,0-.19a.38.38,0,0,1,.09.16.24.24,0,0,0-.06-.22l0,0a.63.63,0,0,1,.08.11c0,.1-.06,0-.09-.05v0c-.2-.21,0,.08-.07.09l-.12-.17.08.16s-.12-.13-.12-.17,0,.08-.06,0l0,0v.06s-.09-.11-.06-.1,0,.17-.07.05h0c0,.09.08.13.15.3l-.25-.29.09.13s0,0-.06-.06c0,.1,0,.06.08.15-.1-.1,0,.1-.17-.1,0,.1.07.06.09.14-.15-.21,0,.06-.1,0s0-.08-.09-.16c.11.2-.08,0-.07,0s0,.09,0,.17-.11-.05-.18-.09v0c.08.16,0,.15,0,.2a.77.77,0,0,1-.08-.19l0,0a.16.16,0,0,1,0,.11l-.06-.13s0,.18-.06.12c0,.11.2.3.19.4a1,1,0,0,1-.09-.2s0,.06,0,0l0-.12s0,.09,0,.09,0-.05-.07-.13,0,0,0,0a.32.32,0,0,1-.11-.12.48.48,0,0,1,.06.14s-.07-.1-.11-.14,0,0,0,.15,0-.06-.06-.1-.07.06,0,.19h0c0,.16-.15,0-.18.06l0-.05c0,.07,0,.07,0,.17a.41.41,0,0,1-.07-.13c0,.05,0,.1-.06,0s0-.07,0-.07-.08-.1-.07,0c0-.12-.08-.14-.08-.1l.06.08s0,0,0,0l-.05-.16c-.13-.16,0,.37-.16.07,0,.11.06.06.09.2s-.15-.23-.16-.22,0,.24,0,.19a.66.66,0,0,1,.06.27s-.11-.23-.11-.28,0,0,0,0,0-.05,0-.11v.06c0-.05-.07,0-.09-.13a.14.14,0,0,0,0,.12c-.07-.07-.06,0-.12,0a.49.49,0,0,1,0,.1c-.08-.05,0,.11,0,.15s0-.21-.07-.12a.42.42,0,0,1,0-.2c0,.12-.09-.06-.12-.07v-.05s0,0,0,0l0,.11s0,0,0-.06a2,2,0,0,1,.06.3c0-.06,0,.07-.07-.08.06,0-.05-.15,0-.19s0,0,0,0a.08.08,0,0,1,0,0c-.08-.13,0,.17,0,.18s-.05-.16-.06-.14.05.14.05.21,0,.06,0,.06l0,0c0,.09,0,.08,0,.12s0-.05,0-.08c0,.16-.09-.15-.1,0,0-.05,0-.16-.06-.2,0,.12-.06-.11-.08,0a.38.38,0,0,1,0,.21l.05-.1v.18s0-.08.05-.06a.29.29,0,0,0,0,.16c-.06-.17,0,.11-.09,0l-.05-.29c-.07-.12-.06.17-.13.11l0,0c0,.12,0,0-.05.08a.72.72,0,0,0,0-.2c0,.08,0,0,0,.2l0-.12c-.05-.05,0,.28-.06.26s0-.18,0-.26,0,0,0,.06,0,.13,0,0,0,.15,0,.14v0s0,.07,0,.18c-.08-.3-.14,0-.21-.22a.24.24,0,0,1-.1.08v0c-.05-.08,0,.29-.06.19s0-.09,0-.15c0-.32-.06.05-.1-.13v0c0-.11,0,.12-.1.1v-.05a.46.46,0,0,1-.11.28.45.45,0,0,0,0-.2s0,.21,0,.24a2,2,0,0,1-.05-.26h0c0-.18,0,0-.06,0V21.4c-.05,0-.05.22-.1.21v.06c0,.19,0-.11-.05,0l0-.2a.94.94,0,0,1-.1.23,1.46,1.46,0,0,1,.09-.31s-.07,0-.08.12,0-.07,0,0-.06.23-.1.23c0-.39-.1-.1-.12-.4-.08.14-.14-.07-.22,0,0,.3,0,0,0,.31,0,0,0,0,0,0l-.05-.19c0-.09,0-.06,0-.13s0-.13,0-.22c0,.11,0,.16,0,.11l0,.15c-.08.15,0-.26-.1-.11l0-.09c0,.05-.1,0-.16.23,0,0,0-.12,0-.14s-.19.24-.23.08l0-.07s0,.14-.05.06,0-.07,0-.08-.05.13-.07.08l0-.08c-.05-.11-.13.19-.2.23a.52.52,0,0,0,0-.34v0c-.07,0-.16.16-.26.23,0-.25-.13-.13-.18-.28a.53.53,0,0,1-.06.19c0-.05-.08.14,0-.06h0c0-.2,0-.16-.05-.17l-.06.26c0-.39-.22.09-.18-.25,0,.06,0,.05-.09.11l0-.14c0-.05-.06-.07-.12-.05l0-.1s-.16.38-.19.38l0-.2c-.06,0-.06-.21-.17-.05a.39.39,0,0,1,0-.09s-.06-.17-.14.11c.06-.18,0,0-.11,0l.05-.13c-.09.16-.1.21-.16.24s0-.11,0-.07-.06.11-.07,0l0-.08s0,0-.09.12-.05-.05,0-.17c0,.07-.08.16-.09.11A.54.54,0,0,0,58,21c0-.1-.13.12-.11,0a.15.15,0,0,0,0-.08s.07,0,.06,0a1.59,1.59,0,0,1,.12-.31c-.06.08-.18.26-.19.19v0h0s0,0,0,0a.07.07,0,0,0,0,0c0-.1,0-.06,0-.07s-.07.1-.09.21l0,0h0v0h0c0,.06-.08.11-.07,0l-.11.2c.06-.19.06-.3.11-.41-.08.05-.13,0-.27.22,0,0,0-.07,0-.11s0,0,0-.05-.09,0-.17.15c0-.09.09-.14,0-.14l0-.05c0-.3-.36.35-.28,0a.42.42,0,0,1,0,.06c0-.2-.31,0-.28-.28,0-.06-.07,0-.13.1l.07-.13-.12.12c-.12.08.12-.36-.06-.19l0,.09s-.1,0,0-.09-.07.08-.05,0l.05-.06-.13.07c0-.07.19-.25.15-.3a1,1,0,0,0-.22.19s0,.06,0,.12l-.05,0a1.94,1.94,0,0,0-.35.53l.12-.09-.05.1h0c0,.09,0,0,.07,0A.31.31,0,0,0,56,21l.16-.15c0,.08-.12.13-.12.19s.1-.18.16-.21-.09.16,0,.1a.31.31,0,0,1-.08.1c.06-.05.06,0,.14-.09-.05.12.08,0,0,.2,0,0,.12-.13.15-.12-.18.2,0,0-.11.28.15-.18.14,0,.25-.12l0,0s0,.1,0,.15a1.49,1.49,0,0,1,.25-.28c-.07.18-.14.19-.22.35.08-.14.13-.11.19-.23a1,1,0,0,1-.08.21c.12-.21,0,0,.13-.14,0,.12-.11.2,0,.16A.31.31,0,0,1,56.53,21.55Zm1,0Zm.07,0h0c0-.05,0-.1.05-.09S57.66,21.57,57.65,21.61Zm.23-1s0,0,0,0h0v0Z"/><path class="cls-3" d="M57.79,20.81h0v0l0,0Z"/><path class="cls-3" d="M64.1,21Z"/><polygon class="cls-3" points="58.61 22.21 58.62 22.17 58.6 22.2 58.61 22.21"/><path class="cls-3" d="M64.69,21.27s0,0,0,0Z"/><path class="cls-3" d="M64.86,21.2l0,0Z"/><path class="cls-3" d="M65,21.19l0-.05h0Z"/><path class="cls-3" d="M63,22.21h0S62.94,22.24,63,22.21Z"/><path class="cls-3" d="M63.51,21.71s0,.06,0,.07S63.54,21.79,63.51,21.71Z"/><polygon class="cls-3" points="62.21 22.52 62.21 22.52 62.21 22.52 62.21 22.52"/><path class="cls-3" d="M63.48,21.79s0,0,0,0S63.49,21.77,63.48,21.79Z"/><polygon class="cls-3" points="65.58 20.87 65.59 20.87 65.57 20.85 65.58 20.87"/><path class="cls-3" d="M65.57,20.85v0A0,0,0,0,0,65.57,20.85Z"/><path class="cls-3" d="M65.56,20.79v0S65.58,20.83,65.56,20.79Z"/><path class="cls-3" d="M65.38,20.94l0,0Z"/><path class="cls-3" d="M65.34,21s.1.07.09,0l0,0C65.45,21.05,65.3,20.91,65.34,21Z"/><path class="cls-3" d="M64.79,20.6h.06s-.08-.1-.07-.12C64.64,20.39,64.85,20.59,64.79,20.6Z"/><path class="cls-3" d="M64.64,20.61s0-.07-.06-.1A.13.13,0,0,0,64.64,20.61Z"/><path class="cls-3" d="M63.77,21.05l-.05-.12A.59.59,0,0,0,63.77,21.05Z"/><polygon class="cls-3" points="63.83 21.74 63.88 21.8 63.84 21.69 63.83 21.74"/><polygon class="cls-3" points="63.41 20.92 63.41 20.9 63.4 20.95 63.41 20.92"/><path class="cls-3" d="M61.86,21.32l0,.15S61.88,21.27,61.86,21.32Z"/><path class="cls-3" d="M61.17,21.52c0-.08,0-.13,0-.05S61.16,21.54,61.17,21.52Z"/><polygon class="cls-3" points="59.1 21.03 59.13 20.98 59.09 21.02 59.1 21.03"/><path class="cls-1" d="M2.17,33.14C1.23,39,.84,38.87.63,41.48S-.12,51.19,4.48,57.8c.52.74,6.88,9.59,17,10.41C37.24,69.51,50.68,50,51.08,38c.14-4.29.31-9.49-2.7-13.89a18.4,18.4,0,0,1-3.08-5.55c-.7-2.27-.42-3.34-1.15-6.25A23.71,23.71,0,0,0,42.22,7.1C39.5,2.44,32.13.57,27,.5A23.67,23.67,0,0,0,11,6.75C5.85,11.44,4.52,17.16,3.71,20.64,2.82,24.46,3.43,25.3,2.17,33.14Z"/><ellipse class="cls-2" cx="29.71" cy="25.68" rx="0.96" ry="1.22"/><ellipse class="cls-2" cx="27.59" cy="51.37" rx="1.16" ry="1.22"/><ellipse class="cls-2" cx="24.7" cy="60.23" rx="1.35" ry="1.39"/><ellipse class="cls-2" cx="12.38" cy="43.91" rx="0.96" ry="1.04"/><ellipse class="cls-2" cx="11.22" cy="53.98" rx="0.96" ry="1.04"/><ellipse class="cls-2" cx="36.64" cy="39.91" rx="1.24" ry="0.94" transform="translate(-16.45 50.74) rotate(-58.98)"/><ellipse class="cls-2" cx="45.14" cy="30.23" rx="0.81" ry="0.69" transform="translate(-6.26 47.83) rotate(-52.71)"/><ellipse class="cls-2" cx="38.98" cy="43.43" rx="0.81" ry="0.69" transform="translate(-19.19 48.13) rotate(-52.71)"/><ellipse class="cls-2" cx="39.36" cy="50.72" rx="0.81" ry="0.69" transform="translate(-24.84 51.31) rotate(-52.71)"/><ellipse class="cls-2" cx="21.27" cy="64.26" rx="0.81" ry="0.69" transform="translate(-42.75 42.25) rotate(-52.71)"/><ellipse class="cls-2" cx="31.66" cy="9.75" rx="0.81" ry="0.69" transform="translate(4.73 29.03) rotate(-52.71)"/><ellipse class="cls-2" cx="20.88" cy="37.18" rx="0.81" ry="0.69" transform="translate(-21.35 31.27) rotate(-52.71)"/><ellipse class="cls-2" cx="10.68" cy="37.18" rx="1.34" ry="1.07" transform="translate(-26.38 26.1) rotate(-57.33)"/><path class="cls-3" d="M26.49,14.07s.14,0,.12,0h-.12Z"/><path class="cls-3" d="M26.78,14a1.18,1.18,0,0,0-.36.07l.28,0s-.05,0-.11,0,0,0,.07,0,.12-.06,0-.07Z"/><path class="cls-3" d="M26.13,14.75h0Z"/><path class="cls-3" d="M27.11,15.61s0,0,0,0S27.12,15.62,27.11,15.61Z"/><path class="cls-3" d="M27.45,15.6h0Z"/><path class="cls-3" d="M26.13,14.75l0,0C26.14,14.78,26.12,14.77,26.13,14.75Z"/><path class="cls-3" d="M26.36,14h0Z"/><path class="cls-3" d="M26,14.22h0l-.06,0Z"/><path class="cls-3" d="M26.05,13.8s.13.06.18.08a.21.21,0,0,1-.08-.05Z"/><path class="cls-3" d="M26.8,13.59h0Z"/><path class="cls-3" d="M25.94,14.53h0Z"/><path class="cls-3" d="M26.6,14.74h0Z"/><polygon class="cls-3" points="27.18 14.28 27.18 14.28 27.26 14.25 27.18 14.28"/><path class="cls-3" d="M27.94,15.26h0S27.94,15.27,27.94,15.26Z"/><path class="cls-3" d="M25.75,14.27c.14-.07.15.12.3,0C26,14.3,25.84,14.17,25.75,14.27Z"/><path class="cls-3" d="M26.37,13.94Z"/><polygon class="cls-3" points="26.05 14.28 26.05 14.28 26.07 14.27 26.05 14.28"/><path class="cls-3" d="M28.07,14.25l-.06,0Z"/><path class="cls-3" d="M27.76,14.93h0Z"/><path class="cls-3" d="M27.82,13.84s0,0,0,0h0S27.84,13.82,27.82,13.84Z"/><polygon class="cls-3" points="27.67 13.44 27.65 13.47 27.66 13.47 27.67 13.44"/><path class="cls-3" d="M26.52,14.8l.05,0Z"/><path class="cls-3" d="M26.43,13.91l-.06,0h0Z"/><path class="cls-3" d="M26.76,14.24l0,0Z"/><path class="cls-3" d="M26.87,14.65h0Z"/><path class="cls-3" d="M26.76,14.21l.08-.06,0,0Z"/><path class="cls-3" d="M26.57,14.82Z"/><path class="cls-3" d="M26.46,14.76l.18.1-.15-.08.1.06,0,0,0,0h0l.09,0,0,0h0l0,0s0,0,0,0,0,0,0,0l0,0-.07,0s0,0,0,0h0s-.06,0-.05,0,0-.05,0-.05v0s0-.07,0-.06l0,0s0,0,0,0l0,0a.64.64,0,0,1-.06-.14l0,.08c0-.08,0-.06,0,0v-.13a.54.54,0,0,1,0,.08s0-.08,0-.14a.84.84,0,0,1,0,.12c0-.12.08-.28.08-.12l0,0c0,.06.11-.28.09-.15v0c0,.07.11,0,0,.2.15-.15,0,.13.21-.09-.07.14-.11.17-.16.26s.14-.12.17-.12l-.12.09a1,1,0,0,1,.13-.09l0,0,0,0h0l.1-.05H27l-.15,0h0a.42.42,0,0,1-.14-.1s.14.15.13.16l-.1-.13a1.18,1.18,0,0,1,.11.15,1.56,1.56,0,0,1-.14-.19l0,0,0,0s0,0,0,0h0l-.07-.14h0v.05c0,.14,0,.11,0,.22s-.05-.15-.06-.15a1,1,0,0,0,0,.19,1.09,1.09,0,0,1,0-.2l-.07.07,0,.1s0-.06,0-.11h0c0,.05,0,0,0-.11s.07-.09,0-.05h0l-.06,0s0,0,.08,0,0,0,0,0c.15,0,0-.06.1,0l0,0s0,0,0,0,0,0,0-.05.09,0,.05.08.12-.4.08-.23l0,.15,0-.06c.06-.08,0,0,.12-.11l-.06.08c-.08.13,0,0,.07-.07a.61.61,0,0,1-.09.13c-.06.07.12-.12,0,0l0,0c.05,0,0,0,.1-.08-.05.05.07,0,0,0,.14-.08-.06.06.14-.05-.21.12-.16.1-.06.07l-.16.07.16,0c-.26.07.22,0-.12.06a.3.3,0,0,1,.24.17c-.22,0,0-.08-.25-.09.09.05.28.12.21.17s-.09,0-.13,0,0,.1.05.19l-.05,0s0,0,.06,0h0a1.39,1.39,0,0,1,.35.18c-.27-.13-.1,0-.42-.14a.44.44,0,0,0,.12.07.24.24,0,0,1-.13,0c0,.06.14.08.13.1l-.11-.06c.08,0,.16.11.11.1s-.06,0-.05,0,.15.22,0,.19-.06,0-.17-.19l0,0,.06.07s0,.13,0,.09l0-.08v0a.15.15,0,0,0,0,.06c0,.1.11.22.05.18s0,0-.07-.09h0c0,.06,0,.12,0,.08s0-.26,0-.2,0,0,0,.15l0-.07h0l0,0c0-.05,0,0,0,0h0l0,0,0,0c.05,0-.07,0-.05-.06s.06,0,.18-.09c-.05,0-.26,0-.24-.07l0,0c-.24.09.1-.1,0-.08l.11,0c0-.05-.09-.06-.19-.11h.07c.06,0,0-.07.05-.1s-.06,0-.15,0c.37-.1-.22-.17.11-.24h.05l-.05-.06a.84.84,0,0,0-.16,0c-.07,0-.12,0-.12-.06a.54.54,0,0,0,.25,0l-.11,0c.21,0-.23,0-.08-.07h.06s-.1-.06-.08-.08.06,0,.16.06-.23-.12-.09-.11,0,0,.06.06.12,0,.15,0h0l.08,0h-.05c-.32-.14,0-.09-.23-.22.18.13.11.05.25.11a.42.42,0,0,1,.13,0c-.1-.07.1,0-.05-.09.05,0,0,0,.13,0s-.08,0-.14-.06.22,0,.05-.16h0l-.48.07c.09,0,.22-.14.32-.14a.58.58,0,0,1-.15.1c-.05.06,0,.06,0,.06s-.06,0-.11.07.16-.08.11,0l-.18.08a.63.63,0,0,1,.19,0l-.18.05a.68.68,0,0,0,.22,0l0,0s-.11,0-.14.05,0,0,.08-.06h0c.26-.12-.07-.05-.07-.08l.19-.09a.85.85,0,0,0-.17.06.41.41,0,0,1,.17-.11c.07-.08-.07,0,0-.07l0,0h-.07s.11-.1.1-.06c.05-.13-.18,0-.08-.1h0l-.28,0c0,.07.13.07.24.19l-.35-.15.13.08s0,0-.08,0,.06,0,.14.09c-.14,0,0,.12-.21,0,.1.06.09,0,.15.07-.24-.09,0,.06-.1.05s0-.07-.17-.08c.21.11-.07,0,0,.1s.05.09.09.16-.12.07-.19.11h0c.18,0,.13.08.16.13a.47.47,0,0,1-.19-.06v0a.15.15,0,0,1,.11.06l-.14,0c0,.06.16.12.06.18.13,0,.36,0,.44,0a.62.62,0,0,1-.21,0s.06,0,0,0l-.12,0s.1,0,.09,0-.07,0-.15,0,0,0,0,0a.3.3,0,0,1-.15.08.23.23,0,0,1,.15,0c0,.05-.12,0-.17.06s0,.05.15,0-.07,0-.11,0,0,.12.19.06h0c.15,0-.05.18,0,.25h0c.06,0,.07.09.18.08a.33.33,0,0,1-.12.09c.05,0,.1,0,.05.08s-.06,0-.07,0-.07.12.07.09c-.12.05-.11.12-.07.13l.06-.09s0,0,.05.08l-.15.08c0,.13.12.17.24.16s.21,0,.26.16c.08-.11-.1-.11,0-.23.06,0,.15.28.19.28s.09-.25.2-.22a.42.42,0,0,1-.06-.27c.05,0,.17.19.15.26s0,0,0,0a.07.07,0,0,0,0,.11l0-.06c.06,0,.15,0,.18.09,0-.08,0-.1-.08-.11.12,0,.12-.07.22-.08s-.09-.06-.07-.07,0-.11,0-.18.15.16.14.05.13.1.15.15c0-.14.16-.08.21-.11v.07s0-.06,0-.09l-.12,0s0,0,.09,0-.18-.09-.24-.18,0-.12.13-.06c-.09.07.15,0,.13.15a0,0,0,0,1,0-.06l0,0c.16,0-.15-.11-.12-.18s.16.05.15,0-.14,0-.19-.09,0-.07,0-.09h0c-.08,0-.06,0-.08-.09s0,0,.07,0c-.14-.08.18,0,.09-.11.07,0,.17,0,.21,0s.13-.05.06-.13-.1,0-.2-.07l.06.12-.16-.1s.06.08,0,.09a.24.24,0,0,0-.16-.05c.18,0-.08-.09,0-.11l.29,0c.14-.06-.13-.16-.05-.25l-.05,0c-.12,0,0-.06-.06-.09a.5.5,0,0,0,.19,0c-.07,0,0-.1-.19-.09l.12-.07c0-.11-.29,0-.26-.13s.17-.06.25,0,0-.07-.06-.05-.14,0-.06-.09-.14,0-.14,0l0,0s-.07,0-.16,0c.25-.21-.08-.17.1-.39a.58.58,0,0,1-.15-.11l0,0c0-.13-.22.18-.19,0s.08,0,.1-.1c.2-.28-.08,0,0-.26h0c0-.15-.13,0-.16,0l0,0a2.43,2.43,0,0,1-.28.31,1.31,1.31,0,0,0,.12-.27s-.11.28-.17.35v0c0-.08,0-.15.07-.32l.06,0c.06-.24-.08,0-.09,0l0-.11c-.11.09-.18.36-.25.39v.08c-.08.28,0-.12-.07.1v-.25c0,.09-.12.32-.16.4a1.29,1.29,0,0,1,.14-.48.29.29,0,0,0-.14.23s0-.11,0-.08c0,.22-.06.35-.11.39-.08-.45-.16,0-.37-.18,0,.15-.1.2-.18.3a.57.57,0,0,0-.21.34c.32,0,0,.07.29.09,0,0,0,.06,0,.06a1.4,1.4,0,0,0-.2.17c-.1.06-.06,0-.14,0s-.13.09-.21.21c.11-.05.16,0,.13.09a.64.64,0,0,1,.13-.15c.16.09-.24.26,0,.35h-.1c.07.06.12.31.34.16,0,0-.07.12-.1.12.08.19.35,0,.38.24l0,.06s.09-.11.09,0,0,.07,0,.08.1-.09.12,0l0,.07c.13.16.25-.13.34-.17a.33.33,0,0,0,.2.33v0c.21,0,.27-.24.37-.4.22.16.35-.12.57-.23,0,0-.14-.09-.15-.13s-.08-.18.1-.1v0c.2,0,.2-.11.22-.23l-.27,0a.25.25,0,0,0,.05-.41c-.09-.1-.18-.14-.07-.28-.08,0-.11,0-.18,0l.11-.09c-.05-.1-.07-.15-.17-.19l.08-.06s-.31.27-.35.25l.12-.17c-.06-.06-.12-.31-.32-.19,0,0,0-.08.07-.08s-.2-.22-.25.07c.05-.18-.13,0-.2.05l0-.14c-.08.18-.08.23-.15.29s0-.12,0-.08,0,.14-.1.08l0-.1c-.06,0-.05.06-.06.18s-.08,0-.12-.12c0,.09,0,.21,0,.19a.27.27,0,0,1,0-.1c-.09-.06,0,.25-.08.14s0-.07,0-.09l0-.05a1.22,1.22,0,0,1-.11-.34c0,.12.05.4,0,.36l0,0v0s0,0,0,0l0,0c-.06-.13,0-.06,0-.07.07.18.07.16.12.3l0,0v0a.06.06,0,0,1,0,0c0,.09.07.18,0,.09l.13.31a3.24,3.24,0,0,1-.15-.57c.07,0,.12,0,.29.08l.12,0s.06.18.08.25a1.64,1.64,0,0,1,.06.41c0,.07.12,0,.18,0s-.08-.12-.08-.17.09.25.3.34.16.09.12.12a.42.42,0,0,1-.18,0c.15.14.31,0,.25.14h.1c.22.23,0,.2-.13.16s-.21-.09.05.06l-.08,0c.23.17.12,0,.44-.16.07-.06-.05-.08-.13-.12h.15l-.17-.07s0,0,0-.06.28-.15.09-.21l-.1,0c0-.05-.08-.1,0-.12s-.1,0,0,0l.07,0-.15,0c0-.08.3-.1.27-.2a.42.42,0,0,0-.29,0s0,0-.11.08h0a2.73,2.73,0,0,0-.57.29l.14,0-.1,0v0c-.1.05,0,0,.06,0l-.12.05.22,0a1.27,1.27,0,0,0-.21.07c.1,0,.19-.07.26-.07-.1.05-.18.07-.09.06l-.12,0a.41.41,0,0,0,.16,0c-.13,0,0,0-.18.05h.05s0,0-.17,0c.24,0,.11,0,.23.07h0l-.14,0a1.58,1.58,0,0,1,.3.13l-.35-.14a1.67,1.67,0,0,1,.23.11l-.18-.08.13.07-.12-.06Zm-.1-.23h0v0Zm0,0v0l0-.06S26.35,14.46,26.36,14.48Zm-.37-.8,0,0v0Z"/><path class="cls-3" d="M26.09,13.92v0l0,0,0-.05Z"/><path class="cls-3" d="M26.15,14.73h0Z"/><path class="cls-3" d="M26.71,14.75h0l0,0Z"/><path class="cls-3" d="M26.62,14.26h0Z"/><path class="cls-3" d="M26.69,14.1h0Z"/><path class="cls-3" d="M26.8,14l-.06,0h0Z"/><path class="cls-3" d="M26.87,14.63h0Z"/><path class="cls-3" d="M26.84,15.14v-.07S26.83,15.06,26.84,15.14Z"/><polygon class="cls-3" points="26.76 14.24 26.76 14.24 26.76 14.24 26.76 14.24"/><path class="cls-3" d="M26.85,15.07s0,0,0,0S26.85,15.09,26.85,15.07Z"/><path class="cls-3" d="M26.37,14Z"/><path class="cls-3" d="M26.39,14h0Z"/><path class="cls-3" d="M26.44,14h0Z"/><path class="cls-3" d="M26.39,13.9l-.05,0Z"/><path class="cls-3" d="M26.35,13.88s-.07.08,0,.07l0,0C26.28,14,26.43,13.83,26.35,13.88Z"/><path class="cls-3" d="M26.29,13.62l.06,0c-.05,0-.12,0-.12-.07C26.05,13.52,26.34,13.56,26.29,13.62Z"/><path class="cls-3" d="M26.14,13.77s-.07,0-.1,0S26.09,13.78,26.14,13.77Z"/><path class="cls-3" d="M26.19,15.2l-.12.05S26.12,15.23,26.19,15.2Z"/><path class="cls-3" d="M26.86,15l.06,0-.1.07Z"/><path class="cls-3" d="M26.48,15.86h0Z"/><path class="cls-3" d="M27.8,13.43l-.12.11S27.86,13.44,27.8,13.43Z"/><path class="cls-3" d="M26.87,13.16c0-.1,0-.14-.05,0S26.85,13.19,26.87,13.16Z"/><path class="cls-3" d="M27.92,14.54l.06.05-.05-.1Z"/><path class="cls-3" d="M17.41,14.07c.05,0,.14,0,.12,0h-.12Z"/><path class="cls-3" d="M17.71,14a1.18,1.18,0,0,0-.37.07l.28,0s-.05,0-.11,0,0,0,.07,0,.13-.06,0-.07Z"/><path class="cls-3" d="M17.05,14.75h0Z"/><path class="cls-3" d="M18,15.61s0,0,0,0S18,15.62,18,15.61Z"/><path class="cls-3" d="M18.37,15.6h0Z"/><path class="cls-3" d="M17.05,14.75l0,0S17.05,14.77,17.05,14.75Z"/><path class="cls-3" d="M17.28,14h0Z"/><path class="cls-3" d="M16.91,14.22h0l-.07,0Z"/><path class="cls-3" d="M17,13.8s.12.06.18.08a.2.2,0,0,1-.09-.05Z"/><path class="cls-3" d="M17.73,13.59h0Z"/><path class="cls-3" d="M16.86,14.53h0Z"/><path class="cls-3" d="M17.53,14.74h0Z"/><polygon class="cls-3" points="18.1 14.28 18.11 14.28 18.18 14.25 18.1 14.28"/><path class="cls-3" d="M18.86,15.26h0S18.87,15.27,18.86,15.26Z"/><path class="cls-3" d="M16.67,14.27c.14-.07.15.12.31,0C16.92,14.3,16.77,14.17,16.67,14.27Z"/><path class="cls-3" d="M17.3,13.94h0Z"/><polygon class="cls-3" points="16.98 14.28 16.98 14.28 16.99 14.27 16.98 14.28"/><path class="cls-3" d="M19,14.25l-.07,0Z"/><path class="cls-3" d="M18.68,14.93h0Z"/><path class="cls-3" d="M18.74,13.84s0,0,0,0h0S18.76,13.82,18.74,13.84Z"/><polygon class="cls-3" points="18.59 13.44 18.57 13.47 18.58 13.47 18.59 13.44"/><path class="cls-3" d="M17.45,14.8l0,0Z"/><path class="cls-3" d="M17.35,13.91l-.05,0h0Z"/><path class="cls-3" d="M17.69,14.24v0Z"/><path class="cls-3" d="M17.8,14.65h0Z"/><path class="cls-3" d="M17.68,14.21l.08-.06,0,0Z"/><path class="cls-3" d="M17.49,14.82Z"/><path class="cls-3" d="M17.38,14.76l.19.1-.15-.08.09.06,0,0,0,0h0l.09,0s0,0,0,0h0l0,0s0,0,0,0,0,0,0,0l0,0-.08,0s0,0,0,0h0s-.05,0-.05,0,0-.05,0-.05v0l0-.06v0s0,0,0,0v0l-.06-.14,0,.08c0-.08,0-.06,0,0v-.13a.32.32,0,0,0,0,.08.66.66,0,0,1,0-.14s0,.07,0,.12c0-.12.09-.28.08-.12l0,0c0,.06.11-.28.09-.15v0c0,.07.12,0,0,.2.15-.15,0,.13.2-.09-.07.14-.11.17-.16.26s.14-.12.18-.12l-.13.09a.67.67,0,0,1,.14-.09l-.05,0,0,0h0l.11-.05h.06l-.14,0h0a.44.44,0,0,1-.13-.1.92.92,0,0,1,.12.16l-.1-.13a1.18,1.18,0,0,1,.11.15s-.11-.16-.14-.19l0,0,0,0s0,0,0,0h0l-.06-.14h0v0s0,0,0,0a.94.94,0,0,1,0,.22s-.05-.15-.06-.15,0,.11,0,.19a1,1,0,0,1,0-.2l-.08.07a.38.38,0,0,1,0,.1s0-.06,0-.11h0c0,.05,0,0,0-.11s.06-.09,0-.05h0l-.07,0s.05,0,.08,0,0,0,0,0c.15,0,0-.06.1,0l0,0s0,0,0,0l0-.05c0-.09.08,0,.05.08s.11-.4.07-.23l-.05.15,0-.06c.05-.08,0,0,.11-.11l-.06.08c-.08.13,0,0,.08-.07l-.1.13c-.05.07.12-.12,0,0l0,0c.05,0,0,0,.11-.08-.05.05.06,0,0,0,.14-.08-.06.06.14-.05-.2.12-.16.1-.06.07l-.15.07.15,0c-.26.07.23,0-.12.06a.31.31,0,0,1,.25.17c-.22,0,0-.08-.25-.09.09.05.27.12.2.17s-.09,0-.13,0,0,.1.06.19l-.06,0s0,0,.06,0h0a1.49,1.49,0,0,1,.34.18c-.26-.13-.09,0-.42-.14a.44.44,0,0,0,.12.07.3.3,0,0,1-.13,0c0,.06.14.08.13.1l-.11-.06c.09,0,.16.11.11.1l-.05,0s.15.22.05.19-.06,0-.18-.19l0,0,.05.07s.05.13,0,.09l0-.08v0a.09.09,0,0,0,0,.06c0,.1.1.22,0,.18s0,0-.06-.09h0c0,.06,0,.12,0,.08s0-.26,0-.2a.64.64,0,0,1,0,.15l0-.07h0v0c0-.05,0,0,0,0h0s0,.08,0,0l0,0c.06,0-.07,0,0-.06s.06,0,.18-.09c-.05,0-.26,0-.24-.07l0,0c-.24.09.1-.1,0-.08l.11,0c0-.05-.08-.06-.18-.11h.07c.05,0,0-.07,0-.1a.36.36,0,0,0-.15,0c.37-.1-.22-.17.11-.24h.06l-.06-.06a.85.85,0,0,0-.16,0c-.07,0-.12,0-.11-.06a.53.53,0,0,0,.25,0l-.11,0c.21,0-.23,0-.09-.07h.06s-.1-.06-.08-.08.06,0,.17.06-.23-.12-.1-.11l.06.06c.16,0,.12,0,.15,0h0l.08,0h0c-.32-.14,0-.09-.24-.22.18.13.12.05.26.11a.61.61,0,0,1,.13,0c-.11-.07.1,0-.05-.09,0,0,0,0,.12,0s-.08,0-.14-.06.23,0,.06-.16h0l-.48.07c.1,0,.22-.14.32-.14a.45.45,0,0,1-.15.1c0,.06,0,.06,0,.06a.34.34,0,0,0-.11.07s.16-.08.1,0l-.18.08a.63.63,0,0,1,.19,0l-.18.05a.68.68,0,0,0,.22,0l0,0s-.11,0-.13.05,0,0,.08-.06h0c.26-.12-.07-.05-.07-.08l.19-.09-.17.06a.44.44,0,0,1,.18-.11c.06-.08-.08,0,0-.07l0,0h-.07s.11-.1.1-.06c0-.13-.19,0-.09-.1h0l-.28,0c0,.07.13.07.24.19l-.35-.15.13.08s0,0-.08,0,.06,0,.14.09c-.14,0,0,.12-.21,0,.1.06.1,0,.15.07-.24-.09,0,.06-.1.05s0-.07-.16-.08c.2.11-.08,0-.05.1s.05.09.1.16-.13.07-.2.11h0c.18,0,.13.08.17.13a.53.53,0,0,1-.2-.06v0a.14.14,0,0,1,.1.06l-.13,0c0,.06.15.12.05.18.13,0,.36,0,.45,0a.68.68,0,0,1-.22,0s.06,0,0,0l-.12,0c-.05,0,.1,0,.09,0s-.07,0-.15,0,0,0,0,0-.07.06-.15.08.14,0,.15,0-.12,0-.17.06,0,.05.15,0-.06,0-.1,0,0,.12.18.06h0c.16,0,0,.18.05.25h-.05c.07,0,.07.09.18.08s-.06.07-.12.09.1,0,.06.08-.06,0-.08,0-.07.12.07.09c-.11.05-.11.12-.06.13l.05-.09a.11.11,0,0,1,0,.08l-.15.08c0,.13.13.17.25.16s.2,0,.26.16c.07-.11-.1-.11,0-.23.06,0,.15.28.19.28s.09-.25.2-.22a.41.41,0,0,1,0-.27.36.36,0,0,1,.15.26s0,0,0,0a.08.08,0,0,0,0,.11V15.7c.06,0,.14,0,.17.09,0-.08,0-.1-.08-.11.13,0,.12-.07.22-.08s-.08-.06-.07-.07,0-.11,0-.18.15.16.15.05.12.1.14.15c0-.14.16-.08.21-.11v.07s0-.06,0-.09l-.11,0s0,0,.08,0-.17-.09-.24-.18,0-.12.13-.06c-.09.07.15,0,.13.15s0,0,0-.06l0,0c.16,0-.15-.11-.12-.18s.17.05.15,0-.14,0-.19-.09,0-.07,0-.09h0c-.08,0-.06,0-.07-.09s0,0,.06,0c-.13-.08.18,0,.1-.11s.16,0,.2,0,.14-.05.06-.13-.09,0-.2-.07l.06.12-.15-.1s.06.08,0,.09a.24.24,0,0,0-.16-.05c.19,0-.08-.09,0-.11l.29,0c.15-.06-.13-.16,0-.25l-.05,0c-.12,0,0-.06-.06-.09a.47.47,0,0,0,.19,0c-.07,0,0-.1-.19-.09l.13-.07c0-.11-.29,0-.27-.13s.17-.06.25,0,0-.07-.05-.05-.15,0-.07-.09-.14,0-.14,0l.05,0c-.05,0-.08,0-.17,0,.25-.21-.08-.17.1-.39a.53.53,0,0,1-.14-.11l0,0c0-.13-.22.18-.19,0s.08,0,.1-.1c.2-.28-.08,0,0-.26h0c0-.15-.14,0-.17,0l0,0a2.43,2.43,0,0,1-.28.31.93.93,0,0,0,.12-.27s-.1.28-.16.35v0A1.72,1.72,0,0,1,18,13l.06,0c.06-.24-.08,0-.1,0l0-.11c-.11.09-.17.36-.25.39v.08c-.08.28,0-.12-.08.1v-.25c0,.09-.12.32-.15.4a1.3,1.3,0,0,1,.13-.48.29.29,0,0,0-.13.23s0-.11,0-.08a1,1,0,0,1-.11.39c-.09-.45-.17,0-.37-.18,0,.15-.11.2-.18.3a.63.63,0,0,0-.22.34c.32,0,0,.07.3.09,0,0,0,.06,0,.06a1,1,0,0,0-.21.17c-.1.06-.06,0-.13,0s-.14.09-.22.21c.11-.05.17,0,.13.09a1,1,0,0,1,.13-.15c.17.09-.23.26,0,.35h-.1c.07.06.13.31.34.16,0,0-.07.12-.1.12.08.19.36,0,.38.24l0,.06s.09-.11.1,0,0,.07,0,.08.11-.09.13,0l-.05.07c.13.16.25-.13.34-.17a.33.33,0,0,0,.2.33v0c.21,0,.27-.24.37-.4.22.16.36-.12.57-.23-.05,0-.14-.09-.14-.13s-.09-.18.1-.1v0c.19,0,.19-.11.21-.23l-.26,0a.25.25,0,0,0,0-.41c-.09-.1-.17-.14-.07-.28-.07,0-.1,0-.18,0l.11-.09a.27.27,0,0,0-.17-.19l.08-.06s-.31.27-.35.25l.13-.17c-.07-.06-.12-.31-.32-.19,0,0,0-.08.06-.08s-.19-.22-.25.07c.05-.18-.13,0-.2.05l0-.14c-.08.18-.08.23-.15.29s0-.12,0-.08,0,.14-.1.08l0-.1c-.05,0-.05.06-.06.18s-.08,0-.12-.12c0,.09,0,.21,0,.19a.51.51,0,0,1,0-.1c-.09-.06,0,.25-.08.14l0-.09s.06-.06.06-.05a1.18,1.18,0,0,1-.12-.34c0,.12.05.4,0,.36l0,0v0s0,0,0,0l0,0c-.06-.13,0-.06,0-.07A3,3,0,0,1,17,14l0,0v0c0,.09.07.18,0,.09l.14.31a2.63,2.63,0,0,1-.16-.57c.07,0,.12,0,.3.08l.11,0s.06.18.09.25a1.5,1.5,0,0,1,.05.41c0,.07.12,0,.18,0s-.07-.12-.08-.17.1.25.31.34c.06.05.15.09.12.12a.47.47,0,0,1-.19,0c.16.14.31,0,.25.14h.11c.22.23,0,.2-.14.16s-.21-.09.05.06l-.08,0c.24.17.12,0,.45-.16.07-.06-.05-.08-.14-.12h.15l-.17-.07s0,0,0-.06.29-.15.09-.21l-.09,0c0-.05-.09-.1,0-.12s-.11,0-.06,0l.07,0-.15,0c0-.08.3-.1.28-.2a.44.44,0,0,0-.3,0s0,0-.1.08h-.05a3,3,0,0,0-.57.29l.15,0-.1,0,0,0c-.09.05,0,0,.06,0l-.11.05.22,0a1.15,1.15,0,0,0-.22.07c.1,0,.19-.07.26-.07-.09.05-.18.07-.09.06l-.12,0c.08,0,0,0,.16,0-.13,0,0,0-.18.05h.05s0,0-.16,0c.24,0,.1,0,.22.07h0l-.14,0a1.77,1.77,0,0,1,.31.13l-.36-.14a1.85,1.85,0,0,1,.24.11l-.19-.08c.19.09,0,0,.13.07l-.12-.06Zm-.1-.23h0v0Zm0,0v0l0-.06Zm-.37-.8s0,0,0,0v0Z"/><path class="cls-3" d="M17,13.92V14l0-.05Z"/><path class="cls-3" d="M17.07,14.73h0Z"/><path class="cls-3" d="M17.63,14.75h0l0,0S17.62,14.76,17.63,14.75Z"/><path class="cls-3" d="M17.55,14.26h0Z"/><path class="cls-3" d="M17.61,14.1h0Z"/><path class="cls-3" d="M17.72,14l0,0h0Z"/><path class="cls-3" d="M17.79,14.63h0S17.77,14.61,17.79,14.63Z"/><path class="cls-3" d="M17.77,15.14v-.07S17.75,15.06,17.77,15.14Z"/><polygon class="cls-3" points="17.68 14.24 17.68 14.24 17.68 14.24 17.68 14.24"/><path class="cls-3" d="M17.77,15.07s0,0,0,0S17.78,15.09,17.77,15.07Z"/><path class="cls-3" d="M17.29,14Z"/><path class="cls-3" d="M17.31,14h0Z"/><path class="cls-3" d="M17.36,14h0Z"/><path class="cls-3" d="M17.31,13.9l0,0Z"/><path class="cls-3" d="M17.28,13.88s-.08.08-.05.07l0,0C17.21,14,17.35,13.83,17.28,13.88Z"/><path class="cls-3" d="M17.21,13.62l.06,0c-.05,0-.12,0-.12-.07C17,13.52,17.27,13.56,17.21,13.62Z"/><path class="cls-3" d="M17.06,13.77s-.07,0-.1,0S17,13.78,17.06,13.77Z"/><path class="cls-3" d="M17.11,15.2l-.11.05S17,15.23,17.11,15.2Z"/><path class="cls-3" d="M17.78,15l.06,0-.09.07Z"/><path class="cls-3" d="M17.4,15.86h0Z"/><path class="cls-3" d="M18.73,13.43l-.13.11S18.78,13.44,18.73,13.43Z"/><path class="cls-3" d="M17.8,13.16c0-.1,0-.14-.06,0S17.78,13.19,17.8,13.16Z"/><path class="cls-3" d="M18.85,14.54l0,.05a.31.31,0,0,0,0-.1Z"/><path class="cls-3" d="M21.69,18.41h0Z"/><path class="cls-3" d="M22,18.39H21.9s0,0-.11,0h.07c.12,0,.13,0,0,0Z"/><path class="cls-3" d="M22.25,18.17h0Z"/><path class="cls-3" d="M22.34,18h0Z"/><path class="cls-3" d="M22.52,18h0Z"/><path class="cls-3" d="M22.25,18.17h0Z"/><path class="cls-3" d="M21.59,18.36h0Z"/><path class="cls-3" d="M22.39,18.23Z"/><path class="cls-3" d="M22.41,18.28h0Z"/><path class="cls-3" d="M22.16,18.35h0Z"/><path class="cls-3" d="M22.42,18.2h0Z"/><path class="cls-3" d="M21.36,16.89h0Z"/><path class="cls-3" d="M22.06,16.84Z"/><path class="cls-3" d="M22.7,18Z"/><path class="cls-3" d="M22.6,17.57c-.13,0-.16,0-.3,0Z"/><path class="cls-3" d="M21.61,18.36Z"/><path class="cls-3" d="M22.3,17.57Z"/><path class="cls-3" d="M22.62,17.87h0Z"/><path class="cls-3" d="M22.42,17.94h0Z"/><path class="cls-3" d="M22.42,17.83h0Z"/><path class="cls-3" d="M22.42,17.79h0Z"/><path class="cls-3" d="M21.43,17h.12C21.45,17,21.42,17,21.43,17Z"/><path class="cls-3" d="M21.67,18.36h0Z"/><path class="cls-3" d="M21.31,17.83h0Z"/><path class="cls-3" d="M21.45,17.3h0Z"/><path class="cls-3" d="M21.31,17.8h0Z"/><path class="cls-3" d="M21.55,17Z"/><path class="cls-3" d="M21.22,17s.18,0,.29,0h-.1c.15,0,0,0,.19,0h.21s.11,0,0,0h-.21l.15,0a1.46,1.46,0,0,0-.21,0h.06a2.25,2.25,0,0,1-.26,0s.08,0,0,0h.24c.17,0-.43,0-.2,0s.32,0,.21,0h-.19s.27,0,.14,0h-.08c-.15,0,.11,0,.11,0h-.17l.18,0h-.16c.09,0,0,0-.12,0h.07c.13,0,.27,0,.12,0h-.05c-.06,0,.3,0,.17,0h0c-.06,0,.07,0-.15.05.21,0-.1,0,.2,0l-.3,0h0c.16,0-.16,0,0,0h.12c-.09,0-.09,0-.06,0h-.1s.05,0,.05,0h.09a.65.65,0,0,1-.14,0c.1,0-.16,0,0,0h0s0,0,.06,0h.22s-.15,0-.14,0a1.33,1.33,0,0,0,.2,0h-.21l.13,0h0c.2,0-.37,0-.1,0h-.05c.21,0,0,0,.11,0-.38,0,0,0-.22,0h.15c.11,0-.13.05-.21.07s.46,0,.25,0h-.17c.2,0,0,0,.16.05h-.08c-.12,0,0,0,.09,0h-.14c-.07,0,.15,0,0,0h0c.05,0,0,0,.12,0-.07,0,.06,0,0,0,.15,0-.07,0,.14,0-.22,0-.18,0-.07,0h0c-.27,0,.22,0-.13,0a1,1,0,0,1,.26,0c-.22,0,0,0-.26,0,.1,0,.29,0,.23,0a.56.56,0,0,1-.13,0c.09,0,0,0,.1,0h-.06s0,0,.07,0h0s.26,0,.17,0h0c.09,0,.23,0,.18,0h-.28l.21,0h-.17s.23,0,.13,0h0c-.05,0,.08,0,0,0a1.32,1.32,0,0,0-.2,0s.22,0,.18,0h0c.26,0-.13,0,0,0h-.11c-.05,0,.06,0,.14,0h-.06l-.07,0h.16c-.39,0,.2,0-.12,0h.15c-.21,0,.23,0,.09,0h0a1,1,0,0,1-.17,0s.25,0,.12,0h-.07c-.16,0-.12,0-.15,0h0c.35,0,.06,0,.29,0h-.41c.13,0-.09,0,.09,0h0c.17,0-.2,0,0,0l.34,0h-.18c-.07,0-.06,0,0,0h-.13s.17,0,.1,0h-.19l.18,0h.06c.28,0-.05,0,0,0h.24c.1,0-.08,0,0,0h.09c.12,0-.16,0,0,0h0a.86.86,0,0,0-.16,0c.14,0-.07,0,.18,0h-.17c.26,0-.05,0,.07,0a1.07,1.07,0,0,0,.18,0c-.22,0,.05,0,0,0s-.07,0-.14,0l.17,0h.07s-.16,0-.07,0h-.22s-.06,0,0,0h.11c.06,0-.09,0-.08,0h.15s0,0,0,0h.18a1.19,1.19,0,0,0-.15,0h-.08c-.15,0,.08,0,0,0h.06s-.09,0,0,0,.08,0,.06,0,.12,0,0,0h0s0,0,0,0h.17c.2,0-.34,0,0,0h-.21l.26,0c.09,0-.24,0-.18,0h0a.72.72,0,0,1,.15,0,.28.28,0,0,0-.13,0c.09,0,0,0,.06,0h-.1c.07,0-.11,0-.14,0s.22,0,.14,0h.21c-.12,0,.07,0,.09,0h-.33c.06,0-.06,0,.1,0-.06,0,.15,0,.18,0s0,0,0,0h0c.14,0-.17,0-.17,0h-.07c.07,0-.05,0,0,0h-.06c-.16,0,.16,0,.06,0h.2c-.11,0,.13,0,0,0h-.21l.09,0h-.12a.49.49,0,0,0-.17,0c.18,0-.1,0,0,0h.29c.14,0-.15,0-.07,0h-.05c-.12,0,0,0-.07,0h.2a1.7,1.7,0,0,0-.19,0h.08c.07,0-.13,0,0,0h-.27c.31,0,0,0,.24,0l-.07,0h0c.09,0-.28,0-.18,0a.47.47,0,0,1,.14,0c.33,0,0,0,.15,0h0c.11,0-.12,0-.1,0h.05l-.27,0h.23c.18,0,0,0,0,0h-.19c-.2,0,.11,0,0,0h.2l-.23,0h0c.38,0,.09,0,.39,0-.14,0,.06,0,0,0h0c-.16,0,.26,0,.1,0h.09c-.05,0,0,0-.24,0h.14s-.26,0-.11,0h.08s-.14,0-.07,0h.08s-.13,0-.09,0h.09c.09,0-.21,0-.26,0a1.46,1.46,0,0,0,.33,0h0a1.66,1.66,0,0,0-.27,0c.24,0,.1,0,.23,0h-.19s-.15,0,0,0h0c.19,0,.14,0,.15,0h-.27c.39,0-.14,0,.2,0h0s.05,0,0,0h.1s-.41,0-.42,0h.21s.18,0,0,0h.1s.15,0-.14,0c.18,0,0,0-.07,0h-.06c.07,0-.13,0-.06,0h.06c.09,0-.16,0,0,0h.4c-.1,0-.31,0-.25,0h.08c.1,0,.05,0,.06,0h-.06a1.57,1.57,0,0,0-.32,0h0c.08,0,.17,0,.14,0h.06c.29,0-.47,0-.1-.05h-.06c.17,0-.16,0,.11-.06.05,0-.07,0-.16,0h0c-.13,0,.37,0,.13,0h-.1s-.06,0,.06,0h-.85c-.1,0,0,0,.05,0h.1a1.74,1.74,0,0,0-.23,0,2.42,2.42,0,0,1,.27,0h-.07a.72.72,0,0,1-.19,0h-.11c.24,0,.1,0,.24,0h-.16a.72.72,0,0,1,.19,0h-.16A.76.76,0,0,1,21.22,17Zm.42.14Zm0,0Zm1,0h0Z"/><path class="cls-3" d="M22.44,17.1h0Z"/><path class="cls-3" d="M22.23,18.17Z"/><polygon class="cls-3" points="21.38 17.29 21.41 17.29 21.38 17.29 21.38 17.29"/><path class="cls-3" d="M21.75,18.24h0Z"/><path class="cls-3" d="M21.71,18.27h0Z"/><path class="cls-3" d="M21.64,18.29h0Z"/><path class="cls-3" d="M21.48,17.94h0Z"/><path class="cls-3" d="M21.81,18h0Z"/><polygon class="cls-3" points="21.31 17.83 21.31 17.83 21.31 17.83 21.31 17.83"/><path class="cls-3" d="M21.74,18Z"/><path class="cls-3" d="M21.58,18.38h0Z"/><path class="cls-3" d="M21.6,18.38h0Z"/><path class="cls-3" d="M21.65,18.39h0S21.61,18.39,21.65,18.39Z"/><path class="cls-3" d="M21.65,18.35h0Z"/><path class="cls-3" d="M21.63,18.34h0C21.52,18.35,21.72,18.35,21.63,18.34Z"/><path class="cls-3" d="M22.26,18.31h.1C22.52,18.31,22.24,18.32,22.26,18.31Z"/><path class="cls-3" d="M22.34,18.28h0Z"/><path class="cls-3" d="M22.34,18.12h0Z"/><polygon class="cls-3" points="21.68 18.09 21.6 18.09 21.72 18.09 21.68 18.09"/><polygon class="cls-3" points="22.59 18.07 22.61 18.07 22.56 18.07 22.59 18.07"/><path class="cls-3" d="M22.54,17.8h0Z"/><path class="cls-3" d="M22.38,17.68c.08,0,.13,0,.06,0Z"/><polygon class="cls-3" points="22.64 17.32 22.69 17.32 22.65 17.32 22.64 17.32"/><path class="cls-3" d="M26.8,20.67s-.09-.11-.09-.08l.1.13Z"/><path class="cls-3" d="M26.53,20.5a1.2,1.2,0,0,0,.22.31c-.09-.14-.05-.09-.15-.25s0,0,.09.08,0,0,0-.08-.12-.07-.07,0Z"/><path class="cls-3" d="M25.23,21l0,0Z"/><path class="cls-3" d="M24.43,21.23v0S24.42,21.21,24.43,21.23Z"/><path class="cls-3" d="M24.24,21.09h0S24.24,21.08,24.24,21.09Z"/><path class="cls-3" d="M25.23,21l0,0S25.22,21,25.23,21Z"/><path class="cls-3" d="M26.62,20.94s0,0,0,0v0Z"/><path class="cls-3" d="M25.5,20.73h0l0-.07Z"/><path class="cls-3" d="M25.72,20.57a1,1,0,0,0,.09.17s0-.07,0-.09Z"/><path class="cls-3" d="M26.22,20.53v0Z"/><path class="cls-3" d="M25.31,20.79l0,0Z"/><path class="cls-3" d="M17.3,21.15v0Z"/><polygon class="cls-3" points="17.41 20.37 17.42 20.37 17.46 20.31 17.41 20.37"/><path class="cls-3" d="M24,21Z"/><path class="cls-3" d="M21.7,21.29c0,.12-.05.15,0,.3C21.68,21.53,21.73,21.37,21.7,21.29Z"/><path class="cls-3" d="M26.6,20.93h0S26.6,20.94,26.6,20.93Z"/><polygon class="cls-3" points="21.68 21.59 21.68 21.59 21.68 21.6 21.68 21.59"/><path class="cls-3" d="M23.42,21.19v0Z"/><path class="cls-3" d="M23.88,21.3v0Z"/><path class="cls-3" d="M23.23,21.42s0,0,0,0h0S23.22,21.39,23.23,21.42Z"/><polygon class="cls-3" points="22.99 21.44 23 21.47 23 21.46 22.99 21.44"/><path class="cls-3" d="M18.05,21.51l.05-.12C18.05,21.48,18,21.5,18.05,21.51Z"/><path class="cls-3" d="M26.57,20.88l0,.05h0Z"/><path class="cls-3" d="M23.36,22.52l0,0Z"/><path class="cls-3" d="M19.86,22.16h0S19.86,22.18,19.86,22.16Z"/><path class="cls-3" d="M23.19,22.54a.41.41,0,0,0,0-.1v0Z"/><path class="cls-3" d="M18.1,21.39Z"/><path class="cls-3" d="M17.69,21.55s.1-.15.16-.24,0,.13-.08.22.16-.16.17-.14l0,.07c.09-.12.09,0,.2-.11v0l.11-.23s.08-.09,0,0,0,0,0,.07l0,0c-.06.16-.05,0-.11.16.06,0,.16-.14.16-.09s-.08,0-.11.18v-.08c-.09.25,0,0-.12.24,0,.07.1-.05.13,0a1.28,1.28,0,0,1,.11-.2c.14-.12-.13.41,0,.23s.15-.29.14-.17l-.09.17s.14-.24.14-.1-.06,0-.06.07.06-.09.09-.08l-.06.16c.06,0,.17-.09.25-.09a.25.25,0,0,0-.06.14c.11,0,.15.09.2.21l.08-.12a.29.29,0,0,1,0,.09c0,.06,0-.09.07-.14s0,.09,0,.13.24-.21.24,0l0,0c0,.07.14-.27.14-.13l0,0c.08.09.22,0,.23.22.07-.2.07.12.15-.16,0,.15,0,.2,0,.32s.08-.17.11-.2l0,.15.07-.15,0,.19,0,0s0-.07,0-.11.06.13.05.2l.12-.1a.54.54,0,0,1-.06.11c.08-.14,0,.16.05,0a.53.53,0,0,1,0-.12c0,.1.05.11.09.08l0,.1c.07,0,.16,0,.23,0a.37.37,0,0,1,.05-.25l0,.16c0-.09,0-.06,0-.18a.47.47,0,0,1-.05.24l.05,0,0,.13c0-.1,0,.17.08,0v.05c.07,0,.11,0,.17,0s.05-.11.08-.22c0,.05.07.17.13.17s0-.12.05-.2c0,.13,0,.12,0,.21s.09,0,.18-.1a.47.47,0,0,1,0-.12s0,0,0,.11v0c.12-.18.17.39.28.13v0l.09-.14s0,.1,0,.18c.1-.21.13,0,.21-.1,0,.38.18,0,.24.23v-.09c0-.08,0,0,0,.08s0-.09,0-.13c.16-.1.32.13.49.21s0-.46.1-.25l0,.17c.12-.2.25,0,.36-.18,0,0,0,.09,0,.09s.09,0,.09-.1,0,.08,0,.13,0-.15.08,0a.43.43,0,0,1,0,0c0-.06.08,0,.05-.13.05.07.07-.06.12,0,0-.15.08.07.06-.15,0,.22.1.17.11.06,0,.07,0,.07,0,.16s.05-.05,0-.16c.1.26.08-.24.17.1a1.29,1.29,0,0,1,.21-.3c0,.23-.09,0,0,.28.06-.11.07-.31.16-.27s0,.1,0,.14.15,0,.19-.15a.06.06,0,0,1,0,.06s0,0,0-.07v0a1.58,1.58,0,0,1,0-.4c.05.3.09.06.14.43a1,1,0,0,0,0-.14.28.28,0,0,1,0,.14c0-.07,0-.17,0-.18s0,.07,0,.13c0-.1,0-.2,0-.17s0,.06,0,.07,0-.28.12-.21.05.06.1.24l0-.07-.05-.08s0-.14.07-.09v.08l.05-.06-.06-.05c0-.1-.07-.23,0-.19s0,0,.08.09h0c0-.06,0-.12,0-.09l.07.24c0-.15.06-.07,0-.23a.53.53,0,0,0,.05.15l0-.13a.85.85,0,0,1,.06.13c.05,0-.1-.22,0-.14s0,0,0,.05.08-.11.14-.07,0,.06,0,.2c.06-.06.06-.27.14-.25l0,0c-.09-.25.1.1.08,0a.53.53,0,0,0,0,.11c.06,0,.07-.1.1-.2l0,.06c0,.05.08,0,.12,0a.37.37,0,0,0-.05-.15c.26.31.06-.26.28,0,0,0,0,.07,0,.06l0-.08a.49.49,0,0,0-.1-.13c0-.07,0-.12,0-.13a.5.5,0,0,0,.13.21l-.05-.1c.13.16-.11-.2,0-.11l0,.06s0-.12,0-.11,0,.06.07.16-.08-.25,0-.15a.27.27,0,0,0,0,.09c.1.12.09.08.12.09h0l.08,0,0,0c-.15-.32,0-.1,0-.31.07.2.06.11.14.24a.26.26,0,0,1,.09.09c0-.11.08.06,0-.11,0,0,0,0,.08.1,0,0-.05-.07-.08-.12s.2.1.13-.12-.1-.25-.1-.35a.36.36,0,0,1,.09.15c.07,0,.08,0,.06,0a.41.41,0,0,0,.09.1s-.1-.15,0-.11a1.51,1.51,0,0,1,.1.17,1.33,1.33,0,0,0-.05-.19.59.59,0,0,1,.1.16.3.3,0,0,0-.07-.22l0,0a.59.59,0,0,1,.09.11c0,.1-.06,0-.09-.05v0c-.19-.21,0,.08-.07.09l-.11-.17.07.16a.59.59,0,0,1-.12-.17c-.08-.06,0,.08-.06,0l0,0,0,.06s-.09-.11-.06-.1,0,.17-.07.05h0c0,.09.09.13.15.3L26,20.54l.08.13s0,0-.06-.06c0,.1,0,.06.09.15-.11-.1,0,.1-.18-.1.06.1.07.06.09.14-.15-.21,0,.06-.1,0s0-.08-.09-.16c.11.2-.07,0-.07,0s0,.09,0,.17-.12-.05-.18-.09l0,0c.09.16,0,.15,0,.2a.77.77,0,0,1-.08-.19l0,0a.3.3,0,0,1,0,.11l-.06-.13s0,.18-.07.12a1.36,1.36,0,0,1,.2.4,1.22,1.22,0,0,1-.1-.2s0,.06,0,0l0-.12s0,.09,0,.09-.05-.05-.08-.13,0,0,0,0a.26.26,0,0,1-.11-.12c0,.05.06.12.05.14s-.06-.1-.1-.14,0,0,0,.15l-.06-.1c0,.07-.06.06,0,.19h0c0,.16-.15,0-.17.06l0-.05c0,.07-.06.07,0,.17s-.06-.07-.08-.13,0,.1-.05,0,0-.07,0-.07-.09-.1-.07,0c0-.12-.08-.14-.08-.1l.05.08s0,0-.05,0l-.05-.16c-.13-.16,0,.37-.16.07,0,.11.06.06.09.2s-.14-.23-.15-.22,0,.24,0,.19a.68.68,0,0,1,.07.27.5.5,0,0,1-.11-.28l0,0a.14.14,0,0,0,0-.11l0,.06c0-.05-.07,0-.09-.13a.13.13,0,0,0,0,.12c-.06-.07-.06,0-.12,0s.05.1,0,.1,0,.11,0,.15-.05-.21-.07-.12a.42.42,0,0,1-.05-.2c0,.12-.09-.06-.11-.07v-.05s0,0,0,0l0,.11s0,0,0-.06.06.19.07.3c0-.06,0,.07-.08-.08.06,0,0-.15,0-.19s0,0,0,0v0c-.08-.13,0,.17,0,.18s-.05-.16-.05-.14,0,.14,0,.21,0,.06,0,.06l0,0c0,.09,0,.08,0,.12s0-.05,0-.08c0,.16-.09-.15-.1,0,0-.05,0-.16-.06-.2,0,.12-.06-.11-.08,0a.39.39,0,0,1,0,.21l0-.1v.18s0-.08,0-.06a.29.29,0,0,0,0,.16c-.07-.17,0,.11-.09,0l-.06-.29c-.07-.12-.05.17-.13.11l0,0c0,.12,0,0,0,.08a1.24,1.24,0,0,0-.06-.2c0,.08,0,0,0,.2l0-.12c-.06-.05,0,.28-.07.26a1.19,1.19,0,0,1,0-.26s0,0,0,.06,0,.13-.06,0,0,.15,0,.14v0a.39.39,0,0,0,0,.18c-.09-.3-.14,0-.21-.22a.21.21,0,0,1-.11.08s0-.05,0,0,0,.29-.07.19,0-.09,0-.15c0-.32,0,.05-.1-.13v0c0-.11-.06.12-.1.1v-.05a.46.46,0,0,1-.12.28.67.67,0,0,0,0-.2s0,.21,0,.24a2,2,0,0,1-.05-.26h0c0-.18,0,0-.07,0V21.4c-.05,0,0,.22-.1.21v.06c0,.19,0-.11-.06,0v-.2a1,1,0,0,1-.11.23,1.46,1.46,0,0,1,.09-.31s-.07,0-.08.12,0-.07,0,0-.06.23-.1.23c0-.39-.11-.1-.13-.4-.07.14-.13-.07-.21,0,0,.3,0,0,0,.31t0,0l0-.19c0-.09,0-.06,0-.13s0-.13,0-.22c0,.11,0,.16,0,.11l0,.15c-.07.15,0-.26-.1-.11l0-.09c0,.05-.11,0-.16.23a.31.31,0,0,1,0-.14c-.06-.05-.19.24-.22.08v-.07s0,.14-.05.06,0-.07,0-.08-.05.13-.06.08l0-.08c-.05-.11-.13.19-.2.23a.46.46,0,0,0,0-.34v0c-.08,0-.17.16-.26.23,0-.25-.14-.13-.19-.28a.38.38,0,0,1-.05.19c0-.05-.08.14,0-.06h0c0-.2,0-.16,0-.17l-.07.26c0-.39-.22.09-.18-.25,0,.06,0,.05-.08.11L20,21c0-.05-.05-.07-.12-.05l0-.1s-.15.38-.19.38l.05-.2c-.06,0-.06-.21-.17-.05a.39.39,0,0,1,0-.09s-.05-.17-.14.11c.06-.18-.05,0-.11,0l.05-.13c-.08.16-.1.21-.15.24s0-.11,0-.07-.07.11-.08,0l0-.08s0,0-.09.12,0-.05,0-.17c0,.07-.09.16-.09.11a.19.19,0,0,1,0-.08c0-.1-.13.12-.12,0a.2.2,0,0,0,0-.08s.06,0,.06,0a1.06,1.06,0,0,1,.11-.31c-.06.08-.18.26-.19.19l0,0h0s0,0,0,0a.07.07,0,0,0,0,0c0-.1,0-.06,0-.07a1.2,1.2,0,0,0-.09.21l0,0h0v0h0c0,.06-.07.11-.06,0l-.11.2c.05-.19.06-.3.1-.41-.08.05-.13,0-.27.22,0,0,0-.07,0-.11s0,0,.05-.05-.09,0-.18.15c0-.09.09-.14,0-.14l0-.05c0-.3-.37.35-.29,0,0,0,0,0,0,.06,0-.2-.31,0-.28-.28,0-.06-.06,0-.13.1l.07-.13-.12.12c-.12.08.13-.36-.06-.19l-.05.09s-.1,0,0-.09-.06.08,0,0l0-.06-.12.07c0-.07.19-.25.14-.3a.93.93,0,0,0-.21.19.24.24,0,0,1-.06.12l0,0a1.56,1.56,0,0,0-.35.53l.12-.09-.06.1h0c-.05.09,0,0,.07,0l-.06.11.17-.15c-.05.08-.13.13-.13.19s.1-.18.17-.21-.1.16,0,.1a.31.31,0,0,1-.08.1c.06-.05.07,0,.15-.09-.06.12.08,0-.05.2,0,0,.13-.13.15-.12-.18.2.05,0-.11.28.15-.18.14,0,.26-.12s0,0,0,0,0,.1,0,.15a1.21,1.21,0,0,1,.24-.28c-.07.18-.13.19-.22.35.08-.14.13-.11.19-.23a1,1,0,0,1-.08.21c.13-.21,0,0,.13-.14,0,.12-.1.2,0,.16A.32.32,0,0,1,17.69,21.55Zm1,0Zm.08,0h0c0-.05,0-.1,0-.09S18.81,21.57,18.81,21.61Zm.22-1s0,0,0,0h0v0Z"/><path class="cls-3" d="M18.94,20.81h0v0l0,0Z"/><path class="cls-3" d="M25.25,21Z"/><polygon class="cls-3" points="19.76 22.21 19.77 22.17 19.76 22.2 19.76 22.21"/><path class="cls-3" d="M25.84,21.27l0,0Z"/><path class="cls-3" d="M26,21.2l0,0Z"/><path class="cls-3" d="M26.18,21.19l0-.05h0Z"/><path class="cls-3" d="M24.1,22.21h0S24.1,22.24,24.1,22.21Z"/><path class="cls-3" d="M24.67,21.71v.07S24.69,21.79,24.67,21.71Z"/><polygon class="cls-3" points="23.37 22.52 23.37 22.52 23.36 22.52 23.37 22.52"/><path class="cls-3" d="M24.64,21.79s0,0,0,0S24.64,21.77,24.64,21.79Z"/><polygon class="cls-3" points="26.73 20.87 26.74 20.87 26.73 20.85 26.73 20.87"/><path class="cls-3" d="M26.73,20.85v0A0,0,0,0,0,26.73,20.85Z"/><path class="cls-3" d="M26.71,20.79v0S26.74,20.83,26.71,20.79Z"/><path class="cls-3" d="M26.54,20.94l0,0Z"/><path class="cls-3" d="M26.5,21s.09.07.09,0l0,0C26.6,21.05,26.46,20.91,26.5,21Z"/><path class="cls-3" d="M26,20.6H26s-.09-.1-.08-.12S26,20.59,26,20.6Z"/><path class="cls-3" d="M25.79,20.61s0-.07-.06-.1S25.75,20.58,25.79,20.61Z"/><path class="cls-3" d="M24.93,21.05l-.05-.12S24.9,21,24.93,21.05Z"/><polygon class="cls-3" points="24.98 21.74 25.03 21.8 25 21.69 24.98 21.74"/><polygon class="cls-3" points="24.56 20.92 24.57 20.9 24.55 20.95 24.56 20.92"/><path class="cls-3" d="M23,21.32l0,.15S23,21.27,23,21.32Z"/><path class="cls-3" d="M22.33,21.52c0-.08,0-.13,0-.05S22.32,21.54,22.33,21.52Z"/><polygon class="cls-3" points="20.25 21.03 20.28 20.98 20.24 21.02 20.25 21.03"/></g></g></svg>