<svg xmlns="http://www.w3.org/2000/svg" viewBox="0 0 14.61 25.55"><defs><style>.cls-1{fill:#fcc03d;stroke:#f1ede2;stroke-miterlimit:10;}</style></defs><g id="圖層_2" data-name="圖層 2"><g id="圖層_1-2" data-name="圖層 1"><path class="cls-1" d="M2.73,12.44a32.05,32.05,0,0,0,1.74-4.2C5.32,4.4,4,1,4.47.53s1.07,1.62,3.05,4.2C8.94,6.58,10,7.9,11.45,8.24s2.38-.61,2.62,0c.35.91-1.55,3.11-3.06,7.7a19.37,19.37,0,0,0-.87,4.9c0,.7,0,1.3,0,1.3.11,1.83.52,2.79.42,2.9-.26.28-2.28-6.54-5.24-7a14.09,14.09,0,0,0-2.18,0c-1.87.12-2.42.46-2.61,0S1,16.3,2.73,12.44Z"/></g></g></svg>