<svg xmlns="http://www.w3.org/2000/svg" viewBox="0 0 102.91 169.44"><defs><style>.cls-1{fill:#dcad6e;stroke:#f1ede2;stroke-miterlimit:10;}.cls-2{fill:#b58e5b;}.cls-3{fill:#4d4d4d;}</style></defs><g id="圖層_2" data-name="圖層 2"><g id="圖層_1-2" data-name="圖層 1"><path class="cls-1" d="M100.33,83.48c4.47-17.25.71-62.16-1.68-67.55a5.45,5.45,0,0,0-1.41-2.11,8.33,8.33,0,0,0-8.54-1.53c-.52.18-.84,2-1.1,2.34-.41.6,1,4.31,1.16,5,1.08,5.46,3.9,9.77,4.66,16a81.44,81.44,0,0,1,.67,12.67c-.07,7-2,14-3.91,20.87A41,41,0,0,0,79.42,53.33c-2.19-2-13.24-12-30-11.75-9.63.13-23.47,3.64-28.59,12.4a44,44,0,0,0-3.62,9.79C15.49,70.49,15.92,75.43,15,75.51s-2.35-5.93-2.5-6.66a50.22,50.22,0,0,1-1-18c.69-5.55,2.3-10.1,5.52-19.18.94-2.67,2-5.11,2-5.11q.51-1.18,1.11-2.46c.3-.63.8-1.68,1.5-3,2.66-5,3.85-5.67,5.46-9s2.51-5.38,1.38-7.68C27.59,2.59,25.74.74,23.69.52,17.51-.13,11.32,13.42,8.13,20.4A83,83,0,0,0,1.51,41.85a97.07,97.07,0,0,0-1,16c0,5.91,0,10.33,1,16A63.77,63.77,0,0,0,6.88,90.2c-3.19,7.23-2.94,15.14-2.72,21.86.74,22.56,26,59.2,55.72,56.77,18.91-1.55,30.87-18.19,31.84-19.58,8.66-12.42,7.62-25.79,7.24-30.67s-1.12-4.58-2.9-15.66c-.49-3-.82-5.51-1.07-7.59a34.85,34.85,0,0,0,2-3.28A42.81,42.81,0,0,0,100.33,83.48Z"/><ellipse class="cls-2" cx="44.32" cy="88.89" rx="1.81" ry="2.28"/><ellipse class="cls-2" cx="48.3" cy="137.18" rx="2.17" ry="2.28"/><ellipse class="cls-2" cx="53.73" cy="153.82" rx="2.53" ry="2.61"/><ellipse class="cls-2" cx="76.88" cy="123.15" rx="1.81" ry="1.96"/><ellipse class="cls-2" cx="79.06" cy="142.07" rx="1.81" ry="1.96"/><ellipse class="cls-2" cx="31.3" cy="115.65" rx="1.77" ry="2.33" transform="translate(-55.13 32.67) rotate(-31.02)"/><ellipse class="cls-2" cx="15.32" cy="97.46" rx="1.3" ry="1.52" transform="translate(-55.91 29.2) rotate(-37.29)"/><ellipse class="cls-2" cx="26.89" cy="122.25" rx="1.3" ry="1.52" transform="translate(-68.57 41.28) rotate(-37.29)"/><ellipse class="cls-2" cx="26.17" cy="135.96" rx="1.3" ry="1.52" transform="translate(-77.02 43.65) rotate(-37.29)"/><ellipse class="cls-2" cx="60.18" cy="161.4" rx="1.3" ry="1.52" transform="translate(-85.49 69.46) rotate(-37.29)"/><ellipse class="cls-2" cx="40.64" cy="58.96" rx="1.3" ry="1.52" transform="translate(-27.41 36.68) rotate(-37.29)"/><ellipse class="cls-2" cx="60.9" cy="110.51" rx="1.3" ry="1.52" transform="translate(-54.5 59.49) rotate(-37.29)"/><ellipse class="cls-2" cx="80.08" cy="110.51" rx="2.01" ry="2.52" transform="translate(-46.98 60.72) rotate(-32.67)"/><path class="cls-3" d="M41.41,59s.14,0,.12,0l-.16,0Z"/><path class="cls-3" d="M41.74,58.84a.71.71,0,0,0-.35-.14c.14.08.08.08.25.16,0,0-.06,0-.12,0s0,.06.06.09.14-.08.05-.16S41.71,58.84,41.74,58.84Z"/><path class="cls-3" d="M42.38,60.23h0Z"/><path class="cls-3" d="M41.53,61.08s0,0,0,0Z"/><path class="cls-3" d="M41.48,60.83h0S41.49,60.82,41.48,60.83Z"/><path class="cls-3" d="M42.38,60.23l-.06,0C42.38,60.28,42.37,60.25,42.38,60.23Z"/><path class="cls-3" d="M41.55,58.24a.08.08,0,0,0,0,0v0Z"/><path class="cls-3" d="M42.27,59.49v0H42.2Z"/><path class="cls-3" d="M42.12,58.94s.13,0,.19,0h-.1Z"/><path class="cls-3" d="M42.11,58.42v0Z"/><path class="cls-3" d="M42.26,59.89h0Z"/><path class="cls-3" d="M40.23,60.4h0Z"/><polygon class="cls-3" points="41.17 59.52 41.17 59.53 41.24 59.57 41.17 59.52"/><path class="cls-3" d="M41.44,60.48h0S41.45,60.49,41.44,60.48Z"/><path class="cls-3" d="M42.09,59.64c.11-.09.17,0,.29-.09C42.33,59.57,42.15,59.56,42.09,59.64Z"/><path class="cls-3" d="M41.58,58.23v0A0,0,0,0,0,41.58,58.23Z"/><polygon class="cls-3" points="42.38 59.55 42.38 59.55 42.39 59.54 42.38 59.55"/><path class="cls-3" d="M41.12,59.45h0Z"/><path class="cls-3" d="M41.07,60.31v0A0,0,0,0,0,41.07,60.31Z"/><path class="cls-3" d="M41,59s0,0,0,0h0S41,59,41,59Z"/><polygon class="cls-3" points="41.06 58.69 41.04 58.67 41.04 58.69 41.06 58.69"/><path class="cls-3" d="M42.06,61.25a.24.24,0,0,1-.06-.11C42,61.23,41.9,61.35,42.06,61.25Z"/><path class="cls-3" d="M41.62,58.28s0,0,0-.05v0Z"/><path class="cls-3" d="M39.89,58.74l0-.1A.3.3,0,0,0,39.89,58.74Z"/><path class="cls-3" d="M40.36,59.63v0S40.35,59.61,40.36,59.63Z"/><path class="cls-3" d="M40.06,58.2a.19.19,0,0,0,.12,0s0,0,0,0Z"/><path class="cls-3" d="M42,61.13h0Z"/><path class="cls-3" d="M41.08,61.71c.12,0,.13-.18.19-.29s0,.15,0,.25c.11-.06.22-.26.28-.27a.15.15,0,0,1,0,.09c.11-.19.31-.12.4-.4l0,0a1,1,0,0,1-.06-.26s.05-.17.09-.06,0,.07,0,.11l0-.08c.09.15,0,.1,0,.24.1-.13.15-.34.24-.35.1.14-.16.18,0,.25l-.16,0c.19.19-.09,0,.1.26.23-.11.19-.24.41-.37,0-.1-.11-.09-.13-.19.06-.3.52.07.48-.25-.06-.1-.27-.18-.07-.26l.17.09c.13-.19-.23-.15,0-.3.07,0,0,.14,0,.11.22-.11-.08-.09,0-.17l.19,0a1.06,1.06,0,0,0-.1-.51s.11,0,.15-.06c-.1-.21-.12-.52-.26-.77l-.17,0a.08.08,0,0,1,0-.09c0-.1-.06.07-.14.09s0-.1.05-.12c-.23,0-.54.06-.67-.09l0,0c-.13-.07-.2.3-.29.18l0,0c-.29,0-.53.27-.82.23.08.2-.33.15-.13.36-.2,0-.19-.1-.44,0-.06,0,.08.2,0,.28l-.13-.08a1.42,1.42,0,0,0,.08.18l-.2,0v.09a.12.12,0,0,1,.13,0c0,.13-.21.26-.29.26l.06.21.05.11c-.07,0-.09-.06-.13-.1.16.17-.16,0,0,.19,0,0,.1,0,.13,0s0,.27.06.38h-.12a1.53,1.53,0,0,0,.55.61c0-.1.1-.22.16-.2l-.08.15c.1-.06,0-.09.13-.14s-.06.19-.14.2H41c0,.05,0,.06-.09.1s.09.25.24.12l0,.05a1.42,1.42,0,0,0,.59.09c0-.14.09-.1.15-.21a.75.75,0,0,0,.52.05c.1-.12,0-.13,0-.23.06.12.22,0,.18.14a.7.7,0,0,0,.33-.47c-.06,0-.09,0-.12,0s.11,0,.15,0h0c0-.17.14-.26.27-.38s.23-.28.11-.4h0a.83.83,0,0,0-.14-.22c0-.1.1,0,.18,0-.22-.22,0-.39-.2-.54.32-.26-.2-.45-.09-.71l-.07.06c-.1,0,0-.08,0-.12s0,.08-.1.09a1.56,1.56,0,0,1-.33-.5c-.06-.1-.09-.18-.16-.29a3.9,3.9,0,0,0-.33-.38c-.19-.15-.26.38-.4,0l.1-.13a2.68,2.68,0,0,1-.85-.38,1.05,1.05,0,0,0-.15.3c0-.06,0-.12,0-.15s-.2.25-.14.34-.06-.08-.11-.1,0,.32-.13.25a.11.11,0,0,1,0-.08c0,.1-.16.2,0,.27-.12.09-.09.28-.2.35.11.15-.17.21,0,.32a.13.13,0,0,0-.2.09.2.2,0,0,0,0,.18c-.06,0-.08,0-.16,0a.12.12,0,0,0,.13.16c-.29.11.18.31-.17.36.12.26.21.46.28.63-.23,0-.05-.21-.28-.18.11.19.32.26.3.45s-.1,0-.14,0c.13.17.07.37.25.49l-.07,0s0,.09.09,0l0,0c.12-.1.33,0,.41,0-.3.06,0,.17-.39.24a.21.21,0,0,0,.15,0s0,.06-.13.07c.1.08.19,0,.24.11a1.3,1.3,0,0,1-.13,0c.12,0,.23,0,.25.11s0,.05-.07,0c.12.14.36,0,.45.25-.17.14,0,.1-.07.27l.13,0v-.11c.09.07.21,0,.26.07l-.09,0,.18,0-.07-.11c.1-.06,0-.23.13-.14s.07,0,.11.14h0s.08-.11.14-.06,0,.21,0,.25c0-.15.22-.06.22-.24a.33.33,0,0,0,0,.15v-.13c.05,0,.07,0,.09.11s-.12-.2,0-.17c0,0,0,0,0,.06.15,0,.17-.25.28-.31.16.1,0,.14.09.22.13-.23.08-.53.17-.64l0,0c-.24-.13.17-.06.08-.19,0,0,.13.08.11.06s0-.25,0-.43l.06,0c.07-.05.07-.17.11-.24s0-.07-.15,0c.41-.2-.19-.41.12-.61,0,0,.07,0,.06,0s0-.1-.08-.16-.06,0-.15.08-.13,0-.13-.09.18,0,.24-.07l-.11,0c.19-.12-.23,0-.11-.11h.06s-.12-.06-.12-.11.07,0,.18,0-.28-.06-.16-.15,0,.06.09.07.1-.1.11-.15h0l0-.13,0,0c-.36,0-.11-.14-.36-.16.24,0,.12,0,.26-.08s.06-.1.1-.1c-.13,0,.06-.13-.14-.12.05,0,0-.06.1-.1-.07,0-.07,0-.13.07s.07-.32-.21-.34h0L42,57.82l0,.09c0,.16.07.29.07.42s-.12-.14-.12-.14-.12.07-.11.15a.22.22,0,0,0-.12-.05c0,.06.13.12,0,.15a.54.54,0,0,1-.15-.15,1.63,1.63,0,0,0,.07.26c-.08,0-.1-.08-.14-.13a.28.28,0,0,0,.12.28l.06,0s-.11,0-.13-.05.08-.07.12,0l0,0c.27.06,0-.18.08-.26l.17.14-.11-.16c.06,0,.16.06.17.11s0-.08.08-.05,0,0,0,0l0-.08s.12.09.08.09c.15,0,0-.21.12-.13v0a.13.13,0,0,0,0-.06l-.28,0c.08,0,.12-.09.29-.09l-.29.24.14-.06a.07.07,0,0,1,0,.07c.11,0,0,0,.15-.06-.09.13.14.15-.07.26.12,0,.05-.09.16-.06-.23.12.07.06,0,.17s-.09-.05-.18,0c.22,0,0,.12.05.15s.11.08.19.15-.06.18-.11.26h0c.18,0,.16.06.21.12a.41.41,0,0,1-.21,0v0a.19.19,0,0,1,.12.05h-.14c0,.06.17.12.08.22.13,0,.36-.09.45,0-.07,0-.19,0-.22,0s.06,0,0,0l-.12,0s.1,0,.09.06-.07,0-.15,0,0,0,0-.05a.25.25,0,0,1-.15.1c.05,0,.13,0,.14,0s-.12,0-.17,0,0,.06.14.08c0,0-.08,0-.12,0s0,.17.16.16h0c.13.15-.13.23-.11.36l-.05,0c0,.09,0,.16.05.25s-.1,0-.15,0,.05.1,0,.11-.07,0,0-.07-.12,0,0,.11c-.09-.1-.13-.09-.11,0l.08,0A.06.06,0,0,1,42,61l-.11-.15c-.08-.07,0,0,0,.11s0,.16-.09,0c0,.13.06.08.09.23-.07,0-.14-.28-.14-.28s0,.27-.09.18c0,.07,0,.25-.08.28s0-.28,0-.32,0,0,0,0a.13.13,0,0,0,0-.11l0,.06c0-.07,0-.08,0-.18a.18.18,0,0,0,0,.14c0-.11-.06,0-.06-.12s0,.1-.06.09-.09.07-.15,0,.16-.14.06-.14.11-.11.16-.13c-.13,0,0-.12,0-.15h0s0,0,0,0l-.09.08s0,0,0-.06a1.13,1.13,0,0,1-.27.14s-.09,0,0-.12c0,.1.15-.07.19,0s0,0,0,0h0c.09-.14-.18,0-.21,0s.14-.09.12-.09-.13.07-.21.06-.07,0-.07-.09l0,0c-.09,0-.09,0-.13,0s.06,0,.08,0c-.17,0,.12-.16,0-.19,0,0,.16,0,.19-.09s.11-.1,0-.15a.22.22,0,0,1-.21,0l.11.11-.19,0s.09.07.08.1-.08,0-.17,0c.17-.09-.13-.09,0-.18l.29,0c.12-.1-.17-.14-.1-.27l0,0c-.12,0,0-.07-.07-.11a.77.77,0,0,0,.2,0c-.08,0,0-.09-.19-.11l.13,0c.06-.09-.27-.14-.22-.24s.18,0,.24.09,0-.06,0-.07S40.87,59,41,59s-.14,0-.13-.08h0s0-.07-.16-.07c.16,0,.16,0,.17-.11s0-.12.14,0a.4.4,0,0,1,0-.19s0,.05,0,0-.16-.33,0-.3,0,.14.07.19c.18.37,0-.12.14.09v0c0,.08,0,0,0-.1s0-.07,0,0v.07c0-.22.07-.24.14-.25a.56.56,0,0,0,0,.23s0-.26.07-.26a1,1,0,0,1,0,.34l0,0c0,.21,0,0,0,.07l0,.08s.13-.18.19-.11l0-.06c.15-.12,0,.12.1,0l-.12.16a.63.63,0,0,1,.31,0,1.07,1.07,0,0,1-.35.08.16.16,0,0,0,.19,0s-.07,0-.06,0,.25-.07.3,0c-.3.22.07.23-.15.44.19,0,.08.25.14.36.26-.15,0,0,.31-.07,0,0,0,0,0,0l-.15.15c-.08,0-.07,0-.14,0s-.12,0-.19.1c.11,0,.16,0,.12,0l.13-.07c.18.08-.24.1-.08.16l-.1,0c.06,0,0,.11.23.19a.29.29,0,0,1-.14,0s.18.29,0,.25l0,0s.09.11,0,.06l-.06,0s.07.11,0,.09l0-.08c-.07-.07,0,.22,0,.29a1.45,1.45,0,0,0-.1-.32v0s-.13.17-.28.19c0-.24-.07-.18,0-.28a.73.73,0,0,1-.19.07s-.17,0,0-.05h0c.2-.06.14,0,.15-.07l-.28,0,.12,0c.13,0-.15-.21.13-.09a.67.67,0,0,1-.07-.11l.1.09c.06,0,.15-.07.16-.12l.05.09s-.21-.35-.18-.39l.11.19s.08.16.11-.09a.45.45,0,0,1,0,.13s0,.17.09-.2c0,.24,0,0,.12-.09l-.08.18c.11-.22.15-.29.24-.33s-.07.14-.06.09c0,.11.13-.15.12,0l-.09.09s.06,0,.17-.13,0,.11-.1.24c.09-.08.21-.15.18-.09l-.1.07c-.08.13.22,0,.06.12l-.1.06s0-.09,0-.1a2.74,2.74,0,0,1-.38.26c.11-.08.36-.16.29-.09l-.06,0h0s0,0,0,0l0,0c-.12,0-.07,0-.08,0a1.44,1.44,0,0,0,.24,0s0,0,0,0h0v0c.08,0,.14,0,0,0h.22A1.7,1.7,0,0,1,42,60s0,.07.14.2-.07,0-.1,0,0,0,0,0-.05.08,0,.19c-.08,0-.06-.11-.09,0l0,0c-.1-.06-.07,0-.11.15s-.13.27-.16.12c0,0,0,0,0,.06s-.14,0-.27.07-.24-.05-.11-.25-.09,0-.2,0l.18-.11-.2,0c-.11,0,.2-.2.24-.25s0,0-.06,0l-.11,0s0-.13.08-.12-.1,0,0,0h.08a.65.65,0,0,1-.11-.12c.09-.06.3.11.35,0s-.16-.22-.21-.22a.17.17,0,0,1-.14,0l0-.06c-.21-.1-.4-.25-.61-.18l.09.15h-.12l0-.09c-.12,0-.05.08,0,.15a.2.2,0,0,0-.14,0,1.54,1.54,0,0,0,.17.19c-.09,0-.16-.1-.24,0,.09.08.22,0,.26.08-.12,0-.2,0-.13.11a.11.11,0,0,1-.12,0c.06.08,0,.2.12.22-.09,0-.08.11-.09.16s0,.08-.13.1c.05,0,.17.07.18.12-.27,0,0,.22-.26.33.24,0,.2.23.39.26,0,0,0,0,0,0s0,.14,0,.21c.14-.13.26-.08.39-.15,0,.2-.19.16-.28.31.1-.12.25,0,.29-.17,0,.13,0,.07,0,.23.14-.21.09,0,.22-.14,0,.12-.08.23.06.16C41.22,61.63,41.08,61.71,41.08,61.71Zm2-2.29h0v0Zm0-.2s0,.05,0,.09-.09,0-.09,0S43.06,59.27,43.09,59.22ZM42,59.91l.05,0H42Z"/><path class="cls-3" d="M42.24,59.88h0l0,0Z"/><path class="cls-3" d="M42.41,60.22h0Z"/><polygon class="cls-3" points="40.45 59.32 40.48 59.34 40.47 59.3 40.45 59.32"/><path class="cls-3" d="M42.89,59.31h0Z"/><path class="cls-3" d="M42.83,58.89l0-.07A.36.36,0,0,0,42.83,58.89Z"/><path class="cls-3" d="M42.79,58.56h0Z"/><path class="cls-3" d="M40.19,60.64h0S40.16,60.63,40.19,60.64Z"/><path class="cls-3" d="M41.6,61.68l-.06.06S41.59,61.76,41.6,61.68Z"/><polygon class="cls-3" points="39.88 58.76 39.89 58.76 39.89 58.74 39.88 58.76"/><path class="cls-3" d="M41.45,61.71a.07.07,0,0,0,.09,0S41.48,61.7,41.45,61.71Z"/><path class="cls-3" d="M41.39,58.56h0Z"/><path class="cls-3" d="M41.4,58.58v0A0,0,0,0,0,41.4,58.58Z"/><path class="cls-3" d="M41.43,58.66l0,0S41.39,58.64,41.43,58.66Z"/><path class="cls-3" d="M41.68,58.13l0,0A.05.05,0,0,0,41.68,58.13Z"/><path class="cls-3" d="M41.77,58s-.15,0-.15.07l0,0C41.6,58,41.81,58.08,41.77,58Z"/><path class="cls-3" d="M42.11,58.54v-.11s-.1.1-.13.06C41.89,58.67,42.08,58.42,42.11,58.54Z"/><path class="cls-3" d="M42.16,58.84s-.08,0-.11,0S42.12,58.89,42.16,58.84Z"/><path class="cls-3" d="M42.1,60.78,42,60.72S42,60.74,42.1,60.78Z"/><polygon class="cls-3" points="42.36 61.57 42.45 61.6 42.39 61.48 42.36 61.57"/><polygon class="cls-3" points="41.75 60.84 41.75 60.81 41.74 60.87 41.75 60.84"/><path class="cls-3" d="M41.15,58.81,41,58.72S41.18,58.85,41.15,58.81Z"/><path class="cls-3" d="M41.62,58.6c0,.08,0,.13,0,.07S41.64,58.59,41.62,58.6Z"/><polygon class="cls-3" points="41.5 60.08 41.55 60.08 41.53 60.08 41.51 60.07 41.5 60.08"/><path class="cls-3" d="M58.46,59s.14,0,.13,0l-.17,0Z"/><path class="cls-3" d="M58.8,58.84a.75.75,0,0,0-.35-.14c.14.08.07.08.25.16,0,0-.06,0-.12,0s0,.06.06.09.14-.08,0-.16S58.77,58.84,58.8,58.84Z"/><path class="cls-3" d="M59.44,60.23h0Z"/><path class="cls-3" d="M58.59,61.08s0,0,0,0Z"/><path class="cls-3" d="M58.54,60.83h0Z"/><path class="cls-3" d="M59.44,60.23l-.06,0S59.42,60.25,59.44,60.23Z"/><path class="cls-3" d="M58.61,58.24s0,0,0,0v0Z"/><path class="cls-3" d="M59.33,59.49v0h-.07Z"/><path class="cls-3" d="M59.17,58.94s.14,0,.2,0h-.1Z"/><path class="cls-3" d="M59.17,58.42v0Z"/><path class="cls-3" d="M59.31,59.89h0Z"/><path class="cls-3" d="M57.29,60.4h0Z"/><polygon class="cls-3" points="58.23 59.52 58.23 59.53 58.3 59.57 58.23 59.52"/><path class="cls-3" d="M58.5,60.48h0S58.51,60.49,58.5,60.48Z"/><path class="cls-3" d="M59.15,59.64c.11-.09.17,0,.29-.09C59.38,59.57,59.21,59.56,59.15,59.64Z"/><path class="cls-3" d="M58.63,58.23l0,0Z"/><polygon class="cls-3" points="59.44 59.55 59.44 59.55 59.45 59.54 59.44 59.55"/><path class="cls-3" d="M58.18,59.45h0Z"/><path class="cls-3" d="M58.12,60.31v0Z"/><path class="cls-3" d="M58,59s0,0,0,0h0S58.05,59,58,59Z"/><polygon class="cls-3" points="58.12 58.69 58.1 58.67 58.1 58.69 58.12 58.69"/><path class="cls-3" d="M59.12,61.25a.41.41,0,0,1-.07-.11C59.08,61.23,59,61.35,59.12,61.25Z"/><path class="cls-3" d="M58.68,58.28s0,0,0-.05v0Z"/><path class="cls-3" d="M57,58.74l0-.1A.18.18,0,0,0,57,58.74Z"/><path class="cls-3" d="M57.42,59.63v0S57.41,59.61,57.42,59.63Z"/><path class="cls-3" d="M57.12,58.2a.19.19,0,0,0,.12,0s0,0,0,0Z"/><path class="cls-3" d="M59.05,61.13h0Z"/><path class="cls-3" d="M58.14,61.71c.12,0,.12-.18.19-.29s0,.15,0,.25c.11-.06.22-.26.29-.27s0,0,0,.09c.12-.19.32-.12.41-.4,0,0,0,0,0,0a.91.91,0,0,1,0-.26s0-.17.09-.06,0,.07,0,.11l0-.08c.09.15-.05.1,0,.24.1-.13.15-.34.23-.35.11.14-.15.18,0,.25l-.15,0c.19.19-.09,0,.1.26.23-.11.19-.24.4-.37,0-.1-.1-.09-.13-.19.06-.3.53.07.49-.25-.06-.1-.27-.18-.08-.26l.18.09c.13-.19-.23-.15,0-.3.07,0,0,.14,0,.11.22-.11-.08-.09,0-.17l.2,0a1.36,1.36,0,0,0-.1-.51c.05,0,.1,0,.15-.06-.1-.21-.12-.52-.26-.77l-.17,0s0-.08,0-.09-.06.07-.13.09,0-.1,0-.12c-.22,0-.54.06-.66-.09l0,0c-.13-.07-.2.3-.3.18l0,0c-.3,0-.53.27-.82.23.08.2-.33.15-.13.36-.2,0-.19-.1-.44,0-.06,0,.07.2.05.28l-.13-.08a1.42,1.42,0,0,0,.08.18l-.2,0v.09a.12.12,0,0,1,.13,0c0,.13-.21.26-.29.26a1.29,1.29,0,0,0,.06.21l0,.11c-.06,0-.08-.06-.12-.1.16.17-.17,0,0,.19,0,0,.09,0,.12,0s0,.27.06.38H57.3a1.46,1.46,0,0,0,.55.61c-.05-.1.09-.22.16-.2l-.08.15c.09-.06,0-.09.12-.14s-.06.19-.13.2H58c0,.05,0,.06-.09.1s.09.25.23.12v.05a1.4,1.4,0,0,0,.59.09c0-.14.09-.1.15-.21a.75.75,0,0,0,.52.05c.09-.12,0-.13,0-.23.06.12.22,0,.18.14A.68.68,0,0,0,60,60.9c-.06,0-.09,0-.12,0s.1,0,.15,0h0c0-.17.14-.26.27-.38s.23-.28.1-.4h0a.8.8,0,0,0-.13-.22c0-.1.1,0,.18,0-.23-.22,0-.39-.21-.54.32-.26-.2-.45-.09-.71l-.07.06c-.1,0,0-.08,0-.12s0,.08-.1.09a1.77,1.77,0,0,1-.34-.5,2.7,2.7,0,0,0-.15-.29,3.9,3.9,0,0,0-.33-.38c-.19-.15-.26.38-.4,0l.1-.13A2.59,2.59,0,0,1,58,57a1.05,1.05,0,0,0-.15.3c0-.06,0-.12,0-.15s-.19.25-.14.34-.05-.08-.1-.1,0,.32-.13.25,0-.06,0-.08-.16.2,0,.27c-.12.09-.09.28-.2.35.1.15-.17.21,0,.32-.1-.05-.16,0-.19.09a.17.17,0,0,0,0,.18c-.06,0-.08,0-.17,0s0,.16.13.16c-.29.11.18.31-.16.36.11.26.2.46.28.63-.23,0,0-.21-.28-.18.11.19.31.26.3.45s-.1,0-.14,0c.13.17.07.37.24.49l-.07,0s0,.09.09,0l0,0c.12-.1.33,0,.41,0-.3.06,0,.17-.39.24a.19.19,0,0,0,.14,0s0,.06-.12.07c.1.08.18,0,.24.11l-.13,0c.11,0,.23,0,.25.11s-.06.05-.07,0c.12.14.36,0,.45.25-.18.14,0,.1-.08.27l.14,0v-.11c.08.07.21,0,.26.07l-.09,0,.18,0-.08-.11c.11-.06.05-.23.14-.14s.07,0,.11.14h0s.08-.11.14-.06a2.26,2.26,0,0,1,0,.25c0-.15.23-.06.23-.24a.33.33,0,0,0,0,.15v-.13s.06,0,.08.11-.12-.2.05-.17c0,0,0,0,0,.06.16,0,.17-.25.28-.31.16.1,0,.14.1.22.12-.23.08-.53.17-.64l0,0c-.24-.13.17-.06.08-.19,0,0,.13.08.1.06s0-.25,0-.43l.06,0c.07-.05.06-.17.11-.24s0-.07-.15,0c.41-.2-.19-.41.12-.61,0,0,.06,0,.06,0L60,59.39c-.11,0-.06,0-.15.08s-.13,0-.13-.09.18,0,.24-.07l-.11,0c.19-.12-.23,0-.11-.11h.06s-.13-.06-.12-.11.07,0,.18,0-.28-.06-.16-.15.05.06.09.07.1-.1.11-.15h0l0-.13,0,0c-.36,0-.11-.14-.37-.16.24,0,.13,0,.27-.08s.06-.1.1-.1c-.13,0,.06-.13-.14-.12,0,0,0-.06.1-.1-.07,0-.07,0-.13.07s.07-.32-.21-.34h0L59,57.82v.09c0,.16.07.29.07.42s-.13-.14-.13-.14a.11.11,0,0,0-.1.15.22.22,0,0,0-.13-.05c0,.06.14.12,0,.15a.67.67,0,0,1-.14-.15,1.63,1.63,0,0,0,.07.26c-.08,0-.1-.08-.14-.13a.28.28,0,0,0,.12.28l.06,0s-.12,0-.13-.05.07-.07.12,0v0c.28.06,0-.18.09-.26l.16.14-.1-.16c.06,0,.16.06.16.11s0-.08.09-.05,0,0,0,0l0-.08s.12.09.08.09c.14,0,0-.21.12-.13v0a.13.13,0,0,0,0-.06l-.29,0c.09,0,.12-.09.3-.09l-.3.24.14-.06s0,0-.05.07c.12,0,.06,0,.16-.06-.09.13.14.15-.07.26.11,0,0-.09.16-.06-.23.12.07.06,0,.17s-.08-.05-.17,0c.22,0,0,.12.05.15s.11.08.18.15-.05.18-.1.26h0c.18,0,.16.06.2.12a.38.38,0,0,1-.2,0v0c.06,0,.09,0,.11.05h-.13c0,.06.17.12.08.22.13,0,.35-.09.44,0-.07,0-.18,0-.21,0s.05,0,0,0l-.11,0c-.05,0,.1,0,.08.06s-.07,0-.15,0,0,0,0-.05a.25.25,0,0,1-.16.1c.06,0,.14,0,.15,0s-.12,0-.17,0,0,.06.13.08-.07,0-.11,0,0,.17.16.16h0c.12.15-.14.23-.11.36l0,0c0,.09,0,.16,0,.25s-.11,0-.16,0,.06.1,0,.11-.07,0,0-.07-.13,0,0,.11c-.09-.1-.13-.09-.11,0l.07,0s0,0,0,.06l-.1-.15c-.08-.07,0,0,0,.11s0,.16-.09,0c0,.13.06.08.08.23-.06,0-.13-.28-.13-.28s0,.27-.09.18c0,.07,0,.25-.09.28s0-.28,0-.32,0,0,0,0a.13.13,0,0,0,0-.11l0,.06c0-.07,0-.08,0-.18a.25.25,0,0,0,0,.14c0-.11-.05,0-.06-.12s0,.1-.05.09-.09.07-.16,0,.17-.14.07-.14.11-.11.15-.13c-.12,0,0-.12,0-.15h.05a.06.06,0,0,1-.05,0l-.09.08a.12.12,0,0,1,0-.06c-.08,0-.16.12-.27.14s-.1,0,0-.12c0,.1.14-.07.19,0s0,0,0,0h0c.09-.14-.18,0-.22,0s.15-.09.13-.09-.13.07-.21.06-.07,0-.08-.09v0c-.09,0-.09,0-.13,0s.06,0,.08,0c-.17,0,.12-.16,0-.19,0,0,.16,0,.19-.09-.13,0,.1-.1,0-.15s-.09,0-.21,0l.11.11L58,60s.09.07.08.1-.08,0-.17,0c.16-.09-.13-.09,0-.18l.29,0c.12-.1-.17-.14-.11-.27l0,0c-.12,0,0-.07-.07-.11a.69.69,0,0,0,.19,0c-.07,0,0-.09-.18-.11l.13,0c.06-.09-.27-.14-.22-.24s.17,0,.24.09,0-.06,0-.07S57.93,59,58,59s-.13,0-.12-.08H58c-.05,0-.05-.07-.16-.07.16,0,.16,0,.17-.11s0-.12.14,0a.4.4,0,0,1,0-.19s0,.05,0,0-.16-.33,0-.3,0,.14.07.19c.18.37,0-.12.14.09v0c0,.08,0,0,0-.1s0-.07,0,0v.07c0-.22.07-.24.14-.25a.56.56,0,0,0,0,.23s0-.26.07-.26a1,1,0,0,1,0,.34l0,0c0,.21,0,0,.06.07l0,.08c.05,0,.13-.18.19-.11l0-.06c.15-.12,0,.12.09,0l-.12.16a.68.68,0,0,1,.32,0,1.13,1.13,0,0,1-.35.08.15.15,0,0,0,.19,0s-.08,0-.06,0,.25-.07.3,0c-.3.22.06.23-.15.44.19,0,.08.25.14.36.26-.15,0,0,.31-.07,0,0,0,0,0,0a1.06,1.06,0,0,1-.15.15c-.08,0-.07,0-.14,0s-.12,0-.19.1c.1,0,.15,0,.12,0l.13-.07c.18.08-.24.1-.08.16l-.1,0c.06,0,0,.11.23.19a.29.29,0,0,1-.14,0s.17.29,0,.25l-.05,0s.09.11,0,.06l-.05,0s.07.11,0,.09l0-.08c-.08-.07,0,.22,0,.29a2.54,2.54,0,0,0-.1-.32v0s-.14.17-.28.19c.05-.24-.07-.18,0-.28a.89.89,0,0,1-.19.07s-.17,0,0-.05h0c.2-.06.14,0,.14-.07l-.28,0,.12,0c.14,0-.14-.21.14-.09-.05,0,0-.06-.07-.11l.1.09c.06,0,.15-.07.15-.12l.06.09s-.21-.35-.18-.39l.1.19c.05,0,.09.16.12-.09,0,0,0,.12,0,.13s0,.17.08-.2c0,.24,0,0,.12-.09l-.07.18c.11-.22.15-.29.23-.33s-.07.14,0,.09c0,.11.12-.15.11,0l-.09.09s.06,0,.18-.13,0,.11-.1.24c.08-.08.21-.15.18-.09l-.1.07c-.09.13.21,0,0,.12l-.09.06a.22.22,0,0,1,0-.1,2.57,2.57,0,0,1-.37.26c.11-.08.36-.16.28-.09l-.05,0h0s0,0,0,0l0,0c-.12,0-.08,0-.09,0a1.58,1.58,0,0,0,.25,0s0,0,0,0h0v0c.08,0,.13,0,0,0h.22a1.75,1.75,0,0,1-.47.11s0,.07.15.2-.07,0-.1,0,0,0,0,0,0,.08,0,.19c-.08,0-.06-.11-.1,0v0c-.1-.06-.07,0-.11.15s-.13.27-.16.12c0,0,0,0,0,.06s-.14,0-.27.07-.24-.05-.11-.25-.09,0-.2,0l.17-.11-.2,0c-.1,0,.21-.2.25-.25s0,0-.06,0l-.12,0s0-.13.09-.12-.1,0,0,0h.09a.43.43,0,0,1-.11-.12c.08-.06.3.11.35,0s-.16-.22-.21-.22a.17.17,0,0,1-.14,0l0-.06c-.21-.1-.4-.25-.62-.18l.1.15h-.12l0-.09c-.12,0,0,.08,0,.15a.21.21,0,0,0-.14,0l.18.19c-.1,0-.16-.1-.24,0,.09.08.22,0,.26.08-.12,0-.21,0-.13.11s-.1,0-.12,0,0,.2.11.22c-.08,0-.07.11-.08.16s0,.08-.14.1c.06,0,.18.07.19.12-.28,0,0,.22-.26.33.24,0,.2.23.39.26,0,0-.06,0-.05,0a.5.5,0,0,1,0,.21c.15-.13.27-.08.39-.15,0,.2-.18.16-.27.31.09-.12.25,0,.29-.17,0,.13,0,.07,0,.23.14-.21.09,0,.21-.14,0,.12-.07.23.07.16C58.27,61.63,58.14,61.71,58.14,61.71Zm2-2.29h0v0Zm0-.2s0,.05,0,.09-.09,0-.09,0S60.12,59.27,60.15,59.22Zm-1,.69,0,0h0Z"/><path class="cls-3" d="M59.29,59.88h0l0,0Z"/><path class="cls-3" d="M59.47,60.22h0Z"/><polygon class="cls-3" points="57.51 59.32 57.54 59.34 57.53 59.3 57.51 59.32"/><path class="cls-3" d="M60,59.31h0Z"/><path class="cls-3" d="M59.89,58.89l0-.07A.13.13,0,0,0,59.89,58.89Z"/><path class="cls-3" d="M59.85,58.56h0Z"/><path class="cls-3" d="M57.24,60.64h0S57.21,60.63,57.24,60.64Z"/><path class="cls-3" d="M58.66,61.68s0,0-.07.06S58.65,61.76,58.66,61.68Z"/><polygon class="cls-3" points="56.94 58.76 56.94 58.76 56.95 58.74 56.94 58.76"/><path class="cls-3" d="M58.51,61.71s.06,0,.08,0A.08.08,0,0,0,58.51,61.71Z"/><path class="cls-3" d="M58.45,58.56h0Z"/><path class="cls-3" d="M58.46,58.58v0A0,0,0,0,0,58.46,58.58Z"/><path class="cls-3" d="M58.49,58.66l0,0S58.45,58.64,58.49,58.66Z"/><path class="cls-3" d="M58.74,58.13l0,0Z"/><path class="cls-3" d="M58.82,58s-.14,0-.15.07l0,0C58.66,58,58.87,58.08,58.82,58Z"/><path class="cls-3" d="M59.17,58.54v-.11s-.1.1-.13.06C58.94,58.67,59.14,58.42,59.17,58.54Z"/><path class="cls-3" d="M59.21,58.84s-.07,0-.1,0S59.18,58.89,59.21,58.84Z"/><path class="cls-3" d="M59.16,60.78l-.11-.06S59.09,60.74,59.16,60.78Z"/><polygon class="cls-3" points="59.42 61.57 59.51 61.6 59.45 61.48 59.42 61.57"/><polygon class="cls-3" points="58.81 60.84 58.8 60.81 58.8 60.87 58.81 60.84"/><path class="cls-3" d="M58.21,58.81l-.14-.09S58.24,58.85,58.21,58.81Z"/><path class="cls-3" d="M58.68,58.6c0,.08,0,.13,0,.07S58.7,58.59,58.68,58.6Z"/><polygon class="cls-3" points="58.56 60.08 58.61 60.08 58.59 60.08 58.57 60.07 58.56 60.08"/><path class="cls-3" d="M50.43,67.23h0Z"/><path class="cls-3" d="M50.74,67.2h-.37l.28,0h-.12s0,0,.07,0,.13,0,0,0Z"/><path class="cls-3" d="M51,66.78h0Z"/><path class="cls-3" d="M51.09,66.52s0,0,0,0Z"/><path class="cls-3" d="M51.27,66.48h0Z"/><path class="cls-3" d="M51,66.78h0Z"/><path class="cls-3" d="M50.34,67.14h0Z"/><path class="cls-3" d="M51.13,66.9Z"/><path class="cls-3" d="M51.16,67h0Z"/><path class="cls-3" d="M50.91,67.12h0Z"/><path class="cls-3" d="M51.16,66.84h0Z"/><path class="cls-3" d="M50.11,64.39h0Z"/><path class="cls-3" d="M50.8,64.28h0Z"/><path class="cls-3" d="M51.45,66.4Z"/><path class="cls-3" d="M51.35,65.66c-.13,0-.16,0-.3,0A3,3,0,0,0,51.35,65.66Z"/><path class="cls-3" d="M50.36,67.14Z"/><path class="cls-3" d="M51.05,65.66h0Z"/><path class="cls-3" d="M51.37,66.21h0Z"/><path class="cls-3" d="M51.17,66.35h0Z"/><path class="cls-3" d="M51.17,66.14h0Z"/><path class="cls-3" d="M51.17,66.07h0Z"/><path class="cls-3" d="M50.17,64.61h.13C50.2,64.61,50.16,64.6,50.17,64.61Z"/><path class="cls-3" d="M50.42,67.14h0Z"/><path class="cls-3" d="M50.06,66.14h0S50.06,66.13,50.06,66.14Z"/><path class="cls-3" d="M50.19,65.15h0Z"/><path class="cls-3" d="M50.06,66.09h0Z"/><path class="cls-3" d="M50.3,64.61Z"/><path class="cls-3" d="M50,64.53a1.72,1.72,0,0,0,.28,0c.06,0-.13,0-.23,0l.21,0h-.07c.14,0,0,0,.19,0h.2s.12,0,0,0h0c-.17,0-.06,0-.19,0,.06,0,.2,0,.15,0s0,0-.21,0l.07,0h-.27s.09,0,0,0h.23c.17,0-.42,0-.2,0s.33,0,.22,0h-.2s.28,0,.15,0-.06,0-.09,0,.11,0,.11,0h-.17s.15,0,.18.06h-.15c.08,0,0,0-.12.07h0c-.06,0,.09,0,.15,0s-.09,0-.13,0c.13,0,.27,0,.11.06h0c-.06,0,.3,0,.16,0h0c-.07,0,.07.06-.15.08.21,0-.1,0,.2,0l-.3,0s.18,0,.21,0h0c.07,0-.11,0-.19,0l.13,0h-.12c.16,0-.16,0,0,0h.13c-.1,0-.1,0-.06,0h-.1s0,0,0,.06h.28a1.91,1.91,0,0,1-.24,0h-.08c.1,0-.16,0,0,0h0s.06,0,.07,0h.22c-.05,0-.16,0-.14,0h0s0,0,.13,0h0c.19,0-.37.06-.11.08h0l.14,0s-.1,0-.18,0c.22,0,0,0,.12.06-.38,0,0,0-.22.07h.09c.09,0,0,0-.07,0h.13c.1,0-.13.09-.21.14s.46,0,.24,0H50c.2,0,0,.07.16.1h-.09c-.12,0,0,0,.1,0h-.14c-.07,0,.15,0,0,0h-.05c.06,0,0,0,.13,0-.07,0,.06,0,0,0,.15,0-.08,0,.14,0-.23,0-.18,0-.08,0a.84.84,0,0,0-.16,0s0,0,.16,0c-.27,0,.22,0-.13,0a1.28,1.28,0,0,1,.26.07c-.23,0,0,0-.26,0,.09,0,.29,0,.23.06a.65.65,0,0,1-.14,0c.1,0,0,0,.11.06h0a3.68,3.68,0,0,1,.39,0c-.3,0-.08,0-.45,0h.14a.59.59,0,0,1-.14,0c.06,0,.16,0,.16,0h-.12c.09,0,.19,0,.15,0h-.07s.26,0,.16,0h-.11s.13,0,.07,0h-.07l0,0h.07c.1,0,.24,0,.19,0l-.12,0h-.17c.16,0,0,0,.21,0h-.17s.24,0,.14,0h-.05s.08,0,0,0-.05,0-.21,0c0,0,.23,0,.19.07h0c.26,0-.13,0,0,0H50.4s.07,0,.15,0h-.07c-.06,0,0,0-.06,0h.15c-.39,0,.21,0-.11.07H50.4l.06,0h.16c.07,0,.12,0,.12,0H50.6c-.2,0,.24,0,.1,0h-.14s.25,0,.12,0h-.22l-.07,0h0c.34,0,.06,0,.29,0-.22,0-.13,0-.28,0h-.13c.12,0-.1,0,.08,0a.73.73,0,0,1-.13,0h.15c.17,0-.2,0,0,0l.34,0h-.18c-.07,0-.06,0,0,0h-.23l.18,0h-.18l.21,0H50.5c-.11,0,0,0,.09,0h0c.28,0-.05,0,0,0h0a.66.66,0,0,1,.2,0c.11,0-.07,0,0,0H51c.12,0-.15,0,0,0h0a2.56,2.56,0,0,0-.33,0H51a1,1,0,0,0-.17,0c.14,0-.06,0,.18,0a1,1,0,0,1-.17,0c.26,0,0,0,.08,0h.18c-.23,0,.05,0,0,0s-.08,0-.14,0a1.36,1.36,0,0,0,.17,0h0c-.19,0-.15,0-.19,0h.23s-.16,0-.07,0a3,3,0,0,1-.44,0h.21s-.06,0,0,0H51s0,0,0,0h0s.11,0,.17,0h0a.3.3,0,0,0-.18,0h0c-.15,0,.08,0,0-.06H51a.78.78,0,0,0-.14,0H51s-.1,0,0,0,.07,0,.06,0,.12,0,0,0c.12,0,.15,0,.12,0h-.09s0,0,0,0h.17c.2,0-.35,0,0-.06h-.22l.26,0c.1,0-.24,0-.18,0h0s0,0,0,0a.39.39,0,0,0,.11,0h0a.49.49,0,0,1,.15,0H51.2c.09,0,0,0,.06,0h-.1c.07,0-.12,0-.14,0s.21,0,.14,0a1.33,1.33,0,0,1,.2,0c-.11,0,.08,0,.1,0h0s0,0,0,0h-.35c.06,0-.06,0,.09,0,0,0,.16,0,.19,0s0,0,0,0h0c.14,0-.18,0-.17,0h-.07c.07,0-.05,0,0,0h0c-.09,0-.07,0-.1,0h.08c-.16,0,.16,0,0,0h.21c-.11,0,.12,0,0,0h-.21l.08,0-.17,0,.06,0a.49.49,0,0,0-.17,0c.18,0-.11,0,0,0h.29c.13,0-.15,0-.08,0h0c-.11,0,0,0-.06,0h.19c-.07,0,0,0-.19,0h.13c.06,0-.28,0-.24,0h.25s0,0,0,0-.13,0,0,0H50.9c.3,0,0,0,.24-.05,0,0-.07,0-.07,0s0,0,0,0-.29,0-.19,0,.09,0,.15,0c.33,0,0,0,.15,0h0c.11,0-.13,0-.1,0h0a.86.86,0,0,1-.26,0h.23c.18,0,0,0,0,0h.08s-.22,0-.21,0H51c-.19,0,.11,0,0,0h.2l-.23,0,.31,0s0,0-.12,0h0c-.15,0-.23,0-.23,0,.39,0,.1,0,.4,0-.15,0,.06,0,0-.07-.29,0,0,0-.31,0,0,0,0,0,0,0l.19,0a.56.56,0,0,1,.13,0h0c-.16,0,.26,0,.09,0h.1c-.06,0,0,0-.24,0h.14s-.26,0-.11-.06h.07s-.14,0-.06,0a.11.11,0,0,0,.08,0h0c.1,0-.2,0-.25,0a1,1,0,0,0,.32,0h0s-.18,0-.26-.06c.24,0,.1,0,.23-.08a1.2,1.2,0,0,1-.19,0s-.16,0,.05,0h0c.2,0,.15,0,.15,0h-.26c.38,0-.14-.06.2-.08l-.13,0h.14s.06,0,0,0h.1s-.41,0-.41,0h.21s.18,0,0-.06h.1s.14,0-.15,0c.19,0,0,0-.06,0h.14a1,1,0,0,1-.28,0s.11,0,.08,0-.14,0-.06,0h.09s0,0-.14,0,0,0,.16,0c-.08,0-.18,0-.15,0h.1c.09,0-.17,0,0,0h.08a0,0,0,0,1,0,0c.13,0,.15,0,.33,0-.09,0-.31,0-.25,0h.08c.11,0,.06,0,.06,0h-.21a0,0,0,0,1,0,0c-.07,0-.13,0,0,0h-.23l.43,0a.74.74,0,0,0-.32,0s.08,0,.12,0h.06a.51.51,0,0,0-.21,0c.08,0,.17,0,.14,0h0c.3,0-.47-.05-.09-.08H51c.16,0-.16-.08.1-.12.06,0-.06,0-.15,0h0c-.13,0,.37,0,.13,0H51s-.06,0,.06,0h0l-.14,0a2.77,2.77,0,0,0,.33,0l-.28,0h-.17a4.23,4.23,0,0,0-.63,0h0c-.11,0,0,0,0,0h-.13a2.42,2.42,0,0,1,.27,0c-.11,0-.19,0-.1,0h-.13l.16,0c-.13,0,0,0-.19,0h.18c-.26,0,0,0-.3,0,.24,0,.11,0,.24,0h-.18a2.93,2.93,0,0,1,.36,0c-.19,0-.23,0-.41,0h.07c.25,0,0,0,.19,0-.12,0-.23,0-.15,0Zm.42.27Zm0,0h0Zm1,0s0,0,0,0h0Z"/><path class="cls-3" d="M51.18,64.77h0Z"/><path class="cls-3" d="M51,66.79h0Z"/><polygon class="cls-3" points="50.12 65.13 50.16 65.13 50.13 65.13 50.12 65.13"/><path class="cls-3" d="M50.49,66.91h0Z"/><path class="cls-3" d="M50.46,67h0Z"/><path class="cls-3" d="M50.39,67h0Z"/><path class="cls-3" d="M50.23,66.36h0S50.2,66.35,50.23,66.36Z"/><path class="cls-3" d="M50.55,66.55h-.06S50.47,66.55,50.55,66.55Z"/><polygon class="cls-3" points="50.06 66.14 50.06 66.14 50.06 66.14 50.06 66.14"/><path class="cls-3" d="M50.49,66.53s0,0,0,0S50.51,66.54,50.49,66.53Z"/><path class="cls-3" d="M50.33,67.18h0Z"/><path class="cls-3" d="M50.34,67.18h0Z"/><path class="cls-3" d="M50.4,67.19h0Z"/><path class="cls-3" d="M50.39,67.13h0Z"/><path class="cls-3" d="M50.38,67.11s-.11,0-.08,0h0C50.27,67.12,50.46,67.11,50.38,67.11Z"/><path class="cls-3" d="M51,67l0,0a.32.32,0,0,1,.14,0C51.27,67,51,67.06,51,67Z"/><path class="cls-3" d="M51.09,67a.4.4,0,0,0,.11,0A.2.2,0,0,0,51.09,67Z"/><path class="cls-3" d="M51.09,66.69h0Z"/><polygon class="cls-3" points="50.43 66.63 50.35 66.64 50.46 66.64 50.43 66.63"/><polygon class="cls-3" points="51.34 66.6 51.35 66.6 51.31 66.59 51.34 66.6"/><path class="cls-3" d="M51.29,66.08h-.16S51.34,66.09,51.29,66.08Z"/><path class="cls-3" d="M51.13,65.86c.08,0,.13,0,0,0S51.11,65.85,51.13,65.86Z"/><polygon class="cls-3" points="51.39 65.19 51.44 65.19 51.4 65.18 51.39 65.19"/><path class="cls-3" d="M42.41,70.76s-.1.11-.07.11l.13-.11Z"/><path class="cls-3" d="M42.34,71.11a.74.74,0,0,0,.28-.26c-.13.11-.09.05-.24.18s0-.08,0-.12,0,0-.08,0,0,.15.07.1S42.36,71.09,42.34,71.11Z"/><path class="cls-3" d="M44.44,72.73v0A0,0,0,0,0,44.44,72.73Z"/><path class="cls-3" d="M46,73.42a0,0,0,0,0,0,0A0,0,0,0,0,46,73.42Z"/><path class="cls-3" d="M46.17,73.68v0S46.17,73.69,46.17,73.68Z"/><path class="cls-3" d="M44.44,72.73l0,.07S44.46,72.75,44.44,72.73Z"/><path class="cls-3" d="M42.87,71l0,0h0Z"/><path class="cls-3" d="M43.73,72.52h0l0,.06Z"/><path class="cls-3" d="M43.22,72.25s.09-.1.12-.15a.15.15,0,0,1-.07.06Z"/><path class="cls-3" d="M42.62,71.55h0Z"/><path class="cls-3" d="M44.07,72.73l0,0A.08.08,0,0,0,44.07,72.73Z"/><path class="cls-3" d="M58.58,70.8l0,0Z"/><polygon class="cls-3" points="59.49 71.01 59.49 71.02 59.54 71.08 59.49 71.01"/><path class="cls-3" d="M46.64,74h0S46.63,74,46.64,74Z"/><path class="cls-3" d="M51.47,74.31c-.07-.12.07-.17,0-.3C51.46,74.06,51.39,74.23,51.47,74.31Z"/><path class="cls-3" d="M42.87,71h0Z"/><polygon class="cls-3" points="51.45 74.01 51.45 74.01 51.44 74 51.45 74.01"/><path class="cls-3" d="M47.85,74.16v0Z"/><path class="cls-3" d="M47,73.78v0S47,73.79,47,73.78Z"/><path class="cls-3" d="M48.34,74s0,0,0,0v0S48.36,74.05,48.34,74Z"/><polygon class="cls-3" points="48.83 74.09 48.82 74.06 48.8 74.06 48.83 74.09"/><path class="cls-3" d="M57.45,71.54l.07.11C57.47,71.56,57.51,71.5,57.45,71.54Z"/><path class="cls-3" d="M42.82,71.08l0,0h0S42.82,71.07,42.82,71.08Z"/><path class="cls-3" d="M48.51,72.93l.07,0Z"/><path class="cls-3" d="M54.42,72.68v0S54.42,72.67,54.42,72.68Z"/><path class="cls-3" d="M48.79,73a.41.41,0,0,0,0,.1v0Z"/><path class="cls-3" d="M57.52,71.65Z"/><path class="cls-3" d="M57.78,71.13c-.06,0,.06.18.1.28s-.1-.11-.17-.17,0,.23,0,.24a.12.12,0,0,1,0-.07c0,.16-.14.08-.11.28l0,0a1.38,1.38,0,0,1,.13.22s0,.13-.07,0,0-.05,0-.09v.06c-.11-.14,0-.07,0-.19,0,.08,0,.24-.1.22s.08-.1-.05-.21l.1,0c-.17-.22.05,0-.13-.24-.11,0-.06.13-.16.13a1.89,1.89,0,0,0,.09.21c-.06.22-.29-.33-.28-.09s.1.32,0,.24l-.06-.18c-.09,0,.07.27-.08.2s0-.09,0-.11,0,.12,0,.14l-.08-.15c-.08.06-.14.22-.23.29a.2.2,0,0,0-.06-.14c-.1.13-.29.09-.45,0v.16s0,0,0-.09,0,.09,0,.15-.07-.06-.06-.11c0,.15-.17.34-.31.23v-.05c-.09,0,0,.31-.1.2v0c-.18,0-.32.17-.5,0,0,.21-.19,0-.12.24-.13-.11-.12-.17-.27-.23s0,.19,0,.23l0-.14,0,.17-.08-.17,0,0a.19.19,0,0,1,.06.11c-.05.08-.18-.07-.2-.15l-.12.17a.3.3,0,0,1,0-.14c0,.18,0-.15-.09,0a.25.25,0,0,1,0,.12.12.12,0,0,0-.19,0v-.1c-.12,0-.23.1-.35.12,0,0,.08.22,0,.25l0-.16c0,.1,0,0,0,.18s-.07-.17-.05-.23l0,.07s0-.08,0-.14c0,.1-.13-.14-.13,0v-.05c-.13,0-.18.09-.28.11s0,.12,0,.23-.19-.12-.28-.1,0,.12,0,.21c0-.13-.11-.1-.08-.2a.63.63,0,0,0-.26.17s0,.07,0,.11-.07,0-.07-.1v0c-.14.21-.41-.33-.5-.05h0l-.11.15c-.07,0,0-.1,0-.18-.12.23-.22,0-.33.14-.11-.37-.31,0-.44-.19v.09c0,.08,0,0-.06-.07s0,.08,0,.13c-.27.11-.55-.12-.81-.21-.1,0-.07.46-.19.25L50,73c-.2.2-.4,0-.61.13,0,0,0-.08,0-.08s-.15,0-.16.08,0-.09,0-.14-.12.14-.13,0,0,0,0-.05-.12,0-.11.12c-.06-.07-.14,0-.19,0-.06.15-.12-.09-.15.13,0-.23-.11-.2-.17-.1,0-.07,0-.08,0-.17s-.1,0-.11.15c-.06-.28-.23.19-.23-.17a1.3,1.3,0,0,1-.48.18c0-.22.16,0,.2-.23-.15.07-.26.25-.38.17s0-.1,0-.13c-.15.07-.24-.07-.39,0l0-.06s0,0-.06.06l0,0c0,.15-.16.28-.18.35.11-.27-.1-.1.05-.44a.19.19,0,0,0-.06.12s0-.06,0-.13-.09.15-.16.12a1,1,0,0,1,.05-.11c-.06.08-.12.16-.18.11s0-.07,0-.07-.26.2-.35.08c.1-.2,0-.08,0-.26l-.08,0v.1c-.05,0-.14.09-.17,0l.06-.06h-.11l0,.08c-.08.08-.06.23-.12.16S46,73,46,72.86h0s-.09.1-.12,0,.07-.19.08-.23c-.08.14-.14,0-.23.14a.53.53,0,0,0,.06-.14l-.07.11s0-.07,0-.14-.06.23-.12.1,0,0,0,0-.21,0-.26-.08.08,0,.11-.17c-.13,0-.32.11-.42,0v0c-.12.24,0-.15-.14-.06a.44.44,0,0,0,.06-.1c-.06-.08-.18,0-.33,0l0-.06c0-.07-.1-.09-.14-.14s-.06,0-.09.13c0-.42-.38,0-.36-.31,0,0,.06,0,0,0H44c0,.1,0,.06,0,.16s-.1.08-.13.06.09-.16.1-.23,0,.06-.06.1c.05-.21-.12.19-.13,0l0,0s-.11.06-.13,0,.06,0,.12-.13-.22.17-.19,0,.07,0,.1,0,0-.13,0-.17h0l0-.11v.05c-.24.26-.15,0-.34.13.19-.13.08-.09.16-.22s0-.1,0-.13,0-.12-.15,0c0,0,0,0,0-.13s0,.08-.07.13,0-.27-.27-.15-.24.14-.37.15.13-.13.13-.13,0-.1-.11-.08a.27.27,0,0,0,.07-.12s-.13.13-.13,0l.15-.13-.21.06c0-.08.1-.09.14-.12a.3.3,0,0,0-.25.07v.06s.07-.1.09-.11,0,.08,0,.12h0c-.15.25.13,0,.18.11l-.15.14.16-.09s-.09.15-.13.15.08,0,0,.09,0,0,0,0l.08,0s-.08.12-.09.08c0,.15.2,0,.14.1h0c.14,0,.09-.12.27-.21l-.16.34.09-.12s0,0,0,.08,0-.06.1-.12c0,.15.18,0,0,.25.09-.09,0-.11.1-.14-.12.23.09,0,.07.13s-.09,0-.11.15c.15-.18.07.1.13.08s.13,0,.22,0,.08.16.11.26l0,0c.11-.15.16-.08.22-.09a.32.32,0,0,1-.13.16l0,0a.23.23,0,0,1,.11-.07l-.08.12c.07,0,.2-.08.24,0,.06-.11.1-.35.22-.38a.79.79,0,0,1-.11.19s0,0,0,0l-.09.09c0,.06.07-.08.09,0s0,.07,0,.14,0,0,0,0a.19.19,0,0,1,0,.17s.06-.12.09-.11,0,.11,0,.17.06,0,.12-.1,0,.08,0,.11.16.06.19-.1h0c.16-.08.18.18.31.17l0,.05c.09,0,.16,0,.24-.05s0,.1,0,.15.09-.07.13,0,0,.08-.07,0,0,.14.15,0c-.07.11,0,.17,0,.15v-.1a.1.1,0,0,1,.1,0l-.08.15c.07.23.36-.24.35.11.07-.09,0-.1,0-.22.05,0,0,.3.06.3s.15-.2.22-.11c0-.06,0-.22.13-.25s0,.26-.05.29,0,0,0,0a.1.1,0,0,0-.06.1l0-.05c0,.07.1.09.05.18a.08.08,0,0,0,0-.13c.06.1.12,0,.19.12s0-.11,0-.1.08-.09.17-.1-.07.21,0,.16,0,.15-.07.19.13.11.17.15l-.06,0a.12.12,0,0,1,.08,0v-.12s0,0,0,.08,0-.19.1-.28c0,.07.12,0,.09.11-.09-.07,0,.16-.12.16s0,0,.06,0a.05.05,0,0,1,0,0c.06.16.09-.16.18-.14s0,.17,0,.16,0-.15.07-.21.08,0,.11,0l0,0c0-.08.06-.06.11-.08s-.05,0,0,.07c.08-.14.07.19.16.1,0,.06,0,.16,0,.21.1-.1.06.13.16.06s0-.1.07-.2l-.15.06.12-.16s-.1.06-.12,0,0,0,0-.15c0,.18.13-.09.17,0l-.06.29c.07.15.2-.11.31,0l0-.06c0-.11.08,0,.12,0a.42.42,0,0,0,0,.2c0-.07.09,0,.13-.17l0,.14c.09.07.16-.26.24-.21s0,.17-.08.24.06,0,.07,0,.11-.12.12,0,0-.15.07-.13a.08.08,0,0,1,0,0s.06-.06.05-.18c.06.32.27,0,.33.29A.63.63,0,0,1,49,74s0,0,0,0,.08-.27.17-.16-.06.08,0,.14c0,.32.12,0,.17.16v0c0,.11.13-.12.21-.09v0a.47.47,0,0,1,.26-.25c0,.12,0,.06,0,.19s0-.21.07-.24a.88.88,0,0,1,.08.27h-.07c0,.18.09,0,.12,0v.08c.1,0,.11-.22.22-.2V74c.06-.19,0,.11.11,0l0,.19a1.46,1.46,0,0,1,.21-.23.82.82,0,0,1-.18.31.14.14,0,0,0,.16-.11s0,.07,0,0,.11-.23.19-.23c0,.38.21.09.28.39.14-.15.29,0,.46,0-.08-.29,0,0,0-.31,0,0,.05,0,.05,0l.13.17c0,.09,0,.07,0,.14s0,.13.11.2c0-.1,0-.15.07-.12l-.08-.13c.1-.17.12.24.23.07l0,.1c.06-.06.23,0,.27-.27,0,0,0,.12,0,.14.15,0,.3-.29.43-.16v.08s0-.15.07-.08,0,.08,0,.08.06-.14.1-.1l0,.09c.16.07.19-.24.3-.31a.34.34,0,0,0,.22.3v0c.17,0,.25-.23.38-.34.14.22.34,0,.52.13a.25.25,0,0,1,0-.19s.07-.17.1,0h0c.07.18.13.12.19.11l-.05-.26c.24.34.36-.23.52.08,0-.07.06-.08.08-.16l0,.14a.38.38,0,0,0,.27,0v.1c.07,0,0-.42,0-.44l.08.19c.12,0,.29.1.35-.12,0,0,0,.09,0,.11s.26.06.15-.2c.06.18.13,0,.16-.13l0,.13c0-.18,0-.23,0-.3s.05.1,0,.07,0-.14.1-.09v.09c.06,0,0,0,0-.16s.13,0,.18.1c0-.07,0-.18,0-.16a.18.18,0,0,1,0,.09c.13,0,.08-.21.2-.11s0,.06.05.07l-.15,0c0,.12.12.11.13.3,0-.11,0-.34.12-.31l0,0h0s0,0,0,0,0,0,.07,0,.09,0,.13,0,0-.12-.1-.21,0,0,0,0v0h0l-.08,0c0-.08,0-.14.07-.09l0-.22c.12.16.25.22.31.32.06-.11.2-.15.15-.41,0-.05.06,0,.09.08s0,0,0,.08.15-.1.08-.27c.11,0,0,.17.12.09v.06c.32.17.08-.56.45-.33,0,0,0,0,0,0,.31,0,.37-.39.72-.29.09,0,0-.1,0-.2l.09.12,0-.19c0-.16.36.21.34-.07l-.08-.07c.05,0,.09-.13.15,0s0-.1,0-.07l0,.07,0-.18c.1,0,.17.26.29.19a.51.51,0,0,0-.07-.3s-.07,0-.12-.07V71c-.13-.19-.25-.4-.43-.47l0,.16L59,70.63l0,0c-.09-.06,0,0,0,.09a.31.31,0,0,0-.1-.08l.07.22c-.06-.07-.08-.17-.14-.18s.14.15.14.24c-.09-.07-.14-.15-.12,0a.17.17,0,0,1,0-.11c0,.08-.06.08,0,.19-.1-.09-.08.1-.2-.09a.4.4,0,0,1,0,.21c-.1-.26-.12,0-.25-.2.09.23-.08.18-.08.33,0,0,0,0,0,0s-.1,0-.14-.07a1,1,0,0,1,.09.37c-.15-.13-.09-.21-.2-.36.08.14,0,.18.08.29a.6.6,0,0,1-.16-.16c.12.21,0,0,0,.2-.11-.07-.12-.19-.15-.09A.21.21,0,0,1,57.78,71.13Zm-1.25,1.08h0l0,0Zm-.13.05.06,0c0,.05,0,.09,0,.1S56.44,72.29,56.4,72.26Zm.65.78s0,0,0,0l0,0h0Z"/><polygon class="cls-3" points="57.02 72.86 57.02 72.85 57 72.82 57.01 72.87 57.02 72.86"/><path class="cls-3" d="M44.43,72.7h0a0,0,0,0,1,0,0Z"/><polygon class="cls-3" points="54.55 72.58 54.56 72.62 54.56 72.58 54.55 72.58"/><path class="cls-3" d="M44,71.92s0,0,0,0S44,71.91,44,71.92Z"/><path class="cls-3" d="M43.71,71.73l0-.06A.08.08,0,0,0,43.71,71.73Z"/><path class="cls-3" d="M43.53,71.54l0,0h0Z"/><path class="cls-3" d="M47.2,72.86h0S47.22,72.85,47.2,72.86Z"/><path class="cls-3" d="M46,72.86l.06,0S46,72.79,46,72.86Z"/><polygon class="cls-3" points="48.5 72.93 48.5 72.93 48.51 72.93 48.5 72.93"/><path class="cls-3" d="M46.09,72.83s0,0-.05,0S46.07,72.85,46.09,72.83Z"/><polygon class="cls-3" points="42.7 70.88 42.7 70.86 42.68 70.88 42.7 70.88"/><path class="cls-3" d="M42.68,70.88h0S42.67,70.89,42.68,70.88Z"/><path class="cls-3" d="M42.62,70.89h0S42.65,70.87,42.62,70.89Z"/><path class="cls-3" d="M42.92,71.12l0,0Z"/><path class="cls-3" d="M43,71.17s0-.12,0-.11l0,0C43,71,42.94,71.23,43,71.17Z"/><path class="cls-3" d="M43,71.93l0-.08c0,.05,0,.12-.09.11C42.87,72.16,42.91,71.85,43,71.93Z"/><path class="cls-3" d="M43.19,72.15c-.06,0,0,.06-.06.09S43.19,72.21,43.19,72.15Z"/><path class="cls-3" d="M45,73.05l-.05.12S44.92,73.12,45,73.05Z"/><polygon class="cls-3" points="45.54 72.57 45.53 72.49 45.48 72.59 45.54 72.57"/><polygon class="cls-3" points="45.43 73.5 45.41 73.51 45.48 73.49 45.43 73.5"/><path class="cls-3" d="M48.73,74.2V74S48.68,74.24,48.73,74.2Z"/><path class="cls-3" d="M50.18,74.13c0,.08,0,.13.08.05S50.19,74.11,50.18,74.13Z"/><polygon class="cls-3" points="54.49 73.9 54.47 73.95 54.52 73.9 54.49 73.9"/></g></g></svg>