<svg xmlns="http://www.w3.org/2000/svg" viewBox="0 0 61.48 82.02"><defs><style>.cls-1{fill:none;stroke:#ff9797;stroke-miterlimit:10;}.cls-2{fill:#ffa4a4;}</style></defs><g id="圖層_2" data-name="圖層 2"><g id="圖層_1-2" data-name="圖層 1"><path class="cls-1" d="M59,39.63c1.1,7,1.57,6.85,1.8,10s.86,11.61-4.68,19.49c-.62.88-8.27,11.44-20.3,12.38C17,82.93,1,59.57.56,45.21.41,40.08.23,33.87,3.85,28.62A21.84,21.84,0,0,0,7.56,22c.85-2.71.52-4,1.4-7.47a28.22,28.22,0,0,1,2.33-6.21C14.57,2.76,23.38.56,29.5.5A28.34,28.34,0,0,1,48.57,8c6.17,5.63,7.73,12.47,8.68,16.64C58.3,29.25,57.57,30.25,59,39.63Z"/><ellipse class="cls-1" cx="26.16" cy="30.58" rx="1.45" ry="1.15" transform="translate(-4.52 56.62) rotate(-89.78)"/><ellipse class="cls-1" cx="28.58" cy="61.3" rx="1.45" ry="1.38" transform="translate(-32.83 89.64) rotate(-89.78)"/><ellipse class="cls-1" cx="31.99" cy="71.9" rx="1.66" ry="1.61" transform="translate(-40.03 103.61) rotate(-89.78)"/><ellipse class="cls-1" cx="46.79" cy="52.45" rx="1.25" ry="1.15" transform="translate(-5.84 99.03) rotate(-89.78)"/><ellipse class="cls-1" cx="48.12" cy="64.49" rx="1.25" ry="1.15" transform="translate(-16.55 112.36) rotate(-89.78)"/><ellipse class="cls-1" cx="17.81" cy="47.56" rx="1.13" ry="1.48" transform="translate(-21.84 15.83) rotate(-30.8)"/><ellipse class="cls-1" cx="7.69" cy="35.95" rx="0.83" ry="0.97" transform="translate(-20.12 11.9) rotate(-37.07)"/><ellipse class="cls-1" cx="15" cy="51.75" rx="0.83" ry="0.97" transform="translate(-28.17 19.5) rotate(-37.07)"/><ellipse class="cls-1" cx="14.5" cy="60.47" rx="0.83" ry="0.97" transform="translate(-33.52 20.96) rotate(-37.07)"/><ellipse class="cls-1" cx="36.07" cy="76.74" rx="0.83" ry="0.97" transform="translate(-38.97 37.25) rotate(-37.07)"/><ellipse class="cls-1" cx="23.9" cy="11.53" rx="0.83" ry="0.97" transform="matrix(0.8, -0.6, 0.6, 0.8, -2.12, 16.73)"/><ellipse class="cls-1" cx="36.66" cy="44.37" rx="0.83" ry="0.97" transform="translate(-19.34 31.06) rotate(-37.07)"/><ellipse class="cls-1" cx="48.85" cy="44.41" rx="1.28" ry="1.6" transform="translate(-16.2 33.15) rotate(-32.45)"/><path class="cls-2" d="M29.33,16.69s.14,0,.12,0l-.16,0Z"/><path class="cls-2" d="M29.65,16.57a1,1,0,0,0-.35-.13,2.09,2.09,0,0,0,.26.13s-.06,0-.12,0,0,0,.06.06.14,0,.05-.11Z"/><path class="cls-2" d="M30,17.44h0Z"/><path class="cls-2" d="M29.61,17.91l0,0S29.61,17.9,29.61,17.91Z"/><path class="cls-2" d="M29.63,17.71h0S29.64,17.7,29.63,17.71Z"/><path class="cls-2" d="M30,17.44h-.05C30,17.47,30,17.45,30,17.44Z"/><path class="cls-2" d="M29.41,16.11s0,0,0,0v0Z"/><path class="cls-2" d="M29.87,17h0Z"/><path class="cls-2" d="M29.77,16.68l.19-.05c-.06,0-.09,0-.1,0Z"/><path class="cls-2" d="M29.94,16.33v0Z"/><path class="cls-2" d="M29.84,17.23h0Z"/><path class="cls-2" d="M28.47,17.45h0Z"/><polygon class="cls-2" points="29.31 17 29.31 17.01 29.39 17.05 29.31 17"/><path class="cls-2" d="M29.69,17.5h0S29.7,17.5,29.69,17.5Z"/><path class="cls-2" d="M29.85,17.06c.08,0,.12,0,.2,0A.54.54,0,0,0,29.85,17.06Z"/><path class="cls-2" d="M29.43,16.1l0,0S29.43,16.09,29.43,16.1Z"/><polygon class="cls-2" points="30.05 17.02 30.05 17.02 30.06 17.01 30.05 17.02"/><path class="cls-2" d="M29.49,17.06h0Z"/><path class="cls-2" d="M29.37,17.46v0A0,0,0,0,0,29.37,17.46Z"/><path class="cls-2" d="M29.31,16.86s0,0,0,0h0S29.33,16.86,29.31,16.86Z"/><polygon class="cls-2" points="29.36 16.69 29.34 16.66 29.34 16.68 29.36 16.69"/><path class="cls-2" d="M29.3,18.41a1.09,1.09,0,0,1,.08-.15C29.31,18.38,29.21,18.42,29.3,18.41Z"/><path class="cls-2" d="M29.48,16.15l-.05,0v0Z"/><path class="cls-2" d="M28.31,16.2a.35.35,0,0,1,.05-.08A.14.14,0,0,0,28.31,16.2Z"/><path class="cls-2" d="M28.61,16.93v0A0,0,0,0,0,28.61,16.93Z"/><path class="cls-2" d="M28.46,15.86l.09,0,0,0Z"/><path class="cls-2" d="M29.38,18.26Z"/><path class="cls-2" d="M28.76,18.5s.18-.13.28-.21-.09.11-.16.2.25-.18.27-.17l-.08.08c.17-.14.13,0,.35-.2l0,.06c.07-.11.15-.22.21-.3s.14-.16.05,0a.73.73,0,0,0-.09.11l.07-.08c-.11.22-.09.09-.19.24.11-.07.28-.27.32-.23-.09.23-.19.11-.2.29l-.05-.07c-.13.34-.05,0-.2.34.07,0,.12,0,.21,0a1.58,1.58,0,0,1,.32-.11c.08-.15,0-.17.08-.31s.28-.15.44-.18a.36.36,0,0,0,.38-.36c0-.16-.29-.14-.1-.34h.21c.06-.27-.3,0-.14-.24.09,0,.07.07.1,0,.17-.2-.13,0-.13-.07l.19-.13c-.05-.11-.18-.09-.23-.16a.42.42,0,0,0,.12-.14c-.12-.05-.16-.3-.31-.48l-.11.11a.1.1,0,0,1,0-.1c-.06-.08,0,.09-.08.14s0-.11,0-.14c-.16.07-.35.19-.48.05a.08.08,0,0,1,0,0c-.1-.05-.07.31-.18.2v0c-.24,0-.34.26-.56.14.12.18-.17,0,0,.26-.16,0-.18-.11-.36-.06s.09.17.09.23l-.13-.09.09.16-.18-.06v.08s.09,0,.12,0-.19.18-.27.18a1.21,1.21,0,0,0,.09.31c-.06,0-.08-.06-.12-.11.16.19-.17.05,0,.22,0,0,.09,0,.13,0a.26.26,0,0,0,.05.34l-.1,0c.07.2.26.3.41.41,0-.08.11-.21.15-.2l-.08.15c.08-.07,0-.08.12-.14s-.07.17-.13.19h.09a.41.41,0,0,1-.09.1c.08-.06.06.23.19.09l0,.05a1.13,1.13,0,0,0,.47.06c0-.14.07-.1.12-.21s.24.13.35.08,0-.12,0-.21c0,.12.15.06.13.17a.51.51,0,0,0,.23-.32c-.05,0-.07,0-.09-.08s.08,0,.11,0h0c0-.14.11-.16.24-.22s.24-.15.13-.3v0a1,1,0,0,0-.11-.23c0-.08.09.08.18,0-.2-.24,0-.36-.17-.52.18-.11.11-.25,0-.37a.47.47,0,0,1-.16-.37l-.06.07c-.09,0,0-.08,0-.13s0,.1-.07.12c-.29-.22-.49-.7-.85-1-.13-.1,0,.53-.18.19v-.19c-.1.06-.21,0-.34-.09a.42.42,0,0,0-.18.3c0-.05,0-.11,0-.12s-.12.14-.07.23-.05-.07-.09-.1,0,.24-.07.15,0-.05,0-.06-.1.11,0,.2c-.09,0-.05.19-.14.19.1.15-.13.08,0,.25-.17-.17-.21,0-.13.14-.06-.06-.08,0-.16-.07a.16.16,0,0,0,.11.2c-.28,0,.16.31-.18.27a4.19,4.19,0,0,0,.26.58c-.23,0,0-.18-.28-.17.1.2.31.23.28.36s-.1,0-.14,0c.12.11,0,.26.2.33h-.07s0,.07.09,0h0c.13-.08.32,0,.4-.06-.29.08,0,.12-.4.21a.19.19,0,0,0,.14,0s0,0-.12.06l.07,0c.06,0,.11,0,.14,0l-.13,0c.11,0,.21,0,.22.07s-.06,0-.07,0,.32,0,.34.14c-.17.14,0,.08-.12.23h.1l0-.09c.05,0,.17,0,.19,0l-.08,0,.13,0,0-.1c.09-.06.09-.21.13-.14s.05,0,.06.13h0c0-.06.07-.11.11-.06s0,.2,0,.24c0-.15.2-.05.2-.23a.54.54,0,0,0,0,.15.57.57,0,0,0,0-.13.17.17,0,0,1,.09.11c.12,0-.14-.19,0-.17,0,0,0,0,0,.06.16,0,.11-.22.2-.24s0,.08.14.15c.05-.13-.06-.32,0-.4h0c-.24-.12.15,0,.05-.13l.11.06c.07-.06,0-.18-.07-.3l.07,0c.07,0,.05-.11.09-.16s-.05-.05-.15,0c.41-.13-.19-.28.12-.41,0,0,.07,0,.06,0l-.07-.1a.44.44,0,0,0-.15.05c-.07,0-.13,0-.13-.05s.18,0,.24-.05h-.11c.2-.09-.23,0-.1-.06h.06s-.12,0-.11-.06.07,0,.17,0-.26,0-.14-.09,0,0,.09,0,.1-.07.11-.11h0l.05-.1,0,0c-.35.06-.09-.08-.33-.07.22,0,.12,0,.26-.08s.07-.08.11-.09c-.13,0,.07-.09-.12-.07,0,0,0,0,.1-.08,0,0-.07.05-.13.07s.11-.25-.14-.23h0l-.48-.07c0,.14.1.26.12.36a.31.31,0,0,1-.12-.13c-.09,0-.1,0-.08.1a.27.27,0,0,0-.12-.06s.14.11.06.12a.65.65,0,0,1-.16-.13c0,.07.08.15.1.21s-.1-.08-.15-.12a.23.23,0,0,0,.15.22l0,0s-.11,0-.13,0,.07,0,.11,0l0,0c.27.08,0-.12.05-.18l.17.13-.12-.14a.56.56,0,0,1,.17.11c.1,0-.05-.06.06,0l0,0,0-.06s.12.09.09.08c.12,0-.06-.17.06-.07h0s0,0,0,0l-.28,0c.08,0,.13-.08.29-.11l-.31.22.14-.06a.1.1,0,0,1-.06,0c.11,0,.05,0,.15-.06-.11.1.11.08-.11.19.12,0,.07-.07.16-.07-.23.12.06,0,0,.12s-.08,0-.18.06c.22-.06,0,.08,0,.09s.1,0,.17.08-.08.12-.13.17h0c.18,0,.15,0,.19.07h-.2v0c.06,0,.1,0,.12,0h-.14s.17.07.08.13c.13,0,.36-.06.44,0h-.21s.05,0,0,0l-.11,0s.09,0,.08,0H30s.05,0,0,0a.24.24,0,0,1-.16.06c.06,0,.14,0,.15,0s-.12,0-.17,0,0,0,.14.05c0,0-.07,0-.11,0s0,.09.16.1h0c.13.11-.12.13-.08.22l-.05,0c0,.06,0,.1.08.17s-.1,0-.15,0,.07.08,0,.08-.08,0,0-.06-.13,0,0,.08c-.1-.08-.15-.06-.13,0l.09,0s0,0,0,0l-.13-.1c.17.13.18.26.14.08,0,0,0,0,0,.05v0a.19.19,0,0,1,0-.11.07.07,0,0,1,0-.05s0,.12,0,.08-.06.21-.12.25.08-.24.11-.28,0,0,0,0l0-.1,0,0s0-.06.05-.14a.45.45,0,0,0-.06.12c0-.09,0,0,0-.09l-.06.08c0-.09-.1.07-.15.06s.16-.14.08-.12a.46.46,0,0,1,.16-.13c-.1.05,0-.09.05-.1l0,0h0l-.1.07.05-.05a2,2,0,0,1-.26.15s0,0,0,0l.07,0h0s.15-.07.18-.07,0,0,0,0h0l0,0c.12-.09-.17.06-.19,0s.16-.07.13-.07-.13.06-.2.07-.06,0-.06,0l0,0c-.09,0-.09,0-.12,0s.05,0,.08,0c-.16,0,.13-.11,0-.12.05,0,.16,0,.2-.07-.12,0,.11-.07,0-.09a.31.31,0,0,1-.21,0l.1.05h-.18s.08,0,.06.05-.07,0-.16,0c.17-.07-.12,0,0-.11l.3,0c.12-.06-.16,0-.09-.09H29.3c-.12,0,0,0-.07-.06a.83.83,0,0,0,.2,0c-.08,0,0,0-.19-.07l.13,0c.05,0-.28-.15-.24-.19a1.39,1.39,0,0,1,.25.14s0,0,0,0-.13-.11,0-.07-.14-.1-.13-.11l0,0a.64.64,0,0,0-.16-.13c.3.18,0-.18.28,0a.33.33,0,0,1,0-.16s0,.06,0,.05-.19-.37-.09-.29,0,.13.1.2c.22.42,0-.1.13.13v0c.07.14-.05-.21,0-.15l0,.07a.56.56,0,0,1,0-.15.2.2,0,0,1,0-.16,1.38,1.38,0,0,0,0,.26s-.06-.28,0-.3a2.31,2.31,0,0,1,.09.36h0c0,.24,0,0,0,.06v.1s0-.24.05-.19v-.07c0-.19,0,.14.05,0v.2s.07-.14.11-.14a2.17,2.17,0,0,0-.11.23s0,0,.06-.06,0,0,0,0,.09-.17.12-.13c-.12.3,0,.16-.08.37.09-.05,0,.09,0,.1.19-.09,0,0,.21-.06t0,0a.39.39,0,0,1-.11.06.26.26,0,0,1-.09,0s-.09,0-.15,0h.18c.12,0-.18,0-.06,0l-.07,0,.17.12a.24.24,0,0,1-.1-.06s.14.23,0,.15l0-.06s.06.12,0,.06l0-.06s.05.12,0,.09l0-.08c-.05-.08,0,.21,0,.27-.05-.24,0-.19,0-.26h0s0-.06,0,0a.28.28,0,0,1-.11.15.69.69,0,0,0,.06-.15s.05-.06,0,0,0,0,0,0l-.08,0h0s0,0,0,0h0a.42.42,0,0,1-.14,0h.09l.07,0s0,0,.12.05c0,0,0-.05-.07-.11l.1.1a.09.09,0,0,0,.11-.07l.05.09s-.22-.35-.19-.39l.14.16c.06-.05.16.11.09-.07l0,.1a1.19,1.19,0,0,1,0-.14h0v.09h0v0a.35.35,0,0,1,0-.13v.14c0-.18,0-.22.06-.26S30,17,30,17s0-.12.06,0l0,.07s0,0,.07-.1,0,.07,0,.17c0-.06.07-.12.06-.08a.14.14,0,0,1,0,.06c0,.1.08,0,0,.08l0,0v-.06a1.35,1.35,0,0,1-.13.21c0-.06.13-.15.1-.1l0,0h0s0,0,0,0v0c-.05,0,0,0,0,0s0,0,.08-.07h0v0s0,0,0,0l.06-.05a.76.76,0,0,1-.16.14s0,0,0,.07,0,0,0,0v0s0,0-.06.09,0-.05,0,0v0s0,0-.1.09-.14.14-.1.07l0,0s-.08,0-.17.05-.17,0,0-.14-.08,0-.18,0l.16,0h-.18c-.07,0,.05-.07.13-.09s.14,0,0-.07h-.11s0-.09.08-.07-.1,0-.05,0h.08a.48.48,0,0,1-.11-.09c.07,0,.29.11.33.05a.84.84,0,0,0-.23-.18s-.06,0-.13,0l0,0c-.21-.1-.41-.24-.6-.21l.11.13-.12,0,0-.06c-.11,0,0,0,0,.09a.31.31,0,0,0-.13,0l.18.15c-.09,0-.16-.09-.23,0,.09.07.21,0,.26.1-.12,0-.2,0-.12.05a.14.14,0,0,1-.12-.05c.06.06,0,.13.12.17-.14,0,0,.14-.21.14l.09,0a.23.23,0,0,1,.09.07c-.27,0,0,.16-.3.19.24,0,.15.19.32.24,0,0-.06,0-.05,0s-.05.1-.07.16a1.87,1.87,0,0,1,.4-.08c-.12.14-.23.1-.37.21.13-.08.21,0,.31-.11a.49.49,0,0,1-.14.18c.22-.16.07,0,.23-.1-.06.11-.19.18-.08.14A.39.39,0,0,1,28.76,18.5Zm1.83-1.79h0l0,0Zm-.05-.12a.14.14,0,0,1,0,.06c0,.05-.06.09-.07.07S30.53,16.65,30.54,16.59Zm-.49.76s0,0,0,0h0Z"/><polygon class="cls-2" points="30.11 17.3 30.11 17.3 30.13 17.29 30.11 17.3 30.11 17.3"/><path class="cls-2" d="M30,17.43Z"/><polygon class="cls-2" points="28.68 16.7 28.7 16.72 28.69 16.69 28.68 16.7"/><path class="cls-2" d="M30.49,16.86l0,0Z"/><path class="cls-2" d="M30.46,16.57l0-.05Z"/><path class="cls-2" d="M30.46,16.34l-.06,0h0Z"/><path class="cls-2" d="M28.48,17.77h0Z"/><path class="cls-2" d="M29.53,18.45l-.06.05S29.51,18.52,29.53,18.45Z"/><polygon class="cls-2" points="28.3 16.21 28.3 16.21 28.31 16.2 28.3 16.21"/><path class="cls-2" d="M29.41,18.47s0,0,.06,0S29.43,18.46,29.41,18.47Z"/><polygon class="cls-2" points="29.29 16.34 29.28 16.35 29.3 16.36 29.29 16.34"/><path class="cls-2" d="M29.3,16.35v0S29.32,16.36,29.3,16.35Z"/><path class="cls-2" d="M29.34,16.41l0,0S29.3,16.4,29.34,16.41Z"/><path class="cls-2" d="M29.52,16l0,0Z"/><path class="cls-2" d="M29.57,15.94s-.12,0-.12,0l0,0C29.43,15.94,29.62,16,29.57,15.94Z"/><path class="cls-2" d="M29.82,16.41v-.07s-.1.08-.12.06C29.59,16.54,29.81,16.34,29.82,16.41Z"/><path class="cls-2" d="M29.82,16.6s-.08,0-.11,0S29.78,16.64,29.82,16.6Z"/><path class="cls-2" d="M29.78,17.75l-.11-.06S29.72,17.71,29.78,17.75Z"/><polygon class="cls-2" points="30.19 18.34 30.28 18.36 30.19 18.27 30.19 18.34"/><polygon class="cls-2" points="29.69 17.96 29.69 17.96 29.68 17.95 29.69 17.96"/><path class="cls-2" d="M29.46,16.83l-.14-.14S29.5,16.89,29.46,16.83Z"/><path class="cls-2" d="M29.71,16.61c0,.1,0,.16,0,.08S29.71,16.6,29.71,16.61Z"/><polygon class="cls-2" points="29.5 17.37 29.5 17.37 29.36 17.37 29.37 17.37 29.5 17.37 29.5 17.37"/><path class="cls-2" d="M40.18,16.73s.14,0,.12,0l-.16,0Z"/><path class="cls-2" d="M40.5,16.61a1,1,0,0,0-.35-.13,1.56,1.56,0,0,0,.26.13s-.06,0-.12,0,0,0,.06.06.14,0,0-.11A.35.35,0,0,1,40.5,16.61Z"/><path class="cls-2" d="M40.83,17.48h0Z"/><path class="cls-2" d="M40.46,18l0,0Z"/><path class="cls-2" d="M40.48,17.75h0S40.49,17.74,40.48,17.75Z"/><path class="cls-2" d="M40.83,17.48l0,0S40.82,17.49,40.83,17.48Z"/><path class="cls-2" d="M40.26,16.15a.08.08,0,0,0,0,0v0Z"/><path class="cls-2" d="M40.71,17h0Z"/><path class="cls-2" d="M40.62,16.72l.19,0c-.06,0-.09,0-.1,0Z"/><path class="cls-2" d="M40.79,16.37v0Z"/><path class="cls-2" d="M40.69,17.27h0Z"/><path class="cls-2" d="M39.31,17.49h0Z"/><polygon class="cls-2" points="40.16 17.04 40.16 17.05 40.23 17.09 40.16 17.04"/><path class="cls-2" d="M40.54,17.55Z"/><path class="cls-2" d="M40.7,17.11c.08,0,.12,0,.2-.05A.53.53,0,0,0,40.7,17.11Z"/><path class="cls-2" d="M40.28,16.14v0A0,0,0,0,0,40.28,16.14Z"/><polygon class="cls-2" points="40.9 17.06 40.9 17.06 40.91 17.05 40.9 17.06"/><path class="cls-2" d="M40.34,17.1h0Z"/><path class="cls-2" d="M40.22,17.5v0A0,0,0,0,0,40.22,17.5Z"/><path class="cls-2" d="M40.16,16.9s0,0,0,0h0S40.18,16.91,40.16,16.9Z"/><polygon class="cls-2" points="40.21 16.73 40.19 16.7 40.19 16.72 40.21 16.73"/><path class="cls-2" d="M40.15,18.45l.08-.15C40.16,18.42,40.06,18.46,40.15,18.45Z"/><path class="cls-2" d="M40.33,16.19s0,0,0-.05v0Z"/><path class="cls-2" d="M39.16,16.24l0-.08A.2.2,0,0,0,39.16,16.24Z"/><path class="cls-2" d="M39.46,17v0S39.45,17,39.46,17Z"/><path class="cls-2" d="M39.3,15.9l.1,0,0,0Z"/><path class="cls-2" d="M40.23,18.3Z"/><path class="cls-2" d="M39.61,18.54s.18-.13.28-.21-.1.12-.16.2.24-.18.26-.17l-.07.08c.17-.14.13,0,.34-.19l0,.05.21-.3s.14-.16.05,0a.73.73,0,0,0-.09.11l.07-.07c-.11.21-.09.08-.19.23.11-.07.28-.27.32-.23-.09.23-.2.11-.2.29l0-.07c-.13.34-.05,0-.2.34.07,0,.12,0,.21,0a3.07,3.07,0,0,1,.31-.11c.09-.14,0-.17.08-.31S41,18,41.2,18a.36.36,0,0,0,.38-.36c0-.16-.29-.14-.1-.34h.21c.06-.27-.31,0-.14-.24.08,0,.07.07.1,0,.17-.2-.13,0-.13-.07l.19-.13c-.05-.11-.18-.09-.23-.16a.31.31,0,0,0,.11-.14c-.11-.05-.15-.29-.3-.48l-.11.11a.12.12,0,0,1,0-.1c0-.08,0,.09-.07.14s0-.1,0-.14c-.16.07-.35.19-.48,0a.08.08,0,0,1,0,0c-.1-.05-.07.31-.18.2v0c-.25,0-.35.26-.56.15.12.17-.17,0,0,.25-.16,0-.18-.11-.36-.06s.09.18.09.23l-.13-.09.09.16-.18-.05v.07s.09,0,.12,0-.19.19-.27.18a1.41,1.41,0,0,0,.09.32c-.06,0-.08-.07-.12-.12.16.19-.17.05,0,.22,0,0,.09,0,.12,0s0,.26.06.33l-.1,0c.07.2.26.3.41.41,0-.08.11-.21.15-.19l-.08.14c.08-.07,0-.08.12-.14s-.07.17-.14.19h.1c0,.05,0,.06-.09.11s.06.22.19.09l0,0a1.1,1.1,0,0,0,.46.06c0-.14.08-.1.12-.21s.25.14.36.08,0-.12,0-.21c0,.12.15.06.13.17a.48.48,0,0,0,.23-.32s-.07,0-.09-.08.07,0,.11.05h0c0-.14.12-.16.25-.21s.24-.16.13-.31v0a1,1,0,0,0-.11-.23c0-.08.09.08.17,0-.19-.24,0-.35-.16-.52.17-.11.11-.25,0-.37a.47.47,0,0,1-.16-.37l-.06.07c-.09,0,0-.08,0-.13s0,.11-.07.12c-.29-.21-.49-.69-.85-1-.13-.1,0,.53-.18.19v-.19c-.1.06-.21,0-.34-.09a.41.41,0,0,0-.18.3s0-.1,0-.12-.12.14-.07.24-.05-.08-.09-.11,0,.24-.07.15,0,0,0-.06-.1.11,0,.2c-.09,0,0,.19-.14.19.1.15-.13.08,0,.25-.17-.17-.22,0-.14.14,0-.06-.07,0-.15-.07a.16.16,0,0,0,.11.2c-.28,0,.16.31-.18.27a5.06,5.06,0,0,0,.26.59c-.23,0,0-.19-.28-.18.1.2.31.23.28.36s-.1,0-.14,0c.12.11,0,.26.2.33h-.07s0,.06.08,0h0c.13-.08.32,0,.4-.06-.29.08,0,.12-.4.21a.19.19,0,0,0,.14,0s-.05.05-.13.06l.08,0c.06,0,.11,0,.13,0l-.12,0c.11,0,.21,0,.22.06s-.06,0-.07,0,.32,0,.34.14c-.17.14,0,.08-.12.23H40l0-.1c.05.05.17,0,.19,0l-.08,0,.13,0,0-.1c.1-.06.1-.21.14-.14s0,0,0,.14h0c.05,0,.08-.11.12-.06s0,.2,0,.24c0-.15.2-.05.2-.23,0,0,0,.14,0,.15s0-.09,0-.13a.17.17,0,0,1,.09.11c.12,0-.14-.19,0-.16a.2.2,0,0,1,0,.05c.15,0,.11-.22.2-.24s0,.09.14.15c0-.12-.06-.32,0-.4h0c-.23-.12.16,0,.06-.12s.13.07.11.05,0-.18-.07-.3l.07,0c.07,0,.05-.11.09-.16s-.05-.05-.15,0c.41-.12-.19-.27.12-.4,0,0,.06,0,.06,0L41.38,17a.44.44,0,0,0-.15.05c-.07,0-.13,0-.13-.05s.18,0,.24-.05h-.11c.2-.08-.23,0-.1-.06h.06s-.12,0-.11-.06.07,0,.17,0-.26,0-.14-.08,0,0,.08,0,.11-.08.12-.12h0l0-.1,0,0c-.35.05-.09-.09-.33-.08.22,0,.12,0,.26-.08s.07-.08.11-.09c-.13,0,.07-.09-.12-.07,0,0,0,0,.1-.08-.05,0-.07.05-.13.07s.11-.24-.14-.22h0l-.48-.06c0,.13.1.25.12.35a.25.25,0,0,1-.12-.13c-.09,0-.1,0-.08.1a.27.27,0,0,0-.12-.06s.14.11.06.12a.65.65,0,0,1-.16-.13c0,.07.08.15.1.21s-.1-.08-.15-.12a.23.23,0,0,0,.15.22h0a.31.31,0,0,1-.13,0c-.09-.08.07-.05.11,0l0,0c.27.08,0-.12,0-.18l.17.13-.12-.14a.43.43,0,0,1,.17.12c.1,0-.05-.07.06,0l0,0,0-.06s.12.09.08.08c.12,0-.06-.17.07-.07h0a.06.06,0,0,0,0,0l-.28,0c.08,0,.12-.08.28-.11l-.3.22.13-.06s0,0-.05.05c.1,0,.05,0,.15-.06-.11.1.11.08-.11.19.12,0,.07-.07.16-.06-.23.11.06,0,0,.11s-.08,0-.18.06c.22-.06,0,.08,0,.09s.09,0,.16.08-.07.12-.13.17h0c.19,0,.16,0,.2.06a.64.64,0,0,1-.2,0v0a.33.33,0,0,1,.12,0h-.14s.17.07.08.13c.13,0,.35-.06.44,0a.64.64,0,0,1-.21,0s0,0,0,0l-.11,0c-.06,0,.09,0,.08,0s-.07,0-.15,0,0,0,0,0a.33.33,0,0,1-.16.05c.06,0,.14,0,.15,0s-.12,0-.17,0,0,0,.14.05H40.7c.06,0,0,.1.16.1h0c.13.11-.11.14-.07.22l0,0c0,.06,0,.1.08.17s-.1,0-.15,0,.07.08,0,.08-.07,0,0-.06-.12,0,0,.09c-.1-.08-.15-.07-.13,0l.09,0s0,0,0,0l-.13-.11c.17.13.18.26.14.08,0,0,0,0,0,0v0a.19.19,0,0,1,0-.11v0s0,.11,0,.07-.05.21-.11.25.07-.24.1-.28,0,0,0,0l0-.1,0,.06a.43.43,0,0,1,0-.15.45.45,0,0,0-.06.12c0-.09,0,0,0-.09s-.06.09-.07.08-.09.07-.14.06.16-.14.08-.12.12-.1.16-.13,0-.08.05-.09l0,0s0,0,0,0l-.1.07s0,0,.05,0-.16.1-.26.14,0,0,0,0l.07,0h0s.15-.07.17-.07h0c.11-.1-.17.05-.19,0s.15-.08.13-.08-.13.07-.2.07-.06,0-.06,0l0,0c-.08,0-.08,0-.11,0s.05,0,.08,0c-.16,0,.13-.11,0-.12,0,0,.16,0,.2-.07-.13,0,.11-.06,0-.08a.34.34,0,0,1-.2,0l.1.05H40.1s.08,0,.06.05a.29.29,0,0,0-.16,0c.17-.07-.12-.05,0-.11l.29-.05c.13-.06-.15,0-.08-.09h-.05c-.12,0,0,0-.07-.05h.2c-.08,0,0,0-.19-.07l.13,0c.05,0-.28-.15-.24-.19a1.39,1.39,0,0,1,.25.14s0,0,0,0-.12-.11,0-.07-.13-.1-.12-.11l0,0a.64.64,0,0,0-.16-.13c.3.18,0-.18.28,0a.31.31,0,0,1,0-.16l0,.05c.08.08-.19-.36-.09-.29s0,.14.1.2c.22.42,0-.1.13.14v0c.07.14-.05-.21,0-.15l0,.07a1,1,0,0,1,0-.15c0-.1,0-.13,0-.15a1.41,1.41,0,0,0,0,.25s-.06-.28,0-.3a2.66,2.66,0,0,1,.09.36h0c0,.23,0,0,0,0v.1s0-.24.05-.19v-.07c0-.18,0,.14,0,0l0,.21s.08-.15.12-.15-.09.16-.12.24,0,0,.06-.07,0,.05,0,0,.09-.17.12-.13c-.12.3,0,.16-.08.37.09,0,0,.09,0,.1.18-.09,0,0,.21-.06,0,0,0,0,0,0a.24.24,0,0,1-.11.06c-.06,0,0,0-.1,0s-.08,0-.14,0h.18c.12.05-.18,0-.06,0l-.07,0s0,0,.16.12a.28.28,0,0,1-.09-.06s.14.23,0,.15l0-.06s.06.12,0,.06a.29.29,0,0,1,0-.06s0,.12,0,.09l0-.08c-.05-.08,0,.21,0,.28,0-.25,0-.2,0-.27h0s0-.06,0,0a.35.35,0,0,1-.11.15.69.69,0,0,0,.06-.15s0-.06,0,0h0l-.08,0,0,0s0,0,0,0h0l-.15,0h.1l.07,0s0-.05.12.06c0-.05,0-.06-.07-.12l.1.1s.07,0,.11-.07l0,.09s-.22-.35-.19-.38l.14.15c.06-.05.16.11.09-.07l0,.1s-.06-.17,0-.14h0v.09h0v0a.69.69,0,0,1,0-.13v.14c0-.17,0-.22.06-.26s0,.11,0,.07,0-.12.06,0l0,.08s0,0,.07-.11,0,.07,0,.18c0-.07.08-.13.07-.09a.67.67,0,0,1,0,.07c0,.09.08,0,0,.07l0,.05V17.2l-.13.22c0-.07.13-.16.1-.1l0,0h0s0,0,0,0l0,0s0,0,0,0l.08-.06h0v0s0,0,0,0l.07,0a.92.92,0,0,1-.16.15s0,0,0,.07a0,0,0,0,1,0,0h0s0,0-.05.08,0,0,0,0v0s0,0-.1.09-.15.14-.11.07,0,0,0,0-.08,0-.17,0-.17,0,0-.14-.08,0-.18,0l.16,0h-.18c-.07,0,0-.07.13-.09s.14,0,0-.07h-.11s0-.09.08-.06-.11,0,0,0l.08,0a.52.52,0,0,1-.11-.1c.07,0,.29.11.33.05a.84.84,0,0,0-.23-.18s-.06,0-.13,0l0-.05c-.21-.1-.41-.24-.6-.2l.1.12-.11,0,0-.06c-.11,0,0,.05,0,.09a.32.32,0,0,0-.13,0l.18.15c-.09,0-.16-.09-.23,0,.09.07.21,0,.26.1-.12,0-.2,0-.12.05a.14.14,0,0,1-.12-.05c.06.06,0,.13.12.17-.14,0,0,.14-.21.14l.09,0s.08,0,.08.07c-.26,0,0,.16-.29.19.24,0,.14.2.32.24,0,0-.06,0-.06,0s0,.11-.06.16c.17-.08.26,0,.4-.08-.12.14-.23.1-.37.21.13-.08.21,0,.31-.11a.49.49,0,0,1-.14.18c.22-.16.07,0,.22-.1-.05.11-.18.18-.07.14A.47.47,0,0,1,39.61,18.54Zm1.83-1.79h0l0,0Zm0-.12s0,0,0,.06-.07.09-.07.07S41.38,16.69,41.39,16.63Zm-.49.76s0,0,0,0h0Z"/><polygon class="cls-2" points="40.96 17.34 40.96 17.34 40.98 17.33 40.96 17.34 40.96 17.34"/><path class="cls-2" d="M40.86,17.47h0Z"/><polygon class="cls-2" points="39.52 16.74 39.55 16.76 39.54 16.73 39.52 16.74"/><path class="cls-2" d="M41.34,16.9l0,0Z"/><path class="cls-2" d="M41.31,16.61l0-.05Z"/><path class="cls-2" d="M41.31,16.38l-.06,0h0Z"/><path class="cls-2" d="M39.33,17.82h0S39.31,17.81,39.33,17.82Z"/><path class="cls-2" d="M40.37,18.49a.12.12,0,0,1,0,.05S40.36,18.56,40.37,18.49Z"/><polygon class="cls-2" points="39.15 16.25 39.15 16.25 39.16 16.24 39.15 16.25"/><path class="cls-2" d="M40.26,18.52s0,0,.06,0S40.28,18.5,40.26,18.52Z"/><polygon class="cls-2" points="40.14 16.38 40.13 16.39 40.15 16.4 40.14 16.38"/><path class="cls-2" d="M40.15,16.4v0S40.16,16.4,40.15,16.4Z"/><path class="cls-2" d="M40.19,16.46l0,0S40.15,16.44,40.19,16.46Z"/><path class="cls-2" d="M40.37,16.08l0,0Z"/><path class="cls-2" d="M40.42,16s-.12,0-.12,0l0,0C40.28,16,40.47,16.05,40.42,16Z"/><path class="cls-2" d="M40.67,16.46v-.08s-.1.08-.12.07S40.66,16.38,40.67,16.46Z"/><path class="cls-2" d="M40.67,16.65s-.08,0-.11,0A.13.13,0,0,0,40.67,16.65Z"/><path class="cls-2" d="M40.63,17.79l-.11-.06S40.56,17.75,40.63,17.79Z"/><polygon class="cls-2" points="41.04 18.39 41.13 18.4 41.04 18.32 41.04 18.39"/><polygon class="cls-2" points="40.54 18 40.54 18.01 40.53 17.99 40.54 18"/><path class="cls-2" d="M40.31,16.88l-.14-.15S40.34,16.93,40.31,16.88Z"/><path class="cls-2" d="M40.56,16.66c0,.09,0,.15,0,.07S40.56,16.64,40.56,16.66Z"/><polygon class="cls-2" points="40.34 17.41 40.34 17.41 40.21 17.41 40.22 17.41 40.34 17.41 40.34 17.41"/><path class="cls-2" d="M35.05,21.92h0Z"/><path class="cls-2" d="M35.36,21.91h-.21s0,0,.07,0,.13,0,0,0A.41.41,0,0,1,35.36,21.91Z"/><path class="cls-2" d="M35.62,21.64h0Z"/><path class="cls-2" d="M35.71,21.48h0Z"/><path class="cls-2" d="M35.89,21.45h0Z"/><path class="cls-2" d="M35.62,21.64h0Z"/><path class="cls-2" d="M35,21.87h0Z"/><path class="cls-2" d="M35.75,21.71h0Z"/><path class="cls-2" d="M35.77,21.77h0Z"/><path class="cls-2" d="M35.53,21.86h0Z"/><path class="cls-2" d="M35.78,21.68h0Z"/><path class="cls-2" d="M34.73,20.11h0Z"/><path class="cls-2" d="M35.43,20.05Z"/><path class="cls-2" d="M36.07,21.4Z"/><path class="cls-2" d="M36,20.93h0Z"/><path class="cls-2" d="M35,21.87h0S35,21.87,35,21.87Z"/><path class="cls-2" d="M35.67,20.92Z"/><path class="cls-2" d="M36,21.28h0Z"/><path class="cls-2" d="M35.79,21.37h0Z"/><path class="cls-2" d="M35.79,21.23h0Z"/><path class="cls-2" d="M35.79,21.19h0Z"/><path class="cls-2" d="M34.8,20.26h.12C34.82,20.26,34.79,20.25,34.8,20.26Z"/><path class="cls-2" d="M35,21.87h0Z"/><path class="cls-2" d="M34.68,21.23h0S34.68,21.22,34.68,21.23Z"/><path class="cls-2" d="M34.82,20.6h0Z"/><path class="cls-2" d="M34.68,21.2h0Z"/><path class="cls-2" d="M34.92,20.26Z"/><path class="cls-2" d="M34.59,20.21h.29s-.14,0-.23,0h.13c.15,0,0,0,.19,0h0c.06,0,.21,0,.16,0h-.42s.09,0,0,0H35c.17,0-.43,0-.21,0h0s.27,0,.14,0h-.08c-.15,0,.11,0,.11,0h-.17a1.49,1.49,0,0,1,.18,0h-.16c.09,0,0,0-.12,0h.07c.13,0,.27,0,.11,0h0c-.06,0,.3,0,.16,0h0c-.07,0,.07,0-.15,0,.21,0-.1,0,.2,0l-.3,0s.19,0,.22,0h-.21l.13,0h-.13c.16,0-.16,0,0,0h.13c-.1,0-.1,0-.06,0h-.1s0,0,0,0h0c.1,0-.16,0,0,0h0s.06,0,.07,0h.22s-.15,0-.14,0h0l.13,0h0c.19,0-.37,0-.11.05h0l.14,0a.92.92,0,0,0-.17,0c.21,0,0,0,.11,0-.38,0,0,0-.22,0h.15c.1,0-.13.06-.21.09s.46,0,.24,0h-.16c.2,0,0,0,.16.07h-.09c-.12,0,0,0,.1,0h-.14c-.07,0,.15,0,0,0h0c.06,0,0,0,.13,0-.07,0,.06,0,0,0,.15,0-.08,0,.14,0-.23,0-.18,0-.08,0a.84.84,0,0,0-.16,0h.16c-.27,0,.22,0-.13,0l.26,0h-.26c.09,0,.28,0,.23,0a.65.65,0,0,1-.14,0c.1,0,0,0,.11,0h0c.1,0,.2,0,.16,0s-.07,0-.07,0,.26,0,.16,0h0c.1,0,.24,0,.19,0H35a1.49,1.49,0,0,1,.21,0H35s.24,0,.14,0h0c-.05,0,.08,0,0,0h-.21s.23,0,.18,0h0c.27,0-.13,0,0,0H35s.07,0,.15,0H35.1c-.06,0,0,0-.07,0h.16c-.39,0,.21,0-.11,0h.14c-.21,0,.23,0,.09,0h-.13s.25,0,.12,0h-.25c.35,0,.07,0,.3,0a2.52,2.52,0,0,0-.28,0h-.13c.12,0-.1,0,.08,0h0c.16,0-.2,0,0,0l.34,0h-.17c-.07,0-.06,0,0,0a.56.56,0,0,0-.13,0s.18,0,.11,0H35l.18,0H35l.21,0h0c.29,0,0,0,0,0h.24c.1,0-.07,0,0,0h0s.15,0,.12,0c.12,0-.15,0,0,0h0a1,1,0,0,0-.17,0c.14,0-.06,0,.18,0h-.17c.26,0,0,0,.07,0h.19c-.23,0,0,0,0,0s-.07,0-.13,0l.16,0h0a.93.93,0,0,1-.18,0h.23s-.17,0-.07,0h-.23s-.06,0,0,0h.12s-.1,0-.09,0h.32c-.06,0,0,0-.14,0h.11a.48.48,0,0,0-.18,0h0c-.15,0,.08,0,0,0h0a.41.41,0,0,0-.14,0h.15s-.1,0,0,0,.08,0,.07,0,.12,0,0,0c.13,0,.16,0,.13,0h-.1s0,0,0,0h.16c.21,0-.34,0,0,0h-.22s.26,0,.26,0h-.45a1.5,1.5,0,0,1,.3,0h0c.08,0,0,0,.06,0h-.1c.07,0-.12,0-.14,0s.21,0,.14,0H36c-.11,0,.08,0,.1,0h.05s0,0,0,0h-.35c.06,0-.07,0,.09,0-.05,0,.16,0,.19,0h0c.14,0-.18,0-.17,0a.47.47,0,0,0,.14,0h-.21c.07,0,0,0,0,0h-.06c-.16,0,.16,0,.05,0a1.46,1.46,0,0,1,.21,0c-.12,0,.12,0,0,0h-.21l.08,0h-.28c.18,0-.11,0,0,0h.29c.13,0-.15,0-.08,0h-.05c-.12,0,0,0-.06,0h.19a1.31,1.31,0,0,0-.19,0h.13c.06,0-.28,0-.24,0h.25s0,0,0,0-.13,0,0,0h-.14a.08.08,0,0,1,0,0h-.17c.3,0,0,0,.24,0,0,0-.07,0-.07,0h0c.09,0-.29,0-.19,0s.09,0,.15,0c.33,0,0,0,.15,0h0c.11,0-.13,0-.1,0h.05l-.27,0h.23c.18,0,0,0,0,0h.08s-.22,0-.21,0H35.6c-.19,0,.11,0,0,0h.2l-.23,0,.31,0s0,0-.12,0,.07,0,0,0l-.23,0c.39,0,.1,0,.4,0-.14,0,.06,0,0,0-.29,0,0,0-.31,0,0,0,0,0,0,0h.53c-.11,0-.16,0-.12,0h-.14c-.16,0,.26,0,.09,0h.1a.61.61,0,0,0-.24,0H36s-.26,0-.11,0H36s-.14,0-.06,0H36c.1,0-.2,0-.25,0a1.46,1.46,0,0,0,.33,0h0a1.57,1.57,0,0,0-.27,0c.24,0,.1,0,.23-.05h-.19s-.15,0,0,0h0c.2,0,.15,0,.15,0h-.26c.38,0-.14,0,.2,0l-.13,0H36s.06,0,0,0h.11s-.41,0-.42,0h.21s.18,0,0,0H36s.14,0-.15,0c.19,0,0,0-.06,0h-.06c.07,0-.13,0-.06,0h.09s0,0-.14,0,0,0,.16,0h-.05c.09,0-.16,0,0,0h.39l-.24,0H36c.11,0,.06,0,.07,0h-.2c-.07,0-.13,0-.06,0H36a1.57,1.57,0,0,0-.32,0h.18a.58.58,0,0,0-.21,0c.08,0,.17,0,.14,0h.06c.29,0-.47,0-.1-.06h-.06c.17,0-.16-.05.11-.07.05,0-.07,0-.16,0h0c-.13,0,.37,0,.13,0h-.1s-.06,0,.06,0h.22l-.29,0h-.78c-.1,0,0,0,0,0h-.13a2.4,2.4,0,0,0,.27,0h-.07c-.13,0,0,0-.19,0h.19a2.91,2.91,0,0,1-.3,0,1.43,1.43,0,0,1,.24,0h.18c-.19,0-.23,0-.42,0h.08c.24,0,0,0,.19,0-.12,0-.23,0-.16,0Zm.42.17Zm0,0h0s.1,0,.1,0A.33.33,0,0,0,35,20.39Zm1,0s0,0,0,0h0Z"/><path class="cls-2" d="M35.81,20.36h0Z"/><path class="cls-2" d="M35.59,21.64h0Z"/><polygon class="cls-2" points="34.75 20.59 34.78 20.59 34.75 20.58 34.75 20.59"/><path class="cls-2" d="M35.11,21.72h0Z"/><path class="cls-2" d="M35.08,21.75h0Z"/><path class="cls-2" d="M35,21.78h0Z"/><path class="cls-2" d="M34.84,21.37Z"/><path class="cls-2" d="M35.17,21.49h0Z"/><polygon class="cls-2" points="34.68 21.23 34.68 21.23 34.68 21.23 34.68 21.23"/><path class="cls-2" d="M35.11,21.48s0,0,0,0S35.13,21.48,35.11,21.48Z"/><path class="cls-2" d="M34.94,21.89Z"/><path class="cls-2" d="M35,21.89h0Z"/><path class="cls-2" d="M35,21.9h0S35,21.9,35,21.9Z"/><path class="cls-2" d="M35,21.86h0Z"/><path class="cls-2" d="M35,21.85s-.1,0-.07,0h0C34.88,21.85,35.08,21.85,35,21.85Z"/><path class="cls-2" d="M35.62,21.81h.1C35.89,21.8,35.6,21.82,35.62,21.81Z"/><path class="cls-2" d="M35.7,21.78h0Z"/><path class="cls-2" d="M35.7,21.58h0Z"/><polygon class="cls-2" points="35.04 21.54 34.96 21.55 35.08 21.55 35.04 21.54"/><polygon class="cls-2" points="35.95 21.52 35.97 21.53 35.93 21.52 35.95 21.52"/><path class="cls-2" d="M35.91,21.2h0Z"/><path class="cls-2" d="M35.75,21.05c.08,0,.13,0,0,0Z"/><polygon class="cls-2" points="36.01 20.63 36.06 20.63 36.02 20.63 36.01 20.63"/><path class="cls-2" d="M30.14,24.06s-.1.1-.07.1l.12-.12Z"/><path class="cls-2" d="M30,24.37a1.13,1.13,0,0,0,.26-.27l-.21.19s0-.06.05-.11,0,0-.07,0-.05.13,0,.07S30,24.34,30,24.37Z"/><path class="cls-2" d="M31.31,25.48v0Z"/><path class="cls-2" d="M32.27,26s0,0,0,0Z"/><path class="cls-2" d="M32.39,26.19h0Z"/><path class="cls-2" d="M31.31,25.48v.06S31.32,25.5,31.31,25.48Z"/><path class="cls-2" d="M30.44,24.19l0,0h0Z"/><path class="cls-2" d="M30.83,25.39h0l0,.06Z"/><path class="cls-2" d="M30.5,25.22a1.27,1.27,0,0,0,.11-.16l-.06.08Z"/><path class="cls-2" d="M30.16,24.69h0Z"/><path class="cls-2" d="M31.05,25.54l0,0Z"/><path class="cls-2" d="M40.21,24l0,0Z"/><polygon class="cls-2" points="40.93 24.36 40.93 24.37 40.98 24.43 40.93 24.36"/><path class="cls-2" d="M32.68,26.45Z"/><path class="cls-2" d="M35.82,26.64c0-.12,0-.16,0-.3C35.82,26.39,35.78,26.56,35.82,26.64Z"/><path class="cls-2" d="M30.44,24.21h0Z"/><polygon class="cls-2" points="35.81 26.34 35.81 26.34 35.8 26.33 35.81 26.34"/><path class="cls-2" d="M33.48,26.54v-.06A.11.11,0,0,0,33.48,26.54Z"/><path class="cls-2" d="M32.94,26.23v0S32.94,26.23,32.94,26.23Z"/><path class="cls-2" d="M33.81,26.39s0,0,0,0h0S33.81,26.41,33.81,26.39Z"/><polygon class="cls-2" points="34.12 26.43 34.11 26.4 34.1 26.4 34.12 26.43"/><path class="cls-2" d="M39.52,24.49l.07.11C39.54,24.51,39.56,24.46,39.52,24.49Z"/><path class="cls-2" d="M30.4,24.26l0-.05h0Z"/><path class="cls-2" d="M34,25.29l0,0A.05.05,0,0,0,34,25.29Z"/><path class="cls-2" d="M37.64,25.2v0S37.64,25.18,37.64,25.2Z"/><path class="cls-2" d="M34.14,25.31a.22.22,0,0,0,0,.1v0Z"/><path class="cls-2" d="M39.59,24.6Z"/><path class="cls-2" d="M39.69,24.17s.07.17.12.26-.09-.1-.15-.18.06.22,0,.22l0-.06c0,.14-.08.05,0,.23l0,0c0,.08.09.16.12.22s0,.12,0,0,0-.05,0-.08v0c-.1-.14,0-.06-.06-.18,0,.07,0,.22,0,.19s0-.08-.06-.2l.07,0c-.16-.23,0,0-.13-.24-.07,0,0,.11-.09.09a1.89,1.89,0,0,0,.09.21c0,.19-.25-.35-.21-.12s.12.31,0,.22l-.06-.18c-.06,0,.08.27,0,.17s0-.07,0-.09,0,.11,0,.12l-.08-.15s-.06.19-.11.24a.84.84,0,0,0-.06-.14c0,.11-.18.05-.3,0l0,.15a.34.34,0,0,1,0-.08c-.05-.05,0,.08,0,.14s-.05-.07-.05-.11c0,.13-.07.3-.18.18V25c-.07,0,0,.3,0,.19v0c-.12,0-.19.14-.33-.06,0,.21-.12-.06-.05.22-.1-.12-.09-.18-.2-.25s0,.19,0,.22l0-.14v.16l-.06-.17,0,0a.28.28,0,0,1,.05.11c0,.07-.13-.08-.14-.16l-.07.15a.27.27,0,0,1,0-.13c0,.17,0-.16-.06,0s0,.09,0,.12-.09-.08-.13,0v-.11c-.07,0-.13.08-.21.09a.48.48,0,0,1,0,.25l0-.16c0,.11,0,.06,0,.19a.54.54,0,0,1,0-.24l0,.07s0-.08,0-.14c0,.1-.09-.15-.08,0v0c-.08,0-.11.07-.17.09s0,.11,0,.23c-.06,0-.13-.14-.18-.12s0,.12,0,.21c0-.13-.08-.11-.06-.2s-.09,0-.16.15a.26.26,0,0,1,0,.11s0-.05,0-.11h0c-.07.2-.26-.35-.31-.07v0l-.07.15s0-.1,0-.18c-.07.22-.14,0-.2.13-.07-.37-.19,0-.28-.2v.09c0,.09,0-.05,0-.07s0,.08,0,.13c-.16.11-.34-.13-.5-.21s0,.46-.12.24l0-.16c-.13.19-.25,0-.38.14,0,0,0-.09,0-.09s-.09,0-.1.09,0-.09,0-.14-.07.15-.08,0a.08.08,0,0,1,0-.05c0,.06-.08,0-.07.12,0-.07-.1.05-.12,0,0,.15-.07-.08-.11.14,0-.23,0-.19-.09-.09,0-.07,0-.08,0-.17s-.06,0-.07.15c0-.27-.16.2-.14-.15a1,1,0,0,1-.31.21c0-.23.1,0,.14-.24-.1.07-.19.25-.26.18s0-.09,0-.12-.15-.06-.25,0a.09.09,0,0,1,0-.05s0,0,0,.06l0,0c0,.15-.13.29-.15.37.09-.28-.06-.09.07-.44a.28.28,0,0,0,0,.13s0-.07,0-.14-.08.15-.12.14a.61.61,0,0,1,.05-.12c-.05.09-.1.17-.13.12s0-.07,0-.06-.19.21-.24.1,0-.07,0-.25l0,0,0,.09s-.1.11-.11,0l.05-.07-.08,0,0,.08c-.07.08-.07.22-.1.16s0,0,0-.13h0s-.07.11-.09.06a1.68,1.68,0,0,0,.08-.24c-.06.14-.09,0-.17.16a.53.53,0,0,0,.06-.14l0,.11s0-.06,0-.13-.07.22-.09.11,0,0,0,0-.14,0-.17,0,.06,0,.1-.18c-.08,0-.24.15-.29.08v0c-.11.24,0-.14-.08,0s.07-.13.05-.1-.12,0-.23.05l0-.05c0-.07-.06-.07-.08-.11a.26.26,0,0,0-.08.13c.08-.39-.28.09-.21-.24,0,0,.05,0,.05,0l-.1,0a.58.58,0,0,0-.06.15c0,.06-.08.09-.1.08s.09-.16.11-.22L31,24.9c.07-.2-.12.2-.1.05l0-.05s-.09.08-.1.05.05,0,.11-.14-.19.19-.14.06.05,0,.08,0,0-.12,0-.15h0v0c-.22.27-.1,0-.27.17.16-.15.07-.1.16-.23a.26.26,0,0,1,.05-.12c-.09.09,0-.1-.11,0,0,0,0,0,.05-.12s0,.07-.08.12,0-.23-.17-.08-.21.16-.31.19a.38.38,0,0,1,.12-.13c0-.08,0-.08-.06,0a.63.63,0,0,0,.07-.12s-.12.13-.1.06l.14-.14-.18.09a.55.55,0,0,1,.14-.13.3.3,0,0,0-.21.11v.05s.06-.1.09-.11,0,.06,0,.1h0c-.16.24.1,0,.12.06l-.14.15.14-.11s-.09.15-.13.16.07,0,0,.06,0,0,0,0l.06,0s-.08.12-.08.09c0,.13.17-.07.09.06h0c.1,0,.1-.12.25-.23l-.19.33.09-.12s0,0,0,.08,0-.06.1-.13c-.05.13.12,0,0,.21.07-.09,0-.1.09-.14-.13.22.07,0,0,.11s-.07,0-.11.15c.15-.18,0,.08.09.06s.09,0,.17-.06,0,.13,0,.21l0,0c.1-.15.12-.1.17-.12a.53.53,0,0,1-.12.17h0s.06-.07.09-.07l-.08.11c.05,0,.16-.1.17,0,.06-.11.13-.34.22-.39a1,1,0,0,1-.11.19s0,0,0,0l-.07.09c0,.06.06-.08.07-.06s0,.07-.06.14,0-.05,0,0a.34.34,0,0,1,0,.17.36.36,0,0,1,.08-.13s0,.12,0,.17,0,0,.1-.11,0,.07,0,.11.1,0,.15-.12h0c.13-.1.11.14.2.12l0,0c.07,0,.11,0,.18-.08a.27.27,0,0,1,0,.15c.05,0,.07-.07.09,0s0,.08-.06,0,0,.13.1,0c-.06.12,0,.17,0,.14v-.1a0,0,0,0,1,.06,0l-.07.15c0,.22.28-.27.23.08.06-.1,0-.1,0-.22,0,0,0,.28,0,.28s.13-.21.17-.13a.47.47,0,0,1,.11-.25s0,.25-.07.29,0,0,0,0a.11.11,0,0,0,0,.1l0-.05c0,.06.06.07,0,.16a.1.1,0,0,0,0-.12c0,.09.08,0,.12.1s0-.11,0-.1.06-.1.12-.11-.07.2,0,.14a.39.39,0,0,1-.06.2c.08-.1.07.1.09.13l0,0s0,0,0,0l0-.12a.1.1,0,0,1,0,.08,1.43,1.43,0,0,1,.1-.29c0,.07.07-.05,0,.11,0-.07,0,.15-.09.16s0,0,0,0,0,0,0,0c0,.16.07-.16.13-.14s0,.17,0,.15,0-.15.07-.21.05,0,.07,0v0c0-.09,0-.07.08-.09s0,0,0,.07c.07-.14,0,.18.1.08,0,.07,0,.17,0,.21s0,.13.1.05a.3.3,0,0,1,.06-.2l-.1.07.09-.16s-.07.06-.08,0a.25.25,0,0,0,.05-.16c0,.18.09-.09.1,0l-.06.29c0,.14.14-.12.21,0l0-.05c0-.11.05,0,.09,0a.72.72,0,0,0,0,.2c0-.08.06,0,.1-.18v.13c.06.07.12-.26.17-.22s0,.18-.07.25,0,0,.05-.05.08-.12.08,0c0-.05,0-.15.06-.14a.2.2,0,0,1,0,.05c0-.05.05-.06,0-.17,0,.31.18,0,.2.27a.36.36,0,0,1,.15-.06s0,.05,0,0,.06-.28.11-.17,0,.08,0,.14c0,.32.08,0,.11.16h0c0,.12.09-.11.14-.09v.05a.46.46,0,0,1,.17-.26c0,.13,0,.07,0,.2,0,0,0-.21.05-.24a1.19,1.19,0,0,1,0,.27h0c0,.18,0,0,.08,0v.08c.07,0,.08-.22.15-.21V26.3c0-.2,0,.11.07,0v.2a1.76,1.76,0,0,1,.14-.23,1.21,1.21,0,0,1-.11.31.11.11,0,0,0,.1-.11s0,.06,0,0,.07-.23.12-.22c0,.38.13.09.18.39.09-.15.19.05.3,0-.06-.29,0,0,0-.31,0,0,0,0,0,0l.09.18c0,.08,0,.07,0,.13s0,.13.08.21c0-.11,0-.16,0-.12l0-.14c.06-.16.09.25.15.09l0,.09c0-.05.16,0,.17-.25,0,0,0,.11,0,.14s.18-.29.28-.15v.08s0-.14,0-.07a.28.28,0,0,1,0,.08s0-.14.06-.1v.09c.11.08.12-.23.19-.29a.4.4,0,0,0,.15.31v0c.11,0,.15-.21.23-.32.1.23.22.06.35.17a.41.41,0,0,1,0-.19s0-.16.07,0h0c.06.19.1.13.14.13l-.06-.26c.19.35.22-.2.36.13,0-.07,0-.08,0-.15l0,.14a.22.22,0,0,0,.19,0v.1s-.06-.41,0-.43l.07.2c.08,0,.21.13.23-.08,0,0,0,.09,0,.1s.19.09.09-.18c.06.18.08,0,.1-.1l0,.13c0-.18,0-.22,0-.29s0,.1,0,.08,0-.14,0-.08l0,.09s0-.05,0-.16.09,0,.14.12c0-.07,0-.17,0-.15a.2.2,0,0,1,0,.09c.1.06,0-.19.13-.08a.27.27,0,0,0,0,.08s-.1,0-.1,0,.1.13.13.3c0-.1,0-.32,0-.28l0,0v0s0,0,0,0l0,0c.05.09.07,0,.09,0s0-.12-.09-.22,0,0,0,0v0h0l0,0c0-.08,0-.14,0-.08l-.07-.22c.11.17.2.25.26.35,0-.1.13-.11.05-.37,0,0,.06.06.08.09s0,0,0,.07.09-.07,0-.24c.08.05.05.16.09.11l0,.05c.25.21,0-.51.28-.24l0,0c.23.07.22-.3.49-.16.07,0,0-.08,0-.17l.09.12-.06-.17c0-.14.31.25.24,0l-.06-.08s0-.11.11,0-.06-.09,0-.05l0,.06,0-.15c.09,0,.18.26.26.22a.59.59,0,0,0-.1-.28s-.06,0-.11-.08v-.05a1.66,1.66,0,0,0-.41-.48l0,.14-.08-.09,0,0c-.08-.08,0,0,0,.07l-.09-.09.09.2c0-.07-.09-.16-.14-.18s.14.16.15.23-.13-.15-.09-.06a.38.38,0,0,1-.07-.11c0,.07,0,.06,0,.17-.09-.1,0,.07-.16-.11a.49.49,0,0,1,.05.18c-.11-.24-.08,0-.22-.21.1.21,0,.14,0,.27s0-.05,0,0-.08-.06-.12-.09a1.18,1.18,0,0,1,.13.35c-.13-.15-.1-.21-.2-.36.08.13,0,.16.1.27a.9.9,0,0,1-.14-.17c.12.22,0,.05.06.19-.1-.09-.12-.2-.12-.11A.28.28,0,0,1,39.69,24.17ZM39,25h0Zm-.08,0h0c0,.05,0,.09,0,.09S38.93,25,38.91,25Zm.54.83s0,0,0,0,0,0,0,0v0Z"/><polygon class="cls-2" points="39.4 25.66 39.41 25.65 39.38 25.62 39.4 25.66 39.4 25.66"/><path class="cls-2" d="M31.31,25.46h0v0Z"/><polygon class="cls-2" points="37.72 25.11 37.73 25.14 37.73 25.11 37.72 25.11"/><path class="cls-2" d="M31.1,24.81s0,0,0,0Z"/><path class="cls-2" d="M30.94,24.68v0Z"/><path class="cls-2" d="M30.84,24.54l0,0h0Z"/><path class="cls-2" d="M33.15,25.31h0S33.16,25.29,33.15,25.31Z"/><path class="cls-2" d="M32.35,25.42l0-.05S32.38,25.35,32.35,25.42Z"/><polygon class="cls-2" points="33.97 25.29 33.96 25.29 33.97 25.29 33.97 25.29"/><path class="cls-2" d="M32.43,25.38s0,0,0,0S32.41,25.4,32.43,25.38Z"/><polygon class="cls-2" points="30.35 24.1 30.35 24.09 30.33 24.11 30.35 24.1"/><path class="cls-2" d="M30.33,24.11h0Z"/><path class="cls-2" d="M30.28,24.13h0S30.31,24.1,30.28,24.13Z"/><path class="cls-2" d="M30.46,24.27l0,0Z"/><path class="cls-2" d="M30.52,24.3s0-.11,0-.1l0,0C30.55,24.18,30.46,24.36,30.52,24.3Z"/><path class="cls-2" d="M30.38,25l0-.07c0,.05-.06.12-.08.12C30.24,25.19,30.33,24.91,30.38,25Z"/><path class="cls-2" d="M30.49,25.13s0,.07-.06.09A.11.11,0,0,0,30.49,25.13Z"/><path class="cls-2" d="M31.63,25.72l-.06.12S31.59,25.79,31.63,25.72Z"/><polygon class="cls-2" points="32.09 25.19 32.1 25.11 32.05 25.22 32.09 25.19"/><polygon class="cls-2" points="31.9 26.1 31.89 26.11 31.94 26.08 31.9 26.1"/><path class="cls-2" d="M34.05,26.54v-.15S34,26.59,34.05,26.54Z"/><path class="cls-2" d="M35,26.44c0,.08,0,.13,0,.06S35,26.42,35,26.44Z"/><polygon class="cls-2" points="37.78 26.39 37.78 26.45 37.8 26.4 37.78 26.39"/></g></g></svg>